<svg width="48" height="48" viewBox="0 0 48 48" fill="none" xmlns="http://www.w3.org/2000/svg">
<g clip-path="url(#clip0_5226_11687)">
<path d="M10.1934 16.4048C10.1934 20.0659 11.6477 23.5771 14.2365 26.1659C16.8253 28.7547 20.3365 30.2091 23.9976 30.2091C27.6587 30.2091 31.1699 28.7547 33.7587 26.1659C36.3475 23.5771 37.8019 20.0659 37.8019 16.4048C37.8019 12.7437 36.3475 9.23255 33.7587 6.64376C31.1699 4.05496 27.6587 2.60059 23.9976 2.60059C20.3365 2.60059 16.8253 4.05496 14.2365 6.64376C11.6477 9.23255 10.1934 12.7437 10.1934 16.4048Z" stroke="#2342A7" stroke-width="2.95805" stroke-linecap="round" stroke-linejoin="round"/>
<path d="M23.998 31.6132L31.7981 45.9854L35.4641 38.0965L43.7184 38.6626L35.9183 24.293" stroke="#2342A7" stroke-width="2.95805" stroke-linecap="round" stroke-linejoin="round"/>
<path d="M12.0774 24.293L4.27734 38.6667L12.5316 38.0981L16.1976 45.9854L23.9977 31.6141" stroke="#2342A7" stroke-width="2.95805" stroke-linecap="round" stroke-linejoin="round"/>
</g>
<defs>
<clipPath id="clip0_5226_11687">
<rect width="48" height="48" fill="white"/>
</clipPath>
</defs>
</svg>
