<svg xmlns="http://www.w3.org/2000/svg" width="46" height="46" viewBox="0 0 46 46" fill="none">
    <g clip-path="url(#clip0_5226_11071)">
        <path
            d="M9.58398 34.4999V22.9999C9.58398 19.9499 10.7956 17.0249 12.9523 14.8682C15.1089 12.7115 18.034 11.4999 21.084 11.4999H24.9173C27.9673 11.4999 30.8924 12.7115 33.049 14.8682C35.2057 17.0249 36.4173 19.9499 36.4173 22.9999V34.4999C36.4173 36.0249 35.8115 37.4875 34.7332 38.5658C33.6548 39.6441 32.1923 40.2499 30.6673 40.2499H15.334C13.809 40.2499 12.3465 39.6441 11.2681 38.5658C10.1898 37.4875 9.58398 36.0249 9.58398 34.4999Z"
            stroke="#2342A7" stroke-width="2.74" stroke-linecap="round" stroke-linejoin="round" />
        <path
            d="M19.166 11.5V9.58333C19.166 8.56667 19.5699 7.59165 20.2888 6.87276C21.0077 6.15387 21.9827 5.75 22.9993 5.75C24.016 5.75 24.991 6.15387 25.7099 6.87276C26.4288 7.59165 26.8327 8.56667 26.8327 9.58333V11.5"
            stroke="#2342A7" stroke-width="2.74" stroke-linecap="round" stroke-linejoin="round" />
        <path
            d="M17.25 40.2499V32.5833C17.25 31.5666 17.6539 30.5916 18.3728 29.8727C19.0916 29.1538 20.0667 28.7499 21.0833 28.7499H24.9167C25.9333 28.7499 26.9084 29.1538 27.6272 29.8727C28.3461 30.5916 28.75 31.5666 28.75 32.5833V40.2499"
            stroke="#2342A7" stroke-width="2.74" stroke-linecap="round" stroke-linejoin="round" />
    </g>
    <defs>
        <clipPath id="clip0_5226_11071">
            <rect width="46" height="46" fill="white" />
        </clipPath>
    </defs>
</svg>