<svg width="46" height="46" viewBox="0 0 46 46" fill="none" xmlns="http://www.w3.org/2000/svg">
<g clip-path="url(#clip0_5205_5335)">
<path d="M32.5837 15.3334V13.4167C32.5837 11.2988 30.8682 9.58335 28.7503 9.58335H27.792C27.263 9.58335 26.8337 9.15402 26.8337 8.62502C26.8337 8.09602 26.4043 7.66669 25.8753 7.66669H20.1253C19.5963 7.66669 19.167 8.09602 19.167 8.62502C19.167 9.15402 18.7377 9.58335 18.2087 9.58335H17.2503C15.1324 9.58335 13.417 11.2988 13.417 13.4167V34.5C13.417 36.6179 15.1324 38.3334 17.2503 38.3334H19.167" stroke="#2342A7" stroke-width="2.7381" stroke-linecap="round" stroke-linejoin="round"/>
<path d="M23 26.8333H34.5V30.6666C34.5 31.6833 34.0961 32.6583 33.3772 33.3772C32.6584 34.0961 31.6833 34.5 30.6667 34.5H26.8333C25.8167 34.5 24.8416 34.0961 24.1228 33.3772C23.4039 32.6583 23 31.6833 23 30.6666V26.8333Z" stroke="#2342A7" stroke-width="2.7381" stroke-linecap="round" stroke-linejoin="round"/>
<path d="M28.75 40.25V34.5" stroke="#2342A7" stroke-width="2.7381" stroke-linecap="round" stroke-linejoin="round"/>
<path d="M24.917 26.8334V22.0417" stroke="#2342A7" stroke-width="2.7381" stroke-linecap="round" stroke-linejoin="round"/>
<path d="M32.583 26.8334V22.0417" stroke="#2342A7" stroke-width="2.7381" stroke-linecap="round" stroke-linejoin="round"/>
</g>
<defs>
<clipPath id="clip0_5205_5335">
<rect width="46" height="46" fill="white"/>
</clipPath>
</defs>
</svg>
