<svg width="46" height="46" viewBox="0 0 46 46" fill="none" xmlns="http://www.w3.org/2000/svg">
<g clip-path="url(#clip0_5226_11492)">
<path d="M30.6667 13.4167H32.5833C33.6 13.4167 34.575 13.8206 35.2939 14.5395C36.0128 15.2584 36.4167 16.2334 36.4167 17.2501V18.2084C36.4167 18.4626 36.5176 18.7063 36.6974 18.8861C36.8771 19.0658 37.1208 19.1667 37.375 19.1667C37.6292 19.1667 37.8729 19.2677 38.0526 19.4474C38.2324 19.6272 38.3333 19.8709 38.3333 20.1251V25.8751C38.3333 26.1292 38.2324 26.373 38.0526 26.5527C37.8729 26.7324 37.6292 26.8334 37.375 26.8334C37.1208 26.8334 36.8771 26.9344 36.6974 27.1141C36.5176 27.2938 36.4167 27.5376 36.4167 27.7917V28.7501C36.4167 29.7667 36.0128 30.7418 35.2939 31.4607C34.575 32.1795 33.6 32.5834 32.5833 32.5834H28.75" stroke="#2342A7" stroke-width="2.74" stroke-linecap="round" stroke-linejoin="round"/>
<path d="M15.3327 13.4167H11.4993C10.4827 13.4167 9.50766 13.8206 8.78877 14.5395C8.06988 15.2584 7.66602 16.2334 7.66602 17.2501V28.7501C7.66602 29.7667 8.06988 30.7418 8.78877 31.4607C9.50766 32.1795 10.4827 32.5834 11.4993 32.5834H13.416" stroke="#2342A7" stroke-width="2.74" stroke-linecap="round" stroke-linejoin="round"/>
<path d="M22.9993 15.3333L19.166 22.9999H24.916L21.0827 30.6666" stroke="#2342A7" stroke-width="2.74" stroke-linecap="round" stroke-linejoin="round"/>
</g>
<defs>
<clipPath id="clip0_5226_11492">
<rect width="46" height="46" fill="white"/>
</clipPath>
</defs>
</svg>
