<svg xmlns="http://www.w3.org/2000/svg" width="46" height="46" viewBox="0 0 46 46" fill="none">
    <path d="M23 13.4167V40.25" stroke="#2342A7" stroke-width="2.74" stroke-linecap="round"
        stroke-linejoin="round" />
    <path
        d="M5.75065 34.5C5.24232 34.5 4.75481 34.2981 4.39536 33.9386C4.03592 33.5792 3.83398 33.0917 3.83398 32.5833V7.66667C3.83398 7.15834 4.03592 6.67082 4.39536 6.31138C4.75481 5.95193 5.24232 5.75 5.75065 5.75H15.334C17.3673 5.75 19.3174 6.55774 20.7551 7.99551C22.1929 9.43329 23.0007 11.3833 23.0007 13.4167C23.0007 11.3833 23.8084 9.43329 25.2462 7.99551C26.6839 6.55774 28.634 5.75 30.6673 5.75H40.2506C40.759 5.75 41.2465 5.95193 41.6059 6.31138C41.9654 6.67082 42.1673 7.15834 42.1673 7.66667V32.5833C42.1673 33.0917 41.9654 33.5792 41.6059 33.9386C41.2465 34.2981 40.759 34.5 40.2506 34.5H28.7507C27.2257 34.5 25.7631 35.1058 24.6848 36.1841C23.6065 37.2625 23.0007 38.725 23.0007 40.25C23.0007 38.725 22.3948 37.2625 21.3165 36.1841C20.2382 35.1058 18.7756 34.5 17.2507 34.5H5.75065Z"
        stroke="#2342A7" stroke-width="2.74" stroke-linecap="round" stroke-linejoin="round" />
</svg>