<svg xmlns="http://www.w3.org/2000/svg" width="50" height="50" viewBox="0 0 50 50" fill="none">
    <g clip-path="url(#clip0_5226_11144)">
        <path
            d="M6.25 25H8.33333M25 6.25V8.33333M41.6667 25H43.75M11.6667 11.6667L13.125 13.125M38.3333 11.6667L36.875 13.125"
            stroke="#2342A7" stroke-width="3" stroke-linecap="round" stroke-linejoin="round" />
        <path
            d="M18.7507 33.3333C17.0016 32.0215 15.7097 30.1927 15.0578 28.1058C14.4059 26.019 14.4272 23.78 15.1185 21.7059C15.8099 19.6318 17.1363 17.8278 18.9099 16.5495C20.6835 15.2711 22.8144 14.5833 25.0007 14.5833C27.1869 14.5833 29.3178 15.2711 31.0914 16.5495C32.865 17.8278 34.1914 19.6318 34.8828 21.7059C35.5741 23.78 35.5954 26.019 34.9435 28.1058C34.2916 30.1927 32.9997 32.0215 31.2507 33.3333C30.4373 34.1384 29.8248 35.1238 29.4629 36.2095C29.101 37.2953 28.9997 38.4511 29.1673 39.5833C29.1673 40.6883 28.7283 41.7481 27.9469 42.5295C27.1655 43.3109 26.1057 43.7499 25.0007 43.7499C23.8956 43.7499 22.8358 43.3109 22.0544 42.5295C21.273 41.7481 20.834 40.6883 20.834 39.5833C21.0016 38.4511 20.9003 37.2953 20.5384 36.2095C20.1765 35.1238 19.5641 34.1384 18.7507 33.3333Z"
            stroke="#2342A7" stroke-width="3" stroke-linecap="round" stroke-linejoin="round" />
        <path d="M20.209 35.4167H29.7923" stroke="#2342A7" stroke-width="3" stroke-linecap="round"
            stroke-linejoin="round" />
    </g>
    <defs>
        <clipPath id="clip0_5226_11144">
            <rect width="50" height="50" fill="white" />
        </clipPath>
    </defs>
</svg>