<svg width="50" height="50" viewBox="0 0 50 50" fill="none" xmlns="http://www.w3.org/2000/svg">
<path d="M37.4997 4.16675H12.4997C10.1985 4.16675 8.33301 6.03223 8.33301 8.33342V41.6668C8.33301 43.9679 10.1985 45.8334 12.4997 45.8334H37.4997C39.8009 45.8334 41.6663 43.9679 41.6663 41.6668V8.33342C41.6663 6.03223 39.8009 4.16675 37.4997 4.16675Z" stroke="#2342A7" stroke-width="3" stroke-linecap="round" stroke-linejoin="round"/>
<path d="M18.75 45.8333V37.5H31.25V45.8333" stroke="#2342A7" stroke-width="3" stroke-linecap="round" stroke-linejoin="round"/>
<path d="M16.667 12.5H16.6878" stroke="#2342A7" stroke-width="3" stroke-linecap="round" stroke-linejoin="round"/>
<path d="M33.333 12.5H33.3538" stroke="#2342A7" stroke-width="3" stroke-linecap="round" stroke-linejoin="round"/>
<path d="M25 12.5H25.0208" stroke="#2342A7" stroke-width="3" stroke-linecap="round" stroke-linejoin="round"/>
<path d="M25 20.8333H25.0208" stroke="#2342A7" stroke-width="3" stroke-linecap="round" stroke-linejoin="round"/>
<path d="M25 29.1667H25.0208" stroke="#2342A7" stroke-width="3" stroke-linecap="round" stroke-linejoin="round"/>
<path d="M33.333 20.8333H33.3538" stroke="#2342A7" stroke-width="3" stroke-linecap="round" stroke-linejoin="round"/>
<path d="M33.333 29.1667H33.3538" stroke="#2342A7" stroke-width="3" stroke-linecap="round" stroke-linejoin="round"/>
<path d="M16.667 20.8333H16.6878" stroke="#2342A7" stroke-width="3" stroke-linecap="round" stroke-linejoin="round"/>
<path d="M16.667 29.1667H16.6878" stroke="#2342A7" stroke-width="3" stroke-linecap="round" stroke-linejoin="round"/>
</svg>
