<svg width="53" height="52" viewBox="0 0 53 52" fill="none" xmlns="http://www.w3.org/2000/svg">
<path d="M26.8599 10.0996C32.3595 10.2397 36.5698 14.9584 36.4711 20.4127C36.4248 21.6588 36.1524 22.8436 35.6917 23.9291H45.3147C46.3724 23.9291 47.2967 24.6499 47.5603 25.6801L52.944 46.7381C53.228 47.847 52.3964 48.9268 51.2605 48.9268H36.3493C33.8545 48.9268 31.4206 49.6942 29.372 51.13C27.7465 52.271 24.2752 52.3089 22.6526 51.13C20.6823 49.7029 18.3033 48.9268 15.8781 48.9268H1.74054C0.622087 48.9268 -0.206625 47.8762 0.0454304 46.779L4.88723 25.7359C5.13352 24.6795 6.06947 23.9295 7.14735 23.9295H17.5152C17.0516 22.8322 16.7792 21.6358 16.7357 20.3781C16.643 14.7401 21.2651 10.0271 26.8599 10.0996ZM34.3326 26.2256C33.4575 27.3316 32.3564 28.2449 31.096 28.8957V30.349C31.096 31.6388 30.0587 32.6835 28.7779 32.6835H27.0887V49.5887C27.4306 49.542 27.7609 49.4165 28.0478 49.2151C30.4817 47.505 33.3793 46.5917 36.349 46.5917H50.5125L45.3143 26.2635H34.3323L34.3326 26.2256ZM2.46807 46.5918H15.8779C18.7929 46.5918 21.644 47.5227 24.0056 49.2357C24.2345 49.4021 24.4953 49.5071 24.7705 49.5713V32.6841H23.5622C22.2815 32.6841 21.2442 31.6394 21.2442 30.3496V28.3915C20.3546 27.8107 19.5665 27.0928 18.9059 26.2641H7.1472L2.46807 46.5918ZM16.6575 39.1041C17.2979 39.1041 17.8166 39.6264 17.8166 40.2714C17.8166 40.9163 17.2979 41.4386 16.6575 41.4386H10.2828C9.64248 41.4386 9.12382 40.9163 9.12382 40.2714C9.12382 39.6264 9.64248 39.1041 10.2828 39.1041H16.6575ZM41.5768 39.1041C42.2171 39.1041 42.7358 39.6264 42.7358 40.2714C42.7358 40.9163 42.2171 41.4386 41.5768 41.4386H35.2021C34.5617 41.4386 34.0431 40.9163 34.0431 40.2714C34.0431 39.6264 34.5617 39.1041 35.2021 39.1041H41.5768ZM16.6575 32.1004C17.2979 32.1004 17.8166 32.6228 17.8166 33.2677C17.8166 33.9126 17.2979 34.435 16.6575 34.435H12.0214C11.3811 34.435 10.8624 33.9126 10.8624 33.2677C10.8624 32.6228 11.3811 32.1004 12.0214 32.1004H16.6575ZM39.8381 32.1004C40.4784 32.1004 40.9971 32.6228 40.9971 33.2677C40.9971 33.9126 40.4784 34.435 39.8381 34.435H35.202C34.5616 34.435 34.0429 33.9126 34.0429 33.2677C34.0429 32.6228 34.5616 32.1004 35.202 32.1004H39.8381ZM19.0535 20.2992C19.1404 22.9547 20.5805 25.2659 22.7044 26.5587C23.2115 26.8651 23.5621 27.4283 23.5621 28.0761V30.3494H28.7776V28.5401C28.7776 27.6909 29.3398 27.1627 30.0381 26.8184C32.4083 25.5986 34.0512 23.159 34.1526 20.3254C34.228 16.1524 31.0088 12.5426 26.7986 12.435C22.5189 12.3854 18.9778 15.9776 19.0535 20.2992ZM12.1805 16.9258C12.8208 16.9258 13.3395 17.4481 13.3395 18.093C13.3395 18.738 12.8208 19.2603 12.1805 19.2603H8.12383C7.48346 19.2603 6.9648 18.738 6.9648 18.093C6.9648 17.4481 7.48346 16.9258 8.12383 16.9258H12.1805ZM45.053 16.9258C45.6934 16.9258 46.2121 17.4481 46.2121 18.093C46.2121 18.738 45.6934 19.2603 45.053 19.2603H40.9964C40.3561 19.2603 39.8374 18.738 39.8374 18.093C39.8374 17.4481 40.3561 16.9258 40.9964 16.9258H45.053ZM12.9682 5.33443C13.4202 4.87919 14.1563 4.87919 14.6082 5.33443L17.4768 8.22345C17.9288 8.68161 17.9288 9.41994 17.4768 9.87512C17.0248 10.3303 16.2888 10.3304 15.8368 9.87512L12.9682 6.9861C12.5162 6.53087 12.5162 5.79253 12.9682 5.33443ZM38.5684 5.33443C39.0205 4.87919 39.7565 4.87919 40.2084 5.33443C40.6604 5.79259 40.6604 6.53092 40.2084 6.9861L37.3398 9.87512C36.8878 10.3304 36.1518 10.3304 35.6998 9.87512C35.2479 9.41988 35.2478 8.68155 35.6998 8.22345L38.5684 5.33443ZM26.5086 0C27.149 0 27.6676 0.522357 27.6676 1.16728V5.25278C27.6676 5.8977 27.149 6.42006 26.5086 6.42006C25.8683 6.42006 25.3496 5.8977 25.3496 5.25278V1.16728C25.3496 0.522357 25.8683 0 26.5086 0Z" fill="#2342A7"/>
</svg>
