<svg xmlns="http://www.w3.org/2000/svg" width="46" height="46" viewBox="0 0 46 46" fill="none">
    <g clip-path="url(#clip0_5226_11056)">
        <path d="M15.334 40.2499H30.6673" stroke="#2342A7" stroke-width="2.74"
            stroke-linecap="round" stroke-linejoin="round" />
        <path d="M23 32.5833V40.25" stroke="#2342A7" stroke-width="2.74" stroke-linecap="round"
            stroke-linejoin="round" />
        <path d="M13.416 7.66663H32.5827" stroke="#2342A7" stroke-width="2.74"
            stroke-linecap="round" stroke-linejoin="round" />
        <path
            d="M32.5827 7.66663V23C32.5827 25.5416 31.573 27.9792 29.7758 29.7764C27.9786 31.5736 25.541 32.5833 22.9993 32.5833C20.4577 32.5833 18.0201 31.5736 16.2229 29.7764C14.4257 27.9792 13.416 25.5416 13.416 23V7.66663"
            stroke="#2342A7" stroke-width="2.74" stroke-linecap="round" stroke-linejoin="round" />
        <path
            d="M5.75 17.25C5.75 18.2667 6.15387 19.2417 6.87276 19.9606C7.59165 20.6795 8.56667 21.0834 9.58333 21.0834C10.6 21.0834 11.575 20.6795 12.2939 19.9606C13.0128 19.2417 13.4167 18.2667 13.4167 17.25C13.4167 16.2334 13.0128 15.2583 12.2939 14.5394C11.575 13.8206 10.6 13.4167 9.58333 13.4167C8.56667 13.4167 7.59165 13.8206 6.87276 14.5394C6.15387 15.2583 5.75 16.2334 5.75 17.25Z"
            stroke="#2342A7" stroke-width="2.74" stroke-linecap="round" stroke-linejoin="round" />
        <path
            d="M32.584 17.25C32.584 18.2667 32.9879 19.2417 33.7067 19.9606C34.4256 20.6795 35.4007 21.0834 36.4173 21.0834C37.434 21.0834 38.409 20.6795 39.1279 19.9606C39.8468 19.2417 40.2507 18.2667 40.2507 17.25C40.2507 16.2334 39.8468 15.2583 39.1279 14.5394C38.409 13.8206 37.434 13.4167 36.4173 13.4167C35.4007 13.4167 34.4256 13.8206 33.7067 14.5394C32.9879 15.2583 32.584 16.2334 32.584 17.25Z"
            stroke="#2342A7" stroke-width="2.74" stroke-linecap="round" stroke-linejoin="round" />
    </g>
    <defs>
        <clipPath id="clip0_5226_11056">
            <rect width="46" height="46" fill="white" />
        </clipPath>
    </defs>
</svg>