<svg width="40" height="40" viewBox="0 0 40 40" fill="none" xmlns="http://www.w3.org/2000/svg">
<path d="M6.11505 20.6664C5.36794 20.6664 4.73539 21.1922 4.67548 21.8664C4.64164 22.2517 4.76139 22.6187 5.01649 22.8999C5.269 23.181 5.63083 23.3398 6.00311 23.3398H14.781L1.06772 37.0611C0.547089 37.5817 0.547089 38.4278 1.06772 38.9458C1.58835 39.4664 2.46037 39.4377 2.95237 38.9458L16.6656 25.2325V33.8957C16.6656 34.6428 17.1915 35.2754 17.8657 35.3353C18.2588 35.3691 18.6128 35.2546 18.8992 34.9943C19.1803 34.7418 19.3391 34.3799 19.3391 34.0077V24.678C19.3391 22.4732 17.5455 20.6796 15.3407 20.6796H6.12563L6.11505 20.6664Z" fill="#2342A7"/>
<path d="M19.3284 10.6703C18.5943 10.6703 17.9956 11.269 17.9956 12.0031C17.9956 12.7372 18.5943 13.3359 19.3284 13.3359C23.3737 13.3359 26.6589 16.6211 26.6589 20.6663C26.6589 21.4005 27.2576 21.9992 27.9917 21.9992C28.7257 21.9992 29.3245 21.4004 29.3245 20.6663C29.3245 15.1555 24.8392 10.6703 19.3284 10.6703Z" fill="#2342A7"/>
<path d="M19.9949 0.00780307H19.8622C19.2036 0.00780307 18.6621 0.575286 18.6621 1.25991V1.42651C18.6621 1.7519 18.7897 2.05908 19.0213 2.29337C19.2686 2.54067 19.6018 2.67343 19.9611 2.67343C29.538 2.67343 37.3216 10.4437 37.3216 19.9999C37.3216 20.3722 37.4544 20.7002 37.7016 20.9475C37.9489 21.1948 38.2743 21.3328 38.6206 21.3328H38.7351C39.4223 21.3328 39.982 20.7939 39.9872 20.1327V19.9921C39.9872 8.97046 31.0167 0.00799685 19.9951 0L19.9949 0.00780307Z" fill="#2342A7"/>
<path d="M1.47597 12.6615C2.15017 12.5938 2.66823 11.9612 2.66823 11.2219V8.67086C2.66823 7.1975 3.86049 6.00524 5.33384 6.00524H7.8849C8.63201 6.00524 9.26456 5.47941 9.32447 4.80518C9.35831 4.41992 9.23857 4.05288 8.98346 3.77172C8.73095 3.49058 8.36912 3.33179 7.99685 3.33179H5.33123C2.39226 3.33179 0 5.72405 0 8.66302V11.3286C0 11.7009 0.158791 12.0627 0.439933 12.3152C0.721076 12.5756 1.08551 12.6875 1.47339 12.6563L1.47597 12.6615Z" fill="#2342A7"/>
<path d="M35.1813 30.6704C34.5071 30.7381 33.989 31.3707 33.989 32.11V34.661C33.989 36.1344 32.7967 37.3267 31.3234 37.3267H28.7723C28.0252 37.3267 27.3927 37.8525 27.3328 38.5267C27.2989 38.912 27.4187 39.2738 27.6738 39.5602C27.9263 39.8413 28.2881 40.0001 28.6604 40.0001H31.326C34.265 40.0001 36.6572 37.6079 36.6572 34.6689V32.0033C36.6572 31.631 36.4984 31.2691 36.2173 31.0166C35.9362 30.7641 35.5769 30.6444 35.1838 30.6756L35.1813 30.6704Z" fill="#2342A7"/>
</svg>
