<svg width="46" height="46" viewBox="0 0 46 46" fill="none" xmlns="http://www.w3.org/2000/svg">
<path d="M30.6672 3.8335L26.2589 8.24183C25.2054 9.31667 24.6152 10.7618 24.6152 12.2668C24.6152 13.7719 25.2054 15.217 26.2589 16.2918L29.7089 19.7418C30.7838 20.7954 32.2288 21.3855 33.7339 21.3855C35.239 21.3855 36.6841 20.7954 37.7589 19.7418L42.1672 15.3335" stroke="#2342A7" stroke-width="2.74" stroke-linecap="round" stroke-linejoin="round"/>
<path d="M28.7494 28.7502L6.32438 6.3252C5.5594 7.07472 4.95167 7.96935 4.53679 8.95669C4.1219 9.94403 3.9082 11.0042 3.9082 12.0752C3.9082 13.1462 4.1219 14.2064 4.53679 15.1937C4.95167 16.181 5.5594 17.0757 6.32438 17.8252L20.316 31.8169C21.6577 33.1585 24.1494 33.1585 25.6827 31.8169L28.7494 28.7502ZM28.7494 28.7502L42.166 42.1669" stroke="#2342A7" stroke-width="2.74" stroke-linecap="round" stroke-linejoin="round"/>
<path d="M4.02539 41.7835L16.2921 29.7085" stroke="#2342A7" stroke-width="2.74" stroke-linecap="round" stroke-linejoin="round"/>
<path d="M36.4167 9.5835L23 23.0002" stroke="#2342A7" stroke-width="2.74" stroke-linecap="round" stroke-linejoin="round"/>
</svg>
