<svg width="56" height="56" viewBox="0 0 56 56" fill="none" xmlns="http://www.w3.org/2000/svg">
<path d="M28.7767 50.6457H41.4381C42.6593 50.6457 43.8303 50.1606 44.6938 49.2971C45.5572 48.4337 46.0423 47.2626 46.0423 46.0415V16.1144L34.5319 4.604H13.8132C12.592 4.604 11.421 5.08908 10.5575 5.95253C9.69406 6.81598 9.20898 7.98707 9.20898 9.20817V31.078" stroke="#2342A7" stroke-width="3" stroke-linecap="round" stroke-linejoin="round"/>
<path d="M32.2285 4.604V13.8123C32.2285 15.0334 32.7136 16.2045 33.577 17.068C34.4405 17.9314 35.6116 18.4165 36.8327 18.4165H46.041" stroke="#2342A7" stroke-width="3" stroke-linecap="round" stroke-linejoin="round"/>
<path d="M30.7976 35.9722C31.2516 35.5181 31.6118 34.9791 31.8576 34.3858C32.1033 33.7925 32.2298 33.1566 32.2298 32.5145C32.2298 31.8723 32.1033 31.2364 31.8576 30.6432C31.6118 30.0499 31.2516 29.5108 30.7976 29.0567C30.3435 28.6027 29.8044 28.2425 29.2112 27.9967C28.6179 27.751 27.982 27.6245 27.3398 27.6245C26.6977 27.6245 26.0618 27.751 25.4685 27.9967C24.8753 28.2425 24.3362 28.6027 23.8821 29.0567L12.3487 40.5948C11.8014 41.1418 11.4007 41.818 11.1838 42.5608L9.25698 49.1677C9.1992 49.3658 9.19574 49.5758 9.24695 49.7757C9.29816 49.9756 9.40216 50.158 9.54807 50.3039C9.69398 50.4499 9.87642 50.5539 10.0763 50.6051C10.2762 50.6563 10.4862 50.6528 10.6843 50.595L17.2913 48.6682C18.0341 48.4513 18.7102 48.0507 19.2572 47.5033L30.7976 35.9722Z" stroke="#2342A7" stroke-width="3" stroke-linecap="round" stroke-linejoin="round"/>
</svg>
