<svg width="46" height="46" viewBox="0 0 46 46" fill="none" xmlns="http://www.w3.org/2000/svg">
<path d="M28.7493 3.83325H11.4993C10.4827 3.83325 9.50766 4.23712 8.78877 4.95601C8.06988 5.6749 7.66602 6.64992 7.66602 7.66659V38.3333C7.66602 39.3499 8.06988 40.3249 8.78877 41.0438C9.50766 41.7627 10.4827 42.1666 11.4993 42.1666H34.4993C35.516 42.1666 36.491 41.7627 37.2099 41.0438C37.9288 40.3249 38.3327 39.3499 38.3327 38.3333V13.4166L28.7493 3.83325Z" stroke="#2342A7" stroke-width="2.74" stroke-linecap="round" stroke-linejoin="round"/>
<path d="M26.834 3.83325V11.4999C26.834 12.5166 27.2379 13.4916 27.9567 14.2105C28.6756 14.9294 29.6507 15.3333 30.6673 15.3333H38.334" stroke="#2342A7" stroke-width="2.74" stroke-linecap="round" stroke-linejoin="round"/>
<path d="M19.1673 17.25H15.334" stroke="#2342A7" stroke-width="2.74" stroke-linecap="round" stroke-linejoin="round"/>
<path d="M30.6673 24.9167H15.334" stroke="#2342A7" stroke-width="2.74" stroke-linecap="round" stroke-linejoin="round"/>
<path d="M30.6673 32.5833H15.334" stroke="#2342A7" stroke-width="2.74" stroke-linecap="round" stroke-linejoin="round"/>
</svg>
