<svg width="36" height="44" viewBox="0 0 36 44" fill="none" xmlns="http://www.w3.org/2000/svg">
<path d="M34.1 41.8H5.5C3.6806 41.8 2.2 40.3194 2.2 38.5C2.2 36.6806 3.6806 35.2 5.5 35.2H27.5C30.5316 35.2 33 32.7338 33 29.7V5.5C33 2.4662 30.5316 0 27.5 0H5.5C2.4684 0 0 2.4662 0 5.5V38.5C0 41.5338 2.4684 44 5.5 44H34.1C34.7072 44 35.2 43.5072 35.2 42.9C35.2 42.2928 34.7072 41.8 34.1 41.8ZM2.2 5.5C2.2 3.6806 3.6806 2.2 5.5 2.2H27.5C29.3194 2.2 30.8 3.6806 30.8 5.5V29.7C30.8 31.5194 29.3194 33 27.5 33H5.5C4.2636 33 3.1196 33.4114 2.2 34.1022V5.5Z" fill="#2342A7"/>
<path d="M12.1001 19.8C13.2199 19.8 14.2583 19.4612 15.1273 18.8848L21.2213 24.9788C21.4369 25.1922 21.7185 25.3 22.0001 25.3C22.2817 25.3 22.5633 25.1922 22.7789 24.9788C23.2079 24.5498 23.2079 23.8524 22.7789 23.4234L16.6849 17.3294C17.2613 16.4582 17.6001 15.4198 17.6001 14.3C17.6001 11.2662 15.1317 8.80005 12.1001 8.80005C9.0685 8.80005 6.6001 11.2662 6.6001 14.3C6.6001 17.3338 9.0685 19.8 12.1001 19.8ZM12.1001 11C13.9195 11 15.4001 12.4806 15.4001 14.3C15.4001 16.1194 13.9195 17.6 12.1001 17.6C10.2807 17.6 8.8001 16.1194 8.8001 14.3C8.8001 12.4806 10.2807 11 12.1001 11Z" fill="#2342A7"/>
</svg>
