<svg width="50" height="50" viewBox="0 0 50 50" fill="none" xmlns="http://www.w3.org/2000/svg">
<path d="M20.834 20.8333V10.4166C20.834 9.86405 21.0535 9.33415 21.4442 8.94345C21.8349 8.55275 22.3648 8.33325 22.9173 8.33325H27.084C27.6365 8.33325 28.1664 8.55275 28.5571 8.94345C28.9478 9.33415 29.1673 9.86405 29.1673 10.4166V20.8333" stroke="#2342A7" stroke-width="3" stroke-linecap="round" stroke-linejoin="round"/>
<path d="M29.166 12.5001C32.4812 12.5001 35.6606 13.8171 38.0049 16.1613C40.3491 18.5055 41.666 21.6849 41.666 25.0001V31.2501" stroke="#2342A7" stroke-width="3" stroke-linecap="round" stroke-linejoin="round"/>
<path d="M8.33398 31.2501V25.0001C8.33398 21.6849 9.65095 18.5055 11.9951 16.1613C14.3394 13.8171 17.5188 12.5001 20.834 12.5001" stroke="#2342A7" stroke-width="3" stroke-linecap="round" stroke-linejoin="round"/>
<path d="M43.7494 31.2501H6.24935C5.09876 31.2501 4.16602 32.1829 4.16602 33.3335V37.5001C4.16602 38.6507 5.09876 39.5835 6.24935 39.5835H43.7494C44.8999 39.5835 45.8327 38.6507 45.8327 37.5001V33.3335C45.8327 32.1829 44.8999 31.2501 43.7494 31.2501Z" stroke="#2342A7" stroke-width="3" stroke-linecap="round" stroke-linejoin="round"/>
</svg>
