<svg width="40" height="42" viewBox="0 0 40 42" fill="none" xmlns="http://www.w3.org/2000/svg">
<path d="M14.4369 15.7478C13.7138 15.7478 13.1241 16.3375 13.1241 17.0605V22.2653L12.3037 22.6012C10.8064 23.2063 9.84229 24.637 9.84229 26.2497C9.84229 30.6545 12.9805 34.4464 17.3058 35.2669L18.375 35.4694V40.6871C18.375 41.4101 18.9647 41.9998 19.6877 41.9998C20.4108 41.9998 21.0005 41.4101 21.0005 40.6871V35.4694L22.0645 35.2669C26.3899 34.4388 29.5333 30.6467 29.5333 26.2497C29.5333 24.6345 28.5693 23.2038 27.072 22.6012L26.2515 22.2653V17.0605C26.2515 16.3375 25.6618 15.7478 24.9388 15.7478C24.2157 15.7478 23.626 16.3375 23.626 17.0605V22.3115H15.7496V17.0605C15.7496 16.3375 15.1599 15.7478 14.4369 15.7478ZM25.5951 24.937C26.3182 24.937 26.9079 25.5267 26.9079 26.2497C26.9079 29.8674 23.9619 32.8134 20.3442 32.8134H19.0314C15.4137 32.8134 12.4678 29.8674 12.4678 26.2497C12.4678 25.5266 13.0575 24.937 13.7805 24.937H25.5951Z" fill="#2342A7"/>
<path d="M1.30992 31.5006C2.03297 31.5006 2.62265 30.9109 2.62265 30.1878V15.5324C2.62265 13.9889 3.39185 12.566 4.67124 11.7122L17.1422 3.39468C17.9038 2.88959 18.7832 2.62036 19.6882 2.62036C20.5933 2.62036 21.4804 2.88958 22.2342 3.39468L34.7052 11.7122C35.9846 12.566 36.7538 13.9967 36.7538 15.5324V30.1878C36.7538 30.9109 37.3435 31.5006 38.0666 31.5006C38.7896 31.5006 39.3793 30.9109 39.3793 30.1878V15.5324C39.3793 13.1095 38.1794 10.8661 36.1641 9.52772L23.8113 1.28964C22.9575 0.725572 22.0909 0.343552 21.2319 0.161475C19.2885 -0.246189 17.3194 0.123016 15.6862 1.21272L3.21516 9.53022C1.19991 10.8686 0 13.1198 0 15.5349V30.1903C0 30.9134 0.589708 31.5031 1.31274 31.5031L1.30992 31.5006Z" fill="#2342A7"/>
</svg>
