<svg width="50" height="50" viewBox="0 0 50 50" fill="none" xmlns="http://www.w3.org/2000/svg">
<path d="M4.16699 41.6668C4.16699 42.7718 4.60598 43.8316 5.38738 44.613C6.16878 45.3944 7.22859 45.8334 8.33366 45.8334H41.667C42.7721 45.8334 43.8319 45.3944 44.6133 44.613C45.3947 43.8316 45.8337 42.7718 45.8337 41.6668V16.6667L31.2503 27.0834V16.6667L16.667 27.0834V8.33342C16.667 7.22835 16.228 6.16854 15.4466 5.38714C14.6652 4.60573 13.6054 4.16675 12.5003 4.16675H8.33366C7.22859 4.16675 6.16878 4.60573 5.38738 5.38714C4.60598 6.16854 4.16699 7.22835 4.16699 8.33342V41.6668Z" stroke="#2342A7" stroke-width="3" stroke-linecap="round" stroke-linejoin="round"/>
<path d="M35.417 37.5H37.5003" stroke="#2342A7" stroke-width="3" stroke-linecap="round" stroke-linejoin="round"/>
<path d="M25 37.5H27.0833" stroke="#2342A7" stroke-width="3" stroke-linecap="round" stroke-linejoin="round"/>
<path d="M14.583 37.5H16.6663" stroke="#2342A7" stroke-width="3" stroke-linecap="round" stroke-linejoin="round"/>
</svg>
