<svg width="46" height="46" viewBox="0 0 46 46" fill="none" xmlns="http://www.w3.org/2000/svg">
<path d="M28.1756 12.0751C27.8244 12.4333 27.6277 12.915 27.6277 13.4167C27.6277 13.9184 27.8244 14.4001 28.1756 14.7584L31.2422 17.8251C31.6005 18.1762 32.0822 18.373 32.5839 18.373C33.0856 18.373 33.5673 18.1762 33.9256 17.8251L41.1514 10.5992C42.1152 12.729 42.407 15.1019 41.988 17.4018C41.5689 19.7016 40.4589 21.8191 38.8059 23.4721C37.1529 25.1251 35.0354 26.2351 32.7356 26.6541C30.4358 27.0731 28.0629 26.7813 25.9331 25.8176L12.6889 39.0617C11.9264 39.8242 10.8922 40.2526 9.81391 40.2526C8.73558 40.2526 7.70141 39.8242 6.93891 39.0617C6.17641 38.2992 5.74805 37.2651 5.74805 36.1867C5.74805 35.1084 6.17641 34.0742 6.93891 33.3117L20.1831 20.0676C19.2193 17.9378 18.9275 15.5649 19.3465 13.265C19.7656 10.9652 20.8755 8.84769 22.5285 7.1947C24.1815 5.5417 26.2991 4.43172 28.5989 4.01269C30.8987 3.59365 33.2716 3.88546 35.4014 4.84923L28.1947 12.0559L28.1756 12.0751Z" stroke="#2342A7" stroke-width="2.74" stroke-linecap="round" stroke-linejoin="round"/>
</svg>
