<svg width="50" height="50" viewBox="0 0 50 50" fill="none" xmlns="http://www.w3.org/2000/svg">
<path d="M29.1673 4.16675V16.6667C29.167 17.3657 29.3425 18.0534 29.6777 18.6667L41.1569 39.6668C41.5041 40.3014 41.6801 41.0154 41.6677 41.7387C41.6552 42.462 41.4546 43.1695 41.0857 43.7918C40.7167 44.414 40.1922 44.9295 39.5636 45.2874C38.935 45.6454 38.224 45.8336 37.5006 45.8334H12.5006C11.7773 45.8336 11.0663 45.6454 10.4377 45.2874C9.80911 44.9295 9.28454 44.414 8.91562 43.7918C8.54669 43.1695 8.34612 42.462 8.33363 41.7387C8.32114 41.0154 8.49717 40.3014 8.84439 39.6668L20.3236 18.6667C20.6587 18.0534 20.8343 17.3657 20.834 16.6667V4.16675" stroke="#2342A7" stroke-width="3" stroke-linecap="round" stroke-linejoin="round"/>
<path d="M13.4443 31.25H36.5568" stroke="#2342A7" stroke-width="3" stroke-linecap="round" stroke-linejoin="round"/>
<path d="M17.708 4.16675H32.2913" stroke="#2342A7" stroke-width="3" stroke-linecap="round" stroke-linejoin="round"/>
</svg>
