<svg width="48" height="48" viewBox="0 0 48 48" fill="none" xmlns="http://www.w3.org/2000/svg">
<path d="M30 3.99951H12C10.9391 3.99951 9.92172 4.42094 9.17157 5.17108C8.42143 5.92123 8 6.93865 8 7.99951V39.9995C8 41.0604 8.42143 42.0778 9.17157 42.8279C9.92172 43.5781 10.9391 43.9995 12 43.9995H36C37.0609 43.9995 38.0783 43.5781 38.8284 42.8279C39.5786 42.0778 40 41.0604 40 39.9995V13.9995L30 3.99951Z" stroke="#2342A7" stroke-width="2.76923" stroke-linecap="round" stroke-linejoin="round"/>
<path d="M28 3.99951V11.9995C28 13.0604 28.4214 14.0778 29.1716 14.8279C29.9217 15.5781 30.9391 15.9995 32 15.9995H40" stroke="#2342A7" stroke-width="2.76923" stroke-linecap="round" stroke-linejoin="round"/>
<path d="M18 30.0005L22 34.0005L30 26.0005" stroke="#2342A7" stroke-width="2.76923" stroke-linecap="round" stroke-linejoin="round"/>
</svg>
