<svg width="46" height="46" viewBox="0 0 46 46" fill="none" xmlns="http://www.w3.org/2000/svg">
<path d="M19.1669 19.1665V19.5498C20.4239 20.0332 21.4713 20.9425 22.1266 22.1191C22.7818 23.2957 23.0033 24.6649 22.7523 25.9881C22.5014 27.3112 21.794 28.5043 20.7534 29.3593C19.7129 30.2143 18.4053 30.6769 17.0586 30.6665H9.58356C8.25295 30.6334 6.97503 30.1397 5.96778 29.2696C4.96053 28.3995 4.28633 27.2069 4.06018 25.8952C3.83403 24.5836 4.06993 23.2341 4.72766 22.0769C5.38539 20.9198 6.42419 20.0266 7.66689 19.5498V19.1665C7.66689 17.6415 8.27269 16.179 9.35103 15.1006C10.4294 14.0223 11.8919 13.4165 13.4169 13.4165C14.9419 13.4165 16.4044 14.0223 17.4828 15.1006C18.5611 16.179 19.1669 17.6415 19.1669 19.1665Z" stroke="#2342A7" stroke-width="2.74" stroke-linecap="round" stroke-linejoin="round"/>
<path d="M13.416 30.6665V42.1665" stroke="#2342A7" stroke-width="2.74" stroke-linecap="round" stroke-linejoin="round"/>
<path d="M24.916 36.4165V42.1665" stroke="#2342A7" stroke-width="2.74" stroke-linecap="round" stroke-linejoin="round"/>
<path d="M22.9991 36.4167H38.9074C39.2826 36.4114 39.6479 36.2961 39.9582 36.0852C40.2684 35.8742 40.51 35.5769 40.6528 35.23C40.7956 34.883 40.8335 34.5018 40.7618 34.1336C40.69 33.7653 40.5117 33.4262 40.2491 33.1583L34.4991 26.8333H35.0741C35.4492 26.8281 35.8146 26.7128 36.1248 26.5019C36.4351 26.2909 36.6766 25.9935 36.8195 25.6466C36.9623 25.2997 37.0002 24.9185 36.9284 24.5502C36.8567 24.182 36.6784 23.8429 36.4158 23.575L30.6658 17.25H31.0491C31.4406 17.2853 31.8334 17.1994 32.1745 17.0039C32.5155 16.8085 32.7882 16.5129 32.9555 16.1572C33.1229 15.8015 33.1769 15.403 33.1101 15.0157C33.0434 14.6283 32.8592 14.2708 32.5824 13.9917L24.9158 5.75L22.2324 8.625" stroke="#2342A7" stroke-width="2.74" stroke-linecap="round" stroke-linejoin="round"/>
</svg>
