<svg width="39" height="52" viewBox="0 0 39 52" fill="none" xmlns="http://www.w3.org/2000/svg">
<g clip-path="url(#clip0_5213_1272)">
<path d="M0 25.4919L12.8635 31.8407L15.9298 20.5037H2.84204L0 25.4919Z" fill="#061D69"/>
<path d="M39.0005 9.83223V46.2122C39.0013 49.1514 36.6437 51.5347 33.7353 51.5355H9.84628C6.93789 51.5351 4.58069 49.1522 4.58105 46.213V5.32371C4.58069 2.38451 6.93789 0.000861792 9.84628 -0.000244141H29.362L39.0005 9.83223Z" fill="#E4EAF1"/>
<path d="M39.0005 9.83223H31.9238C30.5077 9.8315 29.3601 8.67174 29.3594 7.24066V-0.000244141L39.0005 9.83223Z" fill="#C3D1E2"/>
<path d="M1.12467 12.3406H30.7354C31.3562 12.3406 31.8596 12.8493 31.8596 13.4767V24.3553C31.8596 24.9827 31.3562 25.491 30.7354 25.491H0V13.4767C0 12.8493 0.503428 12.3406 1.12422 12.3406H1.12467Z" fill="#2342A7"/>
<path d="M6.95061 20.0958V22.9107H5.31934V14.9216H8.40788C8.83337 14.9148 9.25659 14.9816 9.65942 15.119C10.0043 15.2367 10.3219 15.4235 10.5933 15.6685C10.8466 15.9016 11.046 16.1883 11.177 16.5084C11.3133 16.8431 11.3818 17.2021 11.3781 17.5643C11.3836 17.9243 11.3152 18.281 11.177 18.6126C11.046 18.9198 10.8462 19.1918 10.5933 19.408C10.3187 19.6383 10.0011 19.811 9.65942 19.9158C9.25387 20.0408 8.83155 20.1013 8.40788 20.0958H6.95061ZM6.95061 18.7623H8.40788C8.61133 18.7669 8.81388 18.7371 9.00782 18.6748C9.16143 18.6249 9.30236 18.5416 9.42062 18.4303C9.52756 18.3259 9.60822 18.1972 9.6567 18.0548C9.70881 17.9009 9.73419 17.7397 9.73283 17.5772C9.73328 17.4087 9.70745 17.241 9.6567 17.0808C9.60777 16.9251 9.52756 16.7808 9.42062 16.6581C9.30643 16.5303 9.16551 16.4301 9.00782 16.3646C8.81751 16.2872 8.61314 16.2496 8.40788 16.2547H6.95061V18.7623Z" fill="white"/>
<path d="M13.3301 22.9106V14.9215H15.7625C16.2632 14.9146 16.7607 15.008 17.2256 15.1963C17.6557 15.3716 18.044 15.6368 18.3657 15.9747C18.6902 16.3219 18.9421 16.7317 19.107 17.1791C19.2892 17.6773 19.3794 18.2049 19.373 18.7361V19.0983C19.3798 19.629 19.291 20.157 19.1098 20.6553C18.9457 21.1031 18.6924 21.5121 18.3657 21.8569C18.0417 22.1953 17.6502 22.4604 17.2175 22.6354C16.7494 22.8227 16.2496 22.9161 15.7462 22.9101H13.3301V22.9106ZM14.9586 16.2545V21.5881H15.7462C16.3905 21.5881 16.8808 21.3733 17.2175 20.9433C17.5542 20.5133 17.7223 19.8997 17.7223 19.1024V18.7292C17.7223 17.9173 17.556 17.3018 17.2238 16.8828C16.8917 16.4638 16.4046 16.2545 15.7625 16.2545H14.9586Z" fill="white"/>
<path d="M26.1477 19.6456H23.0211V22.9102H21.3916V14.9211H26.5387V16.2542H23.0202V18.3176H26.1468L26.1477 19.6456Z" fill="white"/>
</g>
<defs>
<clipPath id="clip0_5213_1272">
<rect width="39" height="51.5357" fill="white"/>
</clipPath>
</defs>
</svg>
