<svg width="46" height="46" viewBox="0 0 46 46" fill="none" xmlns="http://www.w3.org/2000/svg">
<path d="M27 19.8C25.672 19.8 24.6 18.728 24.6 17.4V9.4C24.6 8.072 25.672 7 27 7C28.328 7 29.4 8.072 29.4 9.4V17.4C29.4 18.728 28.328 19.8 27 19.8Z" stroke="#2342A7" stroke-width="2.3" stroke-linecap="round" stroke-linejoin="round"/>
<path d="M36.6 19.8H34.2V17.4C34.2 16.072 35.272 15 36.6 15C37.928 15 39 16.072 39 17.4C39 18.728 37.928 19.8 36.6 19.8Z" stroke="#2342A7" stroke-width="2.3" stroke-linecap="round" stroke-linejoin="round"/>
<path d="M19 26.2C20.328 26.2 21.4 27.272 21.4 28.6V36.6C21.4 37.928 20.328 39 19 39C17.672 39 16.6 37.928 16.6 36.6V28.6C16.6 27.272 17.672 26.2 19 26.2Z" stroke="#2342A7" stroke-width="2.3" stroke-linecap="round" stroke-linejoin="round"/>
<path d="M9.4 26.2H11.8V28.6C11.8 29.928 10.728 31 9.4 31C8.072 31 7 29.928 7 28.6C7 27.272 8.072 26.2 9.4 26.2Z" stroke="#2342A7" stroke-width="2.3" stroke-linecap="round" stroke-linejoin="round"/>
<path d="M26.2 27C26.2 25.672 27.272 24.6 28.6 24.6H36.6C37.928 24.6 39 25.672 39 27C39 28.328 37.928 29.4 36.6 29.4H28.6C27.272 29.4 26.2 28.328 26.2 27Z" stroke="#2342A7" stroke-width="2.3" stroke-linecap="round" stroke-linejoin="round"/>
<path d="M28.6 34.2H26.2V36.6C26.2 37.928 27.272 39 28.6 39C29.928 39 31 37.928 31 36.6C31 35.272 29.928 34.2 28.6 34.2Z" stroke="#2342A7" stroke-width="2.3" stroke-linecap="round" stroke-linejoin="round"/>
<path d="M19.8 19C19.8 17.672 18.728 16.6 17.4 16.6H9.4C8.072 16.6 7 17.672 7 19C7 20.328 8.072 21.4 9.4 21.4H17.4C18.728 21.4 19.8 20.328 19.8 19Z" stroke="#2342A7" stroke-width="2.3" stroke-linecap="round" stroke-linejoin="round"/>
<path d="M17.4 11.8H19.8V9.4C19.8 8.072 18.728 7 17.4 7C16.072 7 15 8.072 15 9.4C15 10.728 16.072 11.8 17.4 11.8Z" stroke="#2342A7" stroke-width="2.3" stroke-linecap="round" stroke-linejoin="round"/>
</svg>
