<svg width="50" height="50" viewBox="0 0 50 50" fill="none" xmlns="http://www.w3.org/2000/svg">
<path d="M44.6248 22.7545C44.9978 22.59 45.3143 22.3196 45.5351 21.977C45.7559 21.6344 45.8714 21.2345 45.8672 20.8269C45.863 20.4193 45.7393 20.0218 45.5114 19.6838C45.2835 19.3458 44.9615 19.0821 44.5852 18.9253L26.729 10.792C26.1862 10.5444 25.5965 10.4163 24.9998 10.4163C24.4032 10.4163 23.8135 10.5444 23.2707 10.792L5.41649 18.917C5.04559 19.0794 4.73007 19.3465 4.5085 19.6854C4.28694 20.0243 4.16895 20.4204 4.16895 20.8253C4.16895 21.2303 4.28694 21.6264 4.5085 21.9653C4.73007 22.3042 5.04559 22.5712 5.41649 22.7337L23.2707 30.8753C23.8135 31.1229 24.4032 31.2511 24.9998 31.2511C25.5965 31.2511 26.1862 31.1229 26.729 30.8753L44.6248 22.7545Z" stroke="#2342A7" stroke-width="3" stroke-linecap="round" stroke-linejoin="round"/>
<path d="M45.833 20.8333V33.3333" stroke="#2342A7" stroke-width="3" stroke-linecap="round" stroke-linejoin="round"/>
<path d="M12.5 26.0417V33.3334C12.5 34.991 13.817 36.5807 16.1612 37.7528C18.5054 38.9249 21.6848 39.5834 25 39.5834C28.3152 39.5834 31.4946 38.9249 33.8388 37.7528C36.183 36.5807 37.5 34.991 37.5 33.3334V26.0417" stroke="#2342A7" stroke-width="3" stroke-linecap="round" stroke-linejoin="round"/>
</svg>
