<svg width="63" height="44" viewBox="0 0 63 44" fill="none" xmlns="http://www.w3.org/2000/svg">
<path d="M30.7317 0.128804C31.2282 -0.0429348 31.7715 -0.0429348 32.2681 0.128804L61.4314 10.2497C63.5229 10.9745 63.5229 13.9203 61.4314 14.6479L59.5415 15.3582V29.6214C59.5415 30.2647 59.0187 30.7858 58.3731 30.7858C57.7276 30.7858 57.2047 30.2647 57.2047 29.6214V16.1123L50.7785 18.342V33.603C50.7785 35.431 49.2917 36.9126 47.4573 36.9126C43.514 36.9126 39.7111 38.3593 36.7694 40.9732L34.3595 43.1127C33.0567 44.2741 31.0938 44.2973 29.7589 43.1709L27.2556 41.0548C24.0892 38.3797 20.0728 36.9127 15.9223 36.9127C13.9448 36.9127 12.2214 35.4747 12.2214 33.4197V18.3419L1.56859 14.6481C-0.522864 13.9204 -0.522864 10.9746 1.56859 10.2499L30.7317 0.128804ZM32.2681 24.7656C31.7715 24.9373 31.2283 24.9373 30.7317 24.7656L14.558 19.1536V33.4199C14.558 34.2029 15.224 34.5842 15.9221 34.5842C20.6278 34.5842 25.1788 36.2492 28.7659 39.2794L31.2722 41.3955C31.7161 41.771 32.3705 41.7623 32.8057 41.3751L35.2126 39.2357C38.5835 36.2404 42.9417 34.5842 47.4575 34.5842C48.0008 34.5842 48.4418 34.1446 48.4418 33.6032V19.1536L32.2681 24.7656ZM2.33686 12.4472L31.5001 22.5651L56.428 13.9174C56.0162 13.5448 55.467 13.3207 54.8682 13.3207H34.1294C33.4839 13.3207 32.961 12.7997 32.961 12.1564C32.961 11.5131 33.4839 10.9921 34.1294 10.9921H54.8682C56.504 10.9921 57.9441 11.8304 58.7795 13.0995L60.6635 12.4474L31.5002 2.32953L2.33686 12.4472Z" fill="#2342A7"/>
</svg>
