<svg width="46" height="46" viewBox="0 0 46 46" fill="none" xmlns="http://www.w3.org/2000/svg">
<path d="M30.6673 40.25V36.4167C30.6673 34.3833 29.8596 32.4333 28.4218 30.9955C26.984 29.5577 25.034 28.75 23.0007 28.75H11.5007C9.46732 28.75 7.51728 29.5577 6.0795 30.9955C4.64172 32.4333 3.83398 34.3833 3.83398 36.4167V40.25" stroke="#2342A7" stroke-width="2.74" stroke-linecap="round" stroke-linejoin="round"/>
<path d="M17.2507 21.0833C21.4848 21.0833 24.9173 17.6508 24.9173 13.4167C24.9173 9.18248 21.4848 5.75 17.2507 5.75C13.0165 5.75 9.58398 9.18248 9.58398 13.4167C9.58398 17.6508 13.0165 21.0833 17.2507 21.0833Z" stroke="#2342A7" stroke-width="2.74" stroke-linecap="round" stroke-linejoin="round"/>
<path d="M30.666 21.0833L34.4993 24.9167L42.166 17.25" stroke="#2342A7" stroke-width="2.74" stroke-linecap="round" stroke-linejoin="round"/>
</svg>
