<svg xmlns="http://www.w3.org/2000/svg" width="46" height="46" viewBox="0 0 46 46" fill="none">
    <path
        d="M30.6673 40.2499V36.4166C30.6673 34.3833 29.8596 32.4332 28.4218 30.9955C26.984 29.5577 25.034 28.7499 23.0007 28.7499H11.5007C9.46732 28.7499 7.51728 29.5577 6.0795 30.9955C4.64172 32.4332 3.83398 34.3833 3.83398 36.4166V40.2499"
        stroke="#2342A7" stroke-width="2.74" stroke-linecap="round" stroke-linejoin="round" />
    <path
        d="M17.2507 21.0833C21.4848 21.0833 24.9173 17.6508 24.9173 13.4167C24.9173 9.18248 21.4848 5.75 17.2507 5.75C13.0165 5.75 9.58398 9.18248 9.58398 13.4167C9.58398 17.6508 13.0165 21.0833 17.2507 21.0833Z"
        stroke="#2342A7" stroke-width="2.74" stroke-linecap="round" stroke-linejoin="round" />
    <path
        d="M42.166 40.25V36.4167C42.1647 34.718 41.5994 33.0679 40.5586 31.7253C39.5179 30.3828 38.0608 29.4239 36.416 28.9992"
        stroke="#2342A7" stroke-width="2.74" stroke-linecap="round" stroke-linejoin="round" />
    <path
        d="M30.666 5.99921C32.3151 6.42145 33.7768 7.38055 34.8207 8.7253C35.8645 10.0701 36.431 11.724 36.431 13.4263C36.431 15.1286 35.8645 16.7825 34.8207 18.1273C33.7768 19.472 32.3151 20.4311 30.666 20.8534"
        stroke="#2342A7" stroke-width="2.74" stroke-linecap="round" stroke-linejoin="round" />
</svg>