<svg width="17" height="17" viewBox="0 0 17 17" fill="none" xmlns="http://www.w3.org/2000/svg">
<g clip-path="url(#clip0_2001_6589)">
<path d="M8.27328 0.226667C3.348 0.484028 0.0967548 4.34681 0.302171 9.21778C0.391894 11.3499 1.24898 13.1844 1.45203 15.2079C1.50398 15.7321 1.35287 16.379 1.95731 16.6081C2.70106 16.889 3.84148 16.4168 4.46481 15.9847C4.67731 15.8407 4.88037 15.6731 5.0362 15.4653C5.68078 15.8926 6.29231 16.3058 7.05967 16.49C10.4384 17.2999 14.1406 15.4464 15.7863 12.469C18.8794 6.87555 14.6979 -0.10861 8.27328 0.226667ZM6.36078 11.9C6.09398 12.1078 5.83662 12.3911 5.54148 12.554C5.11412 12.7831 4.98189 12.5446 4.82134 12.1668C4.31606 10.965 4.25467 8.91792 4.54981 7.65944C4.94648 5.94764 6.27106 4.44125 8.09148 4.28069C9.93314 4.11778 11.6426 5.05278 12.4147 6.74097C14.1241 10.4975 9.74898 14.2068 6.36078 11.9024V11.9Z" fill="#432821"/>
</g>
<defs>
<clipPath id="clip0_2001_6589">
<rect width="17" height="17" fill="white"/>
</clipPath>
</defs>
</svg>
