<?xml version="1.0" encoding="UTF-8" standalone="no"?>
<svg
   width="18"
   height="18"
   viewBox="0 0 18 18"
   fill="none"
   version="1.1"
   id="svg4"
   sodipodi:docname="search.svg"
   inkscape:version="1.1.1 (3bf5ae0d25, 2021-09-20)"
   xmlns:inkscape="http://www.inkscape.org/namespaces/inkscape"
   xmlns:sodipodi="http://sodipodi.sourceforge.net/DTD/sodipodi-0.dtd"
   xmlns="http://www.w3.org/2000/svg"
   xmlns:svg="http://www.w3.org/2000/svg">
  <defs
     id="defs8" />
  <sodipodi:namedview
     id="namedview6"
     pagecolor="#ffffff"
     bordercolor="#666666"
     borderopacity="1.0"
     inkscape:pageshadow="2"
     inkscape:pageopacity="0.0"
     inkscape:pagecheckerboard="0"
     showgrid="false"
     inkscape:zoom="45.777778"
     inkscape:cx="8.9890777"
     inkscape:cy="8.9890777"
     inkscape:window-width="1920"
     inkscape:window-height="1009"
     inkscape:window-x="-8"
     inkscape:window-y="-8"
     inkscape:window-maximized="1"
     inkscape:current-layer="svg4" />
  <path
     style="color:#000000;fill:#271605;stroke-linecap:round;stroke-linejoin:round;-inkscape-stroke:none"
     d="M 7.9160156,0 C 6.8763819,0 5.8472226,0.20566282 4.8867187,0.60351562 3.926214,1.0013688 3.0534913,1.5832275 2.3183594,2.3183594 0.83401543,3.8027152 0,5.8168168 0,7.9160156 c 0,2.0991904 0.8340284,4.1152424 2.3183594,5.5996094 1.484357,1.484381 3.4984574,2.318359 5.5976562,2.318359 1.6659866,0 3.2024304,-0.652409 4.5390624,-1.611328 l 2.91211,2.91211 a 1.25,1.25 0 0 0 1.767578,0 1.25,1.25 0 0 0 0,-1.767578 l -2.91211,-2.91211 c 0.35473,-0.493452 0.774178,-0.943671 1.007813,-1.507812 0.397782,-0.9604126 0.603515,-1.9915595 0.603515,-3.0312504 0,-1.0396908 -0.205741,-2.0688686 -0.603515,-3.0292969 C 14.832641,3.9261602 14.250792,3.0534903 13.515625,2.3183594 12.780501,1.583271 11.907835,1.001376 10.947266,0.60351562 9.9867778,0.20565471 8.9556494,0 7.9160156,0 Z m 0,2.5 c 0.7113645,0 1.4170482,0.139891 2.0742188,0.4121094 0.6572286,0.2722189 1.2547376,0.6707777 1.7578126,1.1738281 0.503032,0.5030079 0.901657,1.1006526 1.173828,1.7578125 0.272225,0.6572901 0.412109,1.3609582 0.412109,2.0722656 0,0.7113074 -0.139892,1.4169726 -0.412109,2.0742188 -0.272164,0.6571746 -0.670752,1.2547366 -1.173828,1.7578126 -1.01623,1.01623 -2.3949256,1.585937 -3.8320314,1.585937 -1.4371176,0 -2.8138776,-0.56972 -3.8300781,-1.585937 C 3.069731,10.731816 2.5,9.3531214 2.5,7.9160156 2.5,6.478898 3.0697439,5.1021392 4.0859375,4.0859375 4.5889444,3.5829306 5.1865364,3.1843355 5.84375,2.9121094 6.5009645,2.6398828 7.2046511,2.5 7.9160156,2.5 Z"
     id="path2" />
</svg>
