<svg width="18" height="18" viewBox="0 0 18 18" fill="none" xmlns="http://www.w3.org/2000/svg">
<path d="M9.00001 1.5C13.1423 1.5 16.5 4.85775 16.5 9C16.5 13.1423 13.1423 16.5 9.00001 16.5C7.67458 16.5023 6.37245 16.1515 5.22751 15.4838L1.50301 16.5L2.51701 12.774C1.84873 11.6287 1.49769 10.326 1.50001 9C1.50001 4.85775 4.85776 1.5 9.00001 1.5ZM6.44401 5.475L6.29401 5.481C6.19703 5.48768 6.10227 5.51315 6.01501 5.556C5.93369 5.60213 5.85943 5.65972 5.79451 5.727C5.70451 5.81175 5.65351 5.88525 5.59876 5.9565C5.32135 6.31718 5.17199 6.75998 5.17426 7.215C5.17576 7.5825 5.27176 7.94025 5.42176 8.27475C5.72851 8.95125 6.23326 9.6675 6.89926 10.3312C7.05976 10.491 7.21726 10.6515 7.38676 10.8007C8.21434 11.5293 9.20047 12.0547 10.2668 12.3353L10.6928 12.4005C10.8315 12.408 10.9703 12.3975 11.1098 12.3907C11.3282 12.3792 11.5414 12.3201 11.7345 12.2175C11.8326 12.1668 11.9285 12.1117 12.0218 12.0525C12.0218 12.0525 12.0535 12.031 12.1155 11.985C12.2168 11.91 12.279 11.8568 12.363 11.769C12.426 11.704 12.4785 11.6285 12.5205 11.5425C12.579 11.4202 12.6375 11.187 12.6615 10.9928C12.6795 10.8442 12.6743 10.7633 12.672 10.713C12.669 10.6328 12.6023 10.5495 12.5295 10.5142L12.093 10.3185C12.093 10.3185 11.4405 10.0343 11.0415 9.85275C10.9997 9.83457 10.955 9.82415 10.9095 9.822C10.8582 9.81663 10.8063 9.82236 10.7574 9.83879C10.7085 9.85523 10.6637 9.88198 10.626 9.91725C10.6223 9.91575 10.572 9.9585 10.0298 10.6155C9.99864 10.6573 9.95577 10.6889 9.90661 10.7063C9.85746 10.7237 9.80425 10.726 9.75376 10.713C9.70488 10.7 9.65701 10.6834 9.61051 10.6635C9.51751 10.6245 9.48526 10.6095 9.42151 10.5825C8.99092 10.3949 8.59234 10.1411 8.24026 9.83025C8.14576 9.74775 8.05801 9.65775 7.96801 9.57075C7.67297 9.28816 7.41582 8.96849 7.20301 8.61975L7.15876 8.5485C7.12746 8.50035 7.10179 8.44876 7.08226 8.39475C7.05376 8.2845 7.12801 8.196 7.12801 8.196C7.12801 8.196 7.31026 7.9965 7.39501 7.8885C7.47751 7.7835 7.54726 7.6815 7.59226 7.60875C7.68076 7.46625 7.70851 7.32 7.66201 7.20675C7.45201 6.69375 7.23501 6.1835 7.01101 5.676C6.96676 5.5755 6.83551 5.5035 6.71626 5.48925C6.67576 5.48425 6.63526 5.48025 6.59476 5.47725C6.49406 5.47147 6.39308 5.47248 6.29251 5.48025L6.44401 5.475Z" fill="#432821"/>
</svg>
