<svg width="13" height="11" viewBox="0 0 13 11" fill="none" xmlns="http://www.w3.org/2000/svg">
<path d="M6.25 0C7.54333 0 8.57943 -0.00101897 9.37109 0.0673828C10.1388 0.133724 10.8861 0.275906 11.458 0.720703C12.0833 1.20707 12.3104 1.89661 12.4082 2.58105C12.5027 3.24258 12.5 4.09355 12.5 5.08301C12.5 6.07236 12.5026 6.92343 12.4082 7.58496C12.3104 8.26933 12.0831 8.95893 11.458 9.44531C10.8861 9.89011 10.1388 10.0333 9.37109 10.0996C8.57943 10.168 7.54332 10.167 6.25 10.167C4.95668 10.167 3.92057 10.168 3.12891 10.0996C2.36124 10.0333 1.61388 9.89011 1.04199 9.44531C0.416885 8.95893 0.189564 8.26933 0.0917969 7.58496C-0.00264441 6.92343 0 6.07236 0 5.08301C-5.34014e-07 4.09355 -0.00270711 3.24258 0.0917969 2.58105C0.189591 1.89661 0.416686 1.20707 1.04199 0.720703C1.61388 0.275904 2.36124 0.133725 3.12891 0.0673828C3.92057 -0.00101952 4.95667 -4.26032e-09 6.25 0ZM5.08398 7.125L8.58398 5.08398L5.08398 3.04199V7.125Z" fill="black"/>
</svg>
