<svg width="787" height="487" viewBox="0 0 787 487" fill="none" xmlns="http://www.w3.org/2000/svg">
<path d="M163.426 299.44C176.754 299.441 187.559 310.246 187.559 323.574V363.053C187.559 376.381 176.754 387.186 163.426 387.187H117.123C110.723 387.187 104.584 389.729 100.058 394.255L94.8145 399.498C90.2886 404.024 87.7461 410.163 87.7461 416.563V462.866C87.7461 476.195 76.941 487 63.6123 487H24.1338C10.8054 487 0 476.195 0 462.866V423.387C9.2585e-05 410.058 10.8051 399.253 24.1338 399.253H70.4365C76.837 399.253 82.9761 396.71 87.502 392.185L92.7441 386.941C97.27 382.416 99.8134 376.277 99.8135 369.877V323.574C99.8135 310.246 110.618 299.441 123.946 299.44H163.426ZM163.427 399.253C176.755 399.253 187.561 410.058 187.561 423.387V462.866C187.56 476.195 176.755 486.999 163.427 486.999H123.948C110.62 486.999 99.8146 476.195 99.8145 462.866V423.387C99.8145 410.058 110.62 399.253 123.948 399.253H163.427ZM662.591 299.439C675.919 299.439 686.725 310.245 686.725 323.573V363.052C686.725 376.38 675.92 387.186 662.591 387.186H616.292C609.891 387.186 603.752 389.729 599.227 394.255L593.98 399.502C589.455 404.028 586.911 410.166 586.911 416.566V462.865C586.911 476.194 576.107 486.999 562.778 486.999H523.299C509.97 486.999 499.165 476.194 499.165 462.865V423.387C499.165 410.058 509.97 399.253 523.299 399.253H569.605C576.006 399.253 582.145 396.71 586.671 392.184L591.91 386.944C596.436 382.419 598.978 376.28 598.979 369.88V323.573C598.979 310.245 609.784 299.439 623.112 299.439H662.591ZM662.554 199.626C675.882 199.626 686.687 210.431 686.687 223.76V270.062C686.687 276.463 689.229 282.602 693.755 287.128L698.999 292.371C703.525 296.897 709.663 299.439 716.063 299.439H762.366C775.695 299.439 786.5 310.245 786.5 323.573V462.865C786.5 476.194 775.695 486.999 762.366 486.999H623.074C609.746 486.999 598.941 476.194 598.94 462.865V423.386C598.94 410.057 609.746 399.252 623.074 399.252H674.62C687.948 399.252 698.754 388.447 698.754 375.118V316.749C698.754 310.348 696.211 304.21 691.686 299.684L686.442 294.44C681.916 289.915 675.778 287.372 669.377 287.372H623.074C609.746 287.372 598.94 276.567 598.94 263.238V223.76C598.94 210.431 609.746 199.626 623.074 199.626H662.554ZM363.052 399.251C376.38 399.251 387.185 410.056 387.186 423.385V462.864C387.185 476.193 376.38 486.998 363.052 486.998H223.761C210.432 486.998 199.627 476.193 199.627 462.864V423.385C199.627 410.056 210.432 399.251 223.761 399.251H363.052ZM562.801 199.626C576.129 199.626 586.935 210.431 586.935 223.76V363.052C586.935 376.38 576.129 387.185 562.801 387.186H511.255C497.926 387.186 487.121 397.99 487.121 411.318V462.864C487.121 476.193 476.316 486.998 462.987 486.998H423.509C410.18 486.998 399.375 476.193 399.375 462.864V323.572C399.375 310.244 410.18 299.439 423.509 299.439H475.055C488.383 299.439 499.187 288.634 499.188 275.306V223.76C499.188 210.431 509.993 199.626 523.321 199.626H562.801ZM63.7559 199.627C77.0845 199.627 87.8906 210.432 87.8906 223.761V363.051C87.8909 376.379 77.0846 387.186 63.7559 387.186H24.2773C10.9486 387.186 0.143555 376.379 0.143555 363.051V223.761C0.143622 210.432 10.9487 199.627 24.2773 199.627H63.7559ZM163.549 199.626C176.877 199.626 187.683 210.431 187.683 223.76V270.2C187.683 276.601 190.225 282.739 194.751 287.265L199.856 292.37C204.382 296.896 210.521 299.439 216.922 299.439H363.176C376.504 299.44 387.308 310.244 387.309 323.572V363.052C387.309 376.38 376.504 387.185 363.176 387.186H223.883C210.554 387.186 199.749 376.38 199.749 363.052V316.887C199.749 310.486 197.207 304.347 192.681 299.821L187.3 294.441C182.774 289.915 176.635 287.372 170.234 287.372H124.069C110.741 287.372 99.9365 276.567 99.9365 263.238V223.76C99.9365 210.432 110.741 199.626 124.069 199.626H163.549ZM263.262 0C276.59 0.0001209 287.395 10.8052 287.395 24.1338V63.6123C287.395 76.9406 276.59 87.746 263.262 87.7461H218.069C211.669 87.7461 205.53 90.2887 201.004 94.8145L194.65 101.169C190.125 105.695 187.582 111.833 187.582 118.233V170.249C187.582 176.65 190.124 182.789 194.65 187.314L199.894 192.558C204.419 197.084 210.558 199.626 216.959 199.626H263.262C276.59 199.626 287.395 210.431 287.395 223.76V263.238C287.395 276.567 276.59 287.372 263.262 287.372H223.782C210.454 287.372 199.648 276.567 199.648 263.238V216.936C199.648 210.535 197.106 204.397 192.58 199.871L187.337 194.628C182.811 190.102 176.673 187.56 170.272 187.56H123.97C110.641 187.56 99.836 176.754 99.8359 163.426V123.946C99.8361 110.618 110.641 99.8135 123.97 99.8135H171.383C177.783 99.8134 183.921 97.27 188.447 92.7441L192.58 88.6113C197.106 84.0855 199.649 77.9473 199.649 71.5469V24.1338C199.649 10.8055 210.454 0.000134867 223.782 0H263.262ZM363.052 0C376.38 5.49274e-05 387.186 10.8051 387.186 24.1338V263.238C387.186 276.567 376.38 287.372 363.052 287.372H323.572C310.244 287.372 299.439 276.567 299.439 263.238V211.693C299.439 198.365 288.634 187.56 275.306 187.56H223.76C210.431 187.56 199.626 176.755 199.626 163.426V123.946C199.626 110.618 210.431 99.8135 223.76 99.8135H275.306C288.634 99.8134 299.439 89.0083 299.439 75.6797V24.1338C299.439 10.8055 310.244 0.000205816 323.572 0H363.052ZM562.621 99.8125C575.949 99.8125 586.755 110.618 586.755 123.946V163.426C586.755 176.754 575.95 187.559 562.621 187.559H516.318C509.918 187.559 503.78 190.102 499.254 194.628L494.01 199.871C489.484 204.397 486.941 210.535 486.941 216.936V263.238C486.941 276.567 476.137 287.372 462.809 287.372H423.329C410.001 287.372 399.195 276.567 399.195 263.238V223.76C399.195 210.431 410 199.626 423.329 199.626H469.632C476.032 199.626 482.171 197.083 486.697 192.557L491.94 187.313C496.466 182.788 499.009 176.649 499.009 170.249V123.946C499.009 110.618 509.813 99.8127 523.142 99.8125H562.621ZM662.554 99.8125C675.882 99.8127 686.686 110.618 686.687 123.946V170.249C686.687 176.65 689.229 182.789 693.755 187.314L698.999 192.558C703.525 197.083 709.663 199.626 716.063 199.626H762.366C775.695 199.626 786.5 210.431 786.5 223.76V263.238C786.5 276.567 775.695 287.372 762.366 287.372H722.887C709.558 287.372 698.754 276.567 698.754 263.238V216.936C698.754 210.535 696.211 204.397 691.686 199.871L686.442 194.628C681.916 190.102 675.778 187.56 669.377 187.56H623.074C609.746 187.56 598.94 176.754 598.94 163.426V123.946C598.941 110.618 609.746 99.8125 623.074 99.8125H662.554ZM762.404 99.8125C775.732 99.8126 786.538 110.618 786.538 123.946V163.426C786.538 176.754 775.733 187.559 762.404 187.56H722.925C709.596 187.56 698.791 176.754 698.791 163.426V123.946C698.791 110.618 709.596 99.8125 722.925 99.8125H762.404ZM163.57 0C176.898 0.000252853 187.703 10.8052 187.703 24.1338V63.6123C187.703 76.9405 176.899 87.7458 163.57 87.7461H112.024C98.6961 87.7461 87.8907 98.5513 87.8906 111.88V163.426C87.8905 176.754 77.0855 187.559 63.7568 187.559H24.2773C10.9492 187.558 0.144652 176.754 0.144531 163.426V24.1338C0.144531 10.8055 10.9488 0.00018328 24.2773 0H163.57ZM562.678 0C576.006 0 586.812 10.8051 586.812 24.1338V63.6123C586.812 76.9407 576.006 87.7461 562.678 87.7461H511.132C497.803 87.7462 486.998 98.5513 486.998 111.88V163.426C486.998 176.754 476.193 187.559 462.864 187.559H423.386C410.057 187.559 399.252 176.754 399.252 163.426V24.1338C399.252 10.8054 410.057 0 423.386 0H562.678ZM762.365 0.0205078C775.694 0.0205078 786.499 10.8266 786.499 24.1553V63.6338C786.499 76.9625 775.694 87.7686 762.365 87.7686H623.075C609.746 87.7686 598.94 76.9625 598.94 63.6338V24.1553C598.94 10.8266 609.746 0.0205078 623.075 0.0205078H762.365Z" fill="url(#paint0_linear_5261_23088)"/>
<defs>
<linearGradient id="paint0_linear_5261_23088" x1="11.5381" y1="255.5" x2="662.538" y2="302" gradientUnits="userSpaceOnUse">
<stop stop-color="#F1F4F8"/>
<stop offset="1" stop-color="#F1F4F8" stop-opacity="0"/>
</linearGradient>
</defs>
</svg>
