<svg width="979" height="488" viewBox="0 0 979 488" fill="none" xmlns="http://www.w3.org/2000/svg">
<path d="M979.006 24.3048C978.705 21.8082 978.017 19.3587 977.079 17.0323C973.13 7.57501 963.635 0.890244 953.463 0.0831299C948.115 -0.0401688 942.761 0.0642068 937.42 0.0333252C930.538 0.187285 923.625 -0.262431 916.768 0.353638C903.934 2.23275 893.596 14.1484 893.46 27.0929C893.442 34.6832 893.558 42.2683 893.503 49.8527C893.614 56.0197 892.844 62.4645 895.407 68.2804C899.184 78.8158 909.713 86.1785 920.803 86.7023C928.781 86.8995 936.766 86.69 944.751 86.881C949.84 86.8501 955.096 87.0968 959.963 85.298C969.881 82.1233 977.753 72.9038 979.006 62.5538V124.068C977.599 111.233 965.678 100.689 952.816 100.373C942.546 100.188 932.269 100.392 921.992 100.324C912.406 100.657 902.936 97.0096 895.506 91.0519C885.685 83.3626 879.826 70.9662 879.869 58.5206C879.881 50.5113 879.936 42.5017 879.924 34.4923C879.85 29.5511 880.404 24.4805 878.852 19.6935C875.555 8.07374 863.825 -0.391719 851.774 0.0147705C813.372 0.0209479 774.963 0.0206523 736.555 0.0391846C730.301 0.217852 724.011 -0.311484 717.788 0.427856C705.219 2.58425 695.127 14.315 694.979 27.087C694.967 37.5607 695.04 48.0411 694.991 58.5148C694.942 65.6062 693.347 72.7595 689.891 78.9884C683.797 90.22 672.22 98.1677 659.621 100.09C655.099 100.675 650.539 100.281 645.998 100.318C639.837 100.256 633.676 100.349 627.521 100.306C623.19 100.25 618.772 100.386 614.65 101.821C603.721 105.537 595.773 116.559 595.772 128.11C595.748 138.171 595.798 148.233 595.816 158.3C595.866 163.062 595.083 167.831 593.519 172.335C588.214 188.366 572.367 200.375 555.418 200.695C546.792 200.726 538.16 200.726 529.534 200.757C524.988 200.714 520.398 200.904 515.919 199.962C505.007 197.645 495.291 190.713 489.124 181.472C484.386 174.331 482.347 165.607 482.581 157.105C482.636 147.851 482.55 138.603 482.63 129.356C482.895 121.143 479.094 113.089 473.093 107.581C468.096 103.25 461.669 100.416 454.997 100.33C445.349 100.213 435.694 100.262 426.04 100.275C421.044 100.244 416.022 101.464 411.679 103.953C402.603 109.104 396.725 119.497 397.298 129.965C397.329 139.946 397.323 149.927 397.354 159.914C397.545 171.552 406.072 182.205 417.063 185.655C420.526 186.863 424.216 187.122 427.863 187.091C435.663 187.072 443.464 187.203 451.264 187.178C454.936 187.196 458.638 186.993 462.279 187.652C477.602 190.363 490.818 202.439 495.1 217.367C496.856 223.196 496.437 229.339 496.462 235.346C496.425 242.529 496.505 249.713 496.468 256.891C496.462 259.799 496.308 262.738 496.967 265.597C499.333 277.217 510.065 286.975 522.11 287.105C530.138 287.203 538.166 287.117 546.194 287.166C550.679 287.228 555.189 286.988 559.662 287.486C575.804 289.698 590.222 302.089 594.368 317.923C595.933 323.32 595.865 328.988 595.828 334.558C595.877 376.848 595.828 419.144 595.81 461.441C595.982 467.059 597.905 472.647 601.349 477.108C604.349 481.198 608.693 484.144 613.32 486.115C617.608 487.92 622.328 487.766 626.887 487.773C636.134 487.81 645.382 487.945 654.63 487.773C666.398 487.822 677.513 479.012 680.372 467.626C681.765 463.018 681.222 458.156 681.314 453.418C681.401 411.954 681.333 370.483 681.29 329.013H681.289C681.289 317.677 673.754 306.882 663.225 302.767C656.004 299.822 648.062 300.875 640.472 300.715C632.431 300.585 624.347 301.11 616.332 300.284C602.192 298.005 589.913 287.591 584.584 274.401C582.292 268.461 581.571 262.023 581.812 255.695C581.879 246.842 581.83 237.995 581.849 229.142C581.602 215.92 588.231 202.796 598.847 194.959C605.519 190.11 613.683 187.159 621.97 187.178C632.234 187.165 642.499 187.203 652.77 187.191C657.852 187.227 663.021 186.075 667.401 183.42C675.719 178.553 681.394 169.243 681.382 159.533C681.413 151.333 681.319 143.126 681.338 134.926C681.375 129.406 681.092 123.786 682.503 118.396C684.394 111.015 688.325 104.188 693.593 98.6984C701.22 91.3298 711.712 86.6904 722.396 86.9181C732.876 86.9796 743.357 86.9666 753.843 86.9728C758.217 86.9358 762.579 87.7313 766.694 89.2159C782.553 94.7055 794.241 110.65 794.309 127.488C794.339 137.765 794.376 148.036 794.29 158.313C794.099 164.227 795.99 170.124 799.515 174.868C804.783 182.619 814.111 187.092 823.408 187.061C865.501 187.313 907.606 187.123 949.705 187.228C955.152 187.345 960.684 186.087 965.373 183.253C972.598 178.986 977.85 171.346 979.006 163.03V224.441C977.943 215.316 971.724 207.062 963.352 203.283C959.119 201.244 954.375 200.584 949.717 200.701C907.427 200.714 865.131 200.763 822.835 200.733C811.209 200.997 799.724 195.878 791.862 187.363C784.34 179.736 780.711 168.929 780.606 158.338C780.613 148.259 780.6 138.179 780.6 128.106C780.519 116.695 772.523 106.086 761.92 102.186C758.174 100.658 754.114 100.183 750.097 100.257C742.919 100.232 735.741 100.276 728.563 100.276C725.156 100.3 721.718 100.184 718.36 100.824C705.441 102.956 695.3 115.136 695.01 128.136C694.905 138.184 695.034 148.234 694.954 158.282C694.893 160.993 695.139 163.717 695.866 166.341C698.707 177.905 709.802 186.907 721.755 187.11C732.432 187.271 743.11 187.172 753.793 187.196C768.536 187.123 782.547 196.155 789.564 208.964C792.756 214.731 794.327 221.354 794.241 227.941C794.254 238.815 794.308 249.689 794.32 260.564C794.382 272.276 803.162 283.194 814.425 286.151C819.163 287.427 824.122 287.1 828.983 287.15C836.999 287.205 845.027 287.124 853.049 287.198C861.286 287.223 869.289 290.199 876.122 294.678C883.509 300.081 889.264 307.838 891.833 316.667C893.767 322.631 893.497 328.978 893.46 335.163C893.429 342.748 893.41 350.338 893.453 357.929C893.798 369.364 889.122 380.903 880.762 388.746C873.177 396.712 862.057 400.865 851.151 400.785C841.712 400.865 832.267 400.724 822.834 400.835C816.439 400.977 810.025 399.646 804.259 396.873C790.747 390.589 781.21 376.535 780.704 361.595C780.482 351.552 780.717 341.503 780.674 331.454C780.846 327.117 780.353 322.743 778.899 318.64C775.252 308.289 764.754 301.055 753.854 300.772C744.391 300.593 734.921 300.797 725.452 300.729C720.215 300.809 714.867 300.673 709.883 298.911C699.729 295.35 690.795 288.073 685.762 278.505C682.453 272.498 681.233 265.56 681.264 258.765C681.282 249.098 681.277 239.425 681.289 229.759C681.394 226.253 680.981 222.716 679.761 219.414C676.557 210.209 668.19 203.167 658.671 201.257C654.266 200.555 649.787 200.752 645.345 200.721C638.161 200.776 630.983 200.66 623.806 200.715C618.883 200.74 614.009 202.108 609.801 204.658C601.04 209.667 595.489 219.685 595.668 229.752C595.662 239.838 595.797 249.924 595.674 260.01C595.68 270.391 602.513 279.891 611.601 284.487C615.766 286.539 620.454 287.18 625.062 287.137C634.489 287.112 643.922 287.193 653.354 287.168C665.812 286.842 677.937 293.162 685.694 302.755C691.757 310.013 695.04 319.464 694.96 328.909C695.022 371.649 695.127 414.389 695.01 457.129C694.819 461.744 695.238 466.456 697.056 470.744C701.036 480.553 710.998 487.885 721.73 487.725C761.587 487.823 801.443 487.731 841.3 487.848C846.395 487.768 851.515 488.051 856.604 487.552C868.668 485.586 878.883 474.996 879.942 462.741C880.022 451.43 879.819 440.112 879.887 428.8C879.659 418.006 883.923 407.162 891.514 399.467C898.691 391.852 909.048 387.169 919.559 387.298C930.39 387.181 941.215 387.434 952.046 387.274L952.699 387.264C955.966 387.187 959.253 386.65 962.273 385.357C971.079 381.706 977.631 373.166 979.006 363.772V424.777C977.892 414.962 970.886 406.125 961.633 402.67C956.149 400.163 950.013 400.852 944.172 400.778C936.428 400.865 928.683 400.526 920.945 400.698C917.033 400.822 913.157 401.794 909.633 403.483C899.639 408.103 893.152 419.108 893.484 430.044C893.355 439.064 893.528 448.084 893.473 457.104C893.386 460.8 893.411 464.577 894.545 468.138C897.86 478.63 907.68 487.262 918.887 487.731C927.327 487.804 935.762 487.878 944.209 487.785C949.31 487.668 954.603 488.248 959.514 486.504C968.102 483.756 975.175 476.757 977.861 468.125C978.464 466.613 978.811 465.058 979.006 463.481V488H0V0.00012207H979.006V24.3048ZM151.936 300.719C143.523 300.73 135.104 300.59 126.694 300.789C115.235 301.184 104.471 309.329 101.225 320.363C99.3703 325.711 99.9547 331.435 99.8623 336.992C99.7699 378.456 99.93 419.921 99.7822 461.385C99.8685 467.509 102.044 473.664 106.098 478.291C111.039 484.28 118.784 488.014 126.584 487.755C134.809 487.786 143.04 487.897 151.271 487.854C156.613 487.804 162.176 488.192 167.21 486.018C177.444 482.148 184.861 471.81 184.936 460.824C184.923 417.678 184.936 374.532 185.01 331.386C185.398 323.229 182.447 314.929 176.631 309.138C171.117 303.63 163.322 300.562 155.541 300.703L151.936 300.719ZM58.8291 400.797C50.1914 400.754 41.5537 400.748 32.916 400.773C29.3179 400.828 25.6759 400.643 22.1455 401.443C9.74335 404.093 -0.268061 415.96 0.0830078 428.769C0.101539 439.051 0.0394618 449.334 0.0273438 459.623C-0.32382 471.212 7.37825 482.66 18.4561 486.314C23.089 488.131 28.1168 487.699 32.9775 487.761C41.3995 487.829 49.8278 487.922 58.25 487.805C64.5959 487.879 70.7762 485.285 75.6865 481.366C81.7798 476.407 85.6179 468.735 85.7783 460.861C85.9446 450.782 85.6856 440.702 85.8828 430.623C86.0244 426.428 85.5817 422.17 84.0293 418.245C80.1971 408.067 69.7659 400.655 58.8301 400.797H58.8291ZM551.708 300.696C541.906 300.801 532.097 300.537 522.301 300.802C511.205 301.8 501.107 309.902 497.896 320.597C496.178 325.267 496.596 330.289 496.504 335.162C496.424 343.966 496.615 352.777 496.474 361.587C495.925 371.451 491.717 381.118 484.718 388.123C477.435 396.059 466.746 400.581 456.025 400.741C445.841 401 435.663 400.551 425.484 400.717C418.442 400.779 411.413 403.551 406.336 408.455C400.668 413.84 397.285 421.597 397.297 429.421C397.223 437.215 397.303 445.009 397.272 452.809C397.346 458.083 396.798 463.524 398.591 468.607C401.302 477.577 409.053 484.65 418.048 487.028C421.258 487.94 424.616 487.712 427.912 487.768C437.147 487.835 446.395 487.928 455.637 487.774C469.241 487.965 481.717 476.221 482.555 462.679C482.783 449.728 482.333 436.765 482.863 423.827C483.615 414.438 488.47 405.781 494.945 399.109C501.71 392.134 511.155 387.692 520.908 387.427C529.934 387.193 538.966 387.464 547.992 387.402C553.352 387.365 558.923 387.753 564.012 385.738C574.325 381.924 581.731 371.426 581.836 360.429C581.86 352.407 581.786 344.385 581.848 336.363C581.761 332.026 582.174 327.62 581.207 323.351C580.147 318.262 577.652 313.468 574.029 309.729C568.386 303.636 559.945 300.487 551.708 300.696ZM528.948 400.747C525.332 400.784 521.666 400.649 518.117 401.456C506.085 404.229 496.596 415.775 496.504 428.171C496.424 436.778 496.504 445.391 496.479 454.004C496.529 458.378 496.129 462.833 497.312 467.115C500.103 478.704 511.285 488.002 523.349 487.743C533.41 487.86 543.471 487.873 553.538 487.823C557.413 487.854 561.369 487.453 564.924 485.783C574.547 481.717 581.583 471.995 581.842 461.466C581.885 450.358 581.83 439.248 581.849 428.14C581.892 422.946 580.295 417.82 577.652 413.384C572.822 405.701 563.888 400.674 554.782 400.797C546.169 400.772 537.561 400.778 528.948 400.747ZM128.426 0.0333252C126.276 0.0333259 124.113 0.0399828 122 0.421997C109.659 2.72628 99.5548 14.3957 99.752 27.0626C99.752 37.5242 99.7959 47.9859 99.7959 58.4474C99.8205 67.4733 96.9734 76.5914 91.4102 83.7443C84.9225 92.3144 75.022 98.1863 64.4619 100.047C55.8487 100.953 47.1607 100.188 38.5166 100.349C31.5484 100.484 24.2356 99.5547 17.625 102.333C7.87825 106.098 0.60111 115.764 0.0771484 126.244C0.0586163 171.023 0.126683 215.796 0.0283203 260.575C0.0345018 265.96 1.66126 271.382 4.87109 275.732C9.95393 282.897 18.6535 287.29 27.4395 287.136C69.329 287.154 111.219 287.099 153.108 287.192C157.335 287.185 161.611 287.154 165.751 288.164C183.575 292.052 198.602 308.515 198.774 327.109C198.854 370.86 198.904 414.616 198.799 458.372C198.491 465.346 200.469 472.58 205.016 477.977C210.018 484.082 217.812 487.976 225.76 487.761C267.249 487.952 308.738 487.706 350.221 487.841C354.601 487.742 359.087 488.112 363.351 486.873C374.434 483.7 383.152 473.103 383.417 461.465C383.436 450.776 383.436 440.092 383.442 429.402C383.405 424.178 384.176 418.91 386.116 414.049C390.755 402.75 399.954 392.873 411.808 389.183C417.186 387.384 422.91 387.212 428.529 387.261H428.528C437.382 387.242 446.241 387.427 455.095 387.236C463.529 387.076 471.711 382.763 476.745 376.017C480.731 370.903 482.715 364.378 482.599 357.922C482.537 341.078 482.586 324.238 482.647 307.394C482.715 281.098 482.519 254.796 482.673 228.501C482.704 214.787 471.305 201.872 457.492 200.904C449.883 200.405 442.243 200.862 434.622 200.738C428.054 200.591 421.327 201.28 414.919 199.469C405.16 196.961 396.497 190.721 390.742 182.489C385.542 175.152 383.152 166.014 383.417 157.068C383.417 146.804 383.454 136.533 383.441 126.263C383.09 112.548 370.663 100.583 357.01 100.41C346.548 100.195 336.081 100.423 325.613 100.343C314.024 100.559 302.83 94.9642 295.005 86.6036C288.123 79.2288 284.376 69.1493 284.389 59.1007C284.383 48.6208 284.365 38.1401 284.414 27.6603C284.919 13.0831 271.857 -0.32394 257.225 0.0518799C214.288 0.00246049 171.357 0.0395026 128.426 0.0333252ZM123.663 87.005C135.129 86.7092 146.601 87.0542 158.066 86.962C178.86 86.728 197.997 104.853 198.768 125.659C198.811 135.307 198.853 144.963 198.822 154.617C198.847 158.098 198.552 161.635 199.31 165.067C201.78 177.025 212.815 186.889 225.155 187.185C235.845 187.179 246.529 187.216 257.212 187.185C265.702 187.068 274.013 190.112 280.981 194.85C291.27 202.225 298.313 214.479 298.109 227.294C298.035 237.774 298.22 248.255 298.091 258.734C297.29 272.936 309.402 286.625 323.715 287.057C331.33 287.26 338.958 287.057 346.579 287.168C353.738 287.328 361.138 286.509 368.014 289.01C380.767 292.892 391.543 303.107 395.455 315.941C397.365 321.301 397.322 327.049 397.31 332.668C397.322 341.7 397.408 350.739 397.377 359.777L397.378 359.776C397.267 369.899 393.169 379.8 386.398 387.285C380.669 393.902 372.561 398.172 364.059 399.959C358.914 401.068 353.628 400.76 348.409 400.821C340.997 400.76 333.592 400.834 326.18 400.816C314.794 400.951 303.525 395.997 295.67 387.803C288.203 380.348 284.185 369.696 284.376 359.192C284.401 348.915 284.45 338.644 284.438 328.367C284.468 320.795 281.203 313.248 275.572 308.171C272.578 305.442 268.98 303.389 265.16 302.059C260.823 300.543 256.177 300.667 251.654 300.654C242.825 300.734 233.997 300.709 225.174 300.728C215.421 300.721 205.878 296.705 198.645 290.242C191.824 284.291 187.307 275.917 185.558 267.082C184.566 262.307 184.978 257.41 184.898 252.573C184.825 243.973 185.108 235.377 184.954 226.776C184.578 216.487 177.641 207.03 168.227 203.05C163.119 200.703 157.382 200.628 151.868 200.708C143.44 200.77 135.005 200.764 126.577 200.739C116.997 200.801 107.545 197.031 100.361 190.746C91.397 183.279 86.0743 171.751 85.8525 160.119C85.7601 151.506 85.9446 142.886 85.9014 134.267C85.9137 128.716 85.7601 123.053 87.2939 117.656C89.0992 110.571 93.0361 104.182 98.0635 98.9269C104.915 92.2052 114.101 87.8798 123.663 87.005ZM53.9004 300.709C44.899 300.771 35.8917 300.568 26.8965 300.789C16.3366 301.282 6.20715 308.108 2.20215 317.966C0.477005 321.792 -0.0955832 326.025 0.0585938 330.196C0.0585931 340.467 -0.0156014 350.732 0.00292969 361.002C0.107766 371.636 7.2297 381.698 17.1182 385.524C20.7533 387.052 24.7279 387.508 28.6465 387.434C39.1263 387.354 49.6003 387.612 60.0801 387.384C64.3375 387.094 68.5767 385.862 72.2549 383.675C80.751 378.746 86.1968 368.968 85.8887 359.153C85.8887 349.099 85.8763 339.037 85.9072 328.983C86.0058 324.195 84.8604 319.364 82.5254 315.175C78.4036 307.529 70.4001 302.262 61.8486 301.024C59.224 300.592 56.5498 300.721 53.9004 300.709ZM346.518 300.728C339.167 300.802 331.817 300.573 324.479 300.795C318.841 301.14 313.389 303.346 308.959 306.815C302.065 312.156 297.98 320.874 298.195 329.58C298.226 339.851 298.146 350.116 298.189 360.38C298.485 374.705 311.522 387.137 325.735 387.304C334.94 387.427 344.151 387.396 353.355 387.371C358.494 387.414 363.713 386.411 368.254 383.928C376.004 379.966 381.543 372.135 383.034 363.596C383.669 360.509 383.429 357.348 383.466 354.218C383.466 346.018 383.366 337.817 383.563 329.623C383.563 324.22 382.159 318.761 379.27 314.171C375.807 308.472 370.145 304.32 363.86 302.219C358.297 300.229 352.309 300.789 346.518 300.728ZM841.3 300.697C833.617 300.919 825.884 300.032 818.244 301.079C810.648 302.459 803.458 306.76 799.207 313.278C796.145 317.911 794.234 323.413 794.277 329.001C794.302 339.068 794.302 349.13 794.314 359.197C793.994 371.606 803.329 383.416 815.318 386.361C819.773 387.575 824.418 387.188 828.983 387.268C836.765 387.335 844.559 387.384 852.347 387.224C864.398 386.99 875.296 377.902 878.654 366.48C880.466 361.545 879.696 356.252 879.819 351.126C879.733 343.308 879.918 335.489 879.751 327.677L879.728 327.176C879.139 316.683 872.08 306.955 862.358 303.007C855.779 299.902 848.329 300.845 841.3 300.697ZM258.45 200.837C250.65 200.461 242.831 200.893 235.025 200.733C230.602 200.769 226.142 200.535 221.749 201.213C210.998 202.987 202.076 211.903 199.574 222.407C198.588 226.024 198.946 229.795 198.885 233.491C198.934 242.529 198.817 251.574 198.854 260.612C199.248 272.479 208.305 283.144 219.679 286.126C224.275 287.432 229.099 287.137 233.818 287.155C241.612 287.088 249.406 287.18 257.199 287.118C268.862 286.866 279.657 278.517 283.132 267.433C284.475 263.428 284.37 259.165 284.389 255C284.358 246.59 284.389 238.18 284.383 229.764C284.395 226.338 284.032 222.881 282.849 219.647C279.423 209.271 269.386 201.453 258.45 200.837ZM759.184 201.54C752.77 200.148 746.153 200.85 739.647 200.714C732.346 200.911 724.99 200.222 717.738 201.263C705.7 203.616 695.916 214.491 695.084 226.77C694.763 236.4 695.114 246.042 694.936 255.678C694.818 259.67 694.992 263.736 696.316 267.544H696.315C699.784 278.086 709.79 286.625 721.102 286.97C729.327 287.346 737.565 286.939 745.796 287.111C751.261 287 756.935 287.488 762.166 285.547C771.993 281.819 779.448 272.239 780.557 261.783C780.649 250.712 780.6 239.634 780.594 228.557C780.55 216.136 771.216 204.491 759.184 201.54ZM134.636 100.251C130.816 100.288 126.959 100.078 123.183 100.78C110.552 103.066 100.337 114.668 99.8193 127.508C99.8255 138.185 99.8564 148.862 99.8193 159.545C99.764 171.485 108.5 182.73 119.954 185.94C124.877 187.572 130.114 187.123 135.209 187.153C142.571 187.104 149.928 187.252 157.284 187.092C167.918 186.833 178.115 180.186 182.539 170.494C184.246 166.884 185.016 162.879 184.954 158.899C184.923 149.041 184.972 139.189 185.003 129.331C185.219 121.593 181.972 113.891 176.47 108.476C171.307 103.313 164.061 100.454 156.791 100.306C149.41 100.177 142.023 100.331 134.636 100.251ZM554.159 0.0157471C511.031 -0.00278501 467.91 -0.00893964 424.782 0.0343018C423.224 0.0466554 421.665 0.125893 420.137 0.390747C410.402 2.17124 401.814 9.44178 398.807 18.9298C396.737 24.0805 397.39 29.6936 397.31 35.0968L397.296 38.2521C397.279 45.6162 397.36 52.9807 397.322 60.3448C397.501 71.8168 405.898 82.309 416.767 85.6359C421.332 87.1947 426.218 86.702 430.956 86.7882C439.169 86.9298 447.388 86.8804 455.601 86.9113C469.352 86.7759 482.624 94.5327 490.029 105.992C494.342 112.498 496.56 120.329 496.455 128.123C496.43 135.911 496.424 143.699 496.448 151.486C496.534 156.446 495.888 161.548 497.49 166.354C500.725 178.195 512.362 186.987 524.604 187.055C533.852 187.049 543.101 187.178 552.349 187.116C558.923 187.165 565.428 184.904 570.659 180.955C577.929 175.386 581.977 166.169 581.799 157.075C581.885 116.615 581.768 76.1549 581.848 35.6886C581.731 29.5339 582.495 23.095 580.006 17.2667C576.014 6.92222 565.181 -0.125837 554.159 0.0157471ZM31.123 0.0216064C28.5479 0.0339605 25.9661 -0.0279655 23.4219 0.384888C10.9518 2.47356 0.705322 13.816 0.0644531 26.465C0.138344 37.752 0.0396994 49.0455 0.0273438 60.339C0.187545 74.3555 12.886 86.4745 26.7607 86.7765L28.7578 86.7638C38.7447 86.729 48.7319 87.05 58.7188 86.7208C69.513 85.7597 79.7779 78.6867 83.7393 68.4591C86.3082 62.8095 85.7719 56.5064 85.7412 50.4747C85.7044 42.6748 85.8765 34.8684 85.79 27.0685C85.7099 20.1805 82.8142 13.4159 78.0703 8.45618C72.9074 3.18854 65.6125 -0.0958007 58.1885 0.0460205C49.1687 0.015135 40.1429 0.0339604 31.123 0.0216064ZM381.531 17.3654C377.508 6.8669 366.442 -0.508502 355.18 0.0274658C346.154 -0.00341953 337.122 0.0580319 328.096 0.0333252C325.533 0.0395025 322.944 -0.00980543 320.412 0.470825C308.275 2.81837 298.633 14.0626 298.158 26.4152C298.103 35.2564 298.146 44.098 298.152 52.9454C298.183 57.2704 297.838 61.7005 299.175 65.8898C301.83 75.4581 309.772 83.3875 319.402 85.8829C323.82 87.1582 328.447 86.7088 332.981 86.795C337.3 86.7397 341.62 86.9177 345.938 86.8068C352.364 86.7082 359.056 87.4849 365.198 85.1007C375.37 81.3424 383.108 71.3236 383.386 60.3693C383.46 49.261 383.374 38.1523 383.46 27.0441C383.528 23.7234 382.677 20.4579 381.531 17.3654ZM655.899 0.0762939C646.639 -0.0408381 637.379 0.0642085 628.119 0.0333252C624.928 0.0703883 621.711 -0.13283 618.551 0.390747C606.179 2.55329 596.303 13.9082 595.841 26.4581C595.804 37.542 595.834 48.6262 595.772 59.7101C595.661 73.8562 608.335 86.85 622.543 86.7452C632.413 86.8315 642.283 86.7824 652.153 86.7765C656.503 86.795 660.878 85.9262 664.777 83.9484C674.456 79.383 680.944 69.1432 681.228 58.4845C681.338 48.0228 681.234 37.5546 681.333 27.087C681.684 13.2307 669.522 0.914065 655.899 0.0762939Z" fill="url(#paint0_linear_5205_2265)"/>
<defs>
<linearGradient id="paint0_linear_5205_2265" x1="9.51954" y1="16.534" x2="578.686" y2="488" gradientUnits="userSpaceOnUse">
<stop stop-color="white" stop-opacity="0"/>
<stop offset="1" stop-color="white"/>
</linearGradient>
</defs>
</svg>
