<svg width="836" height="438" viewBox="0 0 836 438" fill="none" xmlns="http://www.w3.org/2000/svg">
<path d="M835.28 438H126.396C127.273 437.999 128.151 437.996 129.028 437.991C133.585 437.947 138.33 438.295 142.623 436.343C151.352 432.869 157.679 423.587 157.742 413.725C157.732 374.988 157.743 336.252 157.806 297.516C158.137 290.192 155.619 282.741 150.658 277.541C145.955 272.596 139.307 269.842 132.67 269.969L129.595 269.983C122.419 269.993 115.238 269.867 108.064 270.046C98.2901 270.4 89.1092 277.713 86.3398 287.619C84.7581 292.421 85.2575 297.56 85.1787 302.549C85.0999 339.775 85.2364 377.002 85.1104 414.229C85.184 419.727 87.0392 425.252 90.4971 429.406C94.7117 434.783 101.318 438.135 107.971 437.903C114.109 437.927 120.252 438.007 126.396 438H0V0.000244141H835.28V438ZM50.1797 359.832C42.8119 359.793 35.443 359.788 28.0752 359.81C25.0063 359.859 21.9008 359.694 18.8896 360.413C8.31092 362.792 -0.229215 373.446 0.0703125 384.946C0.0861171 394.177 0.0337729 403.41 0.0234375 412.647C-0.275905 423.051 6.2934 433.329 15.7422 436.609C19.6938 438.24 23.982 437.853 28.1279 437.908C35.3117 437.969 42.5015 438.052 49.6855 437.948C55.0982 438.014 60.3694 435.685 64.5576 432.167C69.755 427.714 73.0282 420.827 73.165 413.758C73.3069 404.709 73.0867 395.66 73.2549 386.611C73.3757 382.844 72.997 379.021 71.6729 375.497C68.4041 366.36 59.5074 359.705 50.1797 359.832ZM726.528 0.0129395C693.773 0.0184855 661.012 0.0187622 628.251 0.0354004C622.917 0.195799 617.552 -0.279709 612.244 0.384033C601.524 2.32003 592.915 12.8519 592.789 24.3186C592.779 33.7219 592.842 43.1311 592.8 52.5344C592.758 58.901 591.396 65.323 588.448 70.9153C583.251 80.9989 573.377 88.1348 562.63 89.8606C558.773 90.386 554.884 90.0317 551.011 90.0647C545.756 90.0095 540.5 90.0928 535.25 90.054C531.556 90.0043 527.787 90.1255 524.271 91.4143C514.949 94.75 508.17 104.646 508.17 115.017C508.149 124.05 508.191 133.083 508.207 142.121C508.249 146.397 507.582 150.679 506.247 154.722C501.722 169.114 488.206 179.895 473.749 180.183C466.392 180.211 459.029 180.21 451.672 180.238C447.794 180.199 443.878 180.371 440.058 179.525C430.751 177.445 422.464 171.222 417.203 162.925C413.162 156.514 411.422 148.681 411.622 141.048C411.669 132.74 411.596 124.437 411.664 116.134C411.89 108.761 408.647 101.531 403.528 96.5862C399.266 92.6976 393.785 90.1529 388.094 90.0754C379.864 89.9703 371.629 90.0145 363.395 90.0256C359.133 89.9979 354.849 91.0938 351.145 93.3284C343.404 97.9528 338.39 107.284 338.879 116.682C338.905 125.643 338.9 134.604 338.927 143.571C339.09 154.019 346.363 163.583 355.738 166.681C358.692 167.765 361.839 167.997 364.95 167.969C371.603 167.952 378.256 168.069 384.909 168.047C388.041 168.064 391.2 167.881 394.306 168.473C407.375 170.907 418.647 181.748 422.3 195.151C423.798 200.383 423.441 205.898 423.462 211.291C423.43 217.741 423.498 224.191 423.467 230.635C423.462 233.246 423.33 235.884 423.893 238.45C425.911 248.883 435.065 257.645 445.339 257.761C452.186 257.85 459.034 257.772 465.882 257.816C469.707 257.871 473.554 257.656 477.369 258.104C491.138 260.089 503.435 271.213 506.972 285.429C508.307 290.274 508.249 295.363 508.218 300.364C508.26 338.331 508.217 376.304 508.201 414.278C508.348 419.322 509.988 424.339 512.926 428.344C515.485 432.017 519.19 434.661 523.137 436.431C526.794 438.052 530.82 437.914 534.709 437.919C542.597 437.952 550.485 438.074 558.373 437.919C568.41 437.963 577.891 430.053 580.329 419.831C581.517 415.694 581.055 411.329 581.134 407.075C581.207 369.849 581.149 332.617 581.112 295.385L581.111 295.386C581.111 285.208 574.684 275.516 565.703 271.822C559.544 269.178 552.77 270.124 546.296 269.98C539.438 269.863 532.543 270.334 525.706 269.593C513.645 267.546 503.172 258.198 498.626 246.356C496.671 241.023 496.057 235.243 496.262 229.562C496.319 221.613 496.277 213.67 496.293 205.722C496.083 193.851 501.737 182.069 510.792 175.033C516.483 170.68 523.446 168.031 530.515 168.047C539.27 168.036 548.025 168.069 556.785 168.058C561.121 168.091 565.53 167.057 569.267 164.673C576.361 160.303 581.201 151.945 581.19 143.228C581.217 135.865 581.138 128.497 581.154 121.135C581.186 116.179 580.944 111.134 582.147 106.294C583.761 99.6677 587.113 93.539 591.606 88.6106C598.112 81.9951 607.061 77.83 616.174 78.0344C625.113 78.0897 634.053 78.0787 642.997 78.0842C646.728 78.051 650.449 78.765 653.959 80.0979C667.486 85.0264 677.455 99.3409 677.513 114.458C677.539 123.684 677.571 132.906 677.497 142.132C677.334 147.442 678.948 152.736 681.954 156.995C686.447 163.954 694.403 167.969 702.333 167.942C738.237 168.168 774.151 167.997 810.06 168.091C814.705 168.196 819.425 167.068 823.424 164.524C830.597 160.065 835.49 151.502 835.248 142.657C835.085 132.624 835.295 122.59 835.143 112.562C834.538 100.514 824.054 90.408 812.714 90.1145C803.954 89.9485 795.188 90.1313 786.422 90.0706C778.245 90.3692 770.168 87.0943 763.83 81.7454C755.454 74.8421 750.456 63.7137 750.492 52.5403C750.503 45.3494 750.55 38.1579 750.539 30.967C750.476 26.5309 750.949 21.9786 749.625 17.6809C746.814 7.24857 736.808 -0.352247 726.528 0.0129395ZM470.584 269.963C462.223 270.057 453.857 269.82 445.501 270.058C436.037 270.954 427.424 278.227 424.686 287.829C423.219 292.022 423.577 296.531 423.498 300.906C423.43 308.811 423.593 316.72 423.472 324.63C423.004 333.486 419.414 342.165 413.444 348.454C407.233 355.579 398.115 359.639 388.971 359.782C380.284 360.015 371.602 359.611 362.921 359.76C356.914 359.815 350.918 362.305 346.588 366.708C341.753 371.543 338.868 378.507 338.878 385.531C338.815 392.529 338.884 399.526 338.857 406.529C338.92 411.263 338.452 416.148 339.981 420.711C342.294 428.765 348.905 435.115 356.577 437.25C359.315 438.069 362.18 437.865 364.991 437.914C372.869 437.975 380.757 438.057 388.64 437.919C400.243 438.091 410.885 427.548 411.6 415.39C411.794 403.763 411.41 392.125 411.862 380.509C412.504 372.079 416.645 364.307 422.168 358.317C427.938 352.055 435.994 348.067 444.313 347.829C452.012 347.619 459.716 347.862 467.415 347.807C471.987 347.774 476.737 348.122 481.078 346.314C489.875 342.89 496.193 333.464 496.282 323.59C496.303 316.388 496.24 309.187 496.292 301.985C496.218 298.09 496.571 294.135 495.746 290.302C494.842 285.733 492.714 281.43 489.624 278.073L489.166 277.568C484.361 272.428 477.391 269.781 470.584 269.963ZM639.802 90.01C633.679 89.9878 627.557 90.0266 621.435 90.0266C618.529 90.0488 615.596 89.9436 612.732 90.5188C601.712 92.4326 593.062 103.369 592.815 115.04C592.726 124.062 592.836 133.083 592.768 142.105C592.715 144.539 592.925 146.984 593.545 149.34C595.968 159.723 605.433 167.804 615.628 167.987C624.735 168.13 633.843 168.042 642.955 168.064C655.531 167.998 667.481 176.107 673.467 187.607C676.189 192.784 677.529 198.731 677.455 204.644C677.466 214.406 677.513 224.169 677.523 233.932C677.576 244.447 685.065 254.249 694.671 256.905C698.712 258.05 702.943 257.756 707.089 257.8C713.926 257.85 720.774 257.778 727.616 257.845C734.642 257.867 741.469 260.539 747.297 264.56C753.598 269.411 758.506 276.375 760.697 284.302C762.347 289.656 762.116 295.353 762.085 300.906C762.059 307.716 762.042 314.531 762.079 321.346C762.373 331.612 758.385 341.972 751.254 349.014C744.785 356.166 735.299 359.894 725.997 359.823C717.946 359.894 709.89 359.767 701.845 359.866C696.39 359.994 690.919 358.799 686 356.31C674.475 350.668 666.34 338.05 665.909 324.637C665.72 315.621 665.919 306.599 665.883 297.577C666.03 293.683 665.61 289.756 664.37 286.073C661.259 276.78 652.304 270.285 643.008 270.031C634.936 269.87 626.858 270.053 618.781 269.992C614.314 270.064 609.753 269.943 605.501 268.361C596.84 265.164 589.22 258.631 584.927 250.04C582.105 244.647 581.064 238.419 581.091 232.318C581.107 223.639 581.101 214.954 581.111 206.276C581.201 203.128 580.849 199.953 579.809 196.989C577.076 188.725 569.939 182.402 561.82 180.687C558.063 180.056 554.242 180.234 550.453 180.206C544.326 180.256 538.203 180.151 532.081 180.2C527.882 180.223 523.725 181.451 520.136 183.74C512.663 188.237 507.928 197.232 508.08 206.27C508.075 215.325 508.191 224.38 508.086 233.435C508.091 242.755 513.919 251.285 521.67 255.411C525.223 257.253 529.223 257.828 533.153 257.789C541.194 257.767 549.24 257.84 557.285 257.818C567.911 257.525 578.253 263.2 584.869 271.812C590.04 278.328 592.842 286.813 592.773 295.292C592.826 333.664 592.915 372.035 592.815 410.406C592.652 414.55 593.009 418.781 594.56 422.631C597.954 431.437 606.452 438.02 615.606 437.876C649.602 437.965 683.599 437.881 717.595 437.987C721.941 437.915 726.308 438.169 730.648 437.721C740.938 435.956 749.651 426.448 750.555 415.446C750.623 405.29 750.45 395.128 750.508 384.973C750.313 375.282 753.95 365.547 760.425 358.638C766.547 351.801 775.381 347.597 784.347 347.713C793.585 347.608 802.818 347.836 812.057 347.692V347.691C815.026 347.674 818.032 347.21 820.78 345.971C829.667 342.093 835.863 332.07 835.237 321.904C835.122 282.625 835.147 243.352 835.189 204.073C835.226 194.891 829.582 186.251 821.699 182.506C818.089 180.675 814.043 180.084 810.07 180.189C773.999 180.2 737.922 180.244 701.845 180.216C691.928 180.454 682.132 175.857 675.427 168.213C669.01 161.365 665.915 151.663 665.825 142.155C665.83 133.105 665.82 124.056 665.82 115.012C665.752 104.768 658.931 95.2428 649.887 91.7415C646.692 90.3697 643.228 89.9435 639.802 90.01ZM451.171 359.788C448.086 359.822 444.959 359.7 441.933 360.424C431.669 362.913 423.576 373.279 423.497 384.408C423.429 392.136 423.498 399.869 423.477 407.602C423.519 411.529 423.177 415.528 424.186 419.372C426.566 429.777 436.105 438.124 446.395 437.892C454.976 437.997 463.558 438.008 472.145 437.964C475.45 437.992 478.824 437.632 481.856 436.133C490.065 432.482 496.066 423.754 496.287 414.301C496.324 404.328 496.276 394.354 496.292 384.381L496.291 383.944C496.242 379.431 494.897 374.991 492.713 371.133C488.593 364.236 480.973 359.722 473.206 359.832C465.859 359.81 458.518 359.816 451.171 359.788ZM109.543 0.0305176C107.709 0.0305176 105.864 0.0361485 104.062 0.37915C93.5355 2.448 84.9168 12.9249 85.085 24.2971C85.085 33.6894 85.1221 43.0816 85.1221 52.4739C85.1431 60.5775 82.7152 68.7639 77.9697 75.1858C72.436 82.8801 63.9909 88.1511 54.9834 89.8215C47.6369 90.6346 40.2274 89.9491 32.8545 90.093C26.9108 90.2148 20.6729 89.3798 15.0342 91.8743C6.72056 95.2539 0.514243 103.933 0.0673828 113.342C0.0515761 153.544 0.109289 193.741 0.0253906 233.943C0.0306596 238.777 1.41753 243.645 4.15527 247.55C8.4907 253.983 15.9113 257.927 23.4053 257.789C59.1354 257.806 94.8656 257.756 130.596 257.839C134.201 257.834 137.848 257.805 141.379 258.712C156.582 262.203 169.4 276.983 169.547 293.677C169.615 332.955 169.658 372.24 169.568 411.524C169.306 417.785 170.993 424.279 174.871 429.124C179.138 434.606 185.785 438.102 192.564 437.908C227.953 438.08 263.342 437.859 298.725 437.981C302.461 437.892 306.287 438.223 309.924 437.112C319.378 434.263 326.814 424.749 327.04 414.3C327.056 404.703 327.056 395.112 327.062 385.515C327.03 380.824 327.687 376.095 329.342 371.731C333.299 361.586 341.145 352.719 351.256 349.406C355.844 347.79 360.726 347.636 365.519 347.68H365.518C373.069 347.663 380.626 347.83 388.178 347.658C395.372 347.515 402.351 343.642 406.645 337.585C410.045 332.994 411.737 327.137 411.638 321.34C411.585 306.217 411.627 291.1 411.68 275.977C411.737 252.369 411.569 228.755 411.7 205.147C411.727 192.834 402.005 181.24 390.223 180.371C383.733 179.923 377.216 180.333 370.716 180.222C365.114 180.089 359.375 180.709 353.909 179.082C345.585 176.831 338.196 171.228 333.288 163.838C328.853 157.25 326.813 149.047 327.039 141.016C327.039 131.801 327.071 122.579 327.061 113.359C326.761 101.046 316.161 90.3035 304.516 90.1487C295.592 89.955 286.664 90.16 277.735 90.0881C267.85 90.2818 258.302 85.2583 251.628 77.7522C245.758 71.1312 242.563 62.0823 242.573 53.0608C242.568 43.6519 242.552 34.2421 242.594 24.8333C243.024 11.746 231.883 -0.290334 219.402 0.0471191C182.779 0.00275152 146.161 0.0360636 109.543 0.0305176ZM805.34 359.816C798.734 359.893 792.129 359.589 785.528 359.743C782.191 359.854 778.885 360.729 775.879 362.244C767.355 366.393 761.822 376.272 762.105 386.09C761.995 394.188 762.142 402.286 762.095 410.384C762.021 413.703 762.043 417.093 763.01 420.29C765.837 429.71 774.213 437.461 783.772 437.881C790.972 437.947 798.166 438.013 805.371 437.93C809.722 437.825 814.237 438.345 818.426 436.78C825.751 434.313 831.784 428.029 834.075 420.28C835.736 415.893 835.127 411.114 835.185 406.518C835.106 398.514 835.29 390.509 835.147 382.511C834.617 373.246 828.468 364.75 820.233 361.514C815.556 359.263 810.322 359.882 805.34 359.816ZM105.48 78.1125C115.26 77.847 125.045 78.1572 134.825 78.0745C152.561 77.8644 168.884 94.1373 169.541 112.817C169.578 121.479 169.614 130.147 169.588 138.815C169.609 141.94 169.357 145.115 170.003 148.196C172.11 158.932 181.523 167.788 192.049 168.054C201.167 168.048 210.279 168.082 219.392 168.054C226.633 167.949 233.723 170.681 239.666 174.935C248.442 181.556 254.449 192.558 254.275 204.064C254.212 213.473 254.37 222.882 254.26 232.29C253.577 245.04 263.908 257.331 276.116 257.718C282.612 257.901 289.117 257.718 295.618 257.818C301.725 257.961 308.037 257.226 313.901 259.472C324.779 262.957 333.97 272.128 337.308 283.65C338.937 288.462 338.9 293.623 338.89 298.667C338.9 306.776 338.974 314.891 338.947 323.005L338.929 323.856C338.632 332.646 335.178 341.192 329.583 347.702C324.696 353.643 317.779 357.476 310.527 359.08C306.139 360.076 301.631 359.8 297.18 359.856C290.858 359.8 284.541 359.866 278.219 359.85C268.507 359.972 258.895 355.524 252.194 348.167C245.825 341.474 242.4 331.911 242.562 322.48C242.584 313.253 242.625 304.032 242.614 294.806C242.641 288.008 239.856 281.232 235.053 276.674C232.499 274.224 229.429 272.382 226.171 271.187C222.471 269.826 218.509 269.937 214.651 269.926C207.121 269.998 199.59 269.976 192.064 269.992C183.746 269.987 175.605 266.38 169.436 260.577C163.618 255.234 159.767 247.717 158.274 239.785C157.428 235.499 157.78 231.101 157.712 226.759C157.649 219.037 157.89 211.321 157.759 203.599C157.438 194.361 151.521 185.871 143.491 182.297C139.135 180.19 134.242 180.123 129.538 180.195C122.349 180.25 115.155 180.245 107.966 180.223C99.7943 180.278 91.733 176.893 85.6055 171.251C77.9592 164.547 73.4186 154.197 73.2295 143.754C73.1507 136.021 73.3084 128.283 73.2715 120.544C73.282 115.561 73.1507 110.477 74.459 105.632C75.9988 99.271 79.3563 93.5341 83.6445 88.8157C89.4884 82.781 97.3243 78.898 105.48 78.1125ZM45.9746 269.975C38.2968 270.03 30.6139 269.847 22.9414 270.046C13.9341 270.489 5.29492 276.618 1.87891 285.468C0.407454 288.903 -0.0816794 292.703 0.0498047 296.448C0.0498047 305.668 -0.0128763 314.884 0.00292969 324.105C0.0923017 333.652 6.16696 342.685 14.6016 346.12C17.702 347.492 21.0914 347.902 24.4336 347.835C33.3726 347.763 42.3071 347.995 51.2461 347.79C54.8774 347.53 58.4926 346.424 61.6299 344.46C68.8769 340.035 73.5225 331.257 73.2598 322.446C73.2598 313.418 73.249 304.385 73.2754 295.358C73.3594 291.06 72.3823 286.723 70.3906 282.962C66.8749 276.098 60.0482 271.369 52.7539 270.257C50.5152 269.87 48.2344 269.986 45.9746 269.975ZM295.565 269.991C289.296 270.058 283.026 269.853 276.768 270.052C271.959 270.362 267.308 272.342 263.529 275.456C257.649 280.252 254.165 288.079 254.349 295.895C254.375 305.116 254.306 314.331 254.343 323.546C254.595 336.407 265.715 347.57 277.839 347.719C285.69 347.83 293.547 347.802 301.398 347.78C305.781 347.818 310.233 346.916 314.105 344.687C320.716 341.13 325.441 334.1 326.713 326.434C327.254 323.663 327.049 320.825 327.08 318.015C327.08 310.653 326.996 303.29 327.164 295.933C327.164 291.082 325.966 286.182 323.502 282.061C320.549 276.944 315.719 273.216 310.358 271.329C305.613 269.543 300.505 270.047 295.565 269.991ZM717.594 269.963C711.041 270.162 704.445 269.367 697.929 270.307C691.449 271.546 685.316 275.407 681.69 281.259C679.079 285.419 677.45 290.358 677.486 295.375C677.507 304.413 677.507 313.446 677.518 322.485C677.244 333.625 685.206 344.228 695.433 346.872C699.232 347.962 703.195 347.614 707.089 347.686C713.726 347.747 720.374 347.791 727.017 347.647C737.296 347.437 746.592 339.278 749.456 329.023C751.001 324.592 750.344 319.841 750.449 315.239C750.376 308.219 750.534 301.2 750.392 294.186L750.372 293.737C749.87 284.316 743.848 275.582 735.556 272.037C729.943 269.25 723.59 270.096 717.594 269.963ZM220.447 180.311C213.794 179.973 207.125 180.36 200.467 180.216C196.694 180.249 192.889 180.039 189.143 180.648C179.972 182.241 172.362 190.245 170.229 199.676C169.388 202.923 169.693 206.308 169.641 209.627C169.683 217.741 169.583 225.862 169.614 233.976C169.95 244.629 177.675 254.205 187.376 256.882C191.296 258.055 195.412 257.789 199.438 257.806C206.085 257.745 212.733 257.828 219.381 257.773C229.329 257.546 238.536 250.051 241.5 240.1C242.646 236.505 242.555 232.676 242.571 228.937C242.545 221.387 242.572 213.836 242.566 206.281C242.577 203.205 242.267 200.102 241.258 197.198C238.336 187.883 229.775 180.864 220.447 180.311ZM647.553 180.941C642.082 179.691 636.438 180.321 630.889 180.199C624.661 180.377 618.386 179.758 612.201 180.693C601.933 182.806 593.588 192.568 592.878 203.592C592.605 212.238 592.904 220.894 592.752 229.545C592.652 233.13 592.799 236.781 593.929 240.199C596.888 249.664 605.422 257.33 615.07 257.64C622.086 257.977 629.113 257.612 636.134 257.767C640.795 257.667 645.635 258.104 650.097 256.362C658.478 253.015 664.837 244.414 665.783 235.028C665.862 225.088 665.82 215.142 665.814 205.197C665.778 194.045 657.816 183.59 647.553 180.941ZM114.839 90.0042C111.581 90.0374 108.291 89.8492 105.069 90.4797C94.2963 92.532 85.583 102.948 85.1416 114.476C85.1469 124.062 85.1732 133.647 85.1416 143.239C85.0944 153.958 92.5462 164.053 102.315 166.935C106.514 168.401 110.982 167.997 115.328 168.025C121.608 167.98 127.883 168.114 134.157 167.97C143.228 167.738 151.925 161.769 155.698 153.069C157.154 149.827 157.81 146.232 157.758 142.658C157.731 133.808 157.774 124.963 157.8 116.113C157.984 109.165 155.214 102.251 150.521 97.3889C146.118 92.7535 139.937 90.1866 133.736 90.054C127.441 89.9379 121.14 90.076 114.839 90.0042ZM472.675 0.013916C435.889 -0.002722 399.108 -0.00830464 362.321 0.0305176C360.992 0.0416086 359.663 0.113062 358.359 0.35083C350.056 1.94937 342.73 8.47684 340.165 16.9954C338.399 21.6197 338.957 26.659 338.889 31.51C338.841 39.0656 338.936 46.6214 338.899 54.177C339.052 64.4764 346.214 73.8972 355.484 76.884C359.378 78.2835 363.546 77.8408 367.587 77.9182C374.592 78.0453 381.603 78.0008 388.608 78.0286C400.338 77.9071 411.658 84.8709 417.975 95.1594C421.653 101.001 423.544 108.031 423.455 115.029C423.434 122.02 423.429 129.012 423.45 136.003C423.524 140.456 422.972 145.036 424.338 149.351C427.097 159.982 437.024 167.876 447.466 167.937C455.354 167.931 463.242 168.048 471.13 167.992C476.737 168.037 482.287 166.006 486.749 162.46C492.95 157.46 496.402 149.185 496.25 141.021C496.324 104.696 496.224 68.3707 496.292 32.0403C496.192 26.5148 496.844 20.7347 494.721 15.5022C491.315 6.21491 482.076 -0.113217 472.675 0.013916ZM813.265 0.0744629C808.703 -0.0362256 804.137 0.0582386 799.581 0.0305176C793.711 0.168742 787.814 -0.235485 781.965 0.317627C771.019 2.00484 762.201 12.7023 762.085 24.3235C762.069 31.1381 762.169 37.9478 762.122 44.7571C762.217 50.294 761.559 56.0804 763.745 61.302C766.967 70.7606 775.948 77.3699 785.407 77.8401C792.213 78.0171 799.023 77.8297 805.834 78.0012C810.175 77.9735 814.658 78.1945 818.81 76.5793C828.2 73.4152 835.442 63.5637 835.195 53.0598C835.09 43.2914 835.274 33.5285 835.189 23.76C835.116 20.8505 834.438 17.9796 833.408 15.2913C830.04 6.80052 821.941 0.799073 813.265 0.0744629ZM26.5469 0.0197754C24.3505 0.0308629 22.1486 -0.0247074 19.9785 0.345947C9.34213 2.22114 0.602374 12.404 0.0556641 23.76C0.118691 33.8935 0.0349523 44.0329 0.0244141 54.1721C0.16102 66.7561 10.9916 77.6363 22.8262 77.9075L24.5303 77.8967C33.0485 77.8655 41.5668 78.1532 50.085 77.8577C59.2921 76.9948 68.0478 70.6445 71.4268 61.4622C73.6179 56.39 73.1609 50.7308 73.1348 45.3157C73.1034 38.3131 73.2505 31.3046 73.1768 24.302C73.1084 18.1181 70.6381 12.0448 66.5918 7.59204C62.188 2.86275 55.9653 -0.0860861 49.6328 0.0412598C41.9392 0.0135314 34.2404 0.0308673 26.5469 0.0197754ZM325.43 15.5901C321.998 6.16473 312.56 -0.456564 302.953 0.0246582C295.254 -0.00306896 287.55 0.0527013 279.852 0.0305176C277.666 0.0360633 275.458 -0.0083472 273.299 0.423096C262.946 2.5306 254.721 12.6257 254.316 23.7161C254.269 31.6537 254.306 39.5913 254.312 47.5344C254.338 51.4173 254.043 55.3944 255.184 59.1555C257.448 67.7459 264.223 74.8643 272.437 77.1047C276.204 78.2497 280.151 77.8467 284.019 77.9241C287.702 77.8744 291.387 78.0344 295.07 77.9348C300.551 77.8463 306.26 78.5432 311.499 76.4026C320.175 73.0283 326.775 64.0341 327.012 54.1995C327.075 44.2266 327.002 34.2534 327.075 24.2805C327.133 21.2991 326.407 18.3667 325.43 15.5901ZM559.455 0.0686035C551.557 -0.0365523 543.658 0.0582459 535.76 0.0305176C533.038 0.0637921 530.294 -0.11921 527.599 0.35083C517.046 2.29236 508.622 12.4868 508.228 23.7542C508.196 33.7053 508.222 43.6566 508.17 53.6077C508.075 66.3079 518.885 77.9732 531.004 77.8792C539.422 77.9566 547.841 77.9128 556.26 77.9075C559.97 77.9241 563.702 77.1442 567.028 75.3684C575.284 71.2697 580.818 62.0764 581.06 52.5071C581.154 43.1146 581.064 33.7164 581.148 24.3186C581.448 11.8784 571.074 0.820733 559.455 0.0686035Z" fill="white"/>
</svg>
