<svg width="1584" height="488" viewBox="0 0 1584 488" fill="none" xmlns="http://www.w3.org/2000/svg">
<path d="M1420.19 300.44C1406.86 300.441 1396.05 311.246 1396.05 324.574V364.053C1396.05 377.381 1406.86 388.186 1420.19 388.187H1466.49C1472.89 388.187 1479.03 390.729 1483.55 395.255L1488.8 400.498C1493.32 405.024 1495.87 411.163 1495.87 417.563V463.866C1495.87 477.195 1506.67 488 1520 488H1559.48C1572.81 488 1583.61 477.195 1583.61 463.866V424.387C1583.61 411.058 1572.81 400.253 1559.48 400.253H1513.18C1506.78 400.253 1500.64 397.71 1496.11 393.185L1490.87 387.941C1486.34 383.416 1483.8 377.277 1483.8 370.877V324.574C1483.8 311.246 1472.99 300.441 1459.67 300.44H1420.19ZM1420.19 400.253C1406.86 400.253 1396.05 411.058 1396.05 424.387V463.866C1396.05 477.195 1406.86 487.999 1420.19 487.999H1459.66C1472.99 487.999 1483.8 477.195 1483.8 463.866V424.387C1483.8 411.058 1472.99 400.253 1459.66 400.253H1420.19ZM921.021 300.439C907.693 300.439 896.888 311.245 896.888 324.573V364.052C896.888 377.38 907.693 388.186 921.021 388.186H967.32C973.721 388.186 979.86 390.729 984.386 395.255L989.632 400.502C994.158 405.028 996.701 411.166 996.701 417.566V463.865C996.701 477.194 1007.51 487.999 1020.83 487.999H1060.31C1073.64 487.999 1084.45 477.194 1084.45 463.865V424.387C1084.45 411.058 1073.64 400.253 1060.31 400.253H1014.01C1007.61 400.253 1001.47 397.71 996.941 393.184L991.702 387.944C987.176 383.419 984.634 377.28 984.634 370.88V324.573C984.634 311.245 973.829 300.439 960.5 300.439H921.021ZM921.059 200.626C907.73 200.626 896.926 211.431 896.926 224.76V271.062C896.926 277.463 894.383 283.602 889.857 288.128L884.613 293.371C880.087 297.897 873.949 300.439 867.549 300.439H821.246C807.918 300.439 797.112 311.245 797.112 324.573V463.865C797.112 477.194 807.917 487.999 821.246 487.999H960.538C973.866 487.999 984.672 477.194 984.672 463.865V424.386C984.672 411.057 973.867 400.252 960.538 400.252H908.992C895.664 400.252 884.858 389.447 884.858 376.118V317.749C884.858 311.348 887.401 305.21 891.927 300.684L897.17 295.44C901.696 290.915 907.835 288.372 914.235 288.372H960.538C973.866 288.372 984.672 277.567 984.672 264.238V224.76C984.672 211.431 973.867 200.626 960.538 200.626H921.059ZM1220.56 400.251C1207.23 400.251 1196.43 411.056 1196.43 424.385V463.864C1196.43 477.193 1207.23 487.998 1220.56 487.998H1359.85C1373.18 487.998 1383.99 477.193 1383.99 463.864V424.385C1383.99 411.056 1373.18 400.251 1359.85 400.251H1220.56ZM1020.81 200.626C1007.48 200.626 996.678 211.431 996.678 224.76V364.052C996.678 377.38 1007.48 388.185 1020.81 388.186H1072.36C1085.69 388.186 1096.49 398.99 1096.49 412.318V463.864C1096.49 477.193 1107.3 487.998 1120.62 487.998H1160.1C1173.43 487.998 1184.24 477.193 1184.24 463.864V324.572C1184.24 311.244 1173.43 300.439 1160.1 300.439H1108.56C1095.23 300.439 1084.42 289.634 1084.42 276.306V224.76C1084.42 211.431 1073.62 200.626 1060.29 200.626H1020.81ZM1519.86 200.627C1506.53 200.627 1495.72 211.432 1495.72 224.761V364.051C1495.72 377.379 1506.53 388.186 1519.86 388.186H1559.33C1572.66 388.186 1583.47 377.379 1583.47 364.051V224.761C1583.47 211.432 1572.66 200.627 1559.33 200.627H1519.86ZM1420.06 200.626C1406.74 200.626 1395.93 211.431 1395.93 224.76V271.2C1395.93 277.601 1393.39 283.739 1388.86 288.265L1383.76 293.37C1379.23 297.896 1373.09 300.439 1366.69 300.439H1220.44C1207.11 300.44 1196.3 311.244 1196.3 324.572V364.052C1196.3 377.38 1207.11 388.185 1220.44 388.186H1359.73C1373.06 388.186 1383.86 377.38 1383.86 364.052V317.887C1383.86 311.486 1386.41 305.347 1390.93 300.821L1396.31 295.441C1400.84 290.915 1406.98 288.372 1413.38 288.372H1459.54C1472.87 288.372 1483.68 277.567 1483.68 264.238V224.76C1483.68 211.432 1472.87 200.626 1459.54 200.626H1420.06ZM1320.35 1C1307.02 1.00012 1296.22 11.8052 1296.22 25.1338V64.6123C1296.22 77.9406 1307.02 88.746 1320.35 88.7461H1365.54C1371.94 88.7461 1378.08 91.2887 1382.61 95.8145L1388.96 102.169C1393.49 106.695 1396.03 112.833 1396.03 119.233V171.249C1396.03 177.65 1393.49 183.789 1388.96 188.314L1383.72 193.558C1379.19 198.084 1373.05 200.626 1366.65 200.626H1320.35C1307.02 200.626 1296.22 211.431 1296.22 224.76V264.238C1296.22 277.567 1307.02 288.372 1320.35 288.372H1359.83C1373.16 288.372 1383.96 277.567 1383.96 264.238V217.936C1383.96 211.535 1386.51 205.397 1391.03 200.871L1396.28 195.628C1400.8 191.102 1406.94 188.56 1413.34 188.56H1459.64C1472.97 188.56 1483.78 177.754 1483.78 164.426V124.946C1483.78 111.618 1472.97 100.813 1459.64 100.813H1412.23C1405.83 100.813 1399.69 98.27 1395.17 93.7441L1391.03 89.6113C1386.51 85.0855 1383.96 78.9473 1383.96 72.5469V25.1338C1383.96 11.8055 1373.16 1.00013 1359.83 1H1320.35ZM1220.56 1C1207.23 1.00005 1196.43 11.8051 1196.43 25.1338V264.238C1196.43 277.567 1207.23 288.372 1220.56 288.372H1260.04C1273.37 288.372 1284.17 277.567 1284.17 264.238V212.693C1284.17 199.365 1294.98 188.56 1308.31 188.56H1359.85C1373.18 188.56 1383.99 177.755 1383.99 164.426V124.946C1383.99 111.618 1373.18 100.813 1359.85 100.813H1308.31C1294.98 100.813 1284.17 90.0083 1284.17 76.6797V25.1338C1284.17 11.8055 1273.37 1.00021 1260.04 1H1220.56ZM1020.99 100.812C1007.66 100.812 996.858 111.618 996.857 124.946V164.426C996.858 177.754 1007.66 188.559 1020.99 188.559H1067.29C1073.69 188.559 1079.83 191.102 1084.36 195.628L1089.6 200.871C1094.13 205.397 1096.67 211.535 1096.67 217.936V264.238C1096.67 277.567 1107.48 288.372 1120.8 288.372H1160.28C1173.61 288.372 1184.42 277.567 1184.42 264.238V224.76C1184.42 211.431 1173.61 200.626 1160.28 200.626H1113.98C1107.58 200.626 1101.44 198.083 1096.92 193.557L1091.67 188.313C1087.15 183.788 1084.6 177.649 1084.6 171.249V124.946C1084.6 111.618 1073.8 100.813 1060.47 100.812H1020.99ZM921.059 100.812C907.73 100.813 896.926 111.618 896.926 124.946V171.249C896.926 177.65 894.383 183.789 889.857 188.314L884.613 193.558C880.087 198.083 873.949 200.626 867.549 200.626H821.246C807.918 200.626 797.112 211.431 797.112 224.76V264.238C797.112 277.567 807.917 288.372 821.246 288.372H860.726C874.054 288.372 884.858 277.567 884.858 264.238V217.936C884.858 211.535 887.402 205.397 891.927 200.871L897.17 195.628C901.696 191.102 907.835 188.56 914.235 188.56H960.538C973.866 188.56 984.672 177.754 984.672 164.426V124.946C984.672 111.618 973.867 100.812 960.538 100.812H921.059ZM821.208 100.812C807.88 100.813 797.074 111.618 797.074 124.946V164.426C797.074 177.754 807.879 188.559 821.208 188.56H860.688C874.016 188.56 884.821 177.754 884.821 164.426V124.946C884.821 111.618 874.016 100.812 860.688 100.812H821.208ZM1420.04 1C1406.71 1.00025 1395.91 11.8052 1395.91 25.1338V64.6123C1395.91 77.9405 1406.71 88.7458 1420.04 88.7461H1471.59C1484.92 88.7461 1495.72 99.5513 1495.72 112.88V164.426C1495.72 177.754 1506.53 188.559 1519.86 188.559H1559.33C1572.66 188.558 1583.47 177.754 1583.47 164.426V25.1338C1583.47 11.8055 1572.66 1.00018 1559.33 1H1420.04ZM1020.93 1C1007.61 1 996.801 11.8051 996.801 25.1338V64.6123C996.801 77.9407 1007.61 88.7461 1020.93 88.7461H1072.48C1085.81 88.7462 1096.61 99.5513 1096.61 112.88V164.426C1096.61 177.754 1107.42 188.559 1120.75 188.559H1160.23C1173.55 188.559 1184.36 177.754 1184.36 164.426V25.1338C1184.36 11.8054 1173.56 1 1160.23 1H1020.93ZM821.247 1.02051C807.918 1.02051 797.113 11.8266 797.113 25.1553V64.6338C797.113 77.9625 807.918 88.7686 821.247 88.7686H960.537C973.866 88.7686 984.672 77.9625 984.672 64.6338V25.1553C984.672 11.8266 973.866 1.02051 960.537 1.02051H821.247Z" fill="url(#paint0_linear_5261_23049)"/>
<path d="M623.112 299.44C609.784 299.441 598.979 310.246 598.979 323.574V363.053C598.979 376.381 609.784 387.186 623.112 387.187H669.415C675.816 387.187 681.955 389.729 686.48 394.255L691.724 399.498C696.25 404.024 698.792 410.163 698.792 416.563V462.866C698.792 476.195 709.597 487 722.926 487H762.404C775.733 487 786.538 476.195 786.538 462.866V423.387C786.538 410.058 775.733 399.253 762.404 399.253H716.102C709.701 399.253 703.562 396.71 699.036 392.185L693.794 386.941C689.268 382.416 686.725 376.277 686.725 369.877V323.574C686.725 310.246 675.92 299.441 662.592 299.44H623.112ZM623.111 399.253C609.783 399.253 598.978 410.058 598.978 423.387V462.866C598.978 476.195 609.783 486.999 623.111 486.999H662.59C675.918 486.999 686.723 476.195 686.724 462.866V423.387C686.724 410.058 675.919 399.253 662.59 399.253H623.111ZM123.947 299.439C110.619 299.439 99.8135 310.245 99.8135 323.573V363.052C99.8135 376.38 110.619 387.186 123.947 387.186H170.246C176.647 387.186 182.786 389.729 187.312 394.255L192.558 399.502C197.083 404.028 199.627 410.166 199.627 416.566V462.865C199.627 476.194 210.431 486.999 223.76 486.999H263.239C276.568 486.999 287.373 476.194 287.373 462.865V423.387C287.373 410.058 276.568 399.253 263.239 399.253H216.933C210.532 399.253 204.393 396.71 199.867 392.184L194.628 386.944C190.102 382.419 187.56 376.28 187.56 369.88V323.573C187.56 310.245 176.754 299.439 163.426 299.439H123.947ZM123.984 199.626C110.656 199.626 99.8516 210.431 99.8516 223.76V270.062C99.8516 276.463 97.309 282.602 92.7832 287.128L87.5391 292.371C83.0132 296.897 76.8749 299.439 70.4746 299.439H24.1719C10.8435 299.439 0.0380859 310.245 0.0380859 323.573V462.865C0.0382016 476.194 10.8432 486.999 24.1719 486.999H163.464C176.792 486.999 187.598 476.194 187.598 462.865V423.386C187.598 410.057 176.793 399.252 163.464 399.252H111.918C98.5896 399.252 87.7842 388.447 87.7842 375.118V316.749C87.7842 310.348 90.3273 304.21 94.8525 299.684L100.096 294.44C104.622 289.915 110.761 287.372 117.161 287.372H163.464C176.792 287.372 187.598 276.567 187.598 263.238V223.76C187.598 210.431 176.793 199.626 163.464 199.626H123.984ZM423.486 399.251C410.158 399.251 399.353 410.056 399.353 423.385V462.864C399.353 476.193 410.158 486.998 423.486 486.998H562.777C576.106 486.998 586.911 476.193 586.911 462.864V423.385C586.911 410.056 576.106 399.251 562.777 399.251H423.486ZM223.737 199.626C210.409 199.626 199.604 210.431 199.604 223.76V363.052C199.604 376.38 210.409 387.185 223.737 387.186H275.283C288.612 387.186 299.417 397.99 299.417 411.318V462.864C299.417 476.193 310.222 486.998 323.551 486.998H363.029C376.358 486.998 387.163 476.193 387.163 462.864V323.572C387.163 310.244 376.358 299.439 363.029 299.439H311.483C298.155 299.439 287.351 288.634 287.351 275.306V223.76C287.351 210.431 276.545 199.626 263.217 199.626H223.737ZM722.782 199.627C709.454 199.627 698.648 210.432 698.647 223.761V363.051C698.647 376.379 709.454 387.186 722.782 387.186H762.261C775.589 387.186 786.395 376.379 786.395 363.051V223.761C786.394 210.432 775.589 199.627 762.261 199.627H722.782ZM622.989 199.626C609.661 199.626 598.855 210.431 598.855 223.76V270.2C598.855 276.601 596.313 282.739 591.787 287.265L586.682 292.37C582.156 296.896 576.017 299.439 569.616 299.439H423.362C410.034 299.44 399.23 310.244 399.229 323.572V363.052C399.229 376.38 410.034 387.185 423.362 387.186H562.655C575.984 387.186 586.789 376.38 586.789 363.052V316.887C586.789 310.486 589.332 304.347 593.857 299.821L599.238 294.441C603.764 289.915 609.903 287.372 616.304 287.372H662.469C675.797 287.372 686.602 276.567 686.602 263.238V223.76C686.602 210.432 675.797 199.626 662.469 199.626H622.989ZM523.276 0C509.948 0.0001209 499.144 10.8052 499.144 24.1338V63.6123C499.144 76.9406 509.948 87.746 523.276 87.7461H568.469C574.869 87.7461 581.008 90.2887 585.534 94.8145L591.888 101.169C596.413 105.695 598.956 111.833 598.956 118.233V170.249C598.956 176.65 596.414 182.789 591.888 187.314L586.645 192.558C582.119 197.084 575.98 199.626 569.579 199.626H523.276C509.948 199.626 499.144 210.431 499.144 223.76V263.238C499.144 276.567 509.948 287.372 523.276 287.372H562.756C576.084 287.372 586.89 276.567 586.89 263.238V216.936C586.89 210.535 589.432 204.397 593.958 199.871L599.201 194.628C603.727 190.102 609.865 187.56 616.266 187.56H662.568C675.897 187.56 686.702 176.754 686.702 163.426V123.946C686.702 110.618 675.897 99.8135 662.568 99.8135H615.155C608.755 99.8134 602.617 97.27 598.091 92.7441L593.958 88.6113C589.432 84.0855 586.889 77.9473 586.889 71.5469V24.1338C586.889 10.8055 576.084 0.000134867 562.756 0H523.276ZM423.486 0C410.158 5.49274e-05 399.353 10.8051 399.353 24.1338V263.238C399.353 276.567 410.158 287.372 423.486 287.372H462.966C476.294 287.372 487.099 276.567 487.099 263.238V211.693C487.099 198.365 497.904 187.56 511.232 187.56H562.778C576.107 187.56 586.912 176.755 586.912 163.426V123.946C586.912 110.618 576.107 99.8135 562.778 99.8135H511.232C497.904 99.8134 487.099 89.0083 487.099 75.6797V24.1338C487.099 10.8055 476.294 0.000205816 462.966 0H423.486ZM223.917 99.8125C210.589 99.8125 199.783 110.618 199.783 123.946V163.426C199.783 176.754 210.588 187.559 223.917 187.559H270.22C276.62 187.559 282.758 190.102 287.284 194.628L292.528 199.871C297.054 204.397 299.597 210.535 299.597 216.936V263.238C299.597 276.567 310.401 287.372 323.729 287.372H363.209C376.537 287.372 387.343 276.567 387.343 263.238V223.76C387.343 210.431 376.538 199.626 363.209 199.626H316.906C310.506 199.626 304.367 197.083 299.841 192.557L294.598 187.313C290.072 182.788 287.529 176.649 287.529 170.249V123.946C287.529 110.618 276.725 99.8127 263.396 99.8125H223.917ZM123.984 99.8125C110.656 99.8127 99.8517 110.618 99.8516 123.946V170.249C99.8516 176.65 97.3091 182.789 92.7832 187.314L87.5391 192.558C83.0132 197.083 76.875 199.626 70.4746 199.626H24.1719C10.8435 199.626 0.0380859 210.431 0.0380859 223.76V263.238C0.0380859 276.567 10.8432 287.372 24.1719 287.372H63.6514C76.9799 287.372 87.7842 276.567 87.7842 263.238V216.936C87.7843 210.535 90.3275 204.397 94.8525 199.871L100.096 194.628C104.622 190.102 110.761 187.56 117.161 187.56H163.464C176.792 187.56 187.598 176.754 187.598 163.426V123.946C187.598 110.618 176.793 99.8125 163.464 99.8125H123.984ZM24.1338 99.8125C10.8056 99.8126 0.000262593 110.618 0 123.946V163.426C0 176.754 10.8052 187.559 24.1338 187.56H63.6133C76.9417 187.56 87.7471 176.754 87.7471 163.426V123.946C87.747 110.618 76.9419 99.8125 63.6133 99.8125H24.1338ZM622.968 0C609.64 0.000252853 598.835 10.8052 598.835 24.1338V63.6123C598.835 76.9405 609.639 87.7458 622.968 87.7461H674.514C687.842 87.7461 698.647 98.5513 698.647 111.88V163.426C698.648 176.754 709.453 187.559 722.781 187.559H762.261C775.589 187.558 786.393 176.754 786.394 163.426V24.1338C786.394 10.8055 775.589 0.00018328 762.261 0H622.968ZM223.86 0C210.532 0 199.727 10.8051 199.727 24.1338V63.6123C199.727 76.9407 210.532 87.7461 223.86 87.7461H275.406C288.735 87.7462 299.54 98.5513 299.54 111.88V163.426C299.54 176.754 310.345 187.559 323.674 187.559H363.152C376.481 187.559 387.286 176.754 387.286 163.426V24.1338C387.286 10.8054 376.481 0 363.152 0H223.86ZM24.1729 0.0205078C10.8441 0.0205078 0.0390625 10.8266 0.0390625 24.1553V63.6338C0.0390625 76.9625 10.8441 87.7686 24.1729 87.7686H163.463C176.792 87.7686 187.598 76.9625 187.598 63.6338V24.1553C187.598 10.8266 176.792 0.0205078 163.463 0.0205078H24.1729Z" fill="url(#paint1_linear_5261_23049)"/>
<defs>
<linearGradient id="paint0_linear_5261_23049" x1="1287" y1="545" x2="871" y2="211" gradientUnits="userSpaceOnUse">
<stop stop-color="white"/>
<stop offset="1" stop-color="#EFF3F7"/>
</linearGradient>
<linearGradient id="paint1_linear_5261_23049" x1="775" y1="255.5" x2="124" y2="302" gradientUnits="userSpaceOnUse">
<stop stop-color="#F1F4F8"/>
<stop offset="1" stop-color="#F1F4F8" stop-opacity="0"/>
</linearGradient>
</defs>
</svg>
