<svg width="435" height="245" viewBox="0 0 435 245" fill="none" xmlns="http://www.w3.org/2000/svg">
<g clip-path="url(#clip0_5277_3375)">
<path d="M0 0H435V245H0V0Z" fill="white"/>
<path d="M316.071 7.91334C319.591 7.60468 326.652 7.83362 330.334 8.04011C331.757 8.25637 333.039 8.75371 334.192 9.54049C338.492 12.4758 338.399 15.96 338.427 20.6008C338.453 24.3071 338.433 28.0136 338.365 31.7193C338.334 33.9115 338.152 37.8078 338.526 39.7809C339.289 43.7816 342.954 48.0229 346.989 49.0219C349.453 49.6316 351.779 49.3911 354.308 49.3583L367.449 49.2229C369.411 49.2033 371.432 49.1848 373.386 49.1947C384.659 49.252 383.337 58.1595 383.311 66.0839L383.301 82.1179L383.322 109.714C383.322 113.221 383.345 116.739 383.322 120.245C383.301 123.125 383.525 126.739 381.769 129.148C380.517 130.834 378.641 131.95 376.563 132.245C361.418 134.454 377.478 103.407 362.602 102.245C357.308 101.831 350.538 101.721 345.246 102.194C338.349 102.812 338.482 109.946 338.498 114.9L338.505 123.17C338.498 127.267 338.269 131.765 332.868 132.164C327.81 132.538 313.826 133.883 318.405 124.543C319.859 121.577 321.928 118.288 323.608 115.369L341.448 84.5039C344.299 79.5763 347.494 74.3225 350.041 69.2361C350.681 67.9603 350.869 66.2018 350.679 64.775C350.361 62.4404 349.123 60.3304 347.237 58.9185C346.141 58.0866 344.866 57.5195 343.514 57.261C338.253 56.2412 328.408 57.1095 322.765 56.8426C316.719 56.5567 311.823 68.2342 309.151 72.9894L292.386 103.486C289.232 109.081 286.037 114.655 282.809 120.207C281.097 123.176 278.032 128.067 277.101 131.13C276.775 132.189 276.565 133.279 276.474 134.383C276.268 137.136 276.455 141.199 276.458 144.092C276.63 147.624 276.234 151.364 276.768 154.859C278.271 164.698 288.116 162.948 295.083 162.943L320.026 162.937C325.442 162.901 336.328 160.831 337.941 167.457C339.593 174.251 335.308 185.299 341.404 190.248C342.275 190.955 343.956 191.545 345.072 191.732C350.543 191.697 357.44 192.308 362.784 191.638C377.458 189.797 362.633 165.648 374.51 162.996C381.92 161.342 382.453 168.02 384.732 172.424C386.069 175.015 388.234 177.083 390.882 178.298C398.641 181.817 412.221 176.721 419.737 181.689C424.977 185.153 424.566 191.239 424.512 196.72L424.41 208.141L424.439 219.621C424.454 223.728 424.985 227.952 422.428 231.431C420.76 233.738 418.231 235.272 415.416 235.687C412.291 236.135 406.12 235.827 402.686 235.896C398.781 235.725 394.621 236.186 390.752 235.711C377.312 234.059 382.354 218.217 381.084 210.011C380.689 207.464 379.555 205.09 377.819 203.185C372.855 197.724 366.939 198.618 360.271 198.641L348.054 198.684C331.884 198.733 337.436 193.19 330.37 183.288C326.637 178.054 319.058 178.293 312.996 178.215L297.565 178.075L283.74 177.852C281.38 177.831 278.009 177.724 275.735 178.086C268.619 179.261 263.005 184.771 261.696 191.864C261.184 194.615 261.361 200.588 261.348 203.692L261.296 219.245C261.283 223.551 261.735 227.885 259.036 231.504C256.066 235.487 252.012 236.025 247.409 235.88C245.443 235.818 243.317 235.881 241.347 235.881L220.967 235.867L204.731 235.876C199.821 235.902 193.504 236.703 189.461 233.538C185.063 230.094 185.384 225.266 185.401 220.292L185.445 208.748C185.475 200.665 185.769 196.27 178.55 190.759C170.692 185.649 159.539 190.33 153.554 186.66C151.459 185.384 149.971 183.312 149.433 180.918C148.85 178.351 148.589 167.788 150.118 165.475C152.93 161.224 160.046 164.246 162.868 159.109C164.535 154.991 164.096 147.088 164.096 147.088C164.096 147.088 164.237 133.415 157.32 132.535C154.455 132.17 150.843 132.311 149.683 129.027C147.278 122.216 152.42 107.251 145.051 103.04C144.2 102.563 143.273 102.239 142.311 102.082C139.673 101.658 126.334 101.535 123.613 102.319C117.331 104.128 117.85 110.13 117.902 115.066L117.991 123.417C118.06 130.842 116.111 132.552 108.54 132.19C105.758 132.057 101.403 132.666 99.0613 131.254C97.3642 130.246 96.4578 128.302 96.777 126.354C97.2016 123.788 115.893 90.6531 118.85 85.4146L124.707 75.1387C126.735 71.5626 129.58 67.671 128.408 63.4006C127.803 61.1227 126.298 59.1887 124.239 58.0423C120.261 55.8597 107.116 56.835 102.009 56.5109C95.2374 56.081 92.3612 63.7682 89.6446 68.8791L81.3426 84.3625L66.0422 84.3404C62.9519 84.3354 59.5697 84.047 56.531 84.6385C54.0578 85.1202 51.631 86.4176 49.7432 88.0688C47.5081 90.0238 45.8141 92.6368 45.0649 95.5193C43.0288 103.353 47.3218 120.49 43.1438 126.54C41.7012 128.629 39.3818 129.983 36.9011 130.421C34.5429 130.838 21.8606 130.882 19.316 130.442C17.7504 130.17 16.2743 129.609 14.9757 128.685C12.6891 127.057 11.2413 124.775 10.7856 122.005C10.4066 119.7 10.3345 102.92 10.7518 100.372C11.037 98.6314 11.751 96.8862 12.7928 95.4617C18.0789 88.2328 30.3277 92.2499 38.0081 90.9208C41.0492 90.3946 43.6821 88.7004 45.8862 86.6045C47.8715 84.7161 49.7395 82.4843 50.7235 79.8999C53.5947 72.358 48.9081 60.6228 53.6925 53.9867C55.4801 51.507 58.2246 50.0487 61.2158 49.604C64.2798 49.1484 67.8912 49.4921 71.0215 49.4994L95.1057 49.7196L124.069 49.6946C129.283 49.6553 134.498 49.5884 139.71 49.6465C142.323 49.6756 144.064 49.8912 146.228 51.4982C150.039 54.328 149.512 59.2874 149.484 63.4821L149.447 74.7961C149.393 80.4308 148.692 85.6443 153.014 89.9827C154.689 91.6638 156.063 92.5556 158.283 93.3728C164.063 95.5008 170.849 92.4009 176.063 96.2865C179.776 99.0531 179.634 103.552 179.643 107.719C179.652 111.067 179.649 114.411 179.647 117.755L179.598 153.475C179.537 157.731 179.497 161.987 179.479 166.243C179.446 173.86 179.159 180.463 186.003 185.626C191.378 189.681 197.795 188.904 204.151 188.899L221.722 188.878L236.05 188.907C242.937 188.929 249.587 189.509 254.809 184.058C260.877 177.727 259.259 167.587 259.307 159.348L259.48 119.627L259.488 106.824C259.489 104.462 259.384 101.793 259.602 99.4622C260.793 86.767 277.023 91.9153 285.444 90.5833C287.89 90.1993 290.172 89.1125 292.011 87.4553C293.777 85.871 295.063 83.9306 295.76 81.6594C298.042 74.2287 294.233 58.2686 298.343 52.8213C299.525 51.2539 301.221 50.1922 303.107 49.6842C305.657 48.9977 308.464 49.2054 311.081 49.2236L325.07 49.3572C327.675 49.3869 330.526 49.5087 333.115 49.2645C334.231 49.1593 335.102 48.6485 335.766 47.7896C336.182 47.2485 336.481 46.022 336.245 45.4862C333.867 40.0988 317.466 45.0443 312.317 41.5891C310.116 40.3281 308.37 37.906 307.878 35.4013C307.366 32.7943 307.483 29.7911 307.53 27.0877C307.595 23.543 307.402 19.8729 307.668 16.345C307.759 15.1197 308.446 13.3926 309.106 12.3615C310.811 9.69221 313.066 8.56552 316.071 7.91334Z" fill="#2342A7"/>
<path d="M60.2894 90.7997C64.1422 90.4807 73.5095 90.744 77.7375 90.7523C73.5405 99.25 68.4589 107.705 64.0137 116.08C62.4157 119.09 56.0552 129.632 55.8194 132.646C55.3488 138.659 55.4399 148.522 55.7463 154.812C55.9578 156.339 56.6106 157.848 57.4629 159.085C60.7561 163.86 67.7419 162.75 72.8924 162.746L99.7893 162.654C103.668 162.637 108.133 162.12 111.931 162.759C113.826 163.078 115.569 163.977 116.674 165.589C117.275 166.467 117.637 167.506 117.809 168.552C118.161 170.698 118.199 180.163 117.763 182.295C117.257 184.772 115.756 186.765 113.405 187.75C107.882 190.063 87.289 186.902 83.8179 189.306C83.1693 189.754 82.6565 190.436 82.5441 191.232C82.4367 192.049 82.664 192.876 83.1747 193.523C84.8086 195.557 90.9244 194.933 93.5154 194.921C98.9763 194.901 104.437 194.911 109.898 194.95C113.973 194.966 122.887 193.643 122.769 199.417C122.635 205.994 122.76 212.606 122.617 219.187C122.564 221.664 122.745 225.099 122.271 227.47C119.179 238.808 107.743 235.292 99.0392 235.894C97.6406 235.847 96.1581 235.953 94.7676 235.891C90.3845 235.694 85.7756 236.637 81.9148 234.083C79.9013 232.773 78.4124 230.797 77.7084 228.5C76.9942 226.145 77.129 222.717 77.1339 220.203L77.1917 205.235C77.1945 203.121 77.393 197.819 76.8485 195.994C73.3144 184.148 57.465 185.984 47.8518 185.994L29.1294 186.033C24.4632 186.043 19.0539 186.667 15.1146 184.043C12.8582 182.554 11.3086 180.207 10.8254 177.546C10.4856 175.637 10.5157 165.077 10.5776 162.736C10.6777 158.952 10.2796 149.249 10.8308 145.885C11.0805 144.276 11.7091 142.749 12.6646 141.43C16.6079 135.934 22.8345 137.236 28.6442 137.074C31.959 136.981 36.4492 137.41 39.6771 136.877C42.0769 136.489 44.3273 135.46 46.1904 133.897C48.2644 132.172 49.777 129.868 50.5354 127.279C51.2767 124.71 51.1117 122.239 51.1078 119.593L51.0584 107.297C51.0165 99.5845 50.4868 92.2957 60.2894 90.7997Z" fill="#2342A7"/>
<path d="M207.35 7.91852C207.541 7.90485 207.747 7.88694 207.938 7.88678C220.703 7.87569 233.468 7.84786 246.233 7.84021C248.268 7.83898 249.982 7.80802 251.982 8.17375C255.374 8.79427 259.213 12.5616 259.532 15.8275C260.99 30.9306 254.658 50.4773 278.216 49.2819C291.586 48.4087 290.207 59.0687 290.061 68.6611C289.994 72.973 290.766 78.0253 287.46 81.4527C283.638 85.411 277.82 84.1308 272.898 84.3708C270.895 84.4687 268.644 84.3883 266.672 84.0714C254.501 81.0616 262.577 69.1558 254.143 61.5679C248.303 56.3151 242.793 56.8939 235.661 56.9345L211.133 56.9212C205.131 56.9194 198.147 56.2713 192.358 57.7296C189.604 58.4235 186.974 60.0034 185.023 62.0652C177.723 69.7817 182.563 78.0828 178.899 84.0256C177.699 85.9718 175.822 87.0859 173.628 87.5894C171.517 88.0737 165.073 88.0141 162.873 87.58C161.736 87.3663 160.65 86.9382 159.673 86.3186C156.759 84.4633 155.356 80.6349 155.638 77.2835C155.999 72.9889 155.106 67.3291 155.813 63.2045C156.036 61.9553 156.513 60.7649 157.215 59.7076C160.24 55.106 164.383 55.8941 169.002 55.6439C177.182 55.2005 185.467 57.6348 192.044 51.5236C198.344 45.671 197.814 40.9017 197.788 33.3429L197.773 22.5558C197.78 15.1496 198.924 9.57567 207.35 7.91852Z" fill="#2342A7"/>
<path d="M278.86 184.945C278.899 184.942 278.941 184.939 278.98 184.937C292.776 185.229 306.909 184.278 320.627 185.37C323.437 185.838 326.757 189.175 327.358 191.751C330.17 203.82 335.707 205.04 346.363 205.003L359.319 204.954C363.758 204.938 368.982 204.274 372.494 207.571C376.751 211.564 374.935 218.52 375.341 223.774C375.869 230.613 372.13 235.647 364.952 235.871L305.363 235.861L287.404 235.882C283.751 235.886 278.368 236.213 274.919 235.266C271.385 234.296 268.128 230.06 267.933 226.32C267.634 220.564 267.891 214.45 267.832 208.65C268.048 204.266 267.47 199.518 268.066 195.184C268.898 189.132 273.168 185.636 278.86 184.945Z" fill="#2342A7"/>
<path d="M370.038 7.75783C384.678 7.54477 399.567 7.75106 414.209 7.79941C419.944 7.81833 424.53 12.7805 424.408 18.4236C424.356 20.9007 424.45 23.6436 424.45 26.2051V44.4999V64.7641C424.447 72.1297 425.881 82.5676 416.132 84.0498C412.23 84.6429 402.403 84.6109 398.373 84.2076C394.752 83.6083 390.662 80.5868 390.063 76.9159C388.934 70.008 389.967 62.0748 389.608 55.0182C389.47 52.2884 388.791 50.1422 387.235 48.0117C385.614 45.7726 383.283 44.1489 380.624 43.4054C378.192 42.7068 375.515 42.8594 372.986 42.8669L360.696 42.9187C352.607 42.9456 344.282 43.0526 344.612 32.1973C344.833 24.943 342.185 10.1177 352.022 8.2314C356.913 7.29345 364.871 7.7503 370.038 7.75783Z" fill="#2342A7"/>
<path d="M175.703 7.75585C180.321 7.64816 184.661 7.28719 188.348 10.7007C190.495 12.6887 191.785 16.4316 191.6 19.2164C191.267 24.2029 192.19 36.4698 191.18 40.7176C190.726 42.698 189.733 44.5142 188.312 45.9655C186.85 47.4266 185.007 48.448 182.994 48.9138C179.691 49.6569 160.058 49.6915 156.075 49.1854C154.05 48.9281 149.704 43.5319 144.475 43.2348C140.233 42.9937 135.155 43.115 130.942 43.1369L105.645 43.3093C96.465 43.3728 83.1087 45.853 83.2144 32.735C83.6012 27.5277 82.5111 21.1733 83.5466 16.1265C85.2346 7.90058 93.0281 8.26128 98.9532 8.25139C103.319 8.26266 107.684 8.24225 112.049 8.1901L175.703 7.75585Z" fill="#2342A7"/>
<path d="M409.738 90.839C413.958 90.7869 418.077 90.5753 421.339 93.8334C424.633 97.1223 424.524 100.561 424.55 104.826L424.394 143.857L424.433 156.528C424.435 158.018 424.446 159.546 424.435 161.032C424.331 174.362 413.891 172.844 404.517 172.777L402.324 172.792C389.456 172.827 389.401 166.01 389.544 155.7C389.588 152.162 389.604 148.623 389.596 145.084L389.562 102.633C389.583 89.1047 400.123 90.7919 409.738 90.839Z" fill="#2342A7"/>
<path d="M19.7278 192.573C20.6251 192.458 23.9098 192.504 24.934 192.504L35.0404 192.499L51.3326 192.499C58.1235 192.501 67.9425 191.286 70.3979 199.577C71.6759 203.892 70.9406 212.761 71.0528 217.418C71.2497 225.601 71.8621 232.952 62.3457 235.707C60.6125 235.96 56.9473 235.874 55.0754 235.875L42.6695 235.878L28.0036 235.882C25.5748 235.881 22.155 236.12 19.9313 235.75C11.247 234.304 10.125 227.202 10.5821 219.858C10.7166 217.697 10.5101 215.06 10.5756 212.948C10.838 204.486 8.49008 194.632 19.7278 192.573Z" fill="#2342A7"/>
<path d="M19.3373 8.32814C21.9243 8.09519 26.2089 8.22215 28.8922 8.22303L46.0831 8.23558L60.9147 8.23222C63.0637 8.23274 66.8207 8.1186 68.779 8.32955C70.2713 8.49016 71.7093 8.97969 72.9898 9.76289C79.9459 14.1127 76.8101 26.8719 77.2009 34.1407C77.421 38.2314 72.8288 41.5386 68.8009 42.3798C66.8064 42.5964 62.3193 42.4803 60.1519 42.4764L44.4453 42.4449L29.3324 42.466C25.1922 42.4816 19.4754 43.0289 15.8346 40.9408C13.4568 39.5648 11.7281 37.2944 11.0336 34.6356C10.4874 32.6246 10.3833 19.6959 10.7045 17.4302C10.9056 15.9446 11.398 14.5133 12.1534 13.2186C13.8932 10.3006 16.2199 9.14784 19.3373 8.32814Z" fill="#2342A7"/>
<path d="M211.506 87.6066C215.014 87.4199 219.075 87.7024 222.519 87.5441C235.243 86.9591 234.709 91.9799 234.696 102.236L234.699 116.051L234.704 138.951C234.703 143.233 234.79 147.538 234.581 151.812C234.383 155.859 231.681 157.965 227.937 158.709L217.457 158.758C212.354 158.777 205.403 159.391 204.586 152.16C204.356 150.124 204.525 147.561 204.524 145.482L204.519 130.817L204.519 107.222C204.521 103.036 204.46 98.8633 204.629 94.6809C204.796 90.5526 207.572 88.2039 211.506 87.6066Z" fill="#2342A7"/>
<path d="M155.844 194.965L155.96 194.96C164.335 194.639 180.114 192.853 179.007 206.357C178.345 214.439 182.144 231.276 173.006 234.813C168.588 236.522 157.498 235.885 152.186 235.869C142.558 235.824 129.455 238.484 129.127 224.364C129.041 220.648 129.42 215.122 129.122 211.592C127.396 191.181 140.153 195.108 155.844 194.965Z" fill="#2342A7"/>
<path d="M19.1067 49.3465C23.9509 49.0109 35.2777 48.7542 39.7094 50.1833C45.583 52.0777 45.3488 60.0682 45.1594 65.2304C44.8756 72.9626 47.3139 82.4333 36.7979 84.5219C34.1366 84.7994 31.3945 84.6427 28.721 84.6573C25.8224 84.6729 22.7666 84.9153 19.8957 84.5367C18.4734 84.3493 17.0724 83.9439 15.8123 83.2492C13.4146 81.9274 11.7541 79.6906 11.0461 77.0573C10.3089 74.3157 10.2971 61.1216 10.756 57.9728C10.9468 56.6093 11.4009 55.2958 12.093 54.106C13.7639 51.2868 16.0929 50.1417 19.1067 49.3465Z" fill="#2342A7"/>
<path d="M276.593 7.73213C281.269 7.70742 285.949 7.64855 290.622 7.71341C295.898 7.78662 300.099 11.0687 300.573 16.4659C300.818 19.2445 300.539 22.0109 300.586 24.7584C300.732 32.9875 301.913 41.9104 290.949 42.8326C274.044 42.963 264.951 45.7239 266.483 25.4287C266.704 22.4864 266.098 19.4929 266.736 16.4201C267.867 10.9524 271.671 8.29313 276.593 7.73213Z" fill="#2342A7"/>
</g>
<defs>
<clipPath id="clip0_5277_3375">
<rect width="435" height="245" fill="white"/>
</clipPath>
</defs>
</svg>
