<svg width="100" height="13" viewBox="0 0 100 13" fill="none" xmlns="http://www.w3.org/2000/svg">
<g clip-path="url(#clip0_2068_20750)">
<path d="M15.2103 11.3614C15.8981 10.6247 17.8055 9.43612 19.8806 11.2473C18.7666 12.4832 16.8538 12.9016 15.2103 11.3614Z" fill="#FFCC00"/>
<path d="M15.2103 11.3614C15.8981 10.6247 17.8055 9.43612 19.8806 11.2473C18.7666 12.4832 16.8538 12.9016 15.2103 11.3614Z" fill="url(#paint0_linear_2068_20750)"/>
<path d="M17.4826 9.41593C18.0439 7.62653 19.8946 7.02721 21.3851 7.9192C20.99 9.47105 19.1416 10.4329 17.4826 9.41593Z" fill="#FFCC00"/>
<path d="M17.4826 9.41593C18.0439 7.62653 19.8946 7.02721 21.3851 7.9192C20.99 9.47105 19.1416 10.4329 17.4826 9.41593Z" fill="url(#paint1_linear_2068_20750)"/>
<path d="M18.8878 7.11881C18.6502 5.02043 19.9995 3.87614 21.6452 3.97939C22.0256 5.82702 20.6399 7.19877 18.8878 7.11881Z" fill="#FFCC00"/>
<path d="M18.8878 7.11881C18.6502 5.02043 19.9995 3.87614 21.6452 3.97939C22.0256 5.82702 20.6399 7.19877 18.8878 7.11881Z" fill="url(#paint2_linear_2068_20750)"/>
<path d="M19.0011 4.39861C17.817 2.75282 18.0473 1.33811 19.692 0.154488C20.8772 1.79924 20.6469 3.21395 19.0011 4.39861Z" fill="#FFCC00"/>
<path d="M19.0011 4.39861C17.817 2.75282 18.0473 1.33811 19.692 0.154488C20.8772 1.79924 20.6469 3.21395 19.0011 4.39861Z" fill="url(#paint3_linear_2068_20750)"/>
<path d="M6.52652 11.3614C5.8387 10.6247 3.93129 9.43612 1.8562 11.2473C2.97021 12.4832 4.88306 12.9016 6.52652 11.3614Z" fill="#FFCC00"/>
<path d="M6.52652 11.3614C5.8387 10.6247 3.93129 9.43612 1.8562 11.2473C2.97021 12.4832 4.88306 12.9016 6.52652 11.3614Z" fill="url(#paint4_linear_2068_20750)"/>
<path d="M4.25421 9.41593C3.69215 7.62652 1.84142 7.02721 0.350891 7.91842C0.746036 9.47027 2.59444 10.4321 4.25265 9.41516" fill="#FFCC00"/>
<path d="M4.25421 9.41593C3.69215 7.62652 1.84142 7.02721 0.350891 7.91842C0.746036 9.47027 2.59444 10.4321 4.25265 9.41516" fill="url(#paint5_linear_2068_20750)"/>
<path d="M2.84906 7.11881C3.08584 5.02043 1.7366 3.87614 0.0908123 3.97939C-0.289582 5.82702 1.09536 7.19877 2.84751 7.11881" fill="#FFCC00"/>
<path d="M2.84906 7.11881C3.08584 5.02043 1.7366 3.87614 0.0908123 3.97939C-0.289582 5.82702 1.09536 7.19877 2.84751 7.11881" fill="url(#paint6_linear_2068_20750)"/>
<path d="M2.73571 4.39861C3.91985 2.75282 3.68955 1.33811 2.04479 0.154488C0.859617 1.79924 1.08992 3.21395 2.73571 4.39861Z" fill="#FFCC00"/>
<path d="M2.73571 4.39861C3.91985 2.75282 3.68955 1.33811 2.04479 0.154488C0.859617 1.79924 1.08992 3.21395 2.73571 4.39861Z" fill="url(#paint7_linear_2068_20750)"/>
<path d="M10.8684 0.517799C9.94765 0.518366 9.04771 0.79176 8.28224 1.30346C7.51678 1.81515 6.9201 2.54221 6.56757 3.39279C6.21504 4.24338 6.12247 5.17936 6.30155 6.08253C6.48062 6.98569 6.92331 7.81554 7.57371 8.46727C8.41679 9.31113 10.4026 10.5323 10.5206 11.814C10.5377 12.0057 10.6774 12.1625 10.8684 12.1625C11.0594 12.1625 11.1991 12.0057 11.2162 11.814C11.3342 10.5323 13.3177 9.31423 14.1607 8.47038C14.8121 7.81895 15.2557 6.98904 15.4354 6.08556C15.6152 5.18209 15.523 4.2456 15.1707 3.39446C14.8183 2.54333 14.2215 1.81577 13.4557 1.30375C12.69 0.791719 11.7896 0.518213 10.8684 0.517799Z" fill="url(#paint8_linear_2068_20750)"/>
<path d="M10.8684 6.76948C10.4457 6.76948 10.0404 6.60156 9.74146 6.30267C9.44257 6.00378 9.27466 5.5984 9.27466 5.1757C9.27466 4.75301 9.44257 4.34762 9.74146 4.04873C10.0404 3.74984 10.4457 3.58192 10.8684 3.58192C11.2849 3.59112 11.6813 3.76303 11.9726 4.06085C12.2639 4.35866 12.427 4.75871 12.427 5.17531C12.427 5.59192 12.2639 5.99196 11.9726 6.28978C11.6813 6.58759 11.2849 6.75951 10.8684 6.7687" fill="white"/>
</g>
<path d="M96.7854 9.03715C96.9604 9.03715 97.1253 9.00703 97.28 8.94677C97.4401 8.88008 97.5842 8.78029 97.703 8.65393C97.8235 8.52665 97.9209 8.37553 97.9951 8.20056C98.072 8.0014 98.1098 7.7893 98.1065 7.57583C98.1103 7.36562 98.0725 7.15672 97.9951 6.96122C97.9287 6.79203 97.8295 6.63769 97.703 6.50714C97.5836 6.38659 97.4392 6.29378 97.28 6.23526C96.9608 6.10188 96.6014 6.10188 96.2822 6.23526C96.1273 6.29689 95.9866 6.3894 95.8686 6.50714C95.7421 6.63769 95.6428 6.79203 95.5764 6.96122C95.4991 7.15672 95.4612 7.36562 95.4651 7.57583C95.4651 7.8106 95.5022 8.01883 95.5764 8.20056C95.6502 8.37554 95.7476 8.52666 95.8686 8.65393C95.9891 8.78215 96.1269 8.87976 96.2822 8.94677C96.4432 9.00703 96.6109 9.03715 96.7854 9.03715ZM96.7854 10.2974C96.4094 10.2975 96.0534 10.237 95.7174 10.116C95.3933 9.99152 95.0957 9.80676 94.8404 9.57148C94.5865 9.32888 94.3843 9.03742 94.246 8.71465C94.0993 8.35322 94.0272 7.96583 94.0341 7.57582C94.0341 7.15933 94.1048 6.78648 94.246 6.45724C94.3935 6.12125 94.5916 5.83565 94.8404 5.60041C95.0943 5.36581 95.3925 5.18416 95.7174 5.06607C96.0586 4.93703 96.4207 4.87208 96.7854 4.87445C97.1619 4.87445 97.5148 4.93832 97.844 5.06607C98.18 5.18707 98.4723 5.36517 98.7211 5.60041C98.9802 5.84069 99.1861 6.13256 99.3256 6.45724C99.4735 6.78648 99.5475 7.15933 99.5475 7.57582C99.5475 7.99906 99.4735 8.37867 99.3256 8.71465C99.1848 9.05065 98.9867 9.33626 98.7312 9.57148C98.4781 9.80971 98.1799 9.99483 97.8541 10.116C97.5113 10.2386 97.1495 10.3 96.7854 10.2974Z" fill="black"/>
<path d="M93.8621 4.97569V6.15501H92.28V10.1962H90.8787V6.15501H89.327V4.97569H93.8621Z" fill="black"/>
<path d="M87.2193 10.2974C86.8313 10.302 86.4456 10.2371 86.0804 10.1058C85.753 9.98713 85.4518 9.80562 85.194 9.5715C84.9487 9.33174 84.7564 9.04332 84.6292 8.72478C84.4909 8.36477 84.4225 7.9817 84.4275 7.59607C84.4275 7.18632 84.4948 6.81347 84.6292 6.47749C84.7705 6.1415 84.9652 5.8559 85.2135 5.62066C85.4767 5.38055 85.7852 5.19544 86.1209 5.07618C86.495 4.93785 86.8913 4.86947 87.2901 4.87444C87.5924 4.87444 87.8645 4.90481 88.1065 4.96556C88.3552 5.0258 88.5668 5.10294 88.7413 5.19694V6.46737C88.5607 6.32926 88.3556 6.22648 88.1368 6.1644C87.9123 6.0911 87.6775 6.05377 87.4412 6.05378C86.9713 6.05378 86.5883 6.19165 86.2923 6.46737C86.0031 6.74261 85.8587 7.10536 85.8592 7.55559C85.8592 7.79083 85.8961 8.00582 85.9698 8.20056C86.0503 8.38856 86.1612 8.54981 86.3024 8.6843C86.4437 8.81927 86.6083 8.92676 86.7963 9.00679C86.991 9.08102 87.2026 9.11816 87.4311 9.11815C87.6596 9.11816 87.8881 9.0844 88.1166 9.01692C88.3451 8.94944 88.5567 8.8453 88.7515 8.70454V9.90411C88.5904 10.0246 88.3755 10.122 88.1065 10.1962C87.8375 10.2637 87.5417 10.2974 87.2193 10.2974Z" fill="black"/>
<path d="M81.7673 10.2975C81.3627 10.3034 80.9602 10.2386 80.5779 10.1058C80.2479 9.98285 79.9464 9.79418 79.6914 9.55126C79.4462 9.3115 79.2538 9.02308 79.1267 8.70454C78.9956 8.35339 78.9306 7.98101 78.9351 7.60621C78.9351 7.18249 79.0057 6.80289 79.1469 6.46737C79.2945 6.13139 79.4892 5.84578 79.7312 5.61054C79.9794 5.37604 80.2703 5.19121 80.588 5.06608C80.919 4.9374 81.2713 4.87238 81.6263 4.87446C81.9956 4.87446 82.3349 4.94508 82.6444 5.08631C82.9602 5.22081 83.2221 5.41894 83.4304 5.68068C83.6459 5.94292 83.8004 6.26878 83.8939 6.65828C83.9951 7.0415 84.0187 7.48184 83.9647 7.97931H80.4065C80.4938 8.32157 80.6719 8.60355 80.9409 8.8253C81.2166 9.04078 81.5962 9.14852 82.0797 9.14852C82.3757 9.14852 82.6748 9.10802 82.977 9.02704C83.2519 8.9527 83.5112 8.82977 83.7427 8.66406V9.77325C83.5282 9.92751 83.246 10.055 82.896 10.1558C82.5277 10.2523 82.1482 10.3 81.7673 10.2975ZM81.5757 5.95329C81.2921 5.94677 81.0172 6.05164 80.81 6.24542C80.6018 6.43341 80.4605 6.68865 80.3863 7.01114H82.6242C82.6039 6.7089 82.5032 6.45704 82.3219 6.25554C82.1407 6.05404 81.8919 5.95329 81.5757 5.95329Z" fill="black"/>
<path d="M73.5988 4.97569L75.0095 7.95907L76.4817 4.97569H78.1845L78.1946 10.1962H76.7941V6.77974L75.3624 9.79347H74.4152L73.0645 6.74936V10.1962H71.8548V4.97568L73.5988 4.97569Z" fill="black"/>
<path d="M66.5705 10.3174C66.127 10.3174 65.7306 10.2536 65.3811 10.1258C65.0509 10.0029 64.749 9.81423 64.4939 9.57123C64.2486 9.33146 64.0563 9.04304 63.9292 8.72451C63.7999 8.37288 63.7352 8.00079 63.7383 7.62617C63.7383 7.20245 63.8086 6.82286 63.9494 6.48734C64.0974 6.15136 64.2924 5.86575 64.5344 5.63051C64.7826 5.396 65.0735 5.21118 65.3912 5.08604C65.7219 4.95746 66.074 4.89244 66.4288 4.89443C66.7985 4.89443 67.1379 4.96505 67.4469 5.10628C67.7626 5.24078 68.0249 5.4389 68.2336 5.70065C68.4486 5.96289 68.6031 6.28875 68.6971 6.67824C68.7978 7.06147 68.8212 7.50181 68.7672 7.99928H65.2097C65.297 8.34154 65.4751 8.62352 65.7441 8.84527C66.0193 9.06075 66.3989 9.16848 66.8829 9.16848C67.1784 9.16848 67.4773 9.12799 67.7795 9.04701C68.0546 8.97275 68.3142 8.84981 68.5459 8.68403V9.79322C68.3305 9.94747 68.0482 10.075 67.6992 10.1757C67.3308 10.2723 66.9514 10.3199 66.5705 10.3174ZM66.3789 5.97326C66.0767 5.97326 65.8212 6.07063 65.6125 6.26539C65.4042 6.45338 65.2632 6.70862 65.1895 7.03111H67.4266C67.4069 6.72887 67.3061 6.47701 67.1244 6.27551C66.9427 6.07401 66.6942 5.97326 66.3789 5.97326Z" fill="black"/>
<path d="M61.0782 10.3174C60.6347 10.3174 60.2383 10.2536 59.8888 10.1258C59.5586 10.0029 59.2567 9.81423 59.0016 9.57123C58.7563 9.33146 58.564 9.04304 58.4368 8.72451C58.3076 8.37288 58.2429 8.00079 58.246 7.62617C58.246 7.20245 58.3163 6.82286 58.4571 6.48734C58.6051 6.15136 58.8001 5.86575 59.0421 5.63051C59.2903 5.396 59.5811 5.21118 59.8989 5.08604C60.2296 4.95746 60.5817 4.89244 60.9365 4.89443C61.3067 4.89443 61.6461 4.96505 61.9546 5.10628C62.2708 5.24078 62.533 5.4389 62.7413 5.70065C62.9563 5.96289 63.1108 6.28875 63.2048 6.67824C63.3055 7.06147 63.3289 7.50181 63.2749 7.99928H59.7174C59.8047 8.34154 59.9828 8.62352 60.2518 8.84527C60.527 9.06075 60.9066 9.16848 61.3906 9.16848C61.6861 9.16848 61.9849 9.12799 62.2872 9.04701C62.5623 8.97275 62.8219 8.84981 63.0536 8.68403V9.79322C62.8382 9.94747 62.5559 10.075 62.2069 10.1757C61.8385 10.2723 61.4591 10.3199 61.0782 10.3174ZM60.8866 5.97326C60.5844 5.97326 60.3289 6.07063 60.1202 6.26539C59.9119 6.45338 59.7709 6.70862 59.6972 7.03111H61.9343C61.9146 6.72887 61.8138 6.47701 61.6321 6.27551C61.4508 6.07401 61.2023 5.97326 60.8866 5.97326Z" fill="black"/>
<path d="M49.9349 4.99566H51.3362V9.03688H53.0297V4.99566H54.4302V9.03688H56.1135V4.99566H57.5149V10.2162H49.9349V4.99566Z" fill="black"/>
<path d="M46.4396 9.05713C46.6141 9.05713 46.7788 9.02701 46.9335 8.96675C47.0936 8.90006 47.2377 8.80027 47.3565 8.67391C47.4814 8.54243 47.5805 8.38864 47.6486 8.22054C47.7228 8.03929 47.76 7.83104 47.76 7.59581C47.7638 7.3856 47.726 7.1767 47.6486 6.98121C47.5822 6.81201 47.4829 6.65767 47.3565 6.52711C47.2371 6.40658 47.0927 6.31376 46.9335 6.25524C46.6142 6.12203 46.2549 6.12203 45.9357 6.25524C45.7808 6.31688 45.6401 6.40938 45.5221 6.52711C45.3956 6.65767 45.2963 6.81201 45.2299 6.98121C45.1528 7.17676 45.1152 7.38565 45.1193 7.59581C45.1193 7.83057 45.1562 8.03881 45.2299 8.22054C45.3037 8.39553 45.4011 8.54665 45.5221 8.67391C45.6435 8.80213 45.7814 8.89975 45.9357 8.96675C46.0967 9.02701 46.2647 9.05713 46.4396 9.05713ZM46.4396 10.3174C46.0755 10.32 45.7138 10.2585 45.3709 10.1359C45.0468 10.0115 44.7492 9.82675 44.4939 9.59146C44.24 9.34887 44.0378 9.05741 43.8995 8.73463C43.7528 8.3732 43.6807 7.98581 43.6876 7.5958C43.6876 7.17931 43.7583 6.80646 43.8995 6.47723C44.0475 6.14123 44.2456 5.85563 44.4939 5.62039C44.7478 5.3858 45.046 5.20414 45.3709 5.08604C45.7123 4.95693 46.0747 4.89198 46.4396 4.89444C46.8011 4.89163 47.1599 4.95663 47.4975 5.08604C47.8335 5.20705 48.1258 5.38516 48.3746 5.62039C48.6337 5.86067 48.8396 6.15254 48.979 6.47723C49.127 6.80646 49.201 7.17931 49.201 7.5958C49.201 8.01904 49.127 8.39865 48.979 8.73463C48.8383 9.07109 48.6402 9.3567 48.3847 9.59146C48.1316 9.82969 47.8334 10.0148 47.5076 10.1359C47.165 10.2585 46.8035 10.3199 46.4396 10.3174Z" fill="black"/>
<path d="M39.0701 4.99566L39.1005 5.69052C39.2985 5.43848 39.5545 5.23804 39.8467 5.10628C40.1594 4.96231 40.5003 4.88994 40.8445 4.89443C41.1603 4.89443 41.4625 4.95155 41.7513 5.0658C42.0405 5.17378 42.296 5.33839 42.5177 5.55965C42.7395 5.78091 42.914 6.0564 43.0412 6.38612C43.1757 6.71584 43.2429 7.09545 43.2429 7.52494C43.2429 7.98193 43.1689 8.38515 43.021 8.73464C42.8928 9.05844 42.7011 9.35325 42.457 9.6016C42.2275 9.83289 41.9532 10.0147 41.6508 10.1359C41.3662 10.2538 41.0614 10.3154 40.7534 10.3174C40.4437 10.3213 40.1361 10.2666 39.8467 10.1562C39.5842 10.0522 39.3444 9.89796 39.141 9.7021V12H37.7397V4.99566H39.0701ZM41.8221 7.60592C41.8221 7.37069 41.785 7.15906 41.7108 6.97107C41.645 6.79577 41.5458 6.63494 41.4187 6.49747C41.2999 6.3711 41.1557 6.27131 40.9957 6.20463C40.6659 6.07116 40.2972 6.07116 39.9675 6.20463C39.8036 6.27483 39.656 6.37797 39.5336 6.50759C39.4013 6.64296 39.2984 6.8042 39.2314 6.9812C39.1535 7.18358 39.1159 7.39925 39.1208 7.61606C39.1208 7.85804 39.1576 8.07304 39.2314 8.26104C39.3051 8.44903 39.4059 8.6069 39.5336 8.73464C39.6618 8.85516 39.8065 8.94916 39.9675 9.01663C40.1285 9.08412 40.2998 9.11787 40.4816 9.11787C40.6633 9.11787 40.8347 9.08412 40.9957 9.01663C41.1571 8.94962 41.2981 8.85225 41.4187 8.72451C41.5392 8.59002 41.6365 8.43215 41.7108 8.2509C41.7885 8.04492 41.8263 7.82604 41.8221 7.60592Z" fill="black"/>
<path d="M34.2444 9.05713C34.4189 9.05713 34.5835 9.02701 34.7382 8.96675C34.8983 8.90006 35.0425 8.80027 35.1612 8.67391C35.2851 8.54149 35.3843 8.38794 35.4541 8.22054C35.5307 8.02133 35.5683 7.80923 35.5647 7.59581C35.5688 7.38565 35.5312 7.17676 35.4541 6.98121C35.3875 6.81194 35.2879 6.6576 35.1612 6.52711C35.0419 6.40658 34.8975 6.31376 34.7382 6.25524C34.419 6.12203 34.0597 6.12203 33.7404 6.25524C33.5855 6.31688 33.4448 6.40938 33.3268 6.52711C33.2004 6.65767 33.1011 6.81201 33.0347 6.98121C32.9576 7.17676 32.92 7.38565 32.9241 7.59581C32.9241 7.83057 32.9609 8.03881 33.0347 8.22054C33.1084 8.39553 33.2058 8.54665 33.3268 8.67391C33.4483 8.80213 33.5862 8.89975 33.7404 8.96675C33.9014 9.02701 34.0694 9.05713 34.2444 9.05713ZM34.2444 10.3174C33.8803 10.32 33.5185 10.2585 33.1757 10.1359C32.8516 10.0115 32.5539 9.82675 32.2986 9.59146C32.0447 9.34887 31.8425 9.05741 31.7043 8.73463C31.5576 8.3732 31.4855 7.98581 31.4924 7.5958C31.4924 7.17931 31.563 6.80646 31.7043 6.47723C31.8522 6.14123 32.0504 5.85563 32.2986 5.62039C32.5526 5.3858 32.8508 5.20414 33.1757 5.08604C33.5171 4.95693 33.8794 4.89198 34.2444 4.89444C34.6059 4.89163 34.9647 4.95663 35.3022 5.08604C35.6382 5.20705 35.9306 5.38516 36.1793 5.62039C36.4348 5.85563 36.6365 6.14124 36.7845 6.47723C36.932 6.80646 37.0058 7.17931 37.0058 7.5958C37.0058 8.01904 36.932 8.39865 36.7845 8.73463C36.6428 9.07109 36.4444 9.3567 36.1894 9.59146C35.9364 9.82969 35.6381 10.0148 35.3124 10.1359C34.9697 10.2585 34.6083 10.3199 34.2444 10.3174Z" fill="black"/>
<path d="M29.1923 6.48735L31.551 10.2162H29.8576L28.1743 7.55532L26.4606 10.2162H25L27.4078 6.51699L25.1511 3H26.8648L28.4266 5.47939L30.0289 3H31.4801L29.1923 6.48735Z" fill="black"/>
<defs>
<linearGradient id="paint0_linear_2068_20750" x1="19.8659" y1="11.4095" x2="15.2057" y2="11.5865" gradientUnits="userSpaceOnUse">
<stop stop-color="#FFCC00"/>
<stop offset="1" stop-color="#FE9B21"/>
</linearGradient>
<linearGradient id="paint1_linear_2068_20750" x1="21.3805" y1="7.92386" x2="17.5711" y2="9.66125" gradientUnits="userSpaceOnUse">
<stop stop-color="#FFCC00"/>
<stop offset="1" stop-color="#FE9B21"/>
</linearGradient>
<linearGradient id="paint2_linear_2068_20750" x1="21.5886" y1="3.93747" x2="19.1354" y2="7.33152" gradientUnits="userSpaceOnUse">
<stop stop-color="#FFCC00"/>
<stop offset="1" stop-color="#FE9B21"/>
</linearGradient>
<linearGradient id="paint3_linear_2068_20750" x1="19.6556" y1="0.153711" x2="19.307" y2="4.44829" gradientUnits="userSpaceOnUse">
<stop stop-color="#FFCC00"/>
<stop offset="1" stop-color="#FE9B21"/>
</linearGradient>
<linearGradient id="paint4_linear_2068_20750" x1="1.87095" y1="11.4095" x2="6.53117" y2="11.5865" gradientUnits="userSpaceOnUse">
<stop stop-color="#FFCC00"/>
<stop offset="1" stop-color="#FE9B21"/>
</linearGradient>
<linearGradient id="paint5_linear_2068_20750" x1="0.356325" y1="7.92385" x2="4.16571" y2="9.66125" gradientUnits="userSpaceOnUse">
<stop stop-color="#FFCC00"/>
<stop offset="1" stop-color="#FE9B21"/>
</linearGradient>
<linearGradient id="paint6_linear_2068_20750" x1="0.14826" y1="3.93747" x2="2.60142" y2="7.33152" gradientUnits="userSpaceOnUse">
<stop stop-color="#FFCC00"/>
<stop offset="1" stop-color="#FE9B21"/>
</linearGradient>
<linearGradient id="paint7_linear_2068_20750" x1="2.08128" y1="0.153711" x2="2.42985" y2="4.44829" gradientUnits="userSpaceOnUse">
<stop stop-color="#FFCC00"/>
<stop offset="1" stop-color="#FE9B21"/>
</linearGradient>
<linearGradient id="paint8_linear_2068_20750" x1="10.8684" y1="0.517799" x2="10.8684" y2="12.1625" gradientUnits="userSpaceOnUse">
<stop stop-color="#FF6122"/>
<stop offset="1" stop-color="#F22411"/>
</linearGradient>
<clipPath id="clip0_2068_20750">
<rect width="21.7368" height="12.4211" fill="white"/>
</clipPath>
</defs>
</svg>
