<svg width="153" height="31" viewBox="0 0 153 31" fill="none" xmlns="http://www.w3.org/2000/svg">
    <g clip-path="url(#clip0_3338_2208)">
        <path
            d="M0 0H2.48553V14.2187H2.60996L12.2656 0H15V18H12.5405V3.77829H12.39L2.76331 18H0.00578827L0 0Z"
            fill="#FFFFFF" />
        <path
            d="M26.8211 12.9924H29C28.8839 15.8125 27.2369 18 23.7322 18C19.7631 18 18 15.2036 18 11.3932V10.6305C18 6.81714 19.7631 4 23.7322 4C27.2423 4 28.8839 6.18159 29 8.87754H26.8211L26.7968 8.50803C26.7509 7.39063 25.8922 6.24662 23.7322 6.24662C21.2266 6.24662 20.322 7.61824 20.322 10.261V11.7863C20.322 14.4025 21.2266 15.7741 23.7322 15.7741C25.8922 15.7741 26.7509 14.6567 26.7968 13.3619L26.8211 12.9924Z"
            fill="#FFFFFF" />
        <path
            d="M32 4H34.2721V9.50988H36.1838L40.3619 4H43L38.2137 10.3288V10.4743L43 17H40.2183L36.1753 11.5301H34.2636V17H32V4Z"
            fill="#FFFFFF" />
        <path
            d="M57 10.6864V11.1895C57 15.0855 55.2869 17.8524 51.798 17.8524C49.4168 17.8524 48.0692 16.7205 47.4525 14.7082H47.3069V22H45V4.27494H47.3069V7.16769H47.4525C48.0692 5.15534 49.4168 4 51.798 4C55.2812 4 57 6.76405 57 10.6864ZM51.0585 15.6383C53.7081 15.6383 54.5675 14.4069 54.5675 11.2129V10.6601C54.5675 7.46896 53.7109 6.23757 51.0585 6.23757C48.1635 6.23757 47.3041 7.46897 47.3041 10.3091V11.3152C47.3069 14.4069 48.1663 15.6383 51.0585 15.6383Z"
            fill="#FFFFFF" />
        <path
            d="M68.9442 15.225H68.8228C67.9035 17.1506 66.8599 18 64.2986 18C61.7374 18 60 16.7259 60 14.3756V13.7503C60 11.7141 61.616 10.0997 64.6253 10.0997H68.9239V9.10202C68.9239 6.92624 67.9555 6.05069 65.9927 6.05069C63.9286 6.05069 62.9371 6.77498 62.8619 8.12466L62.8359 8.62497H60.5001C60.6244 5.62601 62.3878 4 66.1401 4C69.4703 4 71.2857 5.47475 71.2857 9.12528V14.5502C71.2857 15.3006 71.5344 15.5508 72.2802 15.5508H73V17.6277C72.4908 17.7126 71.9753 17.7535 71.4592 17.7498C69.93 17.7469 68.9442 17.1245 68.9442 15.225ZM64.897 15.926C67.4034 15.926 68.9211 15.2017 68.9211 12.3744V11.8741H64.6455C62.9573 11.8741 62.3329 12.7467 62.3329 13.8521V14.2273C62.3358 15.2977 63.1308 15.9231 64.897 15.9231V15.926Z"
            fill="#FFFFFF" />
        <path d="M74 9H82V11H74V9Z" fill="#FFFFFF" />
        <path
            d="M84 0H92.27C95.3643 0 97.5162 1.41083 97.5162 4.36699V5.2637C97.5162 6.93159 96.5232 8.21687 94.4951 8.47393V8.64431C96.7904 8.77283 98 10.082 98 12.2312V13.5164C98 16.7805 95.6062 18 92.2954 18H84V0ZM92.391 7.68183C94.2532 7.68183 94.9789 6.68051 94.9789 5.2906V4.64796C94.9789 3.28795 94.2785 2.28661 92.4135 2.28661H86.4191V7.66689L92.391 7.68183ZM92.8748 15.6984C94.7623 15.6984 95.4627 14.5656 95.4627 13.2056V12.4344C95.4627 11.0475 94.737 9.94155 92.8495 9.94155H86.4191V15.6984H92.8748Z"
            fill="#FFFFFF" />
        <path
            d="M113 10.6305V11.3932C113 15.2036 111.154 18 107 18C102.845 18 101 15.2036 101 11.3932V10.6305C101 6.81714 102.845 4 107 4C111.154 4 113 6.81714 113 10.6305ZM107 15.7623C109.623 15.7623 110.595 14.4143 110.595 11.7745V10.2492C110.595 7.60642 109.623 6.2348 107 6.2348C104.377 6.2348 103.431 7.60642 103.431 10.2492V11.7745C103.431 14.4202 104.4 15.7623 107 15.7623Z"
            fill="#FFFFFF" />
        <path
            d="M116.22 6.92793L116.244 4H125V17.7381H122.805V6.14997H118.298C118.249 17.1651 116.85 17.9974 115.19 17.9974C114.78 18.0168 114.373 17.9279 114 17.7381V15.4042C114.077 15.4242 114.155 15.4333 114.234 15.4313C115.565 15.4313 116.124 14.988 116.22 6.92793Z"
            fill="#FFFFFF" />
        <path d="M137 6.03446H131.223V17H129V4H137V6.03446Z" fill="#FFFFFF" />
        <path
            d="M147.955 15.2256H147.831C146.911 17.1508 145.866 18 143.305 18C140.745 18 139 16.7262 139 14.3764V13.7511C139 11.7154 140.617 10.1014 143.629 10.1014H147.932V9.10387C147.932 6.92855 146.963 6.05318 144.998 6.05318C142.932 6.05318 141.94 6.77732 141.864 8.12671L141.838 8.62692H139.503C139.622 5.62858 141.375 4 145.137 4C148.467 4 150.284 5.47445 150.284 9.12422V14.548C150.284 15.2983 150.53 15.5484 151.277 15.5484H152V17.6248C151.49 17.7097 150.974 17.7506 150.458 17.747C148.95 17.747 147.955 17.1246 147.955 15.2256ZM143.904 15.9265C146.416 15.9265 147.932 15.2023 147.932 12.3756V11.8754H143.653C141.96 11.8754 141.338 12.7478 141.338 13.8529V14.2281C141.338 15.2983 142.134 15.9236 143.901 15.9236L143.904 15.9265Z"
            fill="#FFFFFF" />
        <path d="M96 24.3962H93.7295V30H93.2705V24.3962H91V24H96V24.3962Z" fill="#FFFFFF"
            stroke="#FFFFFF" stroke-width="0.7" />
        <path
            d="M102 29.6068V30H98V24H101.874V24.3962H98.4221V26.7615H101.497V27.146H98.4221V29.6068H102Z"
            fill="#FFFFFF" stroke="#FFFFFF" stroke-width="0.7" />
        <path
            d="M104.673 24L106.487 26.526L108.309 24H108.835L106.763 26.8902L109 30H108.472L106.487 27.2601L104.517 30H104L106.223 26.896L104.16 24.0058L104.673 24Z"
            fill="#FFFFFF" stroke="#FFFFFF" stroke-width="0.7" />
        <path d="M116 24V30H115.553V27.146H111.447V30H111V24H111.447V26.7615H115.553V24H116Z"
            fill="#FFFFFF" stroke="#FFFFFF" stroke-width="0.7" />
        <path
            d="M118 26.9631C117.995 26.5663 118.07 26.1727 118.22 25.806C118.369 25.4394 118.591 25.1075 118.872 24.8305C119.153 24.5535 119.486 24.3372 119.852 24.1948C120.218 24.0524 120.608 23.9869 121 24.0022C122.713 24.0022 124 25.2603 124 26.9631C124 27.7685 123.684 28.541 123.121 29.1105C122.559 29.68 121.796 30 121 30C120.205 30 119.441 29.68 118.879 29.1105C118.316 28.541 118 27.7685 118 26.9631ZM123.561 26.9631C123.568 26.4458 123.424 25.9378 123.146 25.504C122.867 25.0701 122.467 24.7299 121.997 24.5267C121.527 24.3236 121.008 24.2666 120.506 24.3632C120.004 24.4597 119.542 24.7053 119.178 25.0688C118.814 25.4322 118.566 25.897 118.464 26.404C118.362 26.911 118.411 27.4372 118.606 27.9157C118.8 28.3941 119.131 28.8031 119.556 29.0906C119.981 29.3781 120.481 29.531 120.992 29.53C121.329 29.5403 121.666 29.4812 121.98 29.3564C122.295 29.2316 122.581 29.0436 122.822 28.8037C123.063 28.5639 123.253 28.2771 123.382 27.9608C123.51 27.6445 123.574 27.3051 123.569 26.9631H123.561Z"
            fill="#FFFFFF" stroke="#FFFFFF" stroke-width="0.7" />
        <path d="M131 24V30H130.558V24.3962H126.445V30H126V24H131Z" fill="#FFFFFF" stroke="#FFFFFF"
            stroke-width="0.7" />
        <path
            d="M137.744 28.3113H134.254L133.474 30H133L135.775 24H136.214L139 30H138.529L137.744 28.3113ZM137.581 27.9441L135.993 24.4742L134.416 27.9441H137.581Z"
            fill="#FFFFFF" stroke="#FFFFFF" stroke-width="0.7" />
        <path
            d="M145 26.0202C145 27.2756 144.205 28.0404 142.885 28.0404H141.383V30H141V24H142.885C144.205 24 145 24.7532 145 26.0202ZM144.61 26.0202C144.61 24.9841 144.01 24.3954 142.885 24.3954H141.383V27.6364H142.885C144.01 27.6364 144.61 27.0447 144.61 26.0202Z"
            fill="#FFFFFF" stroke="#FFFFFF" stroke-width="0.7" />
        <path
            d="M149.013 27.1547H147.467V30H147V24H147.467V26.7615H149.013L151.314 24H151.836L149.378 26.9234L152 30H151.45L149.013 27.1547Z"
            fill="#FFFFFF" stroke="#FFFFFF" stroke-width="0.7" />
    </g>
    <defs>
        <clipPath id="clip0_3338_2208">
            <rect width="153" height="31" fill="white" />
        </clipPath>
    </defs>
</svg>