<svg width="137" height="38" viewBox="0 0 137 38" fill="none" xmlns="http://www.w3.org/2000/svg">
<path fill-rule="evenodd" clip-rule="evenodd" d="M127.435 37.1069C125.87 37.1069 124.52 36.7805 123.375 36.1277C122.239 35.475 121.354 34.5398 120.745 33.3227C120.128 32.1056 119.824 30.65 119.824 28.9828V18.8745C119.824 17.2072 120.129 15.7607 120.745 14.5345C121.354 13.3174 122.23 12.3735 123.375 11.7208C124.52 11.0594 125.87 10.733 127.435 10.733C128.875 10.733 130.145 11.0331 131.245 11.6238C132.345 12.2149 133.212 13.0703 133.856 14.1905C134.5 15.3107 134.875 16.6338 134.983 18.1597L132.389 18.16C132.282 17.1278 132.005 16.2371 131.558 15.4873C131.12 14.7375 130.538 14.1732 129.832 13.7675C129.125 13.3704 128.329 13.1677 127.444 13.1677C126.425 13.1677 125.53 13.3881 124.779 13.8468C124.019 14.3055 123.447 14.9669 123.035 15.8227C122.633 16.6782 122.436 17.6926 122.436 18.8657V28.9742C122.436 30.1473 122.642 31.1528 123.035 32.0085C123.438 32.864 124.019 33.5167 124.779 33.9755C125.539 34.4342 126.424 34.6635 127.444 34.6635C128.329 34.6635 129.125 34.4606 129.832 34.0724C130.538 33.6754 131.12 33.111 131.558 32.3526C132.005 31.6028 132.282 30.703 132.389 29.6622H134.983C134.875 31.1881 134.5 32.5203 133.847 33.6314C133.195 34.7515 132.318 35.6074 131.236 36.1981C130.145 36.7891 128.875 37.0888 127.435 37.0888V37.0892V37.1069Z" fill="#432821"/>
<path fill-rule="evenodd" clip-rule="evenodd" d="M53.0364 37.1069C51.4714 37.1069 50.121 36.7805 48.9762 36.1277C47.8405 35.475 46.9549 34.5398 46.3469 33.3227C45.7297 32.1056 45.4258 30.65 45.4258 28.9828V18.8745C45.4258 17.2072 45.73 15.7607 46.3469 14.5345C46.9549 13.3174 47.8314 12.3735 48.9762 11.7208C50.121 11.0594 51.4714 10.733 53.0364 10.733C54.4762 10.733 55.7461 11.0331 56.846 11.6238C57.9459 12.2149 58.8136 13.0703 59.4575 14.1905C60.0926 15.3107 60.4769 16.6338 60.5844 18.1597L57.9908 18.16C57.8834 17.1278 57.6062 16.2371 57.159 15.4873C56.7209 14.7375 56.1396 14.1732 55.4332 13.7675C54.7268 13.3704 53.9307 13.1677 53.0455 13.1677C52.0261 13.1677 51.1317 13.3881 50.3802 13.8468C49.6201 14.3055 49.0478 14.9669 48.6365 15.8227C48.2339 16.6782 48.0372 17.6926 48.0372 18.8657V28.9742C48.0372 30.1473 48.2431 31.1528 48.6365 32.0085C49.0391 32.864 49.6201 33.5167 50.3802 33.9755C51.1405 34.4342 52.0257 34.6635 53.0455 34.6635C53.9307 34.6635 54.7268 34.4606 55.4332 34.0724C56.1396 33.6754 56.7209 33.111 57.159 32.3526C57.6062 31.6028 57.8834 30.703 57.9908 29.6622H60.5844C60.4769 31.1881 60.1014 32.5203 59.4487 33.6314C58.796 34.7515 57.9196 35.6074 56.8372 36.1981C55.7461 36.7891 54.4762 37.0888 53.0364 37.0888V37.0892V37.1069Z" fill="#432821"/>
<path fill-rule="evenodd" clip-rule="evenodd" d="M67.0682 34.4518H78.3276V36.8335L64.4746 36.8332V10.9978H67.0682V34.4518Z" fill="#432821"/>
<path fill-rule="evenodd" clip-rule="evenodd" d="M84.9021 36.8421H82.3086V11.0067L84.9021 11.0064V36.8418V36.8421Z" fill="#432821"/>
<path fill-rule="evenodd" clip-rule="evenodd" d="M90.3917 10.9978H92.9139L103.914 31.8055V10.9978H106.489V36.8158H103.932L92.9672 16.2108V36.8158H90.3828V10.9978H90.3917Z" fill="#432821"/>
<path fill-rule="evenodd" clip-rule="evenodd" d="M114.602 36.8421H112.008V11.0067L114.602 11.0064V36.8418V36.8421Z" fill="#432821"/>
<path fill-rule="evenodd" clip-rule="evenodd" d="M17.5798 36.9753H23.3158L11.6578 0L8.80469 9.18019L17.58 36.971H17.5798V36.9753Z" fill="#432821"/>
<path fill-rule="evenodd" clip-rule="evenodd" d="M38.4395 0.0791016H42.0661L38.4395 11.5565V0.0791016Z" fill="#432821"/>
<path fill-rule="evenodd" clip-rule="evenodd" d="M24.3893 0.00402832H18.666L30.3409 36.9753L33.1772 27.8533L24.3937 0.00402832H24.3935H24.3893Z" fill="#432821"/>
<path fill-rule="evenodd" clip-rule="evenodd" d="M3.63102 25.4936H7.25766L0 36.971L3.63102 25.4936Z" fill="#432821"/>
<path d="M92.5527 5.35287V5.72996H88.3919V5.35287H92.5527ZM88.49 5.35287V6.99591H88.0469V5.35287H88.49ZM92.9376 5.35287L92.9338 6.99591H92.4869V5.35287H92.9376ZM92.014 0.507172V0.887907H89.6071V0.507172H92.014ZM92.3703 0.507172V5.72996H91.9272V0.507172H92.3703ZM89.447 0.507172H89.8939L89.7995 2.39012C89.7822 2.72804 89.7499 3.04023 89.699 3.32669C89.6494 3.61316 89.5885 3.87639 89.5165 4.11639C89.4433 4.35504 89.3626 4.56807 89.2757 4.75661C89.1889 4.944 89.0983 5.10557 89.0027 5.24026C88.9083 5.37495 88.814 5.48391 88.7172 5.56714C88.6216 5.64912 88.531 5.70423 88.4428 5.72996H88.1673V5.35287H88.3994C88.4577 5.29412 88.5347 5.19495 88.629 5.05786C88.7233 4.91952 88.8202 4.73463 88.922 4.50202C89.0225 4.26816 89.1119 3.97796 89.19 3.63034C89.2696 3.28138 89.3229 2.86877 89.3527 2.39012L89.447 0.507172ZM94.1752 2.5946V7.22237H93.7382V1.84896H94.1454L94.1752 2.5946ZM96.9097 3.75399V3.82868C96.9097 4.11879 96.875 4.38327 96.8079 4.62567C96.7397 4.86682 96.6416 5.07495 96.515 5.2513C96.3872 5.42631 96.2308 5.56224 96.0446 5.65776C95.8571 5.75444 95.6448 5.80215 95.4078 5.80215C95.172 5.80215 94.9621 5.76548 94.7784 5.69444C94.5947 5.62224 94.4358 5.52058 94.3042 5.38714C94.1715 5.25495 94.066 5.09943 93.9877 4.92068C93.9083 4.74317 93.8537 4.54733 93.8214 4.33431V3.34138C93.8586 3.10628 93.9182 2.8945 94.0002 2.70231C94.082 2.51127 94.1888 2.34605 94.318 2.20772C94.4483 2.06938 94.6022 1.96282 94.7821 1.88813C94.9609 1.81469 95.1657 1.77677 95.3966 1.77677C95.6361 1.77677 95.8509 1.82324 96.0383 1.91511C96.2258 2.00688 96.3846 2.14032 96.515 2.31293C96.6441 2.48679 96.7434 2.69492 96.8092 2.93732C96.8762 3.17981 96.9097 3.45274 96.9097 3.75399ZM96.4728 3.82868V3.75399C96.4728 3.52628 96.4492 3.31565 96.4021 3.12221C96.3549 2.92877 96.2829 2.75981 96.1873 2.61533C96.0918 2.4697 95.9701 2.357 95.8236 2.27626C95.6771 2.19418 95.5034 2.15376 95.3023 2.15376C95.0937 2.15376 94.9162 2.18813 94.7698 2.25668C94.6233 2.32397 94.5004 2.4146 94.4035 2.5248C94.3068 2.63616 94.231 2.75741 94.1752 2.8896C94.1193 3.02064 94.0783 3.15034 94.0511 3.27648V4.42119C94.0969 4.60234 94.1715 4.77015 94.2732 4.92442C94.375 5.0786 94.5116 5.20224 94.6816 5.29412C94.8529 5.38589 95.0627 5.43245 95.3097 5.43245C95.5083 5.43245 95.6808 5.39204 95.826 5.31005C95.9714 5.22922 96.0918 5.11536 96.1873 4.96964C96.2829 4.824 96.3549 4.6538 96.4021 4.46036C96.4492 4.26692 96.4728 4.05639 96.4728 3.82868ZM99.0001 5.34308L100.226 1.84896H100.696L99.0299 6.35434C98.9951 6.44247 98.953 6.54039 98.9008 6.64819C98.8486 6.75591 98.7804 6.85872 98.6972 6.95789C98.6128 7.05706 98.5085 7.13914 98.3844 7.20279C98.2591 7.26519 98.1076 7.29706 97.9277 7.29706C97.8817 7.29706 97.8233 7.29216 97.7514 7.28112C97.6794 7.27008 97.6285 7.26029 97.5974 7.2505L97.5937 6.8881C97.6198 6.89549 97.6582 6.90164 97.7091 6.90653C97.7601 6.91143 97.7961 6.91383 97.8147 6.91383C97.9723 6.91383 98.1051 6.88695 98.2131 6.83424C98.3211 6.78163 98.4117 6.7033 98.4837 6.59924C98.5569 6.49517 98.6216 6.36663 98.6773 6.21111L99.0001 5.34308ZM97.8556 1.84896L99.1093 5.18151L99.226 5.62954L98.9095 5.80589L97.3827 1.84896H97.8556ZM103.828 1.84896V2.2224H101.834V5.72996H101.398L101.401 1.84896H103.828ZM106.911 5.03453V3.03284C106.911 2.84794 106.871 2.69002 106.794 2.55533C106.716 2.42189 106.603 2.31908 106.453 2.24688C106.301 2.17584 106.116 2.13908 105.895 2.13908C105.692 2.13908 105.511 2.1746 105.352 2.24564C105.193 2.31543 105.069 2.41095 104.978 2.52845C104.886 2.6472 104.842 2.77824 104.842 2.92148L104.405 2.91773C104.405 2.7721 104.441 2.63127 104.514 2.49418C104.587 2.35824 104.69 2.23584 104.823 2.12928C104.956 2.02157 105.116 1.93584 105.301 1.8722C105.487 1.80855 105.691 1.77677 105.914 1.77677C106.196 1.77677 106.443 1.82448 106.658 1.91751C106.872 2.01053 107.04 2.15012 107.162 2.33741C107.283 2.52356 107.343 2.75741 107.343 3.04023V4.91578C107.343 5.04922 107.354 5.1888 107.374 5.33204C107.395 5.47527 107.425 5.59402 107.463 5.68714V5.72996H107.001C106.973 5.64423 106.949 5.53527 106.934 5.40548C106.918 5.27453 106.911 5.15088 106.911 5.03453ZM107.013 3.46992L107.02 3.80045H106.165C105.941 3.80045 105.743 3.82004 105.567 3.8592C105.391 3.89847 105.243 3.95597 105.121 4.03191C105 4.1066 104.907 4.19712 104.843 4.30244C104.778 4.40775 104.747 4.52775 104.747 4.66119C104.747 4.79952 104.782 4.92682 104.854 5.04068C104.926 5.15578 105.028 5.24756 105.159 5.3161C105.291 5.38349 105.449 5.41776 105.63 5.41776C105.873 5.41776 106.087 5.3737 106.273 5.28557C106.458 5.1962 106.61 5.08109 106.732 4.93786C106.854 4.79338 106.934 4.63671 106.975 4.46775L107.165 4.71504C107.133 4.83504 107.076 4.95744 106.993 5.08234C106.908 5.20839 106.8 5.32474 106.666 5.4337C106.533 5.54266 106.377 5.63079 106.196 5.69933C106.016 5.76788 105.811 5.80215 105.583 5.80215C105.326 5.80215 105.102 5.75444 104.912 5.65776C104.723 5.56224 104.573 5.4312 104.468 5.26599C104.362 5.09943 104.31 4.91088 104.31 4.70036C104.31 4.50932 104.351 4.33796 104.434 4.18608C104.516 4.03431 104.636 3.90452 104.792 3.79805C104.948 3.69149 105.137 3.61076 105.359 3.5544C105.581 3.49805 105.831 3.46992 106.106 3.46992H107.013ZM109.365 3.95108H109.845L108.754 5.72996H108.274L109.365 3.95108ZM109.827 1.84896H111.373V5.72996H110.94V2.21501H109.827C109.597 2.21501 109.41 2.25293 109.266 2.32762C109.122 2.40356 109.016 2.50148 108.949 2.62397C108.882 2.74512 108.848 2.87616 108.848 3.0145C108.848 3.14669 108.878 3.27159 108.938 3.39159C108.997 3.51159 109.091 3.60826 109.216 3.6842C109.343 3.75888 109.506 3.7968 109.708 3.7968H111.096V4.1665H109.708C109.501 4.1665 109.318 4.13712 109.158 4.07962C108.997 4.02212 108.863 3.94253 108.753 3.83847C108.642 3.7344 108.558 3.61076 108.502 3.46868C108.445 3.32669 108.416 3.17242 108.416 3.00711C108.416 2.84064 108.448 2.68637 108.508 2.54679C108.57 2.4072 108.661 2.2848 108.781 2.17949C108.902 2.07428 109.05 1.9922 109.226 1.93469C109.401 1.87834 109.602 1.84896 109.827 1.84896ZM115.998 3.24461L114.014 0.507172H114.551L116.217 2.86388H117.079L117.035 3.24461H115.998ZM116.268 3.21159L114.446 5.72996H113.878L115.988 2.8321L116.268 3.21159ZM117.304 0.507172V5.72996H116.861V0.507172H117.304ZM120.137 0.507172L118.148 3.24461H117.13L117.086 2.86388H117.93L119.599 0.507172H120.137ZM119.705 5.72996L117.879 3.21159L118.163 2.8321L120.272 5.72996H119.705ZM121.377 5.03453L123.504 1.84896H123.941V5.72996H123.504V2.54439L121.377 5.72996H120.947V1.84896H121.377V5.03453ZM126.465 3.85066H125.832V3.56055H126.428C126.671 3.56055 126.863 3.53232 127.006 3.47607C127.149 3.41972 127.252 3.34013 127.315 3.23732C127.378 3.1345 127.41 3.01325 127.41 2.87492C127.41 2.74148 127.377 2.61908 127.31 2.50887C127.243 2.39866 127.138 2.31053 126.991 2.24314C126.846 2.17709 126.654 2.14282 126.414 2.14282C126.229 2.14282 126.059 2.17584 125.904 2.23949C125.749 2.30439 125.625 2.39252 125.531 2.50522C125.438 2.61783 125.391 2.74762 125.391 2.897H124.955C124.955 2.66679 125.024 2.46845 125.159 2.30074C125.294 2.13303 125.473 2.00448 125.695 1.91386C125.918 1.82324 126.157 1.77677 126.414 1.77677C126.636 1.77677 126.836 1.80125 127.013 1.84896C127.191 1.89668 127.341 1.96772 127.464 2.06074C127.588 2.15376 127.683 2.26887 127.748 2.4072C127.814 2.54439 127.846 2.70106 127.846 2.87856C127.846 3.012 127.815 3.13815 127.753 3.25565C127.691 3.372 127.602 3.47607 127.484 3.56544C127.367 3.65482 127.223 3.72461 127.052 3.77472C126.881 3.82493 126.685 3.85066 126.465 3.85066ZM125.832 3.65357H126.465C126.707 3.65357 126.919 3.67556 127.1 3.71972C127.283 3.76378 127.434 3.82868 127.556 3.91556C127.676 4.00128 127.767 4.1066 127.827 4.23264C127.886 4.35754 127.916 4.50202 127.916 4.66483C127.916 4.84109 127.88 5.00026 127.808 5.14234C127.737 5.28307 127.634 5.40183 127.501 5.49975C127.367 5.59891 127.208 5.67245 127.025 5.72256C126.84 5.77277 126.636 5.7985 126.414 5.7985C126.173 5.7985 125.936 5.75568 125.703 5.67245C125.468 5.58912 125.276 5.45943 125.123 5.28557C124.97 5.11047 124.893 4.88765 124.893 4.61828H125.327C125.327 4.7664 125.374 4.90234 125.468 5.02724C125.562 5.15088 125.692 5.25005 125.855 5.32474C126.019 5.39818 126.205 5.4361 126.414 5.4361C126.649 5.4361 126.845 5.40308 127.002 5.33693C127.16 5.27088 127.279 5.18151 127.359 5.0664C127.439 4.9513 127.479 4.82036 127.479 4.67213C127.479 4.49712 127.441 4.35629 127.365 4.24858C127.288 4.14087 127.172 4.06244 127.017 4.01232C126.862 3.96212 126.666 3.93639 126.428 3.93639H125.832V3.65357ZM131.555 3.58503L131.559 3.95108H129.228L129.224 3.58503H131.555ZM129.337 1.84896V5.72996H128.9L128.904 1.84896H129.337ZM131.898 1.84896L131.894 5.72996H131.457V1.84896H131.898ZM133.385 3.25565H134.669C134.979 3.25565 135.241 3.30836 135.454 3.41482C135.668 3.52138 135.829 3.66701 135.94 3.85431C136.05 4.04045 136.105 4.25098 136.105 4.48484C136.105 4.66234 136.074 4.8264 136.012 4.97828C135.951 5.13005 135.858 5.26224 135.736 5.37495C135.613 5.48755 135.463 5.57444 135.284 5.63693C135.107 5.69933 134.901 5.72996 134.669 5.72996H133.108V1.84896H133.542V5.36026H134.669C134.908 5.36026 135.102 5.31984 135.251 5.23661C135.398 5.15453 135.505 5.04682 135.572 4.91578C135.639 4.78484 135.672 4.644 135.672 4.49588C135.672 4.35015 135.639 4.21066 135.572 4.07837C135.505 3.94493 135.398 3.83722 135.251 3.75149C135.102 3.66701 134.908 3.6242 134.669 3.6242H133.385V3.25565Z" fill="#432821"/>
<path d="M50.5083 1.22851L48.6762 6.13911H48.2108L50.2105 0.916321H50.5344L50.5083 1.22851ZM52.1742 6.13911L50.3383 1.22851L50.3122 0.916321H50.6362L52.6396 6.13911H52.1742ZM51.8477 4.29533V4.67606H49.0361V4.29533H51.8477ZM53.8039 0.629761V6.13911H53.3707V0.629761H53.8039ZM56.4801 2.25811V2.60947H54.509V2.25811H56.4801ZM55.2327 1.26154H55.6659V5.19514C55.6659 5.37514 55.6895 5.50983 55.7391 5.6016C55.7875 5.69222 55.8496 5.75347 55.9277 5.7841C56.0047 5.81463 56.0891 5.83056 56.1785 5.83056C56.2443 5.83056 56.3076 5.82691 56.3672 5.81837C56.428 5.80973 56.4826 5.80118 56.531 5.79139L56.5497 6.15379C56.4963 6.16973 56.4268 6.18442 56.3424 6.19421C56.258 6.20525 56.1723 6.2113 56.0879 6.2113C55.9203 6.2113 55.7726 6.18077 55.6435 6.11952C55.5156 6.05827 55.4151 5.95306 55.3419 5.80368C55.2699 5.6543 55.2327 5.44982 55.2327 5.19274V1.26154ZM58.9106 6.2113C58.6536 6.2113 58.4178 6.16483 58.2031 6.07056C57.9883 5.97754 57.8021 5.8465 57.6432 5.67629C57.4844 5.50618 57.3614 5.30534 57.2758 5.07149C57.1889 4.83888 57.1467 4.58304 57.1467 4.30637V4.1521C57.1467 3.85334 57.1914 3.58282 57.2808 3.34157C57.3701 3.10042 57.4943 2.89354 57.6519 2.72093C57.8096 2.54822 57.9895 2.41603 58.1919 2.32426C58.3943 2.23238 58.6064 2.18592 58.8299 2.18592C59.0794 2.18592 59.3016 2.22998 59.4952 2.31686C59.6901 2.40499 59.8527 2.52749 59.9843 2.68666C60.1172 2.84573 60.2164 3.03312 60.2847 3.24979C60.353 3.46646 60.3865 3.70522 60.3865 3.96595V4.22678H57.4087V3.86189H59.9532V3.81178C59.9483 3.59386 59.9049 3.38938 59.8205 3.19958C59.7373 3.00979 59.6132 2.85437 59.4481 2.73562C59.283 2.61562 59.0769 2.55562 58.8299 2.55562C58.6462 2.55562 58.4761 2.59354 58.3222 2.67072C58.1683 2.74656 58.0367 2.85677 57.9263 2.99885C57.8158 3.14083 57.7313 3.30979 57.6717 3.50448C57.6122 3.69907 57.5824 3.91584 57.5824 4.1521V4.30637C57.5824 4.52179 57.6147 4.72138 57.6792 4.90742C57.7438 5.09232 57.8357 5.25514 57.9561 5.39722C58.0752 5.53795 58.218 5.64816 58.3831 5.7265C58.5481 5.80608 58.7294 5.84525 58.9279 5.84525C59.1613 5.84525 59.3674 5.80243 59.5461 5.71795C59.7262 5.63223 59.8874 5.49878 60.0302 5.31389L60.3034 5.52202C60.2177 5.64691 60.1122 5.76077 59.9843 5.86608C59.8577 5.97139 59.705 6.05587 59.5288 6.11702C59.3512 6.17952 59.1452 6.2113 58.9106 6.2113ZM61.675 2.89968V6.13911H61.2417V2.25811H61.6638L61.675 2.89968ZM63.0677 2.22998L63.0565 2.62416C63.0081 2.61686 62.9609 2.61072 62.915 2.60582C62.8692 2.60093 62.8183 2.59843 62.7661 2.59843C62.5762 2.59843 62.4111 2.6327 62.2696 2.70134C62.1268 2.76989 62.0077 2.86416 61.9108 2.98416C61.8141 3.10531 61.7395 3.24614 61.6886 3.40771C61.6378 3.56928 61.6092 3.74198 61.6018 3.92563L61.4417 3.98678C61.4417 3.73335 61.4689 3.49834 61.5224 3.28042C61.5757 3.0625 61.6564 2.8727 61.7669 2.70864C61.8773 2.54458 62.0163 2.41603 62.1852 2.32426C62.354 2.23238 62.5526 2.18592 62.7797 2.18592C62.8356 2.18592 62.8914 2.19082 62.946 2.19936C62.9995 2.2079 63.0404 2.2177 63.0677 2.22998ZM65.9946 5.44368V3.44198C65.9946 3.25709 65.9549 3.09917 65.8779 2.96448C65.7998 2.83104 65.6868 2.72822 65.5366 2.65603C65.3851 2.58499 65.2002 2.54822 64.9792 2.54822C64.7757 2.54822 64.5945 2.58374 64.4355 2.65478C64.2767 2.72458 64.1526 2.8201 64.062 2.9376C63.9701 3.05635 63.9254 3.18739 63.9254 3.33062L63.4885 3.32688C63.4885 3.18125 63.5245 3.04042 63.5977 2.90333C63.671 2.76739 63.774 2.64499 63.9068 2.53843C64.0396 2.43072 64.1997 2.34499 64.3847 2.28134C64.5708 2.2177 64.7745 2.18592 64.9979 2.18592C65.2796 2.18592 65.5266 2.23363 65.7415 2.32666C65.9562 2.41968 66.1237 2.55926 66.2454 2.74656C66.367 2.9327 66.4266 3.16656 66.4266 3.44938V5.32493C66.4266 5.45837 66.4378 5.59795 66.4576 5.74118C66.4788 5.88442 66.5085 6.00317 66.547 6.09629V6.13911H66.0852C66.0567 6.05338 66.0332 5.94442 66.0182 5.81462C66.0021 5.68368 65.9946 5.56003 65.9946 5.44368ZM66.0964 3.87907L66.1038 4.2096H65.2487C65.0252 4.2096 64.8266 4.22919 64.6504 4.26835C64.4753 4.30762 64.3263 4.36512 64.2047 4.44106C64.0843 4.51574 63.9912 4.60627 63.9267 4.71158C63.8621 4.8169 63.8311 4.9369 63.8311 5.07034C63.8311 5.20867 63.8658 5.33597 63.9378 5.44982C64.0098 5.56493 64.1116 5.65671 64.2432 5.72525C64.3747 5.79264 64.5324 5.82691 64.7136 5.82691C64.957 5.82691 65.1704 5.78285 65.3566 5.69472C65.5415 5.60534 65.6943 5.49024 65.8159 5.34701C65.9376 5.20253 66.0182 5.04586 66.0592 4.8769L66.2491 5.12419C66.2168 5.24419 66.1597 5.36659 66.0766 5.49149C65.9922 5.61754 65.8841 5.73389 65.7501 5.84285C65.6173 5.95181 65.4608 6.03994 65.2796 6.10848C65.0996 6.17702 64.8949 6.2113 64.6664 6.2113C64.4095 6.2113 64.1861 6.16359 63.9962 6.06691C63.8063 5.97139 63.6573 5.84035 63.5518 5.67514C63.4462 5.50858 63.3942 5.32003 63.3942 5.10951C63.3942 4.91847 63.4351 4.7471 63.5183 4.59523C63.6002 4.44346 63.7194 4.31367 63.8758 4.2072C64.0322 4.10064 64.2208 4.0199 64.443 3.96355C64.6652 3.9072 64.9147 3.87907 65.1903 3.87907H66.0964ZM71.1621 5.49024L72.8317 0.916321H73.3183L71.3471 6.13911H70.9871L71.1621 5.49024ZM69.438 0.916321L71.1001 5.49024L71.2826 6.13911H70.9188L68.9514 0.916321H69.438ZM74.4826 2.25811V6.13911H74.0493V2.25811H74.4826ZM73.9725 1.13539C73.9725 1.05466 73.9984 0.986113 74.0506 0.929761C74.1028 0.873409 74.176 0.84528 74.2679 0.84528C74.3597 0.84528 74.4329 0.873409 74.4875 0.929761C74.5421 0.986113 74.5695 1.05466 74.5695 1.13539C74.5695 1.21498 74.5421 1.28237 74.4875 1.33862C74.4329 1.39498 74.3597 1.42195 74.2679 1.42195C74.176 1.42195 74.1028 1.39498 74.0506 1.33862C73.9984 1.28237 73.9725 1.21498 73.9725 1.13539ZM77.1588 2.25811V2.60947H75.1877V2.25811H77.1588ZM75.9113 1.26154H76.3446V5.19514C76.3446 5.37514 76.3681 5.50983 76.4178 5.6016C76.4661 5.69222 76.5282 5.75347 76.6064 5.7841C76.6834 5.81463 76.7678 5.83056 76.8571 5.83056C76.9229 5.83056 76.9863 5.82691 77.0459 5.81837C77.1067 5.80973 77.1613 5.80118 77.2097 5.79139L77.2284 6.15379C77.1749 6.16973 77.1054 6.18442 77.021 6.19421C76.9366 6.20525 76.851 6.2113 76.7666 6.2113C76.599 6.2113 76.4512 6.18077 76.3222 6.11952C76.1943 6.05827 76.0937 5.95306 76.0205 5.80368C75.9485 5.6543 75.9113 5.44982 75.9113 5.19274V1.26154ZM80.4619 5.44368V3.44198C80.4619 3.25709 80.4221 3.09917 80.3452 2.96448C80.267 2.83104 80.154 2.72822 80.0038 2.65603C79.8524 2.58499 79.6674 2.54822 79.4465 2.54822C79.243 2.54822 79.0617 2.58374 78.9028 2.65478C78.7439 2.72458 78.6198 2.8201 78.5292 2.9376C78.4373 3.05635 78.3927 3.18739 78.3927 3.33062L77.9557 3.32688C77.9557 3.18125 77.9917 3.04042 78.0649 2.90333C78.1382 2.76739 78.2412 2.64499 78.3741 2.53843C78.5068 2.43072 78.6669 2.34499 78.852 2.28134C79.0381 2.2177 79.2417 2.18592 79.4652 2.18592C79.7468 2.18592 79.9939 2.23363 80.2087 2.32666C80.4234 2.41968 80.5909 2.55926 80.7126 2.74656C80.8343 2.9327 80.8938 3.16656 80.8938 3.44938V5.32493C80.8938 5.45837 80.905 5.59795 80.9249 5.74118C80.946 5.88442 80.9758 6.00317 81.0142 6.09629V6.13911H80.5525C80.524 6.05338 80.5004 5.94442 80.4854 5.81462C80.4694 5.68368 80.4619 5.56003 80.4619 5.44368ZM80.5637 3.87907L80.5711 4.2096H79.7159C79.4924 4.2096 79.2939 4.22919 79.1176 4.26835C78.9425 4.30762 78.7936 4.36512 78.6719 4.44106C78.5515 4.51574 78.4585 4.60627 78.3939 4.71158C78.3294 4.8169 78.2983 4.9369 78.2983 5.07034C78.2983 5.20867 78.3331 5.33597 78.405 5.44982C78.477 5.56493 78.5788 5.65671 78.7104 5.72525C78.8419 5.79264 78.9996 5.82691 79.1809 5.82691C79.4242 5.82691 79.6376 5.78285 79.8238 5.69472C80.0088 5.60534 80.1615 5.49024 80.2832 5.34701C80.4048 5.20253 80.4854 5.04586 80.5264 4.8769L80.7164 5.12419C80.6841 5.24419 80.6269 5.36659 80.5438 5.49149C80.4594 5.61754 80.3514 5.73389 80.2174 5.84285C80.0845 5.95181 79.9281 6.03994 79.7469 6.10848C79.5669 6.17702 79.3621 6.2113 79.1337 6.2113C78.8768 6.2113 78.6533 6.16359 78.4634 6.06691C78.2735 5.97139 78.1245 5.84035 78.019 5.67514C77.9135 5.50858 77.8614 5.32003 77.8614 5.10951C77.8614 4.91847 77.9023 4.7471 77.9855 4.59523C78.0675 4.44346 78.1866 4.31367 78.343 4.2072C78.4994 4.10064 78.6881 4.0199 78.9103 3.96355C79.1325 3.9072 79.3819 3.87907 79.6575 3.87907H80.5637ZM85.2222 3.65011L85.2259 4.0199H83.4807L83.4832 3.65011H85.2222Z" fill="#432821"/>
</svg>
