<svg width="1247" height="323" viewBox="0 0 1247 323" fill="none" xmlns="http://www.w3.org/2000/svg">
<g opacity="0.5">
<path opacity="0.4" d="M24.8232 -32.4048C32.019 -32.3949 39.2134 -32.4099 46.4062 -32.3853H46.417C52.0072 -32.4921 57.5208 -30.0972 61.5244 -26.2085L61.9072 -25.8276C65.6049 -21.9595 67.8586 -16.686 67.9209 -11.3276C67.99 -5.09467 67.8523 1.08248 67.8818 7.33545C67.9066 12.2111 68.3211 17.0904 66.3301 21.4692L66.3232 21.4829L66.3184 21.4956C63.2358 29.4543 55.2323 34.9844 46.8008 35.7407C38.3141 36.0199 29.8754 35.7101 21.3506 35.7837C10.5426 35.5466 0.650509 26.091 0.522461 15.2007C0.532299 6.20885 0.610346 -2.79518 0.551758 -11.7896C1.05075 -21.6395 9.04487 -30.4947 18.7617 -32.1226C20.7411 -32.4435 22.7485 -32.3949 24.8232 -32.4048Z" stroke="white"/>
<path opacity="0.4" d="M126.059 35.9331C116.948 36.0064 107.754 35.7314 98.6113 35.9673L98.5957 35.9683L98.5791 35.9692C90.8359 36.6776 83.403 40.1789 77.8584 45.6187L77.8525 45.6235L77.8467 45.6294C73.7922 49.8678 70.6039 55.0329 69.1377 60.7769C67.8913 65.163 68.0186 69.7605 68.0088 74.1597V74.1626C68.0431 81.0029 67.8962 87.9287 67.9697 94.7837V94.7876C68.1436 103.91 72.1908 112.953 79.0488 119.011L79.7207 119.588C85.5331 124.669 93.1814 127.722 100.947 127.673V127.674C107.67 127.694 114.399 127.699 121.123 127.65H121.127C125.533 127.586 129.999 127.652 133.956 129.471L133.964 129.474L133.971 129.477C141.308 132.579 146.71 139.952 147.006 147.948V147.949C147.114 153.969 146.954 159.91 146.952 165.931L146.962 168.517V168.521C147.025 172.308 146.695 176.313 147.497 180.181V180.182C148.911 187.324 152.563 194.101 158.091 198.927V198.928C163.942 204.156 171.669 207.413 179.582 207.418H179.584C186.616 207.404 193.661 207.423 200.703 207.359C204.34 207.369 207.946 207.277 211.308 208.452H211.309C214.297 209.493 217.107 211.096 219.44 213.223L219.442 213.225C223.825 217.177 226.372 223.06 226.348 228.959V228.961C226.358 237.154 226.319 245.34 226.299 253.535C226.144 262.036 229.392 270.661 235.444 276.708V276.709C241.799 283.338 250.914 287.348 260.137 287.24V287.241C266.059 287.256 271.95 287.196 277.862 287.246H277.872C281.985 287.197 286.282 287.444 290.449 286.546L290.45 286.547C297.317 285.104 303.884 281.653 308.535 276.286C314.012 270.23 317.33 262.218 317.42 254.016L317.406 254.012L317.42 254.013C317.445 246.805 317.376 239.588 317.366 232.392C317.376 228.069 317.413 223.546 315.999 219.293L315.858 218.882C312.681 208.488 303.959 200.233 293.646 197.094C290.843 196.079 287.947 195.741 285.057 195.638C283.607 195.587 282.153 195.595 280.711 195.607C279.266 195.619 277.836 195.636 276.418 195.604H276.414C270.291 195.515 264.272 195.678 258.186 195.515H258.187C247.063 195.179 237.612 184.51 238.235 173.456V173.433C238.338 165.09 238.192 156.686 238.251 148.361C238.416 137.955 232.703 128.035 224.382 122.071L224.372 122.063L223.842 121.708C218.329 118.088 211.809 115.773 205.132 115.864C196.612 115.888 188.096 115.859 179.567 115.864C169.979 115.627 161.37 107.944 159.444 98.6226L159.443 98.6167L159.342 98.1157C158.882 95.609 159.085 93.0509 159.066 90.3921C159.091 82.69 159.057 74.9879 159.022 67.2935V67.2778L158.982 66.4888C157.914 49.9574 142.648 35.7473 126.059 35.9331ZM80.0557 -11.3462C79.9024 -21.1909 87.7735 -30.2985 97.3896 -32.0942C99.0232 -32.3893 100.703 -32.395 102.424 -32.395C136.663 -32.3901 170.9 -32.4198 205.144 -32.3804V-32.3794L205.157 -32.3804C216.534 -32.6724 226.721 -22.222 226.328 -10.8794V-10.8638C226.308 -6.68402 226.302 -2.50421 226.302 1.67529L226.309 14.2134C226.299 22.3469 229.329 30.5095 234.909 36.4888H234.91C241.228 43.2398 250.283 47.7775 259.688 47.605C268.06 47.6689 276.372 47.4866 284.716 47.6587H284.72C295.346 47.793 305.033 57.127 305.306 67.7896C305.308 69.8335 305.308 71.8771 305.307 73.9204L305.286 92.3452C305.082 99.3439 306.887 106.499 310.832 112.346L311.221 112.909C315.875 119.564 322.881 124.614 330.785 126.645C333.395 127.381 336.058 127.606 338.708 127.665C340.034 127.694 341.364 127.681 342.682 127.668C344.002 127.656 345.312 127.644 346.612 127.673H346.615C352.752 127.773 358.768 127.407 364.828 127.804V127.805C375.568 128.557 384.469 138.624 384.445 149.312C384.338 167.66 384.445 186.025 384.438 204.372L384.426 212.233C384.377 225.667 384.338 239.098 384.387 252.534V252.541C384.475 257.428 383.022 262.358 380.11 266.28L379.824 266.656L379.817 266.665C375.893 271.924 369.51 275.286 362.942 275.411H362.941C355.888 275.563 348.845 275.416 341.77 275.431V275.43C337.288 275.391 332.653 275.526 328.28 276.986C318.656 279.982 311.221 287.985 307.477 297.105L307.475 297.11C305.996 300.812 305.358 304.795 305.309 308.752L305.307 309.54C305.302 318.062 305.302 326.578 305.287 335.099C305.081 344.148 298.288 352.42 289.646 354.894L289.644 354.895C286.327 355.858 282.868 355.565 279.303 355.645C246.207 355.537 213.147 355.735 180.053 355.583H180.037C173.866 355.75 167.793 352.723 163.893 347.962L163.889 347.958L163.562 347.56C160.261 343.413 158.814 337.956 159.048 332.667V332.645C159.131 297.747 159.092 262.849 159.028 227.957V227.954L159.013 227.248C158.507 212.451 146.488 199.505 132.297 196.41C128.93 195.59 125.461 195.617 122.108 195.622C105.404 195.585 88.7001 195.578 71.9961 195.578H21.875C15.033 195.698 8.25104 192.273 4.29297 186.694L4.28711 186.686L4.05664 186.367C1.71798 183.047 0.527397 178.962 0.522461 174.896C0.600891 139.191 0.546779 103.49 0.561523 67.7866C0.96926 59.6341 6.63952 52.0928 14.2363 49.1587L14.25 49.1528C16.8072 48.078 19.5155 47.7138 22.2988 47.6099C23.6906 47.5579 25.0942 47.5716 26.5049 47.5913C27.56 47.6061 28.6208 47.6238 29.6758 47.6206L30.7275 47.6099C34.164 47.5461 37.5995 47.6661 41.0664 47.7124C44.524 47.7585 47.9972 47.731 51.4619 47.3667L51.4795 47.3647L51.4961 47.3618C60.0376 45.8569 68.0475 41.1089 73.3008 34.1694L73.2998 34.1685C77.6676 28.5503 79.9638 21.449 80.085 14.3755L80.0898 13.6909C80.0898 9.51888 80.0809 5.34659 80.0723 1.17529C80.0636 -2.99634 80.0557 -7.16738 80.0557 -11.3384V-11.3462Z" stroke="white"/>
<path opacity="0.4" d="M283.291 -32.4004C291.917 -32.8108 300.413 -27.2472 303.665 -19.2754L303.816 -18.8936C304.719 -16.4562 305.373 -13.9206 305.321 -11.3633V-11.3574C305.253 -2.52964 305.32 6.39403 305.262 15.2119C305.046 23.728 299.019 31.5475 291.083 34.4795L291.076 34.4824C288.7 35.4046 286.204 35.7207 283.644 35.8125C282.363 35.8584 281.073 35.8483 279.776 35.8311C278.483 35.8138 277.179 35.7898 275.889 35.8096H275.884C274.172 35.8536 272.458 35.8403 270.735 35.8213C269.018 35.8023 267.291 35.7768 265.564 35.7988C264.655 35.7817 263.741 35.7918 262.836 35.7998C261.926 35.8079 261.024 35.8148 260.126 35.792C258.555 35.7521 257.014 35.6219 255.513 35.2607L254.872 35.0918L254.858 35.0879C247.354 33.1432 241.154 26.9552 239.083 19.4932L239.017 19.5107L239.078 19.4756C238.171 16.6347 238.264 13.6626 238.284 10.6123L238.286 9.2998C238.281 2.24205 238.246 -4.8048 238.29 -11.8525C238.667 -21.4647 246.186 -30.2275 255.631 -32.0557L255.632 -32.0547C257.595 -32.4273 259.604 -32.3905 261.667 -32.3955C268.892 -32.3757 276.047 -32.4251 283.266 -32.4004H283.291Z" stroke="white"/>
<path opacity="0.4" d="M441.959 -32.4087H441.966C450.555 -32.519 458.999 -27.0187 462.105 -18.9712L462.109 -18.9624L462.112 -18.9546C463.072 -16.7085 463.41 -14.3295 463.517 -11.8804C463.57 -10.656 463.565 -9.42063 463.552 -8.17725C463.542 -7.24756 463.528 -6.311 463.531 -5.37939L463.542 -4.44971C463.478 27.8484 463.571 60.0602 463.502 92.3501L463.503 92.3608C463.642 99.4673 460.477 106.66 454.817 110.998C450.729 114.084 445.646 115.848 440.519 115.81H440.512C433.135 115.859 425.779 115.755 418.391 115.76H418.392C408.849 115.707 399.766 108.843 397.246 99.6187L397.242 99.606L397.238 99.5923L397.127 99.2456C396.599 97.505 396.431 95.703 396.395 93.8579C396.375 92.8739 396.393 91.884 396.412 90.8853C396.431 89.892 396.45 88.8892 396.433 87.8921H396.434C396.414 81.6844 396.419 75.4763 396.438 69.2681C396.521 63.1524 394.837 57.007 391.553 51.8325L391.23 51.3345C385.24 42.0678 374.506 35.7859 363.357 35.8931C356.801 35.8684 350.255 35.9083 343.71 35.7954C342.757 35.7781 341.797 35.7896 340.847 35.7974C339.893 35.8051 338.947 35.8083 338.008 35.7759C336.13 35.711 334.3 35.5019 332.546 34.9028L332.538 34.8999L332.531 34.8979L332.135 34.772C323.858 32.0488 317.519 23.9837 317.377 15.2085C317.394 11.8499 317.38 8.49077 317.368 5.13525C317.356 1.77912 317.345 -1.57433 317.367 -4.92725L317.366 -4.92822C317.382 -6.01276 317.362 -7.10822 317.348 -8.19189C317.334 -9.28092 317.327 -10.3616 317.368 -11.4331C317.451 -13.5762 317.729 -15.6583 318.524 -17.6372L318.531 -17.6548L318.537 -17.6733C320.876 -25.0547 327.569 -30.727 335.157 -32.1167C336.337 -32.3213 337.55 -32.3853 338.78 -32.395C373.175 -32.4295 407.564 -32.4235 441.959 -32.4087Z" stroke="white"/>
<path opacity="0.4" d="M500.949 -32.395C508.339 -32.3704 515.703 -32.4539 523.08 -32.3608C533.691 -31.7021 543.156 -22.0906 542.884 -11.3315V-11.3237C542.844 -7.14695 542.846 -2.97022 542.846 1.20264C542.846 5.37396 542.844 9.54228 542.8 13.7085C542.578 22.0262 537.51 30.0196 529.967 33.5776L529.961 33.5806L529.954 33.5835C526.925 35.1196 523.517 35.8001 520.114 35.7856H520.112C512.237 35.7904 504.37 35.829 496.501 35.7603H496.493C485.448 35.8416 475.561 25.713 475.647 14.7036V14.7017C475.696 5.86877 475.672 -2.97315 475.701 -11.8013C476.061 -21.5738 483.763 -30.4308 493.395 -32.1167C495.865 -32.526 498.354 -32.3649 500.949 -32.395Z" stroke="white"/>
<path opacity="0.4" d="M679.332 -32.4106C688.716 -32.7272 697.864 -26.1232 700.43 -17.0796L700.432 -17.0708L700.435 -17.062C701.033 -15.218 701.229 -13.3056 701.28 -11.3472C701.306 -10.3681 701.295 -9.3832 701.281 -8.39014C701.271 -7.64735 701.259 -6.89895 701.26 -6.15186L701.266 -5.40576C701.275 0.979277 701.232 7.3589 701.222 13.7485C701.187 23.8245 705.927 33.8574 713.884 40.0874C719.888 44.9001 727.551 47.8583 735.33 47.5894C743.543 47.6432 751.7 47.4802 759.887 47.6274V47.6284C770.239 47.8828 779.809 56.6588 780.37 67.0767H780.371C780.442 71.5254 780.428 75.9761 780.416 80.4331C780.404 84.8885 780.393 89.3505 780.47 93.813V93.8188C780.69 101.479 776.223 108.921 769.659 112.797L769.655 112.8C766.008 115.005 761.691 115.99 757.429 115.898V115.897H757.419C723.838 115.813 690.266 115.967 656.695 115.765H656.69C649.426 115.789 642.15 112.291 638.051 106.259L638.045 106.25L638.038 106.243L637.784 105.893C635.203 102.26 633.826 97.8116 633.97 93.354V93.3413C634.039 85.1419 634.009 76.9475 633.984 68.7524L633.976 68.1128C633.639 54.9169 624.563 42.5332 612.225 37.9722L611.625 37.7583C608.294 36.5574 604.76 35.9124 601.212 35.9419L588.671 35.936C584.494 35.9318 580.318 35.9225 576.142 35.8979H576.143C567.473 35.7131 558.981 39.4753 552.813 45.4331L552.8 45.4468C548.676 49.7446 545.563 55.0589 543.98 60.8188L543.832 61.3755C542.687 65.7528 542.917 70.3219 542.888 74.6821V74.6841C542.873 81.2513 542.947 87.7514 542.922 94.3091V94.311C542.931 101.866 538.51 109.131 532.021 112.929L532.014 112.933C528.614 114.994 524.586 115.896 520.606 115.868H520.602C516.507 115.873 512.413 115.868 508.319 115.863C504.226 115.858 500.132 115.853 496.038 115.858C489.312 115.843 482.7 118.238 477.304 122.16L477.301 122.162C468.707 128.506 463.341 139.124 463.541 149.834C463.526 156.893 463.566 163.933 463.512 170.984C463.318 176.078 463.897 181.285 465.756 186.101L465.759 186.109C470.07 196.78 480.001 205.209 491.463 207.057L491.492 207.061C497.91 207.722 504.43 207.305 510.784 207.407V207.408C512.309 207.44 513.85 207.41 515.382 207.386C516.917 207.362 518.446 207.343 519.962 207.392C522.995 207.491 525.951 207.864 528.752 209.006L528.759 209.009C536.969 212.218 542.848 220.645 542.848 229.476V230.257L542.849 230.256C542.883 263.068 542.936 295.878 542.868 328.683C542.849 329.637 542.863 330.597 542.876 331.547C542.889 332.501 542.901 333.446 542.881 334.386C542.841 336.267 542.674 338.104 542.138 339.879L542.135 339.891L542.132 339.902C539.907 348.764 531.239 355.63 522.089 355.591L522.077 355.592C514.709 355.73 507.345 355.621 499.963 355.591H499.961C496.403 355.586 492.869 355.694 489.646 354.435L489.335 354.309C485.702 352.761 482.321 350.461 479.996 347.291L479.989 347.281L479.741 346.953C477.298 343.648 475.898 339.59 475.692 335.486L475.676 335.075C475.691 301.349 475.73 267.622 475.69 233.901C475.72 229.475 475.778 224.878 474.506 220.492C471.142 207.668 459.478 197.652 446.415 195.862L446.402 195.861L445.728 195.792C442.347 195.482 438.923 195.647 435.612 195.602H435.609C429.19 195.563 422.81 195.632 416.404 195.553H416.403C407.055 195.453 398.68 187.858 396.836 178.799L396.833 178.787L396.744 178.373C396.338 176.296 396.443 174.167 396.447 171.958C396.462 169.094 396.454 166.228 396.445 163.365C396.437 160.501 396.428 157.638 396.442 154.776V154.771C396.423 150.033 396.763 145.029 395.335 140.291C391.866 128.207 381.178 118.439 368.769 116.244H368.768C365.808 115.708 362.785 115.872 359.898 115.858H359.895C356.787 115.868 353.679 115.847 350.568 115.826C348.236 115.81 345.902 115.793 343.567 115.789H341.229C338.342 115.813 335.465 115.607 332.784 114.672L332.777 114.669L332.77 114.667L332.369 114.537C324.122 111.76 317.752 103.775 317.413 95.0298L317.401 94.6069C317.389 90.627 317.384 86.6482 317.379 82.6694C317.374 78.6889 317.369 74.7085 317.356 70.728V70.7017L317.329 69.938C317.203 62.3008 321.429 54.8097 327.916 50.8071L328.572 50.4185L328.574 50.4175C331.956 48.4796 335.873 47.5262 339.776 47.5503H339.78C346.52 47.5417 353.253 47.5101 359.983 47.5649L362.867 47.5942C367.89 47.6592 372.753 49.7298 376.607 52.9409L376.978 53.2554C381.663 57.561 384.618 63.8435 384.412 70.2271H384.411V70.2388C384.347 77.5991 384.416 85.0056 384.372 92.3599C384.183 99.2254 385.829 106.29 389.674 112.084L389.675 112.085C394.661 119.557 402.518 125.166 411.356 127.042H411.357C414.992 127.807 418.725 127.653 422.314 127.687H422.321C425.76 127.675 429.201 127.669 432.642 127.663C436.082 127.656 439.524 127.65 442.964 127.638H442.972C456.707 127.378 469.527 117.658 473.822 104.677C475.087 101.033 475.72 97.1753 475.681 93.3218C475.666 85.2923 475.627 77.2726 475.646 69.2515V69.2505C475.646 60.253 481.848 51.6519 490.363 48.7573L490.366 48.7554C493.564 47.6416 497.011 47.5306 500.46 47.5747H500.463C505.41 47.6095 510.262 47.5352 515.198 47.5845H515.207C518.763 47.5556 522.486 47.8705 526.131 47.3989L526.143 47.397C536.34 45.8412 545.709 39.4128 550.646 30.3159C553.449 25.264 554.736 19.4742 554.776 13.7485V13.7476C554.816 5.39682 554.757 -2.96988 554.767 -11.314C554.882 -21.2518 562.746 -30.4008 572.527 -32.0864C574.973 -32.3763 577.44 -32.4179 579.929 -32.4038C582.407 -32.3898 584.924 -32.3202 587.424 -32.3911V-32.3901C618.056 -32.4049 648.688 -32.4057 679.315 -32.4106H679.332Z" stroke="white"/>
<path opacity="0.4" d="M731.201 -32.1426C736.652 -32.6316 742.079 -32.2713 747.631 -32.3955C751.899 -32.3711 756.132 -32.4548 760.382 -32.3574C768.063 -31.7458 775.25 -26.8302 778.487 -19.8301L778.788 -19.1455C779.674 -16.9482 780.27 -14.6238 780.396 -12.2734L780.416 -11.8027C780.455 -7.47084 780.431 -3.13938 780.41 1.19629C780.389 5.53329 780.372 9.87454 780.421 14.2178V14.2246C780.646 23.3153 774.034 31.8801 765.447 34.6289L765.426 34.6367C761.652 36.0316 757.576 35.8428 753.478 35.8672C750.287 35.7909 747.097 35.7958 743.916 35.7988C740.735 35.8019 737.561 35.8038 734.391 35.7256H734.392C725.738 35.3169 717.525 29.5661 714.585 21.3652L714.579 21.3486L714.571 21.332L714.394 20.9102C713.541 18.7948 713.226 16.5635 713.121 14.2676C713.065 13.043 713.07 11.8065 713.083 10.5615C713.096 9.3246 713.118 8.07475 713.096 6.83984C713.14 0.798862 713.047 -5.27735 713.062 -11.3096C713.167 -21.3814 721.221 -30.6699 731.201 -32.1426Z" stroke="white"/>
<path opacity="0.4" d="M98.333 47.9458C101.286 47.3967 104.286 47.5614 107.373 47.5317C113.304 47.596 119.132 47.4714 125.035 47.5747V47.5757C130.537 47.6875 136.014 49.7874 140.005 53.5728L140.386 53.9448L140.389 53.9478C144.682 58.174 147.213 64.1837 147.045 70.2104V70.2222C147.02 78.0826 146.981 85.9424 147.006 93.8062V93.813C147.054 96.9187 146.453 100.035 145.128 102.838L145.125 102.845C141.785 110.162 134.212 115.261 126.203 115.756L125.427 115.791C120.294 115.902 115.183 115.825 110.037 115.831L107.829 115.839C103.702 115.815 99.6499 116.165 95.8242 114.896L95.8125 114.893L95.8018 114.889L95.3848 114.768C86.8044 112.157 80.276 103.742 80.1113 94.7583L80.1084 94.3228C80.1379 85.8078 80.1134 77.2967 80.1084 68.7896C80.5117 58.7866 88.4849 49.7278 98.3301 47.9458H98.333Z" stroke="white"/>
<path opacity="0.4" d="M598.233 47.5361C601.394 47.4778 604.56 47.8522 607.465 49.0371L607.473 49.04L607.481 49.0439C615.627 52.04 621.795 60.1148 622.045 68.834L622.052 69.25C622.052 77.2836 622.062 85.3199 622.057 93.3574V93.3623C622.139 101.644 624.89 110.116 630.615 116.269L631.179 116.857C637.538 123.738 646.822 127.879 656.235 127.668V127.669C689.968 127.693 723.701 127.653 757.428 127.644V127.645L757.44 127.644C761.103 127.551 764.802 128.072 768.085 129.653L768.096 129.658C775.299 132.909 780.448 140.413 780.415 148.359V148.36C780.376 183.252 780.351 218.141 780.459 253.034V253.05L780.461 253.064C781.031 261.873 775.37 270.584 767.25 273.95L767.245 273.952C764.754 275.019 762.013 275.426 759.282 275.44L758.203 275.446L758.207 275.451C754.251 275.498 750.294 275.485 746.333 275.464C742.016 275.441 737.694 275.413 733.37 275.46C724.847 275.359 716.464 279.153 710.652 285.313C704.503 291.548 701.052 300.327 701.236 309.069C701.209 313.579 701.236 318.09 701.262 322.597C701.287 327.102 701.312 331.604 701.28 336.104C700.447 345.628 692.492 353.883 683.099 355.419C679.073 355.812 675.061 355.586 670.956 355.65C639.179 355.557 607.377 355.632 575.604 355.554H575.595C567.263 355.678 559.491 349.975 556.386 342.323L556.383 342.316L556.131 341.688C554.933 338.531 554.65 335.086 554.791 331.673V331.653C554.838 314.61 554.841 297.566 554.825 280.522L554.752 229.393C554.816 221.746 552.157 214.095 547.245 208.214H547.244C541.07 200.583 531.469 195.499 521.53 195.595L521.057 195.604C517.301 195.613 513.544 195.602 509.787 195.591C506.027 195.58 502.265 195.569 498.505 195.579H498.501C494.872 195.613 491.22 195.107 487.994 193.52H487.995C480.89 189.926 475.575 182.509 475.567 174.45C475.666 166.404 475.558 158.347 475.562 150.313H475.563L475.562 150.304C475.427 142.698 479.491 135.124 485.95 131.11L486.583 130.733L486.594 130.727C489.872 128.74 493.67 127.674 497.506 127.654H497.508C500.366 127.632 503.226 127.645 506.089 127.657C508.951 127.669 511.817 127.681 514.686 127.659L514.685 127.658C518.258 127.683 521.765 127.529 525.226 128.08C532.645 129.574 539.164 135.07 541.657 142.232L541.661 142.241C542.606 144.801 542.931 147.555 542.849 150.303V150.317C542.839 158.028 542.843 165.74 542.828 173.449C542.803 178.922 543.785 184.542 546.473 189.427V189.428C550.551 197.179 557.78 203.061 565.986 205.939V205.94C570.05 207.377 574.39 207.482 578.566 207.418V207.419C586.144 207.473 593.659 207.31 601.209 207.452V207.453C609.706 207.674 617.888 213.32 620.725 221.369V221.37C621.859 224.571 622.247 227.994 622.111 231.403V231.425C622.146 239.417 621.959 247.46 622.136 255.472V255.478C622.539 267.397 630.028 278.605 640.699 283.807L641.21 284.05C645.881 286.294 651.072 287.37 656.246 287.256L656.245 287.255C663.79 287.166 671.256 287.28 678.822 287.216C687.629 287.279 696.623 283.93 702.776 277.479C709.551 271.124 713.335 261.781 713.056 252.521C713.021 246.475 713.036 240.428 713.061 234.384C713.09 229.485 713.313 224.327 711.739 219.476C709.655 212.325 704.998 206.055 699.029 201.689L699.019 201.682L699.008 201.675C693.498 198.063 687.023 195.649 680.336 195.628H680.337C673.956 195.569 667.507 195.632 661.144 195.588H661.145C657.214 195.548 653.356 195.805 649.658 194.81L649.655 194.809L649.245 194.696C640.808 192.278 634.253 184.112 634.002 175.31L633.995 174.883C633.99 170.547 633.976 166.21 633.963 161.875C633.949 157.541 633.936 153.207 633.931 148.874C634 143.539 632.728 138.17 630.139 133.491C624.462 123.132 613.13 115.814 601.173 115.873H601.174C592.645 115.853 584.14 115.932 575.629 115.805H575.63C566.328 115.646 557.672 108.627 555.46 99.6211L555.456 99.6074L555.354 99.2246C554.869 97.3064 554.702 95.3174 554.747 93.3252V93.3174C554.811 85.2649 554.707 77.32 554.791 69.2822C555.017 59.145 562.938 49.6408 572.995 47.9814V47.9824L573.008 47.9795C575.628 47.4794 578.307 47.5707 581.055 47.5508L581.054 47.5498C586.782 47.5498 592.499 47.5164 598.223 47.5361H598.233Z" stroke="white"/>
<path opacity="0.4" d="M196.788 127.646C199.9 127.613 203.001 127.601 206.094 127.75V127.751C214.607 128.231 222.437 134.327 225.105 142.41L225.107 142.417L225.11 142.425C226.026 144.929 226.313 147.621 226.304 150.319V150.321C226.307 155.353 226.294 160.386 226.298 165.418L226.309 170.449C226.294 173.8 226.372 177.106 225.332 180.205L225.329 180.214C222.663 188.72 214.457 195.162 205.539 195.549L205.113 195.563C202.011 195.588 198.908 195.582 195.802 195.576C193.471 195.572 191.139 195.568 188.806 195.578L186.473 195.593C182.663 195.578 178.915 195.808 175.337 194.791L175.327 194.788L174.912 194.675C166.375 192.241 159.611 184.252 159.11 175.34L159.092 174.907C159.063 167.751 159.155 160.471 159.116 153.303C159.167 150.278 158.885 147.39 159.649 144.586L159.653 144.57C161.605 136.375 168.568 129.427 176.927 128.045L176.928 128.046C180.379 127.513 183.866 127.697 187.431 127.668C190.553 127.732 193.679 127.678 196.788 127.646Z" stroke="white"/>
<path opacity="0.4" d="M597.707 127.607C600.297 127.62 602.851 127.756 605.354 128.298C614.731 130.598 622.013 139.689 622.047 149.36C622.052 158.188 622.091 167.008 622.018 175.825C621.146 183.967 615.329 191.438 607.673 194.343C603.609 195.849 599.225 195.468 594.795 195.558C591.507 195.489 588.216 195.536 584.941 195.562C581.659 195.589 578.388 195.596 575.123 195.446H575.116C566.333 195.178 558.518 188.532 555.808 180.296L555.776 180.306L555.806 180.289C554.78 177.34 554.64 174.17 554.732 171.004V170.998C554.804 167.148 554.769 163.297 554.749 159.457C554.731 156.094 554.725 152.739 554.809 149.387L554.85 147.951C555.505 138.399 563.131 129.92 572.505 128.083C575.354 127.675 578.232 127.606 581.137 127.62C584.031 127.634 586.977 127.733 589.895 127.654C592.473 127.707 595.153 127.595 597.707 127.607Z" stroke="white"/>
<path opacity="0.4" d="M0.546875 230.411L0.545898 230.401C0.424985 227.13 0.875734 223.836 2.21191 220.872L2.21973 220.854C5.33523 213.186 13.2292 207.855 21.4619 207.466L21.4629 207.467C28.6348 207.29 35.7879 207.453 42.9902 207.403L42.9893 207.402C45.1372 207.412 47.2047 207.312 49.2451 207.647L49.2539 207.648C55.9286 208.615 62.1691 212.729 65.376 218.678L65.3799 218.684C67.1971 221.944 68.0906 225.708 68.0137 229.441V229.45C67.989 237.47 67.999 245.496 67.999 253.514V253.53C68.2388 261.173 63.9914 268.799 57.374 272.638L57.3691 272.641C54.5111 274.34 51.2109 275.302 47.8896 275.529C39.5338 275.711 31.2239 275.504 22.8418 275.568H22.8369C19.7533 275.627 16.6597 275.266 13.8467 274.084L13.833 274.078L13.4736 273.936C5.96108 270.854 0.582183 263.126 0.501953 254.983C0.487194 246.791 0.546875 238.618 0.546875 230.42V230.411Z" stroke="white"/>
<path opacity="0.4" d="M101.06 207.466C108.657 207.286 116.231 207.453 123.853 207.398L123.856 207.402L124.059 207.398C130.132 207.288 136.216 209.684 140.516 213.979V213.979C145.047 218.491 147.355 224.969 147.052 231.345V231.367C147.008 257.175 146.991 282.984 146.989 308.792L146.992 334.601C146.933 343.147 141.152 351.21 133.179 354.225L133.168 354.229L133.157 354.233C129.748 355.706 126.031 355.661 122.259 355.653L120.64 355.656C114.078 355.691 107.523 355.603 100.957 355.578H100.938C94.8826 355.779 88.8505 352.876 85.002 348.212L84.998 348.206L84.9932 348.201L84.7021 347.86C81.7419 344.31 80.1471 339.672 80.0801 335.049C80.1979 301.985 80.0699 268.907 80.1436 235.848C80.1621 234.732 80.147 233.607 80.1367 232.493C80.1264 231.376 80.1209 230.265 80.1592 229.163C80.2358 226.959 80.4858 224.807 81.2021 222.741L81.2061 222.73L81.21 222.719C83.737 214.13 92.1304 207.773 101.06 207.466Z" stroke="white"/>
<path opacity="0.4" d="M258.812 207.47C264.659 207.294 270.468 207.477 276.358 207.417C281.05 207.467 285.69 207.028 290.021 208.578L290.031 208.581C294.946 210.224 299.359 213.467 302.052 217.899L302.056 217.906C304.164 221.255 305.262 225.208 305.391 229.17L305.404 229.962C305.247 236.502 305.325 243.05 305.325 249.578C305.295 252.131 305.484 254.558 304.991 256.956L304.989 256.971C303.862 263.426 299.768 269.36 294.026 272.529L293.466 272.827L293.453 272.833C289.923 274.764 285.85 275.553 281.816 275.519H281.811C274.469 275.539 267.127 275.563 259.791 275.464H259.79C248.887 275.337 238.863 265.928 238.333 255.003L238.315 254.482C238.281 246.284 238.345 238.138 238.32 229.927V229.917L238.313 229.28C238.353 222.707 241.507 216.199 246.71 212.167L246.713 212.166C250.172 209.457 254.425 207.739 258.812 207.47Z" stroke="white"/>
<path opacity="0.4" d="M416.579 207.476C424.391 207.265 432.163 207.477 440.01 207.393H440.017C446.459 207.229 453.047 209.694 457.439 214.436L457.729 214.167L457.447 214.445C460.269 217.357 462.215 221.095 463.041 225.063L463.043 225.071C463.799 228.41 463.472 231.812 463.542 235.348C463.493 241.738 463.552 248.146 463.532 254.527C463.452 262.956 457.854 271.022 450.019 274.105L449.644 274.248L449.633 274.251C445.685 275.814 441.373 275.514 437.038 275.543C429.871 275.593 422.626 275.376 415.428 275.563H415.427C407.508 275.778 399.854 279.383 394.375 285.032C389.153 290.413 385.211 297.42 384.6 305.053L384.599 305.063V305.073C384.176 315.384 384.533 325.781 384.353 336.059C383.695 346.593 373.967 355.741 363.392 355.592H363.376C356.014 355.715 348.647 355.641 341.28 355.587H341.281C338.593 355.542 336.02 355.721 333.543 355.017L333.534 355.014L332.879 354.83C326.143 352.812 320.41 347.421 318.367 340.662L318.364 340.651L318.36 340.64L318.236 340.271C317.64 338.424 317.42 336.507 317.349 334.545C317.272 332.422 317.368 330.365 317.338 328.209C317.363 321.975 317.298 315.778 317.357 309.56V309.554C317.348 303.454 319.987 297.397 324.41 293.196L324.413 293.193C328.367 289.374 333.849 287.21 339.342 287.162H339.346C343.396 287.095 347.447 287.152 351.509 287.2C355.567 287.247 359.636 287.285 363.707 287.181L363.706 287.18C372.377 287.05 381.027 283.397 386.932 276.972C392.603 271.296 396.008 263.469 396.452 255.483L396.453 255.473V255.463C396.566 248.454 396.414 241.372 396.478 234.39C396.553 230.43 396.225 226.558 397.558 222.937L397.567 222.908C400.066 214.583 407.936 208.261 416.579 207.476Z" stroke="white"/>
<path opacity="0.4" d="M652.646 207.692C655.653 207.281 658.685 207.248 661.747 207.298C664.795 207.348 667.891 207.481 670.966 207.393C672.373 207.422 673.801 207.397 675.219 207.382C676.645 207.367 678.065 207.361 679.47 207.429C682.28 207.564 685.003 207.989 687.543 209.188L687.556 209.193L687.568 209.198C695.266 212.324 700.826 220.108 701.128 228.428C701.244 233.886 701.146 239.3 701.166 244.769L701.183 247.117C701.158 248.146 701.178 249.181 701.199 250.206C701.22 251.24 701.242 252.264 701.223 253.281C701.184 255.315 700.979 257.292 700.284 259.185L700.278 259.199L700.273 259.216C697.651 268.135 689.136 275.219 679.763 275.401H679.762C673.56 275.529 667.352 275.49 661.147 275.436H661.148C657.67 275.375 654.294 275.64 651.024 274.894L650.36 274.728L649.924 274.615C640.793 272.145 633.745 263.064 633.99 253.562V253.548C633.98 245.52 633.981 237.494 633.961 229.465V229.463L633.962 229.056C634.021 224.853 635.487 220.715 637.809 217.202L637.811 217.2C641.113 212.136 646.711 208.775 652.646 207.692Z" stroke="white"/>
<path opacity="0.4" d="M734.496 287.146C737.571 287.077 740.649 287.112 743.735 287.153C746.818 287.195 749.911 287.245 753.005 287.211C755.384 287.241 757.703 287.117 760.05 287.236C762.37 287.354 764.617 287.711 766.724 288.674L766.74 288.682L766.757 288.688C774.273 291.494 779.888 298.868 780.377 306.891C780.493 313.118 780.375 319.291 780.394 325.525L780.411 328.202C780.398 329.23 780.423 330.267 780.444 331.293C780.466 332.326 780.484 333.35 780.455 334.365C780.398 336.396 780.156 338.366 779.41 340.237L779.402 340.255L779.396 340.273C777.304 346.998 771.787 352.461 765.089 354.604L765.081 354.606L765.074 354.608C763.185 355.279 761.208 355.509 759.179 355.578C758.164 355.613 757.142 355.607 756.112 355.599C755.343 355.592 754.568 355.585 753.796 355.591L753.03 355.602C746.299 355.675 739.577 355.617 732.845 355.558H732.844C724.153 355.186 716.491 348.473 713.903 340.281L713.902 340.28C713.136 337.872 713.022 335.323 713.052 332.748L713.071 331.644V331.635C713.116 324.415 712.978 317.258 713.081 310.058V310.036C712.821 301.506 717.89 292.92 725.67 289.322L725.676 289.319C728.426 288.002 731.449 287.243 734.497 287.146L734.496 287.146Z" stroke="white"/>
<path opacity="0.4" d="M26.2578 287.206C33.1053 287.186 39.9526 287.191 46.7998 287.225L46.8057 287.228L46.9248 287.226C55.4277 287.116 63.5628 292.89 66.5479 300.818L66.5508 300.826C67.7557 303.872 68.1056 307.194 67.9941 310.497V310.503C67.9154 314.529 67.928 318.555 67.9434 322.574C67.9587 326.594 67.9773 330.607 67.9111 334.62C67.7863 340.747 64.7963 346.726 60.0498 350.591C56.2039 353.66 51.3845 355.675 46.4619 355.618V355.617L46.4492 355.618C39.7394 355.711 33.0246 355.637 26.3057 355.583H26.3066C22.3578 355.533 18.4858 355.869 14.9014 354.462L14.8887 354.458L14.875 354.454L14.4736 354.316C6.07258 351.333 0.252137 342.546 0.521484 333.657V333.642C0.531145 325.44 0.581184 317.235 0.566406 309.034L0.56543 309.02C0.292698 299.062 8.09458 289.797 17.7666 287.731L17.7725 287.73C20.5211 287.106 23.3425 287.25 26.2578 287.206Z" stroke="white"/>
<path opacity="0.4" d="M421.854 287.187C428.72 287.211 435.591 287.206 442.454 287.226H442.462C449.544 287.13 456.509 291.046 460.271 297.03C462.336 300.499 463.574 304.494 463.541 308.528L463.538 308.839L463.54 308.84C463.527 317.599 463.57 326.344 463.536 335.099C463.335 343.288 457.854 350.873 450.349 354.045L450.331 354.053C447.766 355.257 444.91 355.612 442.041 355.632H441.46C433.433 355.671 425.412 355.662 417.392 355.568L417.384 355.567L417.375 355.568C408.007 355.769 399.282 348.531 397.106 339.5L397.104 339.491L397.103 339.483L396.944 338.857C396.221 335.723 396.494 332.495 396.457 329.162C396.477 322.283 396.413 315.427 396.477 308.562V308.562C396.549 298.912 403.95 289.9 413.326 287.739L413.325 287.738C416.087 287.11 418.936 287.216 421.854 287.187Z" stroke="white"/>
<g opacity="0.4">
<path d="M817.395 -36.8882C824.756 -36.8781 832.117 -36.8929 839.476 -36.8677H839.486C845.391 -36.9805 851.212 -34.368 855.337 -30.1616V-30.1606C859.124 -26.2009 861.433 -20.801 861.497 -15.314C861.559 -9.73459 861.459 -4.19785 861.453 1.38428L861.457 3.77979C861.482 8.76637 861.906 13.761 859.868 18.2437L859.862 18.2573L859.857 18.27C856.702 26.4166 848.51 32.077 839.88 32.8511C831.197 33.1367 822.563 32.8197 813.842 32.895C802.779 32.6523 792.654 22.9742 792.522 11.8267C792.533 2.61978 792.613 -6.59979 792.553 -15.8091C793.074 -25.8829 801.253 -34.9333 811.192 -36.5981L811.191 -36.5991C813.218 -36.9277 815.272 -36.878 817.395 -36.8882Z" stroke="white"/>
<path d="M920.965 33.0474C911.643 33.1223 902.238 32.8412 892.885 33.0825L892.869 33.0835L892.853 33.0845C884.934 33.809 877.332 37.3894 871.661 42.9526L871.649 42.9644C867.5 47.3025 864.237 52.5891 862.739 58.4683C861.468 62.9497 861.598 67.6461 861.588 72.1431V72.147C861.623 79.1457 861.473 86.2294 861.548 93.2427V93.2466C861.726 102.576 865.865 111.825 872.879 118.021L873.566 118.611C879.511 123.807 887.333 126.929 895.274 126.879V126.88C902.152 126.9 909.036 126.905 915.915 126.855H915.919C920.426 126.79 924.997 126.857 929.049 128.719L929.057 128.722L929.063 128.726C936.577 131.903 942.107 139.454 942.406 147.642C942.532 154.678 942.301 161.61 942.361 168.676V168.68C942.425 172.556 942.088 176.65 942.908 180.606V180.607C944.355 187.913 948.091 194.847 953.747 199.783V199.782C959.73 205.126 967.631 208.457 975.722 208.462H975.724C982.918 208.447 990.124 208.467 997.329 208.402C1001.05 208.412 1004.74 208.318 1008.18 209.52H1008.18C1011.24 210.586 1014.12 212.227 1016.51 214.404L1016.51 214.406C1020.99 218.45 1023.6 224.472 1023.58 230.511V230.513C1023.59 238.894 1023.55 247.27 1023.53 255.654C1023.37 264.348 1026.69 273.169 1032.88 279.353V279.354C1039.38 286.133 1048.7 290.234 1058.13 290.124V290.125C1064.19 290.14 1070.22 290.079 1076.27 290.129H1076.28C1080.49 290.08 1084.88 290.333 1089.14 289.415L1089.14 289.414C1096.17 287.937 1102.88 284.409 1107.64 278.92C1113.24 272.727 1116.63 264.533 1116.72 256.145L1116.71 256.141L1116.72 256.142C1116.75 248.768 1116.68 241.385 1116.67 234.023C1116.68 229.464 1116.72 224.692 1115.13 220.228C1111.89 209.596 1102.98 201.149 1092.44 197.931C1089.56 196.885 1086.59 196.539 1083.63 196.434C1082.14 196.382 1080.66 196.388 1079.18 196.401C1077.7 196.413 1076.24 196.431 1074.79 196.399L1074.79 196.398L1072.44 196.375C1066.98 196.344 1061.58 196.454 1056.14 196.308H1056.14C1044.75 195.965 1035.08 185.043 1035.71 173.727V173.716L1035.72 173.706C1035.82 165.17 1035.67 156.572 1035.73 148.054C1035.9 137.413 1030.06 127.268 1021.55 121.168L1021.54 121.161L1020.99 120.798C1015.54 117.214 1009.11 114.881 1002.52 114.82L1001.86 114.821C993.144 114.846 984.437 114.816 975.718 114.821H975.719C965.898 114.585 957.081 106.719 955.108 97.1733L955.107 97.1665L955.004 96.6538C954.533 94.0879 954.741 91.4691 954.722 88.7505C954.747 80.871 954.712 72.9914 954.677 65.1196V65.1118L954.676 65.103C954.037 47.8554 938.199 32.8545 920.965 33.0474ZM873.89 -15.3325C873.733 -25.4091 881.788 -34.7305 891.63 -36.5698L891.631 -36.5688C893.304 -36.8713 895.024 -36.8784 896.784 -36.8784C923.055 -36.8746 949.326 -36.8901 975.599 -36.8813L1001.87 -36.8628H1001.89C1013.53 -37.1618 1023.96 -26.4655 1023.56 -14.855V-14.8394C1023.54 -10.5633 1023.53 -6.28708 1023.53 -2.01123L1023.54 10.8159C1023.53 19.1341 1026.63 27.4824 1032.33 33.5972H1032.33C1038.8 40.5018 1048.06 45.1417 1057.67 44.9653C1066.24 45.0307 1074.74 44.845 1083.28 45.021H1083.28C1093.99 45.1563 1103.76 54.4155 1104.33 65.1157L1104.35 65.6265C1104.36 69.8128 1104.35 73.9976 1104.35 78.1821L1104.33 90.7485C1104.12 97.9064 1105.97 105.224 1110.01 111.204L1110.4 111.779C1115.16 118.586 1122.33 123.751 1130.41 125.828C1133.08 126.581 1135.8 126.811 1138.51 126.871C1139.87 126.9 1141.23 126.887 1142.58 126.875C1143.93 126.862 1145.27 126.849 1146.6 126.879H1146.6C1152.88 126.981 1159.04 126.607 1165.24 127.013V127.014C1176.23 127.784 1185.34 138.088 1185.32 149.028C1185.19 170.48 1185.35 191.955 1185.3 213.399C1185.25 227.143 1185.21 240.883 1185.26 254.628V254.636C1185.35 259.638 1183.86 264.683 1180.88 268.698L1180.59 269.083L1180.58 269.092C1176.56 274.476 1170.03 277.918 1163.31 278.045H1163.31C1156.99 278.182 1150.68 278.083 1144.35 278.066L1141.65 278.065C1137.06 278.025 1132.31 278.162 1127.84 279.659C1118.31 282.629 1110.88 290.401 1106.94 299.361L1106.57 300.232L1106.57 300.237C1105.06 304.023 1104.41 308.095 1104.36 312.143L1104.35 312.949C1104.35 321.667 1104.35 330.38 1104.33 339.098C1104.12 348.361 1097.17 356.827 1088.32 359.36H1088.32C1084.93 360.346 1081.39 360.047 1077.74 360.128C1043.88 360.018 1010.06 360.22 976.203 360.064H976.187C969.87 360.235 963.654 357.137 959.661 352.264L959.657 352.259L959.324 351.853C955.945 347.608 954.463 342.022 954.702 336.608V336.586C954.788 300.884 954.748 265.182 954.683 229.486V229.482L954.667 228.76C954.15 213.628 941.858 200.389 927.345 197.223H927.344C923.9 196.385 920.353 196.411 916.923 196.417C882.745 196.341 848.565 196.387 814.389 196.372L814.38 196.373C807.595 196.491 800.868 193.205 796.771 187.807L796.383 187.278L796.377 187.27L796.142 186.944C793.747 183.545 792.528 179.364 792.523 175.202C792.604 138.666 792.548 102.135 792.563 65.6011C792.99 57.2644 798.791 49.5558 806.561 46.5552L806.567 46.5532L806.574 46.5503C809.192 45.4499 811.964 45.0776 814.812 44.9712C816.237 44.918 817.673 44.9315 819.116 44.9517C820.555 44.9718 822.005 44.9981 823.437 44.9702L823.436 44.9692C826.951 44.904 830.467 45.0284 834.014 45.0757C837.551 45.1229 841.104 45.0938 844.647 44.7212L844.665 44.7192L844.682 44.7163C853.417 43.1772 861.609 38.322 866.981 31.2251L866.98 31.2241C871.447 25.4784 873.796 18.2155 873.92 10.981L873.925 10.2808L873.89 -15.3247V-15.3325Z" stroke="white"/>
<path d="M1081.82 -36.8843C1090.79 -37.3108 1099.62 -31.4297 1102.83 -23.0649V-23.064C1103.75 -20.568 1104.42 -17.9704 1104.37 -15.3501V-15.3442C1104.3 -6.31238 1104.37 2.81544 1104.31 11.8374C1104.09 20.5548 1097.92 28.5579 1089.8 31.5591L1089.79 31.562C1087.36 32.5061 1084.8 32.8304 1082.18 32.9243C1080.87 32.9713 1079.55 32.9605 1078.22 32.9429C1076.9 32.9253 1075.57 32.9011 1074.25 32.9214H1074.24C1072.49 32.9664 1070.74 32.9526 1068.97 32.9331C1067.22 32.9137 1065.45 32.8872 1063.69 32.9097C1062.76 32.8921 1061.82 32.9034 1060.89 32.9116C1059.96 32.9199 1059.04 32.9262 1058.12 32.9028C1056.28 32.8562 1054.49 32.6904 1052.74 32.187V32.186L1052.73 32.1831L1052.01 31.9839C1044.66 29.7955 1038.64 23.6203 1036.58 16.2212L1036.51 16.2397L1036.58 16.2026C1035.65 13.2943 1035.74 10.2516 1035.76 7.13135L1035.77 5.78955C1035.76 -1.42549 1035.73 -8.62858 1035.77 -15.8335C1036.15 -25.6795 1043.85 -34.6586 1053.52 -36.5308L1053.52 -36.5298C1055.53 -36.9112 1057.59 -36.8733 1059.7 -36.8784C1067.09 -36.8582 1074.41 -36.9086 1081.79 -36.8833H1081.81L1081.82 -36.8843Z" stroke="white"/>
<path d="M1244.14 -36.8926H1244.15C1252.94 -37.0055 1261.59 -31.3755 1264.77 -23.1377L1264.77 -23.1289L1264.77 -23.1211C1265.76 -20.8215 1266.1 -18.3862 1266.21 -15.8799C1266.27 -14.627 1266.26 -13.3629 1266.25 -12.0908C1266.24 -11.1396 1266.22 -10.1815 1266.23 -9.22852L1266.24 -8.27734C1266.17 24.7646 1266.27 57.7193 1266.2 90.7529H1266.2L1266.2 90.7637C1266.34 98.0375 1263.1 105.4 1257.31 109.84C1253.12 112.999 1247.92 114.805 1242.67 114.766H1242.66C1235.12 114.816 1227.59 114.71 1220.03 114.715H1220.03C1210.27 114.66 1200.97 107.634 1198.39 98.1924L1198.39 98.1797L1198.38 98.166L1198.27 97.8105C1197.73 96.0286 1197.56 94.1848 1197.52 92.2969C1197.5 91.2897 1197.52 90.2767 1197.54 89.2549C1197.56 88.2362 1197.58 87.2079 1197.56 86.1855C1197.54 79.8369 1197.54 73.4878 1197.56 67.1387C1197.65 60.6843 1195.81 54.1981 1192.24 48.8037H1192.24C1186.11 39.3237 1175.13 32.8972 1163.73 33.0068C1157.02 32.9816 1150.33 33.0217 1143.63 32.9062H1143.63C1142.66 32.8885 1141.67 32.9003 1140.7 32.9082C1139.73 32.9161 1138.76 32.9199 1137.8 32.8867C1135.88 32.8203 1134 32.6066 1132.21 31.9932L1132.2 31.9902L1132.19 31.9883L1131.79 31.8594C1123.31 29.0721 1116.82 20.8163 1116.68 11.833C1116.7 8.39712 1116.68 4.96109 1116.67 1.52832C1116.66 -1.90366 1116.65 -5.33295 1116.67 -8.76172C1116.69 -9.87269 1116.66 -10.995 1116.65 -12.1055C1116.64 -13.2197 1116.63 -14.3262 1116.67 -15.4229C1116.76 -17.616 1117.04 -19.7472 1117.85 -21.7734L1117.86 -21.791L1117.87 -21.8086C1120.26 -29.3644 1127.11 -35.1712 1134.88 -36.5938C1136.09 -36.8033 1137.33 -36.8679 1138.59 -36.8779L1138.59 -36.8789C1173.77 -36.9142 1208.96 -36.9077 1244.14 -36.8926Z" stroke="white"/>
<path d="M1486.99 -36.8945C1496.59 -37.2186 1505.96 -30.4584 1508.58 -21.2012L1508.59 -21.1836C1509.2 -19.2957 1509.4 -17.3389 1509.46 -15.335C1509.48 -14.333 1509.47 -13.3247 1509.46 -12.3086C1509.45 -11.5489 1509.43 -10.7835 1509.43 -10.0195L1509.44 -9.25586C1509.45 -5.9905 1509.44 -2.72649 1509.42 0.538086L1509.39 10.3408C1509.36 20.6454 1514.21 30.9061 1522.34 37.2773C1528.48 42.196 1536.31 45.2194 1544.26 44.9492V44.9502C1552.67 45.0056 1561.02 44.8385 1569.4 44.9893V44.9902C1579.84 45.2467 1589.5 53.9644 1590.34 64.417L1590.37 64.916C1590.44 69.4611 1590.43 74.0082 1590.42 78.5615C1590.4 83.1196 1590.39 87.6848 1590.47 92.25V92.2559C1590.69 100.097 1586.12 107.715 1579.4 111.682L1579.4 111.685C1575.67 113.941 1571.25 114.949 1566.89 114.855V114.854H1566.88C1532.52 114.769 1498.18 114.926 1463.83 114.72H1463.83C1456.39 114.744 1448.94 111.164 1444.75 104.99L1444.74 104.981L1444.73 104.973C1442.01 101.309 1440.51 96.7831 1440.56 92.2217L1440.57 91.7793V91.7676C1440.64 83.3792 1440.61 74.9963 1440.59 66.6123V66.6113L1440.58 65.958C1440.23 52.4627 1430.95 39.7983 1418.33 35.1338L1417.72 34.9141C1414.31 33.6857 1410.7 33.0264 1407.07 33.0566H1407.07C1398.51 33.0516 1389.97 33.0619 1381.42 33.0117H1381.42C1372.56 32.8226 1363.87 36.6704 1357.56 42.7637L1357.56 42.7695L1357.55 42.7764C1353.2 47.3131 1349.94 52.9577 1348.38 59.0674C1347.21 63.5438 1347.44 68.2161 1347.41 72.6777V72.6807C1347.4 79.3985 1347.47 86.0486 1347.45 92.7568V92.7598C1347.46 100.493 1342.93 107.929 1336.29 111.816L1336.28 111.821C1332.8 113.931 1328.68 114.855 1324.61 114.825H1324.6C1320.41 114.83 1316.22 114.825 1312.04 114.82C1309.94 114.818 1307.85 114.815 1305.75 114.813L1299.47 114.814C1292.59 114.799 1285.83 117.249 1280.31 121.26L1280.31 121.262C1271.66 127.649 1266.21 138.27 1266.23 149.049L1266.24 149.562C1266.22 156.783 1266.26 163.986 1266.21 171.2C1266.01 176.411 1266.6 181.736 1268.5 186.661L1268.5 186.668C1272.91 197.581 1283.07 206.203 1294.79 208.093L1294.81 208.095L1294.82 208.097C1301.39 208.773 1308.06 208.346 1314.56 208.45V208.451C1316.12 208.484 1317.69 208.454 1319.26 208.43C1320.83 208.405 1322.4 208.385 1323.95 208.436C1327.05 208.536 1330.08 208.918 1332.94 210.088L1332.95 210.091C1341.35 213.375 1347.37 222.001 1347.37 231.04V231.815L1347.37 231.814C1347.41 265.39 1347.46 298.964 1347.39 332.533C1347.37 333.509 1347.39 334.49 1347.4 335.463C1347.41 336.438 1347.43 337.406 1347.41 338.368C1347.36 340.293 1347.19 342.174 1346.64 343.991L1346.64 344.002L1346.64 344.014C1344.36 353.085 1335.49 360.112 1326.12 360.073H1326.11C1318.57 360.214 1311.04 360.104 1303.49 360.073H1303.48C1299.84 360.068 1296.23 360.179 1292.93 358.89L1292.61 358.761C1288.89 357.176 1285.43 354.821 1283.05 351.576L1283.04 351.566L1282.79 351.23C1280.29 347.848 1278.86 343.694 1278.64 339.493L1278.63 339.073C1278.64 304.57 1278.68 270.066 1278.64 235.566C1278.67 231.038 1278.73 226.337 1277.43 221.852C1273.99 208.736 1262.06 198.493 1248.7 196.662L1248.69 196.661L1248 196.591C1244.54 196.274 1241.04 196.443 1237.65 196.396H1237.65C1231.08 196.356 1224.56 196.427 1218 196.347H1218C1208.43 196.244 1199.86 188.47 1197.97 179.197L1197.97 179.185C1197.45 176.925 1197.57 174.606 1197.57 172.197C1197.59 169.267 1197.58 166.335 1197.57 163.405C1197.56 160.475 1197.55 157.546 1197.57 154.618V154.613C1197.55 149.765 1197.9 144.647 1196.44 139.802C1192.89 127.444 1181.96 117.454 1169.27 115.209C1166.24 114.661 1163.15 114.829 1160.19 114.814H1160.19C1157.01 114.825 1153.83 114.803 1150.65 114.781C1147.47 114.759 1144.28 114.737 1141.1 114.744H1141.09C1138.14 114.769 1135.2 114.558 1132.45 113.601L1132.44 113.598L1132.44 113.596L1132.03 113.462C1123.58 110.62 1117.07 102.448 1116.72 93.4961L1116.71 93.0615C1116.69 88.9901 1116.69 84.9198 1116.68 80.8496C1116.68 76.7773 1116.67 72.7051 1116.66 68.6328V68.6201L1116.66 68.6064C1116.2 60.2616 1120.89 51.9577 1128.14 47.8457L1128.14 47.8447C1131.6 45.8611 1135.61 44.8846 1139.61 44.9092H1139.61C1146.51 44.9004 1153.4 44.8687 1160.28 44.9248L1163.23 44.9541C1168.54 45.0228 1173.67 47.2797 1177.67 50.749C1182.47 55.1558 1185.49 61.5856 1185.28 68.1201V68.1318C1185.22 75.6623 1185.29 83.2392 1185.24 90.7637C1185.05 97.7854 1186.73 105.009 1190.67 110.936L1190.67 110.937C1195.77 118.578 1203.8 124.315 1212.84 126.234H1212.84C1216.56 127.017 1220.38 126.859 1224.05 126.894H1224.06C1227.57 126.881 1231.09 126.874 1234.61 126.868C1238.13 126.862 1241.65 126.856 1245.17 126.844H1245.18C1259.23 126.578 1272.34 116.637 1276.73 103.361L1276.73 103.36C1277.95 99.8668 1278.59 96.1814 1278.63 92.4873V91.748C1278.62 83.5333 1278.58 75.3283 1278.6 67.1221V67.1211C1278.6 57.9113 1284.94 49.1075 1293.66 46.1445L1293.67 46.1436C1296.94 45.0034 1300.47 44.8895 1304 44.9346H1304C1309.06 44.9701 1314.02 44.8939 1319.07 44.9443H1319.08C1322.72 44.9148 1326.53 45.2372 1330.26 44.7549L1330.27 44.7529C1340.7 43.1616 1350.28 36.5847 1355.33 27.2793C1358.19 22.1139 1359.51 16.1953 1359.55 10.3408V10.3398C1359.59 1.79659 1359.53 -6.76321 1359.54 -15.2998C1359.66 -25.4725 1367.71 -34.8372 1377.72 -36.5625C1380.22 -36.8592 1382.75 -36.9011 1385.29 -36.8867C1387.84 -36.8724 1390.42 -36.8008 1392.98 -36.874L1392.98 -36.875C1424.31 -36.8901 1455.64 -36.8885 1486.97 -36.8936H1486.98L1486.99 -36.8945Z" stroke="white"/>
<path d="M892.597 45.3145C895.619 44.7524 898.691 44.921 901.849 44.8906C907.915 44.9563 913.879 44.8289 919.917 44.9346V44.9355C925.73 45.0537 931.516 47.3407 935.63 51.4551L935.633 51.458C940.027 55.7837 942.618 61.9347 942.446 68.1035V68.1162C942.421 76.1578 942.38 84.1982 942.405 92.2432L942.406 92.25C942.455 95.429 941.84 98.6197 940.483 101.489L940.48 101.495C936.952 109.226 928.805 114.539 920.317 114.745C915.067 114.859 909.837 114.781 904.573 114.787L902.315 114.795C898.094 114.77 893.946 115.129 890.029 113.83L890.018 113.827L890.007 113.823L889.58 113.699C880.797 111.026 874.115 102.413 873.946 93.2168L873.943 92.7715C873.974 84.0602 873.948 75.3528 873.943 66.6494C874.356 56.4104 882.517 47.1383 892.595 45.3145H892.597Z" stroke="white"/>
<path d="M993.323 126.851C996.508 126.817 999.68 126.806 1002.84 126.958V126.959C1011.56 127.45 1019.57 133.69 1022.3 141.964L1022.31 141.971L1022.31 141.979C1023.25 144.542 1023.54 147.297 1023.53 150.059V150.062C1023.54 155.209 1023.52 160.358 1023.53 165.506L1023.54 170.653C1023.52 174.08 1023.6 177.464 1022.54 180.637L1022.53 180.646C1019.8 189.353 1011.4 195.947 1002.28 196.343L1001.85 196.356C998.672 196.382 995.494 196.376 992.314 196.37C989.135 196.364 985.953 196.359 982.771 196.387C978.874 196.372 975.038 196.607 971.375 195.566L971.365 195.563L970.94 195.448C962.202 192.957 955.278 184.779 954.767 175.656L954.747 175.215C954.717 167.892 954.812 160.445 954.772 153.11C954.824 150.018 954.535 147.061 955.317 144.19L955.32 144.183L955.321 144.175C957.319 135.787 964.447 128.674 973.003 127.26L973.004 127.261C976.536 126.716 980.105 126.904 983.751 126.874C986.945 126.94 990.142 126.884 993.323 126.851Z" stroke="white"/>
<path d="M792.548 231.996L792.547 231.987C792.423 228.639 792.885 225.266 794.253 222.232L794.257 222.224L794.26 222.215C797.449 214.365 805.529 208.909 813.956 208.511L813.957 208.512C821.294 208.331 828.614 208.497 835.981 208.446L835.98 208.445C838.039 208.455 840.028 208.365 841.989 208.637L842.382 208.696L842.391 208.697C849.223 209.687 855.61 213.898 858.893 219.987L858.896 219.993C860.757 223.331 861.671 227.184 861.593 231.005V231.014C861.568 239.219 861.578 247.429 861.578 255.632V255.647C861.824 263.471 857.476 271.277 850.702 275.207L850.697 275.209C847.772 276.949 844.394 277.933 840.994 278.165C832.446 278.351 823.944 278.141 815.369 278.206H815.363C812.208 278.266 809.041 277.897 806.161 276.687L806.147 276.681C798.266 273.631 792.585 265.602 792.502 257.135C792.487 248.753 792.548 240.392 792.548 232.005V231.996Z" stroke="white"/>
<path d="M895.388 208.511C903.161 208.327 910.912 208.497 918.71 208.441L918.714 208.445L918.917 208.441C925.133 208.328 931.361 210.782 935.762 215.178H935.763C940.401 219.796 942.763 226.427 942.452 232.952V232.975C942.407 259.378 942.39 285.781 942.389 312.184L942.392 338.587C942.331 347.336 936.413 355.588 928.252 358.674L928.241 358.679L928.23 358.683C924.74 360.19 920.935 360.145 917.076 360.137L915.42 360.14C908.707 360.175 902 360.085 895.283 360.06H895.265C889.065 360.265 882.891 357.294 878.952 352.52L878.947 352.514L878.942 352.509L878.645 352.16C875.614 348.526 873.983 343.778 873.914 339.046C874.035 305.22 873.904 271.38 873.979 237.559C873.998 236.417 873.982 235.266 873.972 234.126C873.961 232.983 873.956 231.847 873.995 230.72C874.073 228.464 874.329 226.261 875.062 224.146L875.066 224.135L875.07 224.124C877.657 215.333 886.249 208.826 895.389 208.512L895.388 208.511Z" stroke="white"/>
<path d="M1056.76 208.516C1062.75 208.335 1068.7 208.522 1074.73 208.462C1079.52 208.513 1084.28 208.063 1088.71 209.648V209.649L1088.72 209.652C1093.75 211.334 1098.27 214.654 1101.02 219.19L1101.03 219.197C1103.19 222.625 1104.31 226.671 1104.44 230.727L1104.45 231.538C1104.33 236.554 1104.35 241.576 1104.36 246.59L1104.37 251.605C1104.34 254.216 1104.54 256.701 1104.03 259.155L1104.03 259.163L1104.03 259.17C1102.84 265.99 1098.41 272.243 1092.23 275.4L1092.22 275.406C1088.61 277.382 1084.44 278.19 1080.31 278.155H1080.31C1073.73 278.173 1067.16 278.194 1060.59 278.132L1057.78 278.101L1057.25 278.087C1046.29 277.663 1036.35 268.161 1035.81 257.156L1035.8 256.622C1035.76 248.236 1035.83 239.9 1035.8 231.501V231.49L1035.79 230.839C1035.84 224.111 1039.06 217.45 1044.39 213.323L1044.39 213.322C1047.93 210.552 1052.28 208.793 1056.76 208.516Z" stroke="white"/>
<path d="M1260.34 215.316L1260 215.653C1262.89 218.635 1264.88 222.46 1265.72 226.521L1265.73 226.53C1266.4 229.521 1266.23 232.561 1266.23 235.697L1266.24 237.047C1266.19 243.584 1266.25 250.139 1266.23 256.667C1266.14 265.295 1260.41 273.552 1252.39 276.707L1252.01 276.854L1252 276.857C1247.96 278.457 1243.54 278.149 1239.11 278.18C1232.23 278.227 1225.29 278.036 1218.38 278.169L1217 278.2C1208.9 278.42 1201.08 282.106 1195.47 287.883C1190.13 293.386 1186.1 300.553 1185.47 308.359L1185.47 308.369V308.379C1185.04 318.927 1185.41 329.562 1185.22 340.078C1184.56 350.693 1174.9 359.933 1164.27 360.074H1163.75C1156.22 360.2 1148.68 360.125 1141.14 360.069H1141.15C1138.4 360.023 1135.76 360.205 1133.23 359.484L1133.22 359.482L1132.55 359.293C1125.65 357.228 1119.78 351.709 1117.69 344.79L1117.69 344.769C1116.98 342.762 1116.73 340.672 1116.65 338.531C1116.57 336.359 1116.67 334.252 1116.64 332.048C1116.66 325.67 1116.6 319.33 1116.66 312.969V312.963C1116.65 306.914 1119.18 300.907 1123.46 296.628L1123.88 296.22L1123.88 296.217C1127.93 292.308 1133.54 290.092 1139.16 290.043H1139.17C1143.31 289.975 1147.45 290.033 1151.61 290.081C1155.76 290.129 1159.92 290.168 1164.09 290.062C1172.96 289.929 1181.8 286.193 1187.84 279.622C1193.64 273.817 1197.12 265.812 1197.58 257.645V257.635L1197.58 257.625C1197.69 250.454 1197.54 243.21 1197.6 236.066C1197.68 232.017 1197.34 228.053 1198.71 224.346L1198.71 224.331L1198.72 224.316C1201.28 215.794 1209.33 209.324 1218.18 208.521C1226.17 208.305 1234.12 208.521 1242.15 208.436H1242.16C1248.75 208.268 1255.49 210.791 1259.99 215.646L1260.34 215.316Z" stroke="white"/>
<path d="M818.863 290.088C825.871 290.069 832.878 290.074 839.885 290.109L839.888 290.111L840.007 290.11C848.711 289.997 857.037 295.907 860.093 304.022L860.096 304.03C861.329 307.148 861.688 310.548 861.574 313.928L861.573 313.935C861.493 318.054 861.506 322.171 861.521 326.283C861.537 330.395 861.556 334.502 861.488 338.607C861.361 344.879 858.301 351 853.442 354.957C849.506 358.098 844.572 360.159 839.533 360.1H839.521C832.656 360.195 825.786 360.12 818.912 360.065H818.913C814.875 360.014 810.911 360.357 807.241 358.917L807.229 358.913L807.215 358.909L806.804 358.768C798.204 355.715 792.247 346.72 792.522 337.622L792.523 337.615V337.607C792.531 331.314 792.561 325.018 792.569 318.724L792.568 312.431V312.418L792.561 311.941C792.538 301.93 800.428 292.708 810.174 290.626L810.181 290.625C812.994 289.986 815.883 290.135 818.864 290.089L818.863 290.088Z" stroke="white"/>
<path d="M1223.58 290.069C1230.6 290.094 1237.63 290.089 1244.65 290.109H1244.66C1251.91 290.011 1259.04 294.019 1262.89 300.145C1265 303.695 1266.27 307.785 1266.24 311.915L1266.23 312.228L1266.24 312.229C1266.22 321.192 1266.27 330.139 1266.23 339.097C1266.03 347.48 1260.41 355.244 1252.73 358.49L1252.72 358.494L1252.71 358.499C1250.09 359.732 1247.16 360.095 1244.23 360.115H1243.63C1235.42 360.155 1227.22 360.145 1219.01 360.049H1218.99C1209.4 360.255 1200.47 352.847 1198.25 343.602L1198.25 343.594L1198.24 343.585C1197.3 340.177 1197.62 336.659 1197.58 333.023C1197.6 325.985 1197.54 318.971 1197.6 311.949V311.948C1197.68 302.071 1205.25 292.845 1214.85 290.633C1217.68 289.99 1220.59 290.099 1223.58 290.069Z" stroke="white"/>
</g>
</g>
</svg>
