<svg width="104" height="116" viewBox="0 0 104 116" fill="none" xmlns="http://www.w3.org/2000/svg">
<path d="M51.8947 0C65.6581 0 78.8577 5.46888 88.5899 15.2036C98.322 24.9382 103.789 38.1413 103.789 51.9082C103.789 69.6815 94.1025 84.1328 84.0695 94.4037C80.082 98.446 75.7961 102.182 71.248 105.581C67.1379 108.668 57.7415 114.454 57.7415 114.454C55.9594 115.467 53.9446 116 51.8947 116C49.8448 116 47.8301 115.467 46.0479 114.454C41.3819 111.754 36.8725 108.792 32.5415 105.581C27.9934 102.182 23.7074 98.446 19.72 94.4037C9.68702 84.1328 0 69.6815 0 51.9082C0 38.1413 5.46747 24.9382 15.1996 15.2036C24.9318 5.46888 38.1314 0 51.8947 0Z" fill="#2342A7"/>
<g clip-path="url(#clip0_3915_20318)">
<path d="M7.32617 50.0634H8.75701V58.0954H8.82864L14.3871 50.0634H15.9612V60.2314H14.5453V52.1977H14.4587L8.91692 60.2314H7.3295L7.32617 50.0634Z" fill="white"/>
<path d="M23.2309 57.5144H24.5752C24.5035 59.1265 23.4874 60.377 21.3254 60.377C18.8768 60.377 17.7891 58.7784 17.7891 56.6001V56.1641C17.7891 53.9842 18.8768 52.3737 21.3254 52.3737C23.4908 52.3737 24.5035 53.6209 24.5752 55.162H23.2309L23.2159 54.9508C23.1876 54.312 22.6579 53.658 21.3254 53.658C19.7796 53.658 19.2216 54.4421 19.2216 55.9529V56.8249C19.2216 58.3204 19.7796 59.1046 21.3254 59.1046C22.6579 59.1046 23.1876 58.4658 23.2159 57.7256L23.2309 57.5144Z" fill="white"/>
<path d="M26.2617 52.5324H27.6059V55.7956H28.737L31.2089 52.5324H32.7696L29.9379 56.2806V56.3668L32.7696 60.2316H31.1239L28.732 56.992H27.6009V60.2316H26.2617V52.5324Z" fill="white"/>
<path d="M41.0068 56.2367V56.5274C41.0068 58.7783 40.0074 60.377 37.9719 60.377C36.5827 60.377 35.7965 59.723 35.4367 58.5603H35.3517V62.7733H34.0059V52.5325H35.3517V54.2038H35.4367C35.7965 53.0412 36.5827 52.3737 37.9719 52.3737C40.0041 52.3737 41.0068 53.9706 41.0068 56.2367ZM37.5405 59.0977C39.0863 59.0977 39.5876 58.3863 39.5876 56.5409V56.2215C39.5876 54.3779 39.0879 53.6664 37.5405 53.6664C35.8515 53.6664 35.3501 54.3779 35.3501 56.0188V56.6001C35.3518 58.3863 35.8531 59.0977 37.5405 59.0977Z" fill="white"/>
<path d="M47.6342 58.8369H47.5642C47.0345 59.9556 46.4332 60.4491 44.9574 60.4491C43.4816 60.4491 42.4805 59.7089 42.4805 58.3435V57.9801C42.4805 56.7972 43.4116 55.8593 45.1456 55.8593H47.6225V55.2797C47.6225 54.0156 47.0645 53.507 45.9335 53.507C44.7442 53.507 44.1728 53.9278 44.1295 54.7119L44.1145 55.0025H42.7686C42.8403 53.2603 43.8563 52.3156 46.0184 52.3156C47.9373 52.3156 48.9834 53.1724 48.9834 55.2932V58.4448C48.9834 58.8808 49.1266 59.0262 49.5564 59.0262H49.9711V60.2328C49.6777 60.2821 49.3807 60.3058 49.0833 60.3037C48.2022 60.302 47.6342 59.9404 47.6342 58.8369ZM45.3022 59.2442C46.7463 59.2442 47.6208 58.8234 47.6208 57.1808V56.8902H45.1573C44.1845 56.8902 43.8247 57.3971 43.8247 58.0393V58.2573C43.8264 58.8792 44.2844 59.2425 45.3022 59.2425V59.2442Z" fill="white"/>
<path d="M50.7539 55.3493H55.3496V56.6286H50.7539V55.3493Z" fill="white"/>
<path d="M56.9062 50.0632H61.8034C63.6357 50.0632 64.91 50.8608 64.91 52.5321V53.0391C64.91 53.982 64.322 54.7087 63.121 54.854V54.9503C64.4802 55.023 65.1965 55.7632 65.1965 56.9782V57.7049C65.1965 59.5502 63.779 60.2397 61.8184 60.2397H56.9062V50.0632ZM61.8751 54.4062C62.9778 54.4062 63.4075 53.8401 63.4075 53.0543V52.691C63.4075 51.9221 62.9927 51.3559 61.8884 51.3559H58.3388V54.3977L61.8751 54.4062ZM62.1616 58.9385C63.2792 58.9385 63.694 58.298 63.694 57.5291V57.0931C63.694 56.309 63.2643 55.6838 62.1466 55.6838H58.3388V58.9385H62.1616Z" fill="white"/>
<path d="M73.8148 56.1641V56.6001C73.8148 58.7784 72.7271 60.377 70.2785 60.377C67.8299 60.377 66.7422 58.7784 66.7422 56.6001V56.1641C66.7422 53.9842 67.8299 52.3737 70.2785 52.3737C72.7271 52.3737 73.8148 53.9842 73.8148 56.1641ZM70.2785 59.0978C71.8243 59.0978 72.3973 58.3272 72.3973 56.8181V55.9462C72.3973 54.4354 71.8243 53.6513 70.2785 53.6513C68.7327 53.6513 68.1747 54.4354 68.1747 55.9462V56.8181C68.1747 58.3306 68.746 59.0978 70.2785 59.0978Z" fill="white"/>
<path d="M76.0171 54.1733L76.0321 52.5324H81.4007V60.2316H80.0548V53.7373H77.2914C77.2614 59.9105 76.4036 60.3769 75.3858 60.3769C75.1347 60.3878 74.8847 60.338 74.6562 60.2316V58.9236C74.7032 58.9348 74.7513 58.9399 74.7995 58.9388C75.6157 58.9388 75.9588 58.6904 76.0171 54.1733Z" fill="white"/>
<path d="M88.5099 53.7372H85.0119V60.2314H83.666V52.5323H88.5099V53.7372Z" fill="white"/>
<path d="M94.2979 58.8371H94.2263C93.6966 59.9558 93.0953 60.4492 91.6211 60.4492C90.147 60.4492 89.1426 59.7091 89.1426 58.3436V57.9803C89.1426 56.7974 90.0737 55.8595 91.8077 55.8595H94.2846V55.2799C94.2846 54.0158 93.7266 53.5072 92.5956 53.5072C91.4063 53.5072 90.8349 53.9279 90.7916 54.712L90.7766 55.0027H89.4324C89.5007 53.2604 90.5101 52.3141 92.6755 52.3141C94.5928 52.3141 95.6388 53.1709 95.6388 55.2917V58.4433C95.6388 58.8793 95.7804 59.0246 96.2102 59.0246H96.6266V60.2312C96.3332 60.2806 96.0362 60.3043 95.7388 60.3022C94.8709 60.3022 94.2979 59.9406 94.2979 58.8371ZM91.966 59.2443C93.4118 59.2443 94.2846 58.8236 94.2846 57.181V56.8903H91.821C90.8466 56.8903 90.4885 57.3973 90.4885 58.0394V58.2574C90.4885 58.8793 90.9465 59.2426 91.9643 59.2426L91.966 59.2443Z" fill="white"/>
<path d="M68.7167 64.1892H67.4724V67.4642H67.2208V64.1892H65.9766V63.9577H68.7167V64.1892Z" fill="white"/>
<path d="M71.7723 67.2343V67.4641H69.3887V63.9576H71.6973V64.1891H69.6402V65.5714H71.4725V65.7962H69.6402V67.2343H71.7723Z" fill="white"/>
<path d="M72.4626 63.9577L73.5037 65.4347L74.5497 63.9577H74.8512L73.6619 65.6476L74.9462 67.4659H74.643L73.5037 65.8639L72.3727 67.4659H72.0762L73.3521 65.651L72.1678 63.9611L72.4626 63.9577Z" fill="white"/>
<path d="M78.3971 63.9576V67.4641H78.1456V65.7962H75.8336V67.4641H75.582V63.9576H75.8336V65.5714H78.1456V63.9576H78.3971Z" fill="white"/>
<path d="M79.3244 65.7114C79.3213 65.4732 79.366 65.2368 79.4558 65.0167C79.5456 64.7965 79.6786 64.5973 79.8467 64.4309C80.0149 64.2646 80.2146 64.1348 80.4338 64.0493C80.653 63.9638 80.887 63.9244 81.1217 63.9336C82.1477 63.9336 82.919 64.689 82.919 65.7114C82.919 66.195 82.7296 66.6588 82.3925 67.0007C82.0555 67.3427 81.5983 67.5348 81.1217 67.5348C80.645 67.5348 80.1878 67.3427 79.8508 67.0007C79.5137 66.6588 79.3244 66.195 79.3244 65.7114ZM82.6558 65.7114C82.6604 65.4008 82.5738 65.0958 82.407 64.8353C82.2402 64.5748 82.0008 64.3706 81.7192 64.2486C81.4376 64.1266 81.1266 64.0924 80.8257 64.1504C80.5249 64.2083 80.2479 64.3558 80.03 64.574C79.8121 64.7922 79.6631 65.0713 79.602 65.3757C79.541 65.6801 79.5706 65.9961 79.6872 66.2833C79.8037 66.5706 80.0019 66.8162 80.2565 66.9888C80.511 67.1614 80.8105 67.2532 81.1167 67.2526C81.319 67.2587 81.5204 67.2233 81.7089 67.1484C81.8973 67.0734 82.0689 66.9605 82.2131 66.8165C82.3574 66.6725 82.4715 66.5004 82.5484 66.3104C82.6253 66.1205 82.6636 65.9167 82.6608 65.7114H82.6558Z" fill="white"/>
<path d="M86.6927 63.9577V67.4642H86.4412V64.1892H84.1008V67.4642H83.8477V63.9577H86.6927Z" fill="white"/>
<path d="M90.123 66.4772H88.1242L87.6778 67.4641H87.4062L88.9953 63.9576H89.2469L90.8426 67.4641H90.5728L90.123 66.4772ZM90.0297 66.2626L89.1203 64.2347L88.2174 66.2626H90.0297Z" fill="white"/>
<path d="M94.1829 65.1405C94.1829 65.8756 93.6599 66.3234 92.792 66.3234H91.8043V67.4709H91.5527V63.9576H92.792C93.6599 63.9576 94.1829 64.3986 94.1829 65.1405ZM93.9264 65.1405C93.9264 64.5338 93.5316 64.1891 92.792 64.1891H91.8043V66.0868H92.792C93.5316 66.0868 93.9264 65.7404 93.9264 65.1405Z" fill="white"/>
<path d="M96.0707 65.8013H95.2379V67.4641H94.9863V63.9576H95.2379V65.5714H96.0707L97.31 63.9576H97.5915L96.2673 65.6661L97.6798 67.4641H97.3833L96.0707 65.8013Z" fill="white"/>
</g>
<defs>
<clipPath id="clip0_3915_20318">
<rect width="90.3579" height="17.4262" fill="white" transform="translate(7.32617 50.0632)"/>
</clipPath>
</defs>
</svg>
