<svg width="39" height="47" viewBox="0 0 39 47" fill="none" xmlns="http://www.w3.org/2000/svg">
<path d="M15.4158 44.0316C16.7288 45.0894 18.0982 46.0564 19.5 47C20.9049 46.0689 22.2675 45.0784 23.5842 44.0316C25.779 42.2717 27.8446 40.3635 29.7657 38.3211C34.1943 33.5923 39 26.7371 39 19.042C39 16.5414 38.4956 14.0653 37.5157 11.755C36.5357 9.44468 35.0993 7.3455 33.2886 5.57729C31.4778 3.80907 29.3282 2.40644 26.9623 1.44949C24.5965 0.492537 22.0608 0 19.5 0C16.9392 0 14.4035 0.492537 12.0377 1.44949C9.67182 2.40644 7.52216 3.80907 5.71142 5.57729C3.90068 7.3455 2.46432 9.44468 1.48435 11.755C0.504382 14.0653 -3.81585e-08 16.5414 0 19.042C0 26.7371 4.80567 33.5902 9.23433 38.3211C11.1553 40.3642 13.2209 42.271 15.4158 44.0316ZM19.5 25.9183C17.6324 25.9183 15.8414 25.1939 14.5208 23.9043C13.2002 22.6148 12.4583 20.8658 12.4583 19.042C12.4583 17.2183 13.2002 15.4693 14.5208 14.1798C15.8414 12.8902 17.6324 12.1658 19.5 12.1658C21.3676 12.1658 23.1586 12.8902 24.4792 14.1798C25.7998 15.4693 26.5417 17.2183 26.5417 19.042C26.5417 20.8658 25.7998 22.6148 24.4792 23.9043C23.1586 25.1939 21.3676 25.9183 19.5 25.9183Z" fill="#806448"/>
</svg>
