<svg width="59" height="15" viewBox="0 0 59 15" fill="none" xmlns="http://www.w3.org/2000/svg">
<g clip-path="url(#clip0_5277_3795)">
<path d="M5.31325 7.66664C5.31325 7.45331 5.27428 7.25331 5.19633 7.06664C5.12705 6.87108 5.02312 6.70219 4.88455 6.55997C4.74598 6.41775 4.58143 6.30664 4.3909 6.22664C4.20903 6.13775 4.00983 6.09331 3.79332 6.09331C3.58547 6.09331 3.39061 6.13331 3.20873 6.21331C3.02686 6.29331 2.86664 6.40442 2.72807 6.54664C2.59817 6.68886 2.48991 6.85775 2.4033 7.05331C2.32536 7.23997 2.28639 7.43997 2.28639 7.65331C2.28639 7.86664 2.32536 8.06664 2.4033 8.25331C2.48125 8.43997 2.5895 8.60442 2.72807 8.74664C2.86664 8.87997 3.02686 8.99108 3.20873 9.07997C3.39927 9.15997 3.59846 9.19997 3.80631 9.19997C4.01417 9.19997 4.20903 9.15997 4.3909 9.07997C4.57277 8.99997 4.72866 8.88886 4.85857 8.74664C4.99714 8.60442 5.10539 8.43997 5.18334 8.25331C5.26994 8.06664 5.31325 7.87108 5.31325 7.66664ZM2.35134 14.48H0V4.22664H2.35134V4.98664C2.85365 4.33775 3.53783 4.01331 4.40389 4.01331C4.88022 4.01331 5.32191 4.11108 5.72895 4.30664C6.14466 4.49331 6.50407 4.75108 6.80719 5.07997C7.11031 5.40886 7.34415 5.79553 7.5087 6.23997C7.68191 6.68442 7.76851 7.15997 7.76851 7.66664C7.76851 8.17331 7.68191 8.64442 7.5087 9.07997C7.34415 9.51553 7.11031 9.89775 6.80719 10.2266C6.51273 10.5555 6.16198 10.8133 5.75494 11C5.34789 11.1866 4.9062 11.28 4.42987 11.28C3.59846 11.28 2.90561 10.9866 2.35134 10.4V14.48Z" fill="white"/>
<path d="M9.10938 4.22662H11.4607V5.34662C11.7119 4.93773 12.0193 4.62662 12.3831 4.41329C12.7468 4.19107 13.1712 4.07996 13.6562 4.07996C13.7168 4.07996 13.7817 4.07996 13.851 4.07996C13.929 4.07996 14.0156 4.08885 14.1108 4.10662V6.41329C13.7991 6.25329 13.4613 6.17329 13.0976 6.17329C12.5519 6.17329 12.1406 6.34218 11.8634 6.67996C11.595 7.00884 11.4607 7.49329 11.4607 8.13329V11.0666H9.10938V4.22662Z" fill="white"/>
<path d="M17.4305 7.61339C17.4305 7.8445 17.4694 8.05783 17.5474 8.25339C17.634 8.44006 17.7422 8.6045 17.8722 8.74672C18.0107 8.88894 18.1709 9.00005 18.3528 9.08005C18.5433 9.16005 18.7425 9.20005 18.9504 9.20005C19.1582 9.20005 19.3531 9.16005 19.535 9.08005C19.7255 9.00005 19.8857 8.88894 20.0156 8.74672C20.1542 8.6045 20.2625 8.44006 20.3404 8.25339C20.427 8.05783 20.4703 7.84894 20.4703 7.62672C20.4703 7.41339 20.427 7.21339 20.3404 7.02672C20.2625 6.83117 20.1542 6.66228 20.0156 6.52006C19.8857 6.37783 19.7255 6.26672 19.535 6.18672C19.3531 6.10672 19.1582 6.06672 18.9504 6.06672C18.7425 6.06672 18.5433 6.10672 18.3528 6.18672C18.1709 6.26672 18.0107 6.37783 17.8722 6.52006C17.7422 6.66228 17.634 6.82672 17.5474 7.01339C17.4694 7.20005 17.4305 7.40006 17.4305 7.61339ZM14.9492 7.58672C14.9492 7.08006 15.0488 6.60894 15.248 6.17339C15.4472 5.72894 15.7243 5.34672 16.0794 5.02672C16.4345 4.69783 16.8545 4.44006 17.3395 4.25339C17.8332 4.06672 18.3701 3.97339 18.9504 3.97339C19.522 3.97339 20.0503 4.06672 20.5353 4.25339C21.0289 4.43117 21.4533 4.6845 21.8084 5.01339C22.1721 5.33339 22.4536 5.72006 22.6528 6.17339C22.852 6.61783 22.9516 7.11117 22.9516 7.65339C22.9516 8.19561 22.8476 8.69339 22.6398 9.14672C22.4406 9.59117 22.1635 9.97783 21.8084 10.3067C21.4533 10.6267 21.0246 10.8756 20.5223 11.0534C20.0286 11.2312 19.4917 11.3201 18.9114 11.3201C18.3398 11.3201 17.8115 11.2312 17.3265 11.0534C16.8415 10.8756 16.4215 10.6223 16.0664 10.2934C15.72 9.9645 15.4472 9.57339 15.248 9.12005C15.0488 8.65783 14.9492 8.14672 14.9492 7.58672Z" fill="white"/>
<path d="M26.66 4.22668V8.08002C26.66 8.92446 27.0584 9.34668 27.8551 9.34668C28.6519 9.34668 29.0503 8.92446 29.0503 8.08002V4.22668H31.4016V8.54668C31.4016 9.47113 31.1029 10.1645 30.5053 10.6267C29.9164 11.0889 29.033 11.32 27.8551 11.32C26.6773 11.32 25.7896 11.0889 25.192 10.6267C24.6031 10.1645 24.3086 9.47113 24.3086 8.54668V4.22668H26.66Z" fill="white"/>
<path d="M35.1806 7.62667C35.1806 7.84889 35.2195 8.05778 35.2975 8.25333C35.3754 8.44 35.4793 8.60445 35.6093 8.74667C35.7478 8.88889 35.908 9 36.0899 9.08C36.2804 9.16 36.484 9.2 36.7005 9.2C36.9083 9.2 37.1032 9.16 37.2851 9.08C37.4756 9 37.6358 8.88889 37.7657 8.74667C37.9043 8.60445 38.0126 8.44 38.0905 8.25333C38.1771 8.06667 38.2204 7.86667 38.2204 7.65333C38.2204 7.44 38.1771 7.24 38.0905 7.05333C38.0126 6.85778 37.9043 6.68889 37.7657 6.54667C37.6358 6.40444 37.4756 6.29333 37.2851 6.21333C37.1032 6.13333 36.9083 6.09333 36.7005 6.09333C36.4926 6.09333 36.2934 6.13333 36.1029 6.21333C35.921 6.29333 35.7608 6.40444 35.6222 6.54667C35.4923 6.68889 35.3841 6.85333 35.2975 7.04C35.2195 7.21778 35.1806 7.41333 35.1806 7.62667ZM38.1425 0H40.5068V11.0667H38.1425V10.3067C37.6402 10.9556 36.9603 11.28 36.1029 11.28C35.6179 11.28 35.1719 11.1867 34.7648 11C34.3578 10.8133 34.0027 10.5556 33.6996 10.2267C33.3965 9.89778 33.1583 9.51111 32.9851 9.06667C32.8206 8.62222 32.7383 8.14222 32.7383 7.62667C32.7383 7.13778 32.8162 6.67556 32.9721 6.24C33.1367 5.79556 33.3662 5.40889 33.6606 5.08C33.9551 4.75111 34.3058 4.49333 34.7129 4.30667C35.1286 4.11111 35.5833 4.01333 36.0769 4.01333C36.9083 4.01333 37.5968 4.31111 38.1425 4.90667V0Z" fill="white"/>
<path d="M44.4568 0V11.0667H42.1055V0H44.4568Z" fill="white"/>
<path d="M48.6084 10.1334L45.3867 4.22668H48.1148L49.8945 7.73335L51.6223 4.22668H54.3245L48.9722 14.48H46.335L48.6084 10.1334Z" fill="white"/>
<path d="M57.1054 12.2223C58.1517 12.2223 58.9999 11.3517 58.9999 10.2778C58.9999 9.20393 58.1517 8.33337 57.1054 8.33337C56.0591 8.33337 55.2109 9.20393 55.2109 10.2778C55.2109 11.3517 56.0591 12.2223 57.1054 12.2223Z" fill="#1771F8"/>
</g>
<defs>
<clipPath id="clip0_5277_3795">
<rect width="59" height="15" fill="white"/>
</clipPath>
</defs>
</svg>
