<svg width="175" height="29" viewBox="0 0 175 29" fill="none" xmlns="http://www.w3.org/2000/svg">
<mask id="mask0_5205_2423" style="mask-type:luminance" maskUnits="userSpaceOnUse" x="0" y="0" width="175" height="28">
<path d="M175 0H0V27.7921H175V0Z" fill="white"/>
</mask>
<g mask="url(#mask0_5205_2423)">
<path fill-rule="evenodd" clip-rule="evenodd" d="M168.54 10.5801V9.80852C168.54 9.01654 168.234 8.30758 167.619 7.68173C167.006 7.05572 166.312 6.74271 165.535 6.74271H141.898V21.3068C141.898 22.0711 141.663 22.9744 141.199 24.0167C140.734 25.0591 139.979 25.9751 138.933 26.7581C137.887 27.5416 136.562 27.9333 134.953 27.9333C133.3 27.9333 132.074 27.6994 131.276 27.2382C130.477 26.7772 129.623 25.9243 128.719 24.6737L116.091 9.1277C115.578 8.43587 115.173 7.85172 114.259 7.85172C113.718 7.85172 113.188 8.28417 113.188 8.86895V27.0616H105.833V5.94404C105.833 5.57134 105.951 5.06612 106.186 4.43444C106.781 2.82234 108.033 1.49478 109.523 0.713527C110.421 0.239996 111.51 0 112.773 0C114.382 0 115.645 0.271376 116.555 0.821227C117.465 1.37076 118.202 1.97075 118.759 2.6089L131.474 17.8831C132.035 18.6581 132.476 19.1779 133.473 19.1779C134.42 19.1779 134.433 18.4428 134.433 17.6619V3.70475C134.939 1.55628 136.73 0.374501 138.994 0.568298C147.801 0.568298 156.679 0.611268 165.535 0.611268C167.988 0.611268 170.105 1.51891 171.882 3.33213C173.659 5.14536 174.549 7.3062 174.549 9.80852V27.093H168.54V16.7115H150.656V27.093H144.713C144.713 22.4808 144.672 17.9247 144.672 13.3493C145.234 11.6806 146.347 10.6953 148.163 10.5801H168.54Z" fill="#A5ACC3"/>
<path fill-rule="evenodd" clip-rule="evenodd" d="M76.1676 17.1542C76.1676 18.01 76.499 18.7762 77.1619 19.4526C77.8247 20.129 78.5755 20.4672 79.4139 20.4672H95.4928L95.4974 0.582764H101.919C101.919 9.55854 101.927 18.1288 101.927 27.093H79.4136C76.7636 27.093 74.4753 26.1117 72.5555 24.1527C70.6356 22.1938 69.6722 19.8582 69.6743 17.1542L69.6869 0.594593H76.1798C76.1798 9.68233 76.1676 13.644 76.1676 17.1542Z" fill="#A5ACC3"/>
<path fill-rule="evenodd" clip-rule="evenodd" d="M6.00848 10.5804V9.80883C6.00848 9.01685 6.3153 8.3079 6.92876 7.68203C7.54199 7.05603 8.23682 6.74303 9.01292 6.74303C24.7924 6.74303 40.5626 6.74673 56.3418 6.74673C56.744 6.74673 57.1218 6.8098 57.4869 6.92988C57.846 7.05603 58.1431 7.25202 58.3658 7.52364C58.589 7.7951 58.7002 8.16157 58.7002 8.61633C58.7002 9.24186 58.4711 9.73448 58.0131 10.0883C57.5551 10.4357 57.0847 10.6126 56.614 10.6126H36.5113C34.8842 10.9973 33.6624 11.8599 33.1097 13.552V27.0933H40.6494V16.9801H50.3435L59.5734 27.0933H69.3867L60.2601 16.9801C60.4088 16.9296 60.904 16.8535 61.746 16.7588C62.5879 16.6579 63.3306 16.4874 63.9806 16.241C64.6306 15.9945 65.1877 15.5459 65.6519 14.8954C66.1163 14.2511 66.3515 13.3415 66.3515 12.1665V5.54642C66.3515 4.17567 65.8748 3.00705 64.9217 2.02799C63.9619 1.05506 62.8231 0.568604 61.4922 0.568604C43.9616 0.568604 26.536 0.611572 9.01292 0.611572C6.56023 0.611572 4.44315 1.51921 2.66633 3.33244C0.889447 5.14566 0 7.30651 0 9.80883V27.0933H6.00848V16.7119H23.8923V27.1247H29.8348C29.8348 22.502 29.8762 17.9354 29.8762 13.3496C29.3143 11.6809 28.2009 10.6956 26.3857 10.5804H23.8923H6.00848Z" fill="#A5ACC3"/>
</g>
</svg>
