<svg width="98" height="15" viewBox="0 0 98 15" fill="none" xmlns="http://www.w3.org/2000/svg">
<mask id="mask0_5226_12290" style="mask-type:luminance" maskUnits="userSpaceOnUse" x="0" y="0" width="98" height="15">
<path d="M97.0636 0H0V14.4514H97.0636V0Z" fill="white"/>
</mask>
<g mask="url(#mask0_5226_12290)">
<path fill-rule="evenodd" clip-rule="evenodd" d="M93.4814 5.50146V5.10027C93.4814 4.68846 93.3113 4.31981 92.9704 3.99438C92.6302 3.66886 92.2453 3.5061 91.8147 3.5061H78.7044V11.0792C78.7044 11.4766 78.574 11.9463 78.3164 12.4883C78.059 13.0303 77.64 13.5067 77.0597 13.9138C76.4796 14.3212 75.7449 14.5248 74.8521 14.5248C73.9353 14.5248 73.2555 14.4032 72.8126 14.1634C72.3698 13.9237 71.896 13.4802 71.3946 12.8299L64.3905 4.74626C64.1061 4.38652 63.8811 4.08277 63.3742 4.08277C63.0744 4.08277 62.7802 4.30763 62.7802 4.61171V14.0716H58.7012V3.0908C58.7012 2.89701 58.7664 2.6343 58.8968 2.30583C59.2267 1.46757 59.921 0.777261 60.7475 0.371022C61.2454 0.124794 61.8496 0 62.55 0C63.4428 0 64.1432 0.141111 64.6479 0.427024C65.1527 0.712773 65.5612 1.02476 65.8703 1.35659L72.9225 9.29891C73.2339 9.70193 73.4782 9.97217 74.0315 9.97217C74.5566 9.97217 74.5638 9.58994 74.5638 9.18391V1.92641C74.8443 0.809239 75.8376 0.194735 77.0935 0.295506C81.9784 0.295506 86.9026 0.317849 91.8147 0.317849C93.1753 0.317849 94.3492 0.789806 95.3347 1.73265C96.3203 2.67551 96.8139 3.7991 96.8139 5.10027V14.0879H93.4814V8.6897H83.5618V14.0879H80.2659C80.2659 11.6897 80.2429 9.32058 80.2429 6.9414C80.5547 6.0737 81.1721 5.56136 82.179 5.50146H93.4814Z" fill="#A5ACC3"/>
<path fill-rule="evenodd" clip-rule="evenodd" d="M42.246 8.91987C42.246 9.36487 42.4298 9.76329 42.7975 10.115C43.1651 10.4667 43.5816 10.6426 44.0466 10.6426H52.9647L52.9673 0.302979H56.529C56.529 4.97024 56.5337 9.42662 56.5337 14.0879H44.0464C42.5766 14.0879 41.3074 13.5776 40.2426 12.559C39.1777 11.5404 38.6434 10.3259 38.6445 8.91987L38.6515 0.309129H42.2528C42.2528 5.0346 42.246 7.09462 42.246 8.91987Z" fill="#A5ACC3"/>
<path fill-rule="evenodd" clip-rule="evenodd" d="M3.3326 5.50162V5.10042C3.3326 4.68861 3.50278 4.31996 3.84303 3.99452C4.18316 3.66901 4.56854 3.50625 4.99901 3.50625C13.7511 3.50625 22.498 3.50818 31.2499 3.50818C31.473 3.50818 31.6826 3.54098 31.8851 3.60341C32.0843 3.66901 32.249 3.77092 32.3725 3.91216C32.4963 4.05331 32.558 4.24387 32.558 4.48034C32.558 4.80561 32.4309 5.06176 32.1769 5.24576C31.9229 5.42638 31.662 5.51838 31.4009 5.51838H20.251C19.3485 5.7184 18.6708 6.16696 18.3643 7.04683V14.0881H22.5461V8.82935H27.923L33.0424 14.0881H38.4853L33.4232 8.82935C33.5057 8.80308 33.7804 8.76356 34.2474 8.71427C34.7143 8.66181 35.1262 8.57316 35.4868 8.44506C35.8473 8.31688 36.1563 8.08363 36.4138 7.74534C36.6714 7.41031 36.8018 6.93737 36.8018 6.32635V2.88404C36.8018 2.17127 36.5374 1.56361 36.0088 1.05451C35.4764 0.548606 34.8448 0.295654 34.1066 0.295654C24.3833 0.295654 14.7182 0.317997 4.99901 0.317997C3.63862 0.317997 2.46439 0.789955 1.47888 1.73281C0.493331 2.67565 0 3.79926 0 5.10042V14.0881H3.3326V8.6899H13.2518V14.1044H16.5479C16.5479 11.7007 16.5708 9.3261 16.5708 6.94155C16.2592 6.07385 15.6416 5.56151 14.6348 5.50162H13.2518H3.3326Z" fill="#A5ACC3"/>
</g>
</svg>
