<svg width="85" height="14" viewBox="0 0 85 14" fill="none" xmlns="http://www.w3.org/2000/svg">
<mask id="mask0_5226_12945" style="mask-type:luminance" maskUnits="userSpaceOnUse" x="0" y="0" width="85" height="14">
<path d="M84.7544 0H0V13.46H84.7544V0Z" fill="white"/>
</mask>
<g mask="url(#mask0_5226_12945)">
<path fill-rule="evenodd" clip-rule="evenodd" d="M81.6254 5.1238V4.75013C81.6254 4.36656 81.4769 4.02321 81.1792 3.7201C80.8822 3.41691 80.546 3.26532 80.1701 3.26532H68.7224V10.3188C68.7224 10.689 68.6085 11.1265 68.3836 11.6313C68.1588 12.1361 67.793 12.5798 67.2862 12.959C66.7797 13.3385 66.1381 13.5281 65.3586 13.5281C64.5581 13.5281 63.9644 13.4149 63.5778 13.1915C63.1911 12.9683 62.7774 12.5552 62.3396 11.9495L56.2237 4.4204C55.9754 4.08534 55.7789 3.80243 55.3362 3.80243C55.0745 3.80243 54.8176 4.01187 54.8176 4.29508V13.106H51.2559V2.87852C51.2559 2.69802 51.3128 2.45333 51.4267 2.1474C51.7148 1.36665 52.321 0.723693 53.0427 0.345325C53.4774 0.115989 54.005 -0.000244141 54.6166 -0.000244141C55.3961 -0.000244141 56.0078 0.131186 56.4485 0.397485C56.8892 0.66363 57.246 0.954211 57.5158 1.26327L63.6737 8.66072C63.9456 9.03609 64.1589 9.2878 64.642 9.2878C65.1006 9.2878 65.1068 8.93179 65.1068 8.55361V1.79401C65.3517 0.753478 66.2191 0.181131 67.3157 0.274989C71.5811 0.274989 75.8809 0.2958 80.1701 0.2958C81.3581 0.2958 82.3831 0.735378 83.2437 1.61354C84.1043 2.49171 84.5353 3.53823 84.5353 4.75013V13.1212H81.6254V8.0933H72.9638V13.1212H70.0858C70.0858 10.8874 70.0657 8.6809 70.0657 6.46495C70.338 5.65678 70.8771 5.17959 71.7563 5.1238H81.6254Z" fill="#A5ACC3"/>
<path fill-rule="evenodd" clip-rule="evenodd" d="M36.8889 8.30772C36.8889 8.72219 37.0494 9.09328 37.3705 9.42082C37.6915 9.74844 38.0551 9.91225 38.4611 9.91225H46.2483L46.2506 0.281982H49.3606C49.3606 4.62905 49.3647 8.77971 49.3647 13.1212H38.461C37.1776 13.1212 36.0693 12.6459 35.1395 11.6971C34.2097 10.7484 33.7431 9.61731 33.7441 8.30772L33.7502 0.287711H36.8948C36.8948 4.689 36.8889 6.60769 36.8889 8.30772Z" fill="#A5ACC3"/>
<path fill-rule="evenodd" clip-rule="evenodd" d="M2.90997 5.1242V4.75053C2.90997 4.36697 3.05857 4.02361 3.35567 3.7205C3.65267 3.41732 3.98918 3.26573 4.36505 3.26573C12.0072 3.26573 19.6449 3.26753 27.2869 3.26753C27.4817 3.26753 27.6647 3.29807 27.8415 3.35622C28.0155 3.41732 28.1593 3.51224 28.2672 3.64379C28.3753 3.77526 28.4292 3.95274 28.4292 4.17299C28.4292 4.47594 28.3182 4.71452 28.0964 4.8859C27.8746 5.05413 27.6467 5.13981 27.4188 5.13981H17.6828C16.8948 5.32612 16.303 5.7439 16.0354 6.56341V13.1216H19.6869V8.22364H24.3819L28.8521 13.1216H33.6047L29.1846 8.22364C29.2566 8.19917 29.4965 8.16236 29.9042 8.11646C30.312 8.06759 30.6717 7.98502 30.9865 7.86572C31.3013 7.74633 31.5711 7.52908 31.7959 7.214C32.0209 6.90195 32.1347 6.46146 32.1347 5.89235V2.6862C32.1347 2.02233 31.9039 1.45636 31.4423 0.982188C30.9774 0.510989 30.4259 0.275391 29.7813 0.275391C21.2911 0.275391 12.8517 0.296201 4.36505 0.296201C3.17719 0.296201 2.15186 0.73578 1.29133 1.61395C0.430769 2.49211 0 3.53863 0 4.75053V13.1216H2.90997V8.09376H11.5713V13.1368H14.4493C14.4493 10.898 14.4694 8.68631 14.4694 6.46535C14.1972 5.65718 13.658 5.17999 12.7789 5.1242H11.5713H2.90997Z" fill="#A5ACC3"/>
</g>
</svg>
