<svg width="206" height="51" viewBox="0 0 206 51" fill="none" xmlns="http://www.w3.org/2000/svg">
<path d="M128.52 12.7878C128.559 12.7804 128.598 12.773 128.637 12.7656C132.861 12.6264 137.096 12.7649 141.324 12.7086C142.844 12.6883 144.78 12.6415 146.247 12.9469C148.007 13.3174 149.662 14.088 151.088 15.2014C159.846 21.9864 156.645 36.7018 145.193 38.2725C143.644 38.4788 140.425 38.4449 138.85 38.3695C133.241 38.1008 127.441 39.5311 122.654 35.9114C120.078 33.9427 118.362 31.0236 117.874 27.7806C116.795 20.3291 121.109 13.8842 128.52 12.7878ZM143.979 33.0253C153.4 32.137 152.717 18.2154 143.685 18.106C139.18 18.0514 134.284 17.9677 129.784 18.1006C122.855 18.7589 120.722 27.3692 125.558 31.3962C126.434 32.1222 127.465 32.6266 128.569 32.8684C129.849 33.1429 133.032 33.0553 134.452 33.0543C137.627 33.0614 140.803 33.0517 143.979 33.0253Z" fill="#A5ACC3"/>
<path d="M82.2792 12.7223C84.5793 12.6546 87.0074 12.7331 89.312 12.7391C92.5393 12.727 95.7671 12.7358 98.9949 12.7657C103.492 12.6867 108.128 12.0624 111.504 15.3773C113.305 17.1411 114.342 19.563 114.387 22.1078C114.409 24.6029 113.464 27.0062 111.759 28.7972C111.42 29.1519 110.06 30.2989 109.95 30.5764C110.354 31.7279 113.826 36.3064 114.647 37.6276C114.744 37.784 115.24 38.2013 115.41 38.3352C113.61 38.3763 110.445 38.4584 108.698 38.3433C107.197 36.1706 105.664 33.797 104.105 31.6929L95.4889 31.6751C94.2289 31.6756 92.3718 31.7366 91.1518 31.6694C90.1386 31.7004 89.1817 31.6819 88.1708 31.6618C88.1894 33.8297 88.138 36.2229 88.2558 38.3591C86.3225 38.3994 84.2045 38.3596 82.2588 38.3582C82.3332 37.6233 82.2889 35.9822 82.2898 35.2029L82.2902 28.8913C82.2889 23.6969 82.4183 17.8792 82.2792 12.7223ZM88.2177 26.3824C89.0408 26.383 91.9935 26.3229 92.6492 26.4104C95.3241 26.3141 104.941 26.7906 106.743 25.9611C107.747 25.4986 108.555 24.5795 108.936 23.5295C109.297 22.5354 109.219 21.4631 108.781 20.5098C108.246 19.3421 107.269 18.6305 106.117 18.2012C104.754 18.0084 102.705 18.0697 101.28 18.0708L92.7697 18.083C91.4176 18.0858 89.4821 18.1618 88.1934 18.0561C88.2487 20.743 88.2155 23.6769 88.2177 26.3824Z" fill="#A5ACC3"/>
<path d="M98.9949 12.7657C103.492 12.6867 108.128 12.0624 111.504 15.3773C113.305 17.1411 114.342 19.563 114.387 22.1078C114.409 24.6029 113.464 27.0062 111.759 28.7972C111.42 29.1519 110.06 30.2989 109.95 30.5764C110.354 31.7279 113.826 36.3064 114.647 37.6276C114.744 37.784 115.241 38.2013 115.41 38.3352C113.61 38.3763 110.445 38.4584 108.698 38.3433C107.197 36.1706 105.664 33.797 104.105 31.6929L95.4889 31.6751C94.229 31.6756 92.3719 31.7366 91.1519 31.6694L91.2582 31.485C91.8372 31.3374 92.2647 31.5446 92.8535 31.4177C92.8809 31.0023 93.2486 30.3432 93.4466 29.9608C94.1346 28.6296 94.346 27.511 95.4876 26.5173C94.7473 26.5148 93.3084 26.5778 92.6492 26.4104C95.3241 26.3141 104.941 26.7906 106.743 25.9611C107.747 25.4986 108.555 24.5795 108.936 23.5295C109.297 22.5354 109.219 21.4631 108.781 20.5098C108.246 19.3421 107.269 18.6305 106.117 18.2012L106.134 18.1112L106.04 17.9823C105.637 17.849 102.409 17.889 101.743 17.8784C102.19 16.9479 103.484 14.3242 103.215 13.3616C102.53 12.5659 100.067 13.3732 98.9949 12.7657Z" fill="#A5ACC3"/>
<path d="M46.2776 12.6404C47.149 12.9123 50.2895 12.8286 51.3576 12.8284L63.4837 12.8126C65.5508 12.8039 69.1857 12.5909 71.0671 12.9947C77.0544 14.2799 80.2211 21.8948 76.8683 27.1413C75.4675 29.3339 73.6578 30.824 71.2784 31.3858C69.5024 31.8477 64.5207 31.6911 62.3651 31.6835C59.042 31.6717 55.3137 31.7603 52.011 31.6503C52.1435 33.4043 52.1014 36.4315 52.1594 38.3563C50.1247 38.3757 48.0899 38.3757 46.0552 38.3562C46.2178 35.7529 46.1633 32.8904 46.1637 30.2614L46.1575 18.194C46.1557 17.2557 45.998 13.1612 46.2776 12.6404ZM52.0048 26.4299C57.8016 26.1329 64.1925 26.7466 70.0057 26.1726C70.6246 26.1115 71.2045 25.5475 71.6191 25.1015C73.4363 23.5434 73.3686 21.2584 71.9004 19.4693C71.126 18.5256 69.8542 18.1326 68.67 18.1105C63.1408 18.0072 57.6023 18.1371 52.0708 18.069C52.0677 20.2759 52.178 24.4001 52.0048 26.4299Z" fill="#A5ACC3"/>
<path d="M179.675 27.0126C183.731 22.2648 188.069 17.6376 192.316 13.0688C192.884 12.4588 197.349 12.7851 198.449 12.6941L198.439 29.8035C198.439 32.463 198.358 35.7385 198.462 38.3642C196.988 38.401 193.86 38.4392 192.44 38.3122C192.689 37.0221 192.565 34.5472 192.596 33.1613C192.681 29.3041 192.431 25.149 192.647 21.3188C191.601 22.5971 190.474 23.7505 189.327 24.9321C186.596 27.7464 184.097 30.7925 181.289 33.5252C180.726 34.0723 180.203 34.7774 179.568 35.2227C178.328 34.7204 168.231 23.1979 166.248 21.3005C166.405 22.4822 166.338 23.7163 166.348 24.909C166.384 29.3858 166.267 33.891 166.372 38.3652C165.437 38.3687 160.88 38.5046 160.411 38.1739C160.567 37.1213 160.476 33.5443 160.477 32.3132L160.482 21.7168C160.482 19.9776 160.425 17.8851 160.499 16.1764C160.421 15.2421 160.515 14.3308 160.394 13.2634L160.434 12.9169C160.892 12.5546 165.723 12.7016 166.404 12.7775C168.451 14.7517 171.063 17.7761 173.108 19.9374C174.792 21.7174 178.255 25.1919 179.675 27.0126Z" fill="#A5ACC3"/>
<path d="M160.394 13.2635C161.095 13.239 161.327 13.2834 162.013 13.4169C162.275 13.846 162.446 14.0521 162.748 14.3827C164.326 16.11 161.913 17.4462 160.974 18.6007C160.897 18.6963 160.724 19.7071 160.685 19.9277C160.567 18.9696 160.762 16.8723 160.499 16.1765C160.421 15.2422 160.515 14.3309 160.394 13.2635Z" fill="#A5ACC3"/>
<path d="M40.9407 22.8415C41.2601 22.8116 41.5426 22.749 41.8186 22.9101C41.9866 23.8714 41.8045 26.8044 41.9446 28.2168C39.6174 28.0489 36.134 28.0119 33.8071 28.1517C33.4583 28.1972 33.5112 28.2461 33.2413 28.0835C32.8829 27.3318 33.067 23.8939 33.0956 22.8594C35.6659 22.9115 38.3755 22.9514 40.9407 22.8415Z" fill="#A5ACC3"/>
<path d="M0 12.7196C6.70116 12.8519 13.7336 12.7484 20.4717 12.7444L25.6344 12.7367C26.361 12.7293 28.3023 12.4957 28.756 12.9617C28.7976 13.2262 28.7841 17.6633 28.7466 17.8246C28.1227 18.3645 14.5024 17.9797 12.3922 18.0842C11.004 18.1529 6.89746 18.1212 5.4419 18.0021C5.58406 19.307 5.50082 21.5786 5.43353 22.9183C12.3595 22.7006 19.5478 22.9756 26.6128 22.7885C26.3344 24.2966 26.6631 27.1576 26.4655 28.0117C25.3581 28.2005 23.4912 28.1216 22.3136 28.115L16.2913 28.1105L9.17776 28.1108C8.12938 28.1112 6.41249 28.1712 5.42117 28.0808C5.51757 29.334 5.56838 32.0337 5.40757 33.2636C7.32882 33.0756 10.2347 33.2401 12.2355 33.2025C17.6642 33.1006 23.4353 33.387 28.8399 33.1243C28.6287 35.0138 28.8855 36.6149 28.8018 38.3695L9.65883 38.384C6.91925 38.3844 2.63274 38.5209 0 38.3625V12.7196Z" fill="#A5ACC3"/>
</svg>
