<svg xmlns="http://www.w3.org/2000/svg" width="119" height="15" viewBox="0 0 119 15" fill="none">
    <path
        d="M76.7675 0.082178C76.7908 0.0780584 76.8143 0.0739133 76.8376 0.0697685C79.3607 -0.00822607 81.8902 0.0693641 84.4155 0.0378225C85.3236 0.0264747 86.4797 0.000240585 87.3564 0.171267C88.4075 0.378739 89.3958 0.810287 90.2476 1.43374C95.4794 5.23325 93.5673 13.4737 86.7266 14.3533C85.8015 14.4688 83.8786 14.4498 82.9381 14.4075C79.5878 14.2571 76.1229 15.058 73.2637 13.031C71.7249 11.9286 70.6998 10.294 70.4087 8.47791C69.7641 4.30518 72.3409 0.696151 76.7675 0.082178ZM86.0013 11.4149C91.6289 10.9175 91.2209 3.12156 85.8256 3.06027C83.135 3.02972 80.2107 2.98284 77.5224 3.05727C73.3835 3.42593 72.1094 8.24754 74.9982 10.5026C75.5214 10.9091 76.1377 11.1916 76.7968 11.327C77.5613 11.4807 79.4626 11.4317 80.3107 11.4311C82.2075 11.4351 84.1043 11.4296 86.0013 11.4149Z"
        fill="#A5ACC3" />
    <path
        d="M49.1469 0.0457836C50.5208 0.0078731 51.9712 0.0518237 53.3478 0.0551851C55.2755 0.0483865 57.2035 0.0533404 59.1315 0.0700715C61.8176 0.0258679 64.5866 -0.323768 66.6033 1.53253C67.6789 2.52025 68.2987 3.87646 68.3257 5.30152C68.3384 6.69875 67.7742 8.04454 66.7557 9.04748C66.5532 9.24613 65.7409 9.88838 65.6752 10.0438C65.9166 10.6886 67.9901 13.2525 68.4807 13.9923C68.5389 14.08 68.8353 14.3136 68.9364 14.3886C67.8613 14.4116 65.9711 14.4576 64.9272 14.3931C64.0306 13.1765 63.1151 11.8473 62.1836 10.669L57.0373 10.6591C56.2847 10.6594 55.1755 10.6935 54.4467 10.6558C53.8415 10.6732 53.27 10.6629 52.6661 10.6516C52.6772 11.8656 52.6465 13.2058 52.7169 14.402C51.5621 14.4245 50.297 14.4023 49.1348 14.4015C49.1792 13.9899 49.1528 13.071 49.1533 12.6346L49.1536 9.10015C49.1528 6.19138 49.23 2.93355 49.1469 0.0457836ZM52.6941 7.69521C53.1858 7.69556 54.9495 7.6619 55.3411 7.71093C56.9389 7.657 62.6832 7.92381 63.7594 7.45931C64.3593 7.20033 64.842 6.68563 65.0695 6.09764C65.2849 5.54096 65.2384 4.94051 64.9772 4.40665C64.6573 3.75277 64.074 3.35431 63.3855 3.1139C62.5713 3.00594 61.3474 3.04023 60.4964 3.04086L55.4131 3.04769C54.6055 3.04928 53.4494 3.09184 52.6796 3.03262C52.7127 4.53727 52.6928 6.18021 52.6941 7.69521Z"
        fill="#A5ACC3" />
    <path
        d="M59.1321 0.0700715C61.8182 0.0258679 64.5872 -0.323768 66.6038 1.53253C67.6795 2.52025 68.2992 3.87646 68.3262 5.30152C68.3389 6.69875 67.7747 8.04454 66.7562 9.04748C66.5538 9.24613 65.7414 9.88838 65.6758 10.0438C65.9171 10.6886 67.9907 13.2525 68.4813 13.9923C68.5395 14.08 68.8359 14.3136 68.9369 14.3886C67.8618 14.4116 65.9716 14.4576 64.9277 14.3931C64.0312 13.1765 63.1156 11.8473 62.1842 10.669L57.0379 10.6591C56.2853 10.6594 55.176 10.6935 54.4473 10.6558L54.5108 10.5526C54.8566 10.47 55.112 10.586 55.4637 10.5149C55.4801 10.2823 55.6997 9.9132 55.818 9.69908C56.2289 8.95364 56.3552 8.32725 57.0371 7.77075C56.5949 7.76936 55.7354 7.80467 55.3417 7.71093C56.9394 7.657 62.6838 7.92381 63.76 7.45931C64.3599 7.20033 64.8425 6.68563 65.0701 6.09764C65.2855 5.54096 65.2389 4.94051 64.9777 4.40665C64.6578 3.75277 64.0746 3.35431 63.3861 3.1139L63.3961 3.06348L63.34 2.9913C63.0992 2.91667 61.1715 2.93904 60.7735 2.93312C61.0405 2.41203 61.8134 0.942821 61.6531 0.403759C61.2434 -0.0417899 59.7724 0.41028 59.1321 0.0700715Z"
        fill="#A5ACC3" />
    <path
        d="M27.6426 0C28.1631 0.152274 30.039 0.105416 30.677 0.105265L37.9201 0.0964186C39.1548 0.0915913 41.326 -0.0277255 42.4498 0.198423C46.0261 0.918091 47.9176 5.18231 45.915 8.12027C45.0783 9.34815 43.9973 10.1826 42.5761 10.4972C41.5152 10.7558 38.5396 10.6681 37.2519 10.6639C35.267 10.6573 33.04 10.7069 31.0673 10.6453C31.1464 11.6275 31.1213 13.3227 31.1559 14.4005C29.9405 14.4114 28.7252 14.4114 27.5098 14.4005C27.6069 12.9426 27.5743 11.3397 27.5746 9.86752L27.5709 3.10995C27.5698 2.58451 27.4756 0.291658 27.6426 0ZM31.0636 7.72194C34.5261 7.55559 38.3435 7.89926 41.8158 7.57785C42.1855 7.54361 42.5319 7.22779 42.7795 6.97806C43.865 6.10551 43.8245 4.82598 42.9476 3.82411C42.485 3.29563 41.7253 3.07558 41.018 3.06319C37.7153 3.00534 34.407 3.07808 31.103 3.03997C31.1012 4.27577 31.1671 6.58528 31.0636 7.72194Z"
        fill="#A5ACC3" />
    <path
        d="M107.322 8.04811C109.744 5.3894 112.336 2.79827 114.873 0.239788C115.212 -0.101811 117.879 0.0809176 118.536 0.0299912L118.53 9.61101C118.53 11.1003 118.481 12.9345 118.544 14.4049C117.663 14.4254 115.795 14.4468 114.946 14.3757C115.095 13.6533 115.022 12.2674 115.04 11.4913C115.091 9.33135 114.941 7.00454 115.07 4.85966C114.445 5.57551 113.772 6.22138 113.087 6.88307C111.456 8.45903 109.963 10.1648 108.286 11.6951C107.95 12.0014 107.637 12.3963 107.258 12.6456C106.517 12.3643 100.486 5.91195 99.3019 4.84945C99.3956 5.51116 99.3553 6.20225 99.3612 6.87015C99.3826 9.3771 99.3127 11.8999 99.3757 14.4054C98.8171 14.4074 96.095 14.4835 95.8153 14.2983C95.9084 13.7088 95.8539 11.7058 95.8544 11.0164L95.8573 5.08255C95.8576 4.1086 95.8235 2.93684 95.8674 1.98003C95.8211 1.45679 95.8772 0.946515 95.8047 0.348768L95.8288 0.154742C96.1026 -0.04813 98.988 0.0341613 99.3948 0.0766716C100.618 1.18219 102.178 2.87581 103.399 4.08614C104.405 5.08288 106.474 7.02855 107.322 8.04811Z"
        fill="#A5ACC3" />
    <path
        d="M95.8047 0.348807C96.2238 0.335108 96.3625 0.359927 96.7719 0.434712C96.9285 0.674989 97.0307 0.790413 97.2109 0.975543C98.1534 1.94279 96.7121 2.69107 96.1516 3.33757C96.1053 3.39107 96.0021 3.9571 95.9785 4.08069C95.9084 3.54415 96.0246 2.36966 95.8674 1.98007C95.8211 1.45683 95.8772 0.946554 95.8047 0.348807Z"
        fill="#A5ACC3" />
    <path
        d="M24.454 5.71231C24.6448 5.69558 24.8135 5.66052 24.9784 5.75072C25.0788 6.289 24.97 7.93144 25.0537 8.7224C23.6636 8.62833 21.5829 8.60763 20.193 8.6859C19.9846 8.71138 20.0163 8.7388 19.855 8.64774C19.6409 8.22681 19.7509 6.30164 19.768 5.72232C21.3033 5.75148 22.9218 5.77382 24.454 5.71231Z"
        fill="#A5ACC3" />
    <path
        d="M0 0.0444397C4.00272 0.118542 8.20332 0.0605641 12.2281 0.0583148L15.3119 0.0540182C15.7459 0.049848 16.9055 -0.0809684 17.1764 0.180033C17.2013 0.328111 17.1932 2.81282 17.1708 2.90314C16.7982 3.20552 8.66253 2.99001 7.40205 3.04852C6.57287 3.08701 4.11997 3.06924 3.25054 3.00254C3.33546 3.73331 3.28574 5.00533 3.24554 5.75558C7.38252 5.63366 11.6762 5.78763 15.8963 5.68287C15.73 6.52736 15.9264 8.12948 15.8083 8.60776C15.1468 8.71351 14.0317 8.66935 13.3283 8.66564L9.73109 8.66311L5.48204 8.66329C4.85582 8.66349 3.83029 8.69708 3.23816 8.64648C3.29574 9.34823 3.32609 10.86 3.23003 11.5488C4.37763 11.4435 6.11334 11.5356 7.30846 11.5146C10.5511 11.4575 13.9983 11.6179 17.2266 11.4708C17.1004 12.5289 17.2538 13.4254 17.2038 14.408L5.76939 14.4161C4.13299 14.4164 1.57258 14.4928 0 14.4041V0.0444397Z"
        fill="#A5ACC3" />
</svg>