<svg width="104" height="14" viewBox="0 0 104 14" fill="none" xmlns="http://www.w3.org/2000/svg">
<path d="M67.0498 0.0763666C67.0701 0.0725285 67.0907 0.0686667 67.111 0.0648051C69.3148 -0.00785879 71.5241 0.0644284 73.7298 0.0350426C74.523 0.0244703 75.5328 2.91997e-05 76.2985 0.159367C77.2165 0.352659 78.0797 0.754712 78.8237 1.33555C83.3933 4.87539 81.7232 12.5526 75.7484 13.3721C74.9404 13.4797 73.2608 13.462 72.4394 13.4226C69.5131 13.2825 66.4868 14.0287 63.9895 12.1402C62.6455 11.1132 61.7501 9.59023 61.4959 7.89829C60.9329 4.01074 63.1836 0.648377 67.0498 0.0763666ZM75.1149 10.6345C80.0302 10.1711 79.6738 2.90802 74.9614 2.85092C72.6113 2.82245 70.0572 2.77878 67.7092 2.84812C64.0942 3.19159 62.9813 7.68366 65.5045 9.78463C65.9614 10.1633 66.4997 10.4265 67.0755 10.5527C67.7432 10.6959 69.4038 10.6502 70.1446 10.6497C71.8013 10.6533 73.458 10.6483 75.1149 10.6345Z" fill="#A5ACC3"/>
<path d="M42.9266 0.0425017C44.1266 0.00718221 45.3934 0.048129 46.5957 0.0512607C48.2795 0.0449267 49.9635 0.049542 51.6474 0.0651296C53.9936 0.0239471 56.412 -0.301793 58.1734 1.42764C59.113 2.34785 59.6543 3.61137 59.6778 4.93903C59.6889 6.24076 59.1962 7.49458 58.3066 8.42897C58.1298 8.61404 57.4202 9.2124 57.3629 9.35721C57.5737 9.95797 59.3848 12.3466 59.8133 13.0359C59.8641 13.1175 60.123 13.3352 60.2113 13.4051C59.2722 13.4265 57.6213 13.4693 56.7095 13.4093C55.9265 12.2758 55.1268 11.0374 54.3132 9.9397L49.8183 9.9304C49.161 9.93068 48.1921 9.96251 47.5556 9.92741C47.027 9.94358 46.5278 9.93398 46.0004 9.92345C46.0101 11.0545 45.9833 12.3031 46.0447 13.4175C45.0361 13.4385 43.9311 13.4178 42.916 13.4171C42.9548 13.0336 42.9317 12.1775 42.9322 11.7709L42.9324 8.47804C42.9317 5.76807 42.9992 2.7329 42.9266 0.0425017ZM46.0249 7.16912C46.4543 7.16945 47.9947 7.13809 48.3368 7.18377C49.7323 7.13352 54.7496 7.3821 55.6896 6.94934C56.2135 6.70806 56.6351 6.22854 56.8339 5.68074C57.022 5.1621 56.9813 4.60269 56.7532 4.10532C56.4738 3.49613 55.9644 3.1249 55.363 2.90093C54.6518 2.80034 53.5829 2.83229 52.8396 2.83288L48.3997 2.83924C47.6943 2.84072 46.6845 2.88037 46.0122 2.8252C46.041 4.22701 46.0237 5.75766 46.0249 7.16912Z" fill="#A5ACC3"/>
<path d="M51.6465 0.0651296C53.9926 0.0239471 56.4111 -0.301793 58.1725 1.42764C59.1121 2.34785 59.6533 3.61137 59.6769 4.93903C59.688 6.24076 59.1953 7.49458 58.3057 8.42897C58.1288 8.61404 57.4193 9.2124 57.362 9.35721C57.5728 9.95797 59.3839 12.3466 59.8124 13.0359C59.8632 13.1175 60.1221 13.3352 60.2103 13.4051C59.2713 13.4265 57.6204 13.4693 56.7086 13.4093C55.9255 12.2758 55.1259 11.0374 54.3123 9.9397L49.8174 9.9304C49.1601 9.93068 48.1912 9.96251 47.5547 9.92741L47.6102 9.83122C47.9122 9.75425 48.1353 9.8623 48.4424 9.79611C48.4568 9.57941 48.6486 9.23552 48.7519 9.03604C49.1108 8.34154 49.2211 7.75797 49.8167 7.2395C49.4305 7.23821 48.6798 7.2711 48.3359 7.18377C49.7314 7.13352 54.7487 7.3821 55.6886 6.94934C56.2126 6.70806 56.6342 6.22854 56.8329 5.68074C57.0211 5.1621 56.9804 4.60269 56.7523 4.10532C56.4728 3.49613 55.9634 3.1249 55.3621 2.90093L55.3708 2.85395L55.3218 2.78671C55.1115 2.71717 53.4278 2.73801 53.0802 2.7325C53.3134 2.24702 53.9885 0.87823 53.8484 0.376011C53.4906 -0.0390865 52.2058 0.382086 51.6465 0.0651296Z" fill="#A5ACC3"/>
<path d="M24.1434 0C24.598 0.141867 26.2364 0.0982117 26.7937 0.0980704L33.12 0.0898288C34.1984 0.0853314 36.0948 -0.0258305 37.0764 0.184862C40.2 0.855343 41.8521 4.82812 40.103 7.56529C39.3721 8.70924 38.428 9.48664 37.1866 9.77972C36.2601 10.0207 33.6611 9.93901 32.5364 9.93504C30.8027 9.92889 28.8576 9.97511 27.1346 9.91773C27.2037 10.8328 27.1817 12.4121 27.212 13.4163C26.1504 13.4265 25.0889 13.4265 24.0273 13.4163C24.1122 12.0581 24.0837 10.5647 24.084 9.19311L24.0807 2.8974C24.0798 2.40787 23.9975 0.271724 24.1434 0ZM27.1313 7.19417C30.1556 7.03919 33.4898 7.35938 36.5226 7.05994C36.8455 7.02803 37.148 6.7338 37.3644 6.50114C38.3124 5.68822 38.2771 4.49614 37.5111 3.56274C37.1071 3.07039 36.4436 2.86537 35.8258 2.85384C32.9411 2.79994 30.0516 2.8677 27.1658 2.8322C27.1642 3.98354 27.2217 6.1352 27.1313 7.19417Z" fill="#A5ACC3"/>
<path d="M93.7391 7.49796C95.8551 5.02096 98.1182 2.60692 100.334 0.223309C100.63 -0.0949432 102.96 0.0752968 103.534 0.027851L103.528 8.95404C103.528 10.3415 103.486 12.0504 103.541 13.4203C102.772 13.4394 101.14 13.4593 100.399 13.3931C100.528 12.7201 100.464 11.4289 100.48 10.7058C100.524 8.6935 100.394 6.52571 100.507 4.52743C99.961 5.19436 99.373 5.79608 98.7749 6.41255C97.3498 7.8808 96.046 9.47001 94.5809 10.8957C94.2876 11.1811 94.0144 11.549 93.683 11.7813C93.0363 11.5192 87.7685 5.50781 86.7342 4.51792C86.816 5.13441 86.7809 5.77826 86.786 6.40052C86.8047 8.73612 86.7437 11.0865 86.7987 13.4208C86.3108 13.4226 83.9332 13.4935 83.6889 13.321C83.7703 12.7718 83.7227 10.9057 83.7231 10.2634L83.7257 4.73509C83.7259 3.82771 83.6961 2.73603 83.7345 1.84461C83.694 1.35713 83.743 0.881734 83.6797 0.32484L83.7007 0.144075C83.9399 -0.0449309 86.4601 0.0317361 86.8153 0.071341C87.8834 1.1013 89.2463 2.67917 90.3132 3.80677C91.1917 4.73539 92.9984 6.54808 93.7391 7.49796Z" fill="#A5ACC3"/>
<path d="M83.6797 0.32488C84.0458 0.312117 84.1669 0.33524 84.5244 0.404914C84.6613 0.628768 84.7505 0.736304 84.9079 0.908781C85.7311 1.80992 84.4722 2.50706 83.9827 3.10937C83.9422 3.15922 83.8521 3.68656 83.8315 3.8017C83.7703 3.30184 83.8718 2.20762 83.7345 1.84465C83.694 1.35717 83.743 0.881773 83.6797 0.32488Z" fill="#A5ACC3"/>
<path d="M21.3593 5.32172C21.526 5.30613 21.6733 5.27347 21.8173 5.35751C21.905 5.859 21.81 7.38918 21.8831 8.12608C20.6689 8.03845 18.8516 8.01916 17.6376 8.09208C17.4556 8.11582 17.4833 8.14137 17.3424 8.05653C17.1554 7.66437 17.2515 5.87077 17.2664 5.33104C18.6074 5.35822 20.021 5.37903 21.3593 5.32172Z" fill="#A5ACC3"/>
<path d="M0 0.041139C3.49608 0.110177 7.16499 0.0561614 10.6804 0.0540657L13.3738 0.0500628C13.7529 0.0461777 14.7657 -0.075698 15.0023 0.167465C15.024 0.305423 15.017 2.62031 14.9974 2.70446C14.672 2.98617 7.56608 2.78539 6.46514 2.8399C5.74092 2.87576 3.59849 2.85921 2.83911 2.79707C2.91327 3.47789 2.86985 4.66297 2.83474 5.36194C6.44809 5.24836 10.1983 5.3918 13.8842 5.2942C13.739 6.08098 13.9105 7.5736 13.8074 8.01919C13.2296 8.11771 12.2556 8.07657 11.6413 8.07311L8.49938 8.07076L4.78815 8.07092C4.2412 8.07111 3.34548 8.1024 2.82829 8.05527C2.87858 8.70905 2.90509 10.1175 2.82119 10.7592C3.82353 10.6611 5.33955 10.7469 6.38339 10.7273C9.21561 10.6742 12.2265 10.8236 15.0461 10.6865C14.936 11.6723 15.0699 12.5076 15.0263 13.423L5.03913 13.4306C3.60986 13.4308 1.37353 13.502 0 13.4194V0.041139Z" fill="#A5ACC3"/>
</svg>
