<svg width="136" height="21" viewBox="0 0 136 21" fill="none" xmlns="http://www.w3.org/2000/svg">
<path d="M11.0589 0.00779016C13.8024 -0.100577 16.8347 0.931249 18.8965 2.50377C21.2796 4.31282 22.734 6.88615 22.9327 9.64526C23.134 12.3459 22.1123 15.0071 20.0897 17.0508C17.6534 19.5001 14.8694 20.3965 11.2849 20.6077C11.0884 20.5805 10.7773 20.53 10.6117 20.4495C10.3103 20.3033 9.91252 19.6163 10.0779 19.3346C10.6047 18.4374 12.169 18.7436 13.1018 18.5183C14.0723 18.284 14.9847 18.0511 15.8637 17.608C17.2821 16.9017 18.5355 15.8398 19.3689 14.6214C20.691 12.7196 21.0861 10.4314 20.4655 8.27144C19.5719 5.14986 16.793 2.84749 13.2612 2.08942C12.1522 1.85136 9.2955 2.2607 10.3193 0.381975C10.4331 0.173188 10.8213 0.0539131 11.0589 0.00779016Z" fill="#A5ACC3"/>
<path d="M79.8483 6.44453C82.2727 6.18816 84.475 7.70404 84.7678 9.8306C85.0604 11.9571 83.3327 13.8893 80.9085 14.1465C78.4836 14.4038 76.2802 12.8878 75.9874 10.7606C75.6945 8.63349 77.4233 6.70097 79.8483 6.44453ZM80.8453 12.5696C82.2749 12.3424 83.2245 11.1423 82.9673 9.88803C82.7102 8.63376 81.3434 7.79923 79.9131 8.02322C78.4803 8.24761 77.5268 9.44918 77.7846 10.7057C78.0421 11.9623 79.4132 12.7971 80.8453 12.5696Z" fill="#A5ACC3"/>
<path d="M89.7045 6.44058C92.131 6.371 94.1626 8.03971 94.2426 10.1682C94.3228 12.2967 92.421 14.0792 89.9946 14.1503C87.5671 14.2212 85.5338 12.5522 85.4536 10.4227C85.3734 8.29325 87.277 6.51018 89.7045 6.44058ZM90.2688 13.1664C92.0756 12.9617 93.3517 11.5118 93.1204 9.92672C92.8889 8.34171 91.2374 7.22074 89.4301 7.42209C87.6202 7.62374 86.3401 9.07503 86.5719 10.6624C86.8037 12.2498 88.4595 13.3713 90.2688 13.1664Z" fill="#A5ACC3"/>
<path d="M47.2867 6.56508C47.3735 6.5553 47.4619 6.54694 47.5493 6.54556C48.3628 6.53284 52.4674 6.38131 52.881 6.74149C53.0637 6.90074 53.171 7.15638 53.1674 7.38071C53.165 7.54283 53.0929 7.68205 52.9608 7.79465C52.3775 8.29154 49.421 8.08424 48.548 8.07586L48.5579 9.50137C49.5136 9.48956 51.6482 9.28411 52.4664 9.77107C52.7592 9.9454 52.7832 10.56 52.492 10.7412C51.6941 11.2377 49.5064 11.0358 48.569 11.0341C48.5384 11.1667 48.5514 12.2605 48.5513 12.4658C49.3185 12.4258 50.1036 12.4597 50.8728 12.4595C51.3702 12.4593 51.8911 12.415 52.3847 12.4603C52.645 12.4843 52.9098 12.5542 53.0779 12.7412C53.2232 12.903 53.2752 13.1639 53.2432 13.3639C53.2138 13.5477 53.1209 13.7102 52.949 13.8221C52.5558 14.0779 48.2381 14.0569 47.5202 13.9636C47.3016 13.935 47.0877 13.8563 46.9551 13.6945C46.813 13.5209 46.7897 13.2791 46.7713 13.0714C46.6593 11.7983 46.7674 10.4564 46.7727 9.17756C46.7753 8.5668 46.6647 7.88164 46.7709 7.28257C46.833 6.93213 46.9648 6.77192 47.2867 6.56508Z" fill="#A5ACC3"/>
<path d="M55.5707 9.94447C56.6206 9.02571 57.6788 8.11438 58.7453 7.21059C60.6243 5.62206 61.6533 7.11126 59.9997 8.37253C59.2969 8.90848 58.6329 9.53664 57.9283 10.0899C58.6954 10.8734 59.8349 11.8351 60.6739 12.6267C60.8275 12.7539 61.0464 13.0756 61.0026 13.2434C60.4944 15.1911 58.4632 12.8802 58.0549 12.5026L55.6112 10.2365C55.662 10.9441 55.7526 12.6609 55.5908 13.3236C55.5383 13.5381 55.4445 13.7389 55.2239 13.8594C55.0101 13.9761 54.726 14.0002 54.484 13.9501C54.2974 13.9115 54.0992 13.811 54.0001 13.6625C53.7655 13.31 53.7235 7.60071 53.8892 7.03858C53.9712 6.76054 54.2052 6.63687 54.4724 6.50016C55.74 6.4669 55.6697 7.36452 55.6545 8.22105C55.6446 8.77844 55.6619 9.39687 55.5707 9.94447Z" fill="#A5ACC3"/>
<path d="M69.5122 6.56602C70.2561 6.47257 72.8277 6.50067 73.5008 6.61242C75.8681 7.00543 76.4946 10.2701 74.299 11.2925C73.549 11.7556 70.6856 12.1498 71.1232 10.7038C71.4297 9.69062 73.3773 10.7343 73.8836 9.27764C73.7072 7.65462 72.222 8.09694 70.7725 8.07685C70.8768 9.74206 70.7503 11.5421 70.783 13.2198C70.801 14.1475 68.9933 14.5 69.0027 12.9646C69.0144 11.0571 68.9462 9.12787 69.0247 7.21819C69.038 6.89195 69.2455 6.75611 69.5122 6.56602Z" fill="#A5ACC3"/>
<path d="M8.23081 0.833454C8.53665 0.804921 8.84905 0.826255 8.95614 1.13588C8.95904 1.14453 8.96173 1.15323 8.96419 1.162C9.14021 1.79253 7.36758 2.05996 6.86468 2.28527C4.95524 3.14077 3.42257 4.34959 2.37935 6.00148C1.08168 8.04058 0.758866 10.4479 1.48168 12.6954C2.25097 15.0856 4.13125 17.0816 6.66228 18.1949C7.32462 18.4893 8.04429 18.6807 8.71835 18.9511C9.1327 19.1173 8.93741 19.4806 8.77039 19.7366C8.03731 19.9034 6.39092 19.1921 5.70855 18.8594C3.13872 17.6019 1.24291 15.5011 0.437504 13.0185C-1.27346 7.73274 2.18106 2.33324 8.23081 0.833454Z" fill="#A5ACC3"/>
<path d="M130.955 6.54053C131.085 6.54185 131.239 6.55491 131.361 6.59516C131.695 6.70511 134.543 11.9746 134.916 12.6668C135.062 12.9357 135.354 13.3811 135.228 13.6784C135.184 13.7787 135.094 13.8725 134.981 13.9166C134.845 13.9702 134.72 13.9945 134.576 13.9424C134.146 13.7871 133.874 13.016 133.699 12.6571C132.999 12.6384 132.231 12.6495 131.526 12.6476L128.635 12.6503C128.42 13.0582 128.074 13.9059 127.556 13.9989C127.029 13.9554 126.946 13.4443 127.167 13.1299C127.93 12.0444 130.2 7.08021 130.955 6.54053ZM129.195 11.6909L131.268 11.6828L133.135 11.6868C132.911 11.2949 131.264 8.25646 131.13 8.168L129.195 11.6909Z" fill="#A5ACC3"/>
<path d="M33.9638 6.45643C34.3932 6.40869 34.9428 6.43868 35.3668 6.51265C36.4762 6.70548 37.4518 7.27909 38.0765 8.10596C38.7384 8.98259 38.9776 10.0533 38.7419 11.0843C38.5154 12.086 37.8446 12.9676 36.8771 13.5355C35.8975 14.0904 34.7079 14.2839 33.5666 14.074C32.5874 13.8966 31.1881 13.5333 31.4472 12.4391C32.2394 11.2548 33.4184 12.8554 34.8225 12.5916C37.9895 11.9967 37.6706 8.17725 34.4695 7.97413C33.4744 7.91098 32.1584 9.20958 31.4814 8.16477C30.9351 7.07918 33.1112 6.55457 33.9638 6.45643Z" fill="#A5ACC3"/>
<path d="M122.392 10.5491C122.91 9.89244 125.299 6.76944 125.884 6.56084C125.981 6.52604 126.106 6.53368 126.203 6.57254C126.333 6.62436 126.46 6.73464 126.509 6.85161C126.654 7.20064 126.635 13.4118 126.484 13.6753C126.386 13.8476 126.259 13.8904 126.065 13.9466C125.334 13.8769 125.461 13.2322 125.46 12.7534C125.457 11.7839 125.461 10.8141 125.465 9.84464L125.464 8.46318C124.617 9.49627 123.732 10.685 122.771 11.6357C122.533 11.871 122.058 11.7482 121.849 11.5079C120.98 10.506 120.149 9.46521 119.312 8.43969C119.383 10.0202 119.272 11.6697 119.345 13.2584C119.358 13.5356 119.04 13.9203 118.693 13.9789C118.37 13.8803 118.257 13.6484 118.25 13.3511C118.206 11.3237 118.237 9.29178 118.238 7.26343C118.239 6.80239 118.235 6.74013 118.647 6.48828C118.784 6.51579 119.048 6.574 119.134 6.6654C120.15 7.75046 121.534 9.39596 122.392 10.5491Z" fill="#A5ACC3"/>
<path d="M42.1522 6.49216C42.9269 6.47658 43.1146 6.71814 43.3928 7.30197C43.9883 8.55164 44.5845 9.80086 45.1701 11.0543C45.4918 11.7427 45.8516 12.4344 46.1016 13.1446C46.2181 13.49 45.9347 13.8407 45.5778 13.9679C45.3508 14.0491 45.0962 14.0462 44.8717 13.9601C44.3863 13.7771 43.9519 12.6083 43.7488 12.1738L42.5034 9.4801L42.4239 9.39288C42.1636 9.5464 40.6634 13.6104 40.0407 13.9151C39.8387 14.0139 39.5597 14.0333 39.3377 13.9886C39.1217 13.9452 38.9461 13.8336 38.8354 13.67C38.7209 13.5008 38.6834 13.2408 38.7558 13.0528C39.1242 12.097 39.6096 11.137 40.0539 10.1998C40.5808 9.08874 41.0751 7.90996 41.6934 6.84114C41.7814 6.68898 41.9874 6.5768 42.1522 6.49216Z" fill="#A5ACC3"/>
<path d="M116.607 6.5437C116.736 6.55486 116.918 6.59462 117.028 6.65231C117.136 6.70856 117.216 6.81287 117.245 6.91943C117.389 7.46973 117.371 13.5145 117.19 13.7535C117.097 13.8768 116.955 13.9629 116.788 13.9912C116.592 14.0244 116.47 13.9504 116.319 13.8589C116.129 13.5865 116.184 8.99006 116.21 8.36351C115.023 9.60336 113.844 10.8487 112.672 12.0993C112.228 12.5693 111.197 13.7186 110.702 14.049C110.585 14.0255 110.463 14.0027 110.35 13.9658C110.236 13.9281 110.151 13.8454 110.105 13.7491C109.94 13.4104 109.96 7.19365 110.138 6.82674C110.214 6.66956 110.296 6.61105 110.473 6.55053C111.395 6.64769 111.136 8.01499 111.135 8.60215L111.131 12.1866L114.59 8.53968C115.042 8.06362 116.116 6.87271 116.607 6.5437Z" fill="#A5ACC3"/>
<path d="M61.8854 6.55465C63.0247 6.48488 64.3146 6.56104 65.4747 6.53591C66.1583 6.52109 68.0309 6.36173 68.3228 6.96668C68.9885 8.34576 66.6183 8.0942 65.7481 8.08847C65.8354 9.19551 65.7701 11.0226 65.7698 12.1831L65.7712 13.4666C65.6751 13.6065 65.5707 13.7382 65.4302 13.847C65.2594 13.9792 65.0419 14.0214 64.8181 14.0055C64.5896 13.9892 64.3489 13.9023 64.199 13.7456C63.8197 13.3497 63.9219 8.83045 64.0033 8.07754C63.736 8.07342 63.3825 8.07932 63.1083 8.08912C62.3289 8.11698 61.1435 8.14377 61.3499 7.14142C61.4112 6.84436 61.6083 6.7171 61.8854 6.55465Z" fill="#A5ACC3"/>
<path d="M95.1523 6.56241C96.0386 6.5262 100.91 6.47445 101.523 6.63451C101.59 6.88635 101.635 7.14262 101.655 7.40078C101.806 9.23882 101.607 11.3674 101.662 13.2301C101.666 13.3644 101.515 13.8282 101.399 13.8899C100.305 14.4683 100.579 12.1477 100.579 11.6722L100.574 7.9891C100.57 7.87631 100.599 7.60706 100.608 7.48227C99.0527 7.46673 97.4971 7.46553 95.9417 7.47867L95.9524 11.3457C95.9533 11.87 96.0014 13.2986 95.862 13.7442C95.5981 14.0191 95.3359 14.0332 95.0132 13.8036C94.7044 13.3996 94.9569 9.02954 94.8722 8.25739C94.8277 7.85194 94.8289 6.88316 95.1523 6.56241Z" fill="#A5ACC3"/>
<path d="M10.9975 9.34331C12.0246 9.29649 18.6324 9.2308 19.1774 9.43416C19.4545 9.53753 19.6761 9.72863 19.7864 9.9758C19.8866 10.2021 19.88 10.4541 19.7681 10.6761C19.6101 10.9843 19.364 11.1169 19.0213 11.2321C18.0306 11.27 11.1221 11.318 10.6823 11.1262C10.4265 11.0171 10.2329 10.821 10.1463 10.5833C9.92803 9.98977 10.3702 9.51971 10.9975 9.34331Z" fill="#A5ACC3"/>
<path d="M102.76 6.58058C103.556 6.53848 108.778 6.44503 109.144 6.69681C109.245 6.76654 109.302 6.8706 109.313 6.98331C109.331 7.15245 109.224 7.28751 109.103 7.40771C108.714 7.59213 106.975 7.51173 106.422 7.50433C106.46 8.83768 106.424 10.31 106.424 11.6549C106.419 12.3093 106.52 12.9944 106.358 13.629C106.225 14.1501 105.448 14.0416 105.395 13.627C105.308 12.9479 105.34 12.1519 105.341 11.4693L105.356 7.50863C104.654 7.51153 103.071 7.65026 102.564 7.3282C102.345 6.99464 102.448 6.80645 102.76 6.58058Z" fill="#A5ACC3"/>
<path d="M33.7411 9.52698C34.5577 9.43851 36.8881 9.20295 36.6971 10.3603C36.6468 10.6649 36.4655 10.7981 36.2092 10.9787C35.7683 11.0676 34.8028 11.0658 34.3246 11.0501C33.22 11.0139 32.8356 10.1564 33.7411 9.52698Z" fill="#A5ACC3"/>
</svg>
