<svg width="254" height="51" viewBox="0 0 254 51" fill="none" xmlns="http://www.w3.org/2000/svg">
<path d="M25.7962 4.70671C30.7425 4.48707 36.2097 6.57841 39.9269 9.76564C44.2236 13.4323 46.8458 18.648 47.204 24.2403C47.5669 29.7141 45.7248 35.1079 42.0782 39.2501C37.6857 44.2145 32.6663 46.0312 26.2037 46.4594C25.8494 46.4043 25.2885 46.3018 24.9899 46.1388C24.4466 45.8423 23.7294 44.4499 24.0275 43.8789C24.9773 42.0605 27.7978 42.681 29.4795 42.2245C31.2292 41.7496 32.8743 41.2774 34.4589 40.3795C37.0163 38.9478 39.276 36.7955 40.7787 34.3261C43.1623 30.4715 43.8748 25.8337 42.7558 21.4558C41.1446 15.1288 36.1345 10.4623 29.7669 8.92582C27.7673 8.44332 22.6169 9.27299 24.4628 5.46512C24.668 5.04194 25.3679 4.80019 25.7962 4.70671Z" fill="#A5ACC3"/>
<path d="M149.822 17.7524C154.193 17.2328 158.163 20.3052 158.691 24.6154C159.219 28.9255 156.104 32.8418 151.733 33.363C147.361 33.8844 143.388 30.8118 142.861 26.5004C142.333 22.189 145.449 18.2721 149.822 17.7524ZM151.619 30.1668C154.196 29.7064 155.909 27.274 155.445 24.7318C154.981 22.1896 152.517 20.4981 149.938 20.9521C147.355 21.4069 145.636 23.8423 146.101 26.3892C146.565 28.936 149.037 30.628 151.619 30.1668Z" fill="#A5ACC3"/>
<path d="M167.591 17.7442C171.966 17.6032 175.629 20.9854 175.773 25.2996C175.918 29.6136 172.489 33.2265 168.114 33.3705C163.738 33.5142 160.072 30.1314 159.927 25.8154C159.783 21.4993 163.215 17.8853 167.591 17.7442ZM168.609 31.3764C171.866 30.9616 174.167 28.0228 173.75 24.8101C173.333 21.5975 170.355 19.3255 167.097 19.7336C163.834 20.1423 161.526 23.0838 161.943 26.3013C162.361 29.5187 165.347 31.7917 168.609 31.3764Z" fill="#A5ACC3"/>
<path d="M91.1156 17.9968C91.2721 17.977 91.4315 17.96 91.5892 17.9573C93.0558 17.9315 100.456 17.6243 101.202 18.3544C101.531 18.6771 101.725 19.1953 101.718 19.65C101.714 19.9785 101.584 20.2607 101.346 20.489C100.294 21.4961 94.9637 21.0759 93.3897 21.0589L93.4076 23.9482C95.1306 23.9243 98.9792 23.5078 100.454 24.4948C100.982 24.8482 101.026 26.0939 100.501 26.4611C99.0619 27.4675 95.1177 27.0582 93.4276 27.0548C93.3724 27.3235 93.3959 29.5404 93.3957 29.9567C94.7788 29.8754 96.1944 29.9443 97.5812 29.9438C98.4779 29.9435 99.4172 29.8537 100.307 29.9455C100.776 29.994 101.254 30.1358 101.557 30.5148C101.819 30.8427 101.913 31.3715 101.855 31.7768C101.802 32.1495 101.634 32.4789 101.324 32.7056C100.616 33.2241 92.831 33.1814 91.5367 32.9923C91.1426 32.9345 90.7569 32.7749 90.5178 32.4469C90.2615 32.095 90.2197 31.6051 90.1865 31.1841C89.9845 28.6036 90.1793 25.8838 90.189 23.2919C90.1937 22.054 89.9942 20.6653 90.1858 19.451C90.2977 18.7408 90.5353 18.416 91.1156 17.9968Z" fill="#A5ACC3"/>
<path d="M106.05 24.8461C107.943 22.984 109.851 21.1369 111.774 19.305C115.161 16.0853 117.017 19.1037 114.035 21.6601C112.768 22.7464 111.571 24.0195 110.301 25.1409C111.684 26.729 113.738 28.6782 115.251 30.2826C115.528 30.5403 115.922 31.1923 115.843 31.5325C114.927 35.4803 111.265 30.7963 110.529 30.0311L106.123 25.4381C106.215 26.8722 106.378 30.3519 106.086 31.695C105.992 32.1299 105.823 32.5369 105.425 32.7812C105.039 33.0176 104.527 33.0664 104.091 32.9649C103.754 32.8866 103.397 32.6831 103.218 32.3819C102.795 31.6675 102.72 20.0957 103.018 18.9564C103.166 18.3928 103.588 18.1422 104.07 17.8651C106.355 17.7977 106.229 19.617 106.201 21.3531C106.183 22.4828 106.214 23.7362 106.05 24.8461Z" fill="#A5ACC3"/>
<path d="M131.184 17.9985C132.526 17.8091 137.162 17.8661 138.376 18.0926C142.644 18.8891 143.773 25.5061 139.815 27.5783C138.462 28.5171 133.3 29.316 134.089 26.3851C134.642 24.3316 138.153 26.4471 139.066 23.4945C138.748 20.2049 136.07 21.1015 133.457 21.0607C133.645 24.4358 133.417 28.0842 133.476 31.4846C133.508 33.365 130.249 34.0795 130.266 30.9675C130.287 27.1013 130.164 23.191 130.306 19.3204C130.33 18.6592 130.704 18.3838 131.184 17.9985Z" fill="#A5ACC3"/>
<path d="M20.6981 6.37956C21.2495 6.32173 21.8127 6.36497 22.0058 6.99254C22.011 7.01006 22.0159 7.0277 22.0203 7.04546C22.3377 8.32344 19.1417 8.86548 18.235 9.32216C14.7924 11.0561 12.0291 13.5062 10.1482 16.8543C7.80861 20.9872 7.22659 25.8665 8.52979 30.4219C9.91676 35.2664 13.3068 39.312 17.8701 41.5684C19.0643 42.165 20.3618 42.553 21.5771 43.1011C22.3241 43.4378 21.972 44.1743 21.6709 44.6931C20.3492 45.0313 17.3808 43.5896 16.1506 42.9152C11.5173 40.3664 8.0993 36.1085 6.64719 31.0766C3.56243 20.3633 9.79073 9.41938 20.6981 6.37956Z" fill="#A5ACC3"/>
<path d="M241.963 17.9468C242.197 17.9495 242.476 17.9759 242.696 18.0575C243.297 18.2804 248.432 28.9607 249.106 30.3638C249.368 30.9087 249.895 31.8116 249.668 32.414C249.588 32.6173 249.425 32.8074 249.222 32.897C248.977 33.0055 248.752 33.0548 248.492 32.9492C247.717 32.6344 247.226 31.0714 246.91 30.344C245.648 30.3062 244.264 30.3287 242.993 30.3247L237.781 30.3304C237.392 31.1571 236.769 32.8752 235.835 33.0636C234.884 32.9755 234.736 31.9397 235.135 31.3023C236.51 29.1022 240.603 19.0406 241.963 17.9468ZM238.79 28.3858L242.528 28.3694L245.894 28.3775C245.489 27.5832 242.521 21.4247 242.278 21.2454L238.79 28.3858Z" fill="#A5ACC3"/>
<path d="M67.0942 17.7768C67.8683 17.68 68.8593 17.7408 69.6237 17.8907C71.6238 18.2815 73.3828 19.4442 74.5092 21.1201C75.7024 22.8969 76.1337 25.0671 75.7089 27.1567C75.3004 29.1869 74.091 30.9739 72.3467 32.1249C70.5806 33.2496 68.4357 33.6417 66.3779 33.2164C64.6126 32.8567 62.0897 32.1205 62.5568 29.9026C63.9852 27.5022 66.1108 30.7464 68.6424 30.2118C74.3522 29.0061 73.7774 21.2646 68.0059 20.8529C66.2118 20.7249 63.8392 23.3569 62.6185 21.2393C61.6336 19.039 65.557 17.9757 67.0942 17.7768Z" fill="#A5ACC3"/>
<path d="M226.524 26.0719C227.459 24.741 231.766 18.4112 232.82 17.9884C232.996 17.9178 233.221 17.9333 233.396 18.0121C233.629 18.1171 233.859 18.3406 233.947 18.5777C234.21 19.2851 234.174 31.8741 233.902 32.4083C233.725 32.7575 233.497 32.8441 233.147 32.9581C231.829 32.8168 232.058 31.5101 232.055 30.5396C232.05 28.5748 232.059 26.6089 232.064 24.6441L232.063 21.8441C230.536 23.938 228.941 26.3474 227.208 28.2744C226.78 28.7512 225.922 28.5023 225.546 28.0152C223.98 25.9845 222.481 23.875 220.971 21.7965C221.099 24.9999 220.9 28.3432 221.032 31.5633C221.055 32.125 220.482 32.9049 219.855 33.0235C219.273 32.8236 219.069 32.3536 219.058 31.7512C218.977 27.6419 219.034 23.5235 219.036 19.4124C219.036 18.478 219.03 18.3518 219.772 17.8413C220.02 17.8971 220.496 18.015 220.65 18.2003C222.482 20.3995 224.977 23.7347 226.524 26.0719Z" fill="#A5ACC3"/>
<path d="M81.8567 17.8488C83.2535 17.8173 83.5919 18.3069 84.0935 19.4902C85.1671 22.0231 86.2421 24.555 87.2979 27.0955C87.878 28.4908 88.5266 29.8927 88.9774 31.3322C89.1873 32.0323 88.6764 32.7431 88.0329 33.001C87.6237 33.1655 87.1647 33.1596 86.76 32.9852C85.8848 32.6142 85.1015 30.2453 84.7354 29.3646L82.49 23.9049L82.3467 23.7281C81.8773 24.0393 79.1726 32.2763 78.0499 32.8939C77.6858 33.0942 77.1827 33.1335 76.7824 33.043C76.393 32.9549 76.0764 32.7287 75.8768 32.3971C75.6704 32.0542 75.6028 31.5271 75.7333 31.1462C76.3975 29.209 77.2726 27.2632 78.0737 25.3637C79.0236 23.1117 79.9148 20.7225 81.0296 18.5562C81.1883 18.2478 81.5597 18.0204 81.8567 17.8488Z" fill="#A5ACC3"/>
<path d="M216.095 17.9536C216.327 17.9762 216.656 18.0568 216.855 18.1737C217.049 18.2877 217.194 18.4992 217.245 18.7151C217.506 19.8305 217.472 32.0824 217.146 32.5667C216.978 32.8166 216.723 32.9911 216.422 33.0484C216.068 33.1158 215.849 32.9657 215.576 32.7803C215.234 32.2283 215.333 22.912 215.379 21.6421C213.24 24.155 211.113 26.6791 209.001 29.2139C208.2 30.1666 206.342 32.496 205.449 33.1656C205.238 33.118 205.017 33.0719 204.815 32.997C204.609 32.9206 204.456 32.7529 204.372 32.5577C204.075 31.8713 204.111 19.271 204.432 18.5273C204.57 18.2087 204.718 18.0901 205.035 17.9674C206.699 18.1644 206.231 20.9357 206.229 22.1258L206.221 29.3908L212.458 21.9991C213.273 21.0342 215.211 18.6205 216.095 17.9536Z" fill="#A5ACC3"/>
<path d="M117.436 17.9758C119.49 17.8344 121.815 17.9888 123.907 17.9378C125.139 17.9078 128.515 17.5848 129.042 18.8109C130.242 21.6061 125.969 21.0963 124.4 21.0846C124.557 23.3284 124.439 27.0316 124.439 29.3837L124.441 31.9852C124.268 32.2687 124.08 32.5357 123.827 32.7563C123.519 33.0242 123.127 33.1096 122.723 33.0774C122.311 33.0445 121.877 32.8683 121.607 32.5508C120.923 31.7482 121.107 22.5885 121.254 21.0625C120.772 21.0541 120.135 21.0661 119.64 21.086C118.235 21.1424 116.098 21.1967 116.47 19.1651C116.58 18.563 116.936 18.3051 117.436 17.9758Z" fill="#A5ACC3"/>
<path d="M177.414 17.9913C179.012 17.9179 187.794 17.813 188.899 18.1374C189.021 18.6479 189.101 19.1673 189.137 19.6905C189.41 23.416 189.052 27.7302 189.15 31.5057C189.157 31.7778 188.886 32.718 188.675 32.8429C186.704 34.0152 187.199 29.3117 187.197 28.3481L187.189 20.883C187.182 20.6544 187.234 20.1087 187.25 19.8557C184.446 19.8242 181.641 19.8218 178.837 19.8484L178.856 27.6863C178.858 28.749 178.945 31.6445 178.693 32.5476C178.218 33.1047 177.745 33.1333 177.163 32.6679C176.606 31.8493 177.061 22.9918 176.909 21.4268C176.829 20.605 176.831 18.6414 177.414 17.9913Z" fill="#A5ACC3"/>
<path d="M25.6863 23.6279C27.5381 23.533 39.4516 23.3998 40.4341 23.812C40.9337 24.0215 41.3333 24.4089 41.5321 24.9098C41.7128 25.3686 41.7009 25.8793 41.4992 26.3293C41.2142 26.954 40.7706 27.2226 40.1527 27.4562C38.3665 27.533 25.9108 27.6302 25.1179 27.2414C24.6569 27.0203 24.3077 26.6228 24.1516 26.1411C23.7581 24.9381 24.5552 23.9854 25.6863 23.6279Z" fill="#A5ACC3"/>
<path d="M191.129 18.028C192.563 17.9427 201.979 17.7533 202.638 18.2636C202.821 18.405 202.922 18.6159 202.943 18.8443C202.975 19.1871 202.782 19.4609 202.565 19.7045C201.863 20.0783 198.728 19.9153 197.731 19.9003C197.799 22.6028 197.734 25.587 197.734 28.3129C197.725 29.6392 197.907 31.0279 197.615 32.3141C197.375 33.3702 195.974 33.1504 195.879 32.31C195.723 30.9335 195.78 29.3202 195.782 27.9367L195.808 19.909C194.543 19.9149 191.689 20.1961 190.775 19.5434C190.38 18.8673 190.565 18.4858 191.129 18.028Z" fill="#A5ACC3"/>
<path d="M66.6918 24.0002C68.164 23.8209 72.3657 23.3435 72.0213 25.6892C71.9307 26.3065 71.6037 26.5767 71.1417 26.9427C70.3468 27.1228 68.6059 27.1191 67.7439 27.0874C65.7523 27.014 65.0593 25.2761 66.6918 24.0002Z" fill="#A5ACC3"/>
</svg>
