<svg width="132" height="23" viewBox="0 0 132 23" fill="none" xmlns="http://www.w3.org/2000/svg">
<path d="M10.7319 0.00869625C13.3942 -0.112275 16.3369 1.03956 18.3377 2.79498C20.6504 4.81445 22.0618 7.68709 22.2546 10.7671C22.4499 13.7819 21.4584 16.7526 19.4956 19.034C17.1314 21.7682 14.4297 22.7688 10.9512 23.0047C10.7605 22.9743 10.4586 22.9179 10.2979 22.8281C10.0054 22.6648 9.61939 21.8979 9.77988 21.5834C10.2911 20.5819 11.8092 20.9237 12.7144 20.6722C13.6562 20.4107 14.5416 20.1506 15.3946 19.656C16.7711 18.8675 17.9874 17.6821 18.7962 16.322C20.0791 14.1991 20.4626 11.6447 19.8604 9.23351C18.9932 5.74885 16.2964 3.17869 12.8691 2.33244C11.7928 2.0667 9.02061 2.52365 10.0142 0.426403C10.1246 0.193331 10.5013 0.0601839 10.7319 0.00869625Z" fill="#A5ACC3"/>
<path d="M77.4891 7.19391C79.8418 6.90773 81.979 8.59992 82.2631 10.9738C82.547 13.3477 80.8705 15.5046 78.5179 15.7917C76.1647 16.0789 74.0264 14.3866 73.7423 12.012C73.4581 9.63747 75.1357 7.48018 77.4891 7.19391ZM78.4566 14.0314C79.8439 13.7778 80.7655 12.4381 80.5159 11.0379C80.2663 9.63778 78.9399 8.70618 77.552 8.95623C76.1615 9.20672 75.2362 10.548 75.4863 11.9508C75.7363 13.3535 77.0668 14.2854 78.4566 14.0314Z" fill="#A5ACC3"/>
<path d="M87.0533 7.18984C89.4081 7.11217 91.3796 8.97498 91.4573 11.3511C91.5351 13.7271 89.6896 15.717 87.3349 15.7963C84.9791 15.8754 83.006 14.0123 82.9282 11.6352C82.8503 9.258 84.6976 7.26754 87.0533 7.18984ZM87.601 14.698C89.3543 14.4695 90.5928 12.8509 90.3682 11.0815C90.1436 9.3121 88.541 8.06075 86.7871 8.28552C85.0307 8.51062 83.7884 10.1307 84.0133 11.9028C84.2383 13.6748 85.8451 14.9267 87.601 14.698Z" fill="#A5ACC3"/>
<path d="M45.8891 7.32838C45.9733 7.31747 46.0591 7.30813 46.144 7.3066C46.9334 7.29239 50.9166 7.12324 51.318 7.52532C51.4953 7.70308 51.5994 7.98846 51.596 8.23889C51.5936 8.41985 51.5236 8.57527 51.3954 8.70097C50.8294 9.25566 47.9603 9.02424 47.1131 9.01488L47.1227 10.6062C48.0501 10.593 50.1217 10.3637 50.9157 10.9073C51.1998 11.1019 51.2231 11.788 50.9405 11.9902C50.1662 12.5445 48.0432 12.3191 47.1335 12.3172C47.1038 12.4652 47.1165 13.6862 47.1163 13.9155C47.8608 13.8707 48.6227 13.9086 49.3692 13.9084C49.8518 13.9082 50.3574 13.8588 50.8364 13.9093C51.0889 13.936 51.346 14.0141 51.5091 14.2229C51.6501 14.4035 51.7005 14.6947 51.6695 14.918C51.641 15.1232 51.5508 15.3046 51.3839 15.4295C51.0025 15.7151 46.8124 15.6915 46.1157 15.5874C45.9036 15.5555 45.696 15.4676 45.5673 15.287C45.4294 15.0932 45.4068 14.8233 45.389 14.5915C45.2803 13.1703 45.3851 11.6723 45.3903 10.2447C45.3929 9.56293 45.2855 8.79807 45.3886 8.12933C45.4488 7.73812 45.5767 7.55928 45.8891 7.32838Z" fill="#A5ACC3"/>
<path d="M53.9282 11.1015C54.947 10.0759 55.974 9.05859 57.009 8.04967C58.8324 6.27637 59.8309 7.93879 58.2262 9.34677C57.5442 9.94505 56.8998 10.6463 56.2161 11.2639C56.9604 12.1386 58.0663 13.2121 58.8805 14.0958C59.0296 14.2377 59.242 14.5968 59.1995 14.7842C58.7063 16.9584 56.7351 14.3787 56.339 13.9572L53.9675 11.4276C54.0168 12.2174 54.1047 14.1339 53.9476 14.8737C53.8967 15.1132 53.8057 15.3373 53.5916 15.4719C53.3841 15.6021 53.1084 15.629 52.8736 15.5731C52.6926 15.5299 52.5001 15.4178 52.4041 15.252C52.1763 14.8585 52.1356 8.48517 52.2964 7.85766C52.376 7.54728 52.603 7.40923 52.8623 7.25662C54.0925 7.21948 54.0243 8.22151 54.0095 9.17767C53.9999 9.79989 54.0167 10.4902 53.9282 11.1015Z" fill="#A5ACC3"/>
<path d="M67.4576 7.3294C68.1795 7.22508 70.675 7.25645 71.3282 7.3812C73.6256 7.81991 74.2335 11.4643 72.1028 12.6056C71.375 13.1226 68.5963 13.5627 69.021 11.9484C69.3184 10.8174 71.2084 11.9826 71.6997 10.3564C71.5285 8.54461 70.0873 9.03839 68.6807 9.01596C68.7818 10.8748 68.6591 12.8842 68.6908 14.7571C68.7083 15.7927 66.954 16.1862 66.9632 14.4723C66.9745 12.3429 66.9083 10.1892 66.9845 8.05742C66.9974 7.69324 67.1988 7.5416 67.4576 7.3294Z" fill="#A5ACC3"/>
<path d="M7.98745 0.929987C8.28424 0.898135 8.58741 0.921951 8.69134 1.26759C8.69415 1.27724 8.69676 1.28696 8.69915 1.29674C8.86996 2.00061 7.14974 2.29915 6.66171 2.55067C4.80872 3.50567 3.32138 4.85509 2.309 6.69912C1.0497 8.9754 0.736429 11.6627 1.43788 14.1717C2.18441 16.8399 4.0091 19.068 6.4653 20.3108C7.10805 20.6394 7.80644 20.8531 8.46057 21.155C8.86267 21.3404 8.67316 21.746 8.51108 22.0318C7.79967 22.218 6.20196 21.424 5.53977 21.0526C3.04592 19.6488 1.20617 17.3037 0.424568 14.5323C-1.23581 8.63174 2.11658 2.60422 7.98745 0.929987Z" fill="#A5ACC3"/>
<path d="M127.083 7.30103C127.21 7.3025 127.36 7.31709 127.478 7.36201C127.802 7.48475 130.566 13.3671 130.928 14.1399C131.069 14.44 131.353 14.9373 131.231 15.2691C131.188 15.3811 131.1 15.4857 130.991 15.5351C130.859 15.5949 130.738 15.622 130.598 15.5638C130.181 15.3905 129.916 14.5296 129.746 14.129C129.067 14.1082 128.322 14.1205 127.638 14.1184L124.833 14.1215C124.623 14.5768 124.288 15.5231 123.785 15.6269C123.273 15.5783 123.194 15.0078 123.408 14.6568C124.149 13.4451 126.351 7.90348 127.083 7.30103ZM125.376 13.0505L127.388 13.0415L129.2 13.0459C128.982 12.6084 127.384 9.21654 127.253 9.1178L125.376 13.0505Z" fill="#A5ACC3"/>
<path d="M32.9601 7.20765C33.3768 7.15436 33.9102 7.18784 34.3217 7.27041C35.3982 7.48566 36.3449 8.126 36.9512 9.04904C37.5935 10.0276 37.8256 11.2229 37.597 12.3738C37.3771 13.492 36.7262 14.4762 35.7873 15.1101C34.8367 15.7295 33.6822 15.9455 32.5746 15.7113C31.6244 15.5132 30.2664 15.1077 30.5179 13.8862C31.2867 12.5641 32.4308 14.3509 33.7934 14.0564C36.8667 13.3924 36.5573 9.12862 33.4509 8.90188C32.4852 8.83138 31.2081 10.281 30.5511 9.11469C30.021 7.90283 32.1327 7.31721 32.9601 7.20765Z" fill="#A5ACC3"/>
<path d="M118.772 11.776C119.276 11.043 121.594 7.55678 122.161 7.32392C122.256 7.28507 122.377 7.2936 122.471 7.33698C122.597 7.39483 122.72 7.51794 122.768 7.6485C122.909 8.03814 122.89 14.9717 122.744 15.2659C122.648 15.4582 122.525 15.506 122.337 15.5687C121.628 15.4909 121.751 14.7712 121.75 14.2367C121.747 13.1545 121.751 12.0718 121.755 10.9897L121.754 9.44752C120.932 10.6008 120.073 11.9278 119.141 12.9891C118.91 13.2517 118.448 13.1146 118.246 12.8464C117.403 11.7279 116.596 10.5661 115.784 9.4213C115.853 11.1856 115.745 13.027 115.816 14.8005C115.828 15.1099 115.52 15.5394 115.183 15.6047C114.87 15.4947 114.76 15.2358 114.754 14.904C114.71 12.6407 114.741 10.3725 114.742 8.10822C114.742 7.59356 114.738 7.52407 115.138 7.24292C115.271 7.27363 115.528 7.33861 115.611 7.44065C116.597 8.6519 117.94 10.4888 118.772 11.776Z" fill="#A5ACC3"/>
<path d="M40.9061 7.24737C41.6579 7.22998 41.8401 7.49963 42.11 8.15137C42.6879 9.54639 43.2665 10.9409 43.8348 12.3401C44.147 13.1086 44.4962 13.8807 44.7388 14.6735C44.8518 15.0591 44.5768 15.4506 44.2305 15.5927C44.0102 15.6833 43.7631 15.68 43.5453 15.5839C43.0742 15.3797 42.6526 14.0749 42.4556 13.5899L41.247 10.5828L41.1698 10.4855C40.9172 10.6569 39.4614 15.1935 38.8571 15.5337C38.6611 15.644 38.3903 15.6656 38.1749 15.6158C37.9653 15.5673 37.7948 15.4427 37.6874 15.26C37.5763 15.0712 37.5399 14.7809 37.6101 14.5711C37.9677 13.5041 38.4387 12.4325 38.8699 11.3863C39.3812 10.146 39.8609 8.83008 40.4609 7.63693C40.5463 7.46708 40.7462 7.34185 40.9061 7.24737Z" fill="#A5ACC3"/>
<path d="M113.16 7.30469C113.284 7.31715 113.461 7.36152 113.568 7.42593C113.673 7.48872 113.751 7.60516 113.778 7.72412C113.919 8.33842 113.901 15.0863 113.725 15.3531C113.635 15.4907 113.497 15.5868 113.335 15.6184C113.145 15.6555 113.027 15.5728 112.88 15.4707C112.696 15.1667 112.749 10.0356 112.774 9.33616C111.623 10.7202 110.478 12.1104 109.341 13.5065C108.91 14.0312 107.91 15.3141 107.429 15.6829C107.316 15.6567 107.197 15.6313 107.088 15.59C106.977 15.548 106.895 15.4557 106.849 15.3481C106.69 14.9701 106.709 8.03023 106.882 7.62064C106.956 7.44519 107.036 7.37987 107.207 7.31231C108.102 7.42077 107.85 8.94711 107.849 9.60256L107.845 13.6039L111.202 9.53282C111.641 9.00139 112.683 7.67197 113.16 7.30469Z" fill="#A5ACC3"/>
<path d="M60.0564 7.31665C61.162 7.23876 62.4137 7.32378 63.5396 7.29572C64.2029 7.27918 66.0202 7.10129 66.3035 7.7766C66.9495 9.31608 64.6493 9.03527 63.8049 9.02887C63.8896 10.2647 63.8262 12.3042 63.8259 13.5997L63.8273 15.0325C63.734 15.1887 63.6327 15.3357 63.4964 15.4572C63.3306 15.6048 63.1196 15.6518 62.9024 15.6341C62.6806 15.6159 62.447 15.5189 62.3015 15.344C61.9335 14.902 62.0326 9.85715 62.1117 9.01667C61.8522 9.01207 61.5092 9.01866 61.2431 9.0296C60.4868 9.0607 59.3364 9.0906 59.5367 7.97166C59.5961 7.64005 59.7875 7.49799 60.0564 7.31665Z" fill="#A5ACC3"/>
<path d="M92.3407 7.32584C93.2008 7.28541 97.9279 7.22765 98.5226 7.40632C98.5884 7.68745 98.6313 7.97353 98.6507 8.26172C98.7979 10.3135 98.6049 12.6897 98.6577 14.7691C98.6615 14.9189 98.5154 15.4368 98.4022 15.5056C97.3412 16.1512 97.6074 13.5607 97.6065 13.03L97.6021 8.91846C97.5982 8.79256 97.6263 8.49199 97.6352 8.35269C96.1258 8.33534 94.6162 8.33399 93.1067 8.34867L93.1171 12.6655C93.118 13.2508 93.1647 14.8456 93.0294 15.343C92.7733 15.6498 92.5188 15.6655 92.2057 15.4092C91.906 14.9583 92.151 10.0799 92.0688 9.21797C92.0256 8.76536 92.0268 7.68389 92.3407 7.32584Z" fill="#A5ACC3"/>
<path d="M10.6719 10.4298C11.6686 10.3775 18.081 10.3042 18.6099 10.5312C18.8788 10.6466 19.0939 10.8599 19.2009 11.1358C19.2981 11.3885 19.2917 11.6698 19.1831 11.9176C19.0298 12.2617 18.791 12.4097 18.4584 12.5383C17.497 12.5806 10.7927 12.6341 10.3659 12.42C10.1178 12.2982 9.92984 12.0793 9.84582 11.814C9.63398 11.1514 10.063 10.6267 10.6719 10.4298Z" fill="#A5ACC3"/>
<path d="M99.7219 7.34642C100.494 7.29943 105.562 7.19511 105.917 7.47617C106.015 7.55401 106.07 7.67017 106.081 7.796C106.098 7.98481 105.994 8.13558 105.877 8.26976C105.499 8.47563 103.812 8.38588 103.276 8.37762C103.312 9.86606 103.277 11.5096 103.277 13.011C103.272 13.7414 103.37 14.5063 103.213 15.2147C103.084 15.7964 102.33 15.6753 102.278 15.2124C102.194 14.4543 102.225 13.5658 102.226 12.8038L102.24 8.38241C101.559 8.38565 100.023 8.54052 99.5312 8.18101C99.3187 7.80864 99.4182 7.59857 99.7219 7.34642Z" fill="#A5ACC3"/>
<path d="M32.7437 10.635C33.5362 10.5363 35.7977 10.2733 35.6124 11.5652C35.5636 11.9053 35.3876 12.054 35.1389 12.2556C34.711 12.3548 33.774 12.3528 33.31 12.3353C32.238 12.2949 31.8651 11.3377 32.7437 10.635Z" fill="#A5ACC3"/>
</svg>
