<svg width="115" height="23" viewBox="0 0 115 23" fill="none" xmlns="http://www.w3.org/2000/svg">
<g clip-path="url(#clip0_5226_12300)">
<mask id="mask0_5226_12300" style="mask-type:luminance" maskUnits="userSpaceOnUse" x="1" y="-2" width="114" height="24">
<path d="M114.389 -1.06592H1.6875V21.7339H114.389V-1.06592Z" fill="white"/>
</mask>
<g mask="url(#mask0_5226_12300)">
<path d="M8.01935 7.04729C7.89874 3.79017 6.99424 2.132 5.48672 2.132C4.28071 2.132 3.4968 3.07952 3.13499 4.97458H2.77319V1.59902H3.01439L3.4968 2.54654C4.0395 1.89512 4.76311 1.53979 5.66762 1.53979C6.45153 1.53979 7.17514 1.8359 7.77814 2.36888C8.38115 2.90186 8.86355 3.73095 9.16506 4.85614C9.40626 5.68522 9.52686 6.57353 9.52686 7.52105C9.52686 9.23844 9.22536 10.6005 8.56205 11.7257C8.26055 12.2587 7.77814 12.7324 7.23544 13.0285C6.81333 13.2654 6.33093 13.3839 5.78822 13.3839C5.12492 13.3839 4.52191 13.147 3.9792 12.7324C3.1953 12.0218 2.77319 10.8966 2.71289 9.29766H3.1953C3.2556 10.2452 3.4365 11.0151 3.7983 11.6073C3.9792 11.9626 4.28071 12.1995 4.64251 12.3771C4.94401 12.5548 5.24552 12.614 5.54702 12.614C6.27063 12.614 6.87363 12.2587 7.35604 11.4888C7.83844 10.719 8.07965 9.35688 8.13995 7.46183H5.12492V6.92885H8.01935V7.04729Z" fill="#949AB0"/>
<path d="M15.5567 9.29742H12.9638V12.0808C12.9638 12.4953 13.0241 12.7322 13.205 12.8506C13.3256 12.9099 13.5668 12.9691 13.808 13.0283V13.3836C13.205 13.3244 12.7226 13.2652 12.3005 13.2652C11.8784 13.2652 11.396 13.3244 10.793 13.3836V13.0283C11.0945 13.0283 11.3357 12.9691 11.5166 12.8506C11.6975 12.7322 11.7578 12.4953 11.7578 12.0808V6.39562C11.7578 5.98108 11.6975 5.68498 11.5166 5.62576C11.396 5.56654 11.1548 5.50732 10.793 5.4481V5.09277C11.396 5.15199 11.9387 5.21121 12.3005 5.21121C12.7226 5.21121 13.205 5.15199 13.808 5.09277V5.4481C13.5668 5.4481 13.3256 5.50732 13.205 5.62576C13.0241 5.7442 12.9638 5.98108 12.9638 6.39562V8.88288H15.5567V6.39562C15.5567 5.98108 15.4964 5.7442 15.3155 5.62576C15.1949 5.50732 14.9537 5.50732 14.7125 5.4481V5.09277C15.3155 5.15199 15.7979 5.21121 16.22 5.21121C16.6421 5.21121 17.1245 5.15199 17.7275 5.09277V5.4481C17.426 5.4481 17.1848 5.50732 17.0039 5.62576C16.823 5.7442 16.7627 5.98108 16.7627 6.39562V12.0808C16.7627 12.4953 16.823 12.7914 17.0039 12.8506C17.1848 12.9099 17.3657 12.9691 17.7275 13.0283V13.3836C17.1245 13.3244 16.5818 13.2652 16.22 13.2652C15.7979 13.2652 15.3155 13.3244 14.7125 13.3836V13.0283C14.9537 13.0283 15.1949 12.9691 15.3155 12.8506C15.4964 12.7322 15.5567 12.4953 15.5567 12.0808V9.29742Z" fill="#949AB0"/>
<path d="M23.5765 10.6003H24.1192C24.0589 11.3109 23.8177 11.9624 23.5162 12.4954C23.0941 13.1468 22.4911 13.4429 21.7072 13.4429C20.7424 13.4429 20.0791 13.0283 19.5364 12.1992C19.054 11.4294 18.873 10.4226 18.873 9.23823C18.873 8.05382 19.1143 7.1063 19.5364 6.27721C19.7776 5.86267 20.1394 5.50735 20.5012 5.27047C20.8027 5.09281 21.1645 4.97437 21.5866 4.97437C22.1293 4.97437 22.5514 5.15203 23.0338 5.50735C23.6368 5.98111 23.9986 6.92864 24.1192 8.23149C24.1192 8.40915 24.1795 8.70525 24.1795 9.00135H20.1394C20.1394 9.71199 20.1997 10.3042 20.26 10.7187C20.4409 12.14 20.9836 12.8507 21.8881 12.8507C22.4308 12.8507 22.8529 12.6138 23.0941 12.1992C23.3353 11.7847 23.5162 11.2517 23.5765 10.6003ZM22.9132 8.40915C22.8529 6.39565 22.4308 5.38891 21.5866 5.38891C21.2248 5.38891 20.9836 5.56657 20.7424 5.92189C20.4409 6.45487 20.26 7.22474 20.1997 8.40915H22.9132Z" fill="#949AB0"/>
<path d="M25.2051 5.56657V5.27047C25.9287 5.21125 26.5317 5.09281 27.0744 4.97437C27.195 5.32969 27.2553 5.80345 27.2553 6.45487C27.6774 5.50735 28.2804 5.03359 29.004 5.03359C29.7879 5.03359 30.3909 5.44813 30.8733 6.27721C31.3557 7.1063 31.5969 8.05382 31.5969 9.23823C31.5969 10.4226 31.3557 11.4294 30.8733 12.2585C30.3909 13.0876 29.7879 13.5021 29.004 13.5021C28.5819 13.5021 28.2201 13.3837 27.9789 13.1468C27.798 12.9691 27.5568 12.7322 27.3759 12.3177V15.3971C27.3759 15.7525 27.4362 15.9894 27.5568 16.1078C27.6774 16.2262 27.9186 16.2855 28.3407 16.3447V16.7C27.6774 16.6408 27.1347 16.5816 26.7126 16.5816C26.2905 16.5816 25.8081 16.6408 25.2051 16.7V16.3447C25.4463 16.3447 25.6875 16.2855 25.8081 16.2262C25.9287 16.167 25.989 16.1078 26.0493 16.0486C26.1096 15.9301 26.1699 15.6933 26.1699 15.3971V6.57332C26.1699 6.04033 26.0493 5.74423 25.8684 5.62579C25.7478 5.62579 25.5066 5.56657 25.2051 5.56657ZM28.8231 5.44813C28.401 5.44813 28.0392 5.68501 27.798 6.15877C27.4965 6.75098 27.3156 7.75772 27.3156 9.11979C27.3156 11.6663 27.798 12.9691 28.8231 12.9691C29.7879 12.9691 30.2703 11.7255 30.2703 9.29745C30.2703 6.69176 29.7879 5.44813 28.8231 5.44813Z" fill="#949AB0"/>
<path d="M35.7572 12.9692V13.3245C35.1542 13.2653 34.6718 13.2061 34.2497 13.2061C33.8276 13.2061 33.3452 13.2653 32.7422 13.3245V12.9692C33.0437 12.9692 33.2849 12.91 33.4658 12.7915C33.6467 12.6731 33.707 12.4362 33.707 12.0217V6.39573C33.707 5.98118 33.6467 5.68508 33.4658 5.62586C33.3452 5.56664 33.104 5.50742 32.7422 5.4482V5.1521H37.5662L37.8074 7.40247H37.4456C37.2647 6.75105 37.0838 6.27729 36.9632 6.09963C36.7823 5.80352 36.4205 5.62586 35.9381 5.62586H34.913V12.0809C34.913 12.4954 34.9733 12.7323 35.1542 12.8507C35.2748 12.91 35.516 12.9692 35.7572 12.9692Z" fill="#949AB0"/>
<path d="M41.3051 4.91504C41.9081 4.91504 42.4508 5.15192 42.9332 5.6849C43.2347 6.04023 43.5362 6.57321 43.7171 7.28385C43.898 7.87606 43.9583 8.46826 43.9583 9.11968C43.9583 10.3041 43.7171 11.3108 43.2347 12.1399C42.7523 12.969 42.089 13.3836 41.2448 13.3836C40.7021 13.3836 40.2197 13.2059 39.7976 12.7913C39.3755 12.3768 39.0137 11.7846 38.7725 11.074C38.5916 10.4818 38.5312 9.88955 38.5312 9.17891C38.5312 7.9945 38.7725 6.98775 39.2549 6.21789C39.7373 5.3888 40.4006 4.91504 41.3051 4.91504ZM41.2448 5.3888C40.883 5.3888 40.5815 5.62568 40.3403 6.04023C39.9785 6.63243 39.7976 7.6984 39.7976 9.23813C39.7976 11.7254 40.28 12.969 41.2448 12.969C41.6066 12.969 41.9081 12.7321 42.1493 12.3176C42.5111 11.7254 42.692 10.6594 42.692 9.17891C42.6317 6.63243 42.2096 5.3888 41.2448 5.3888Z" fill="#949AB0"/>
<path d="M47.5155 10.482L51.3145 3.494V3.31634C51.3145 2.84258 51.2542 2.54648 51.1336 2.42804C51.013 2.30959 50.7115 2.19115 50.2291 2.19115V1.77661C50.9527 1.83583 51.4954 1.89505 51.9778 1.89505C52.4602 1.89505 53.0029 1.83583 53.7265 1.77661V2.19115C53.425 2.19115 53.1838 2.25037 53.0029 2.30959C52.8823 2.36882 52.822 2.42804 52.7617 2.48726C52.7014 2.6057 52.6411 2.9018 52.6411 3.31634V11.7256C52.6411 12.1994 52.7014 12.4955 52.822 12.6139C52.9426 12.7324 53.2441 12.8508 53.7265 12.8508V13.2654C53.0029 13.2061 52.3999 13.1469 51.9778 13.1469C51.5557 13.1469 50.9527 13.2061 50.2291 13.2654V12.8508C50.5909 12.7916 50.8321 12.7916 50.9527 12.6732C51.0733 12.6139 51.1336 12.5547 51.1939 12.4955C51.2542 12.3771 51.3145 12.081 51.3145 11.6664V4.55997L47.5155 11.4888V11.7256C47.5155 12.1994 47.5758 12.4955 47.6964 12.6139C47.817 12.7324 48.1185 12.8508 48.6009 12.8508V13.2654C47.8773 13.2061 47.2743 13.1469 46.8522 13.1469C46.4301 13.1469 45.8271 13.2061 45.1035 13.2654V12.8508C45.405 12.8508 45.6462 12.7916 45.7668 12.7324C45.8874 12.6732 46.008 12.6139 46.0683 12.4955C46.1286 12.3771 46.1889 12.081 46.1889 11.6664V3.31634C46.1889 2.84258 46.1286 2.54648 46.008 2.42804C45.8874 2.30959 45.5859 2.19115 45.1035 2.19115V1.77661C45.7668 1.83583 46.3698 1.89505 46.8522 1.89505C47.3346 1.89505 47.8773 1.83583 48.6009 1.77661V2.19115C48.2994 2.19115 48.1185 2.25037 47.9376 2.30959C47.817 2.36882 47.6964 2.42804 47.6361 2.48726C47.5758 2.6057 47.5155 2.9018 47.5155 3.31634V10.482Z" fill="#949AB0"/>
<path d="M59.5157 9.29742H56.9228V12.0808C56.9228 12.4953 56.9831 12.7322 57.164 12.8506C57.2846 12.9099 57.5258 12.9691 57.767 13.0283V13.3836C57.164 13.3244 56.6816 13.2652 56.2595 13.2652C55.8374 13.2652 55.355 13.3244 54.752 13.3836V13.0283C55.0535 13.0283 55.2947 12.9691 55.4756 12.8506C55.6565 12.7322 55.7168 12.4953 55.7168 12.0808V6.39562C55.7168 5.98108 55.6565 5.68498 55.4756 5.62576C55.355 5.56654 55.1138 5.50732 54.752 5.4481V5.09277C55.355 5.15199 55.8977 5.21121 56.2595 5.21121C56.6816 5.21121 57.164 5.15199 57.767 5.09277V5.4481C57.5258 5.4481 57.2846 5.50732 57.164 5.62576C56.9831 5.7442 56.9228 5.98108 56.9228 6.39562V8.88288H59.5157V6.39562C59.5157 5.98108 59.4554 5.7442 59.2745 5.62576C59.1539 5.50732 58.9127 5.50732 58.6715 5.4481V5.09277C59.2745 5.15199 59.7569 5.21121 60.179 5.21121C60.6011 5.21121 61.0835 5.15199 61.6865 5.09277V5.4481C61.385 5.4481 61.1438 5.50732 60.9629 5.62576C60.782 5.7442 60.7217 5.98108 60.7217 6.39562V12.0808C60.7217 12.4953 60.782 12.7914 60.9629 12.8506C61.1438 12.9099 61.3247 12.9691 61.6865 13.0283V13.3836C61.0835 13.3244 60.5408 13.2652 60.179 13.2652C59.7569 13.2652 59.2745 13.3244 58.6715 13.3836V13.0283C58.9127 13.0283 59.1539 12.9691 59.2745 12.8506C59.4554 12.7322 59.5157 12.4953 59.5157 12.0808V9.29742Z" fill="#949AB0"/>
<path d="M67.4766 9.29742H64.8837V12.0808C64.8837 12.4953 64.944 12.7322 65.1249 12.8506C65.2455 12.9099 65.4867 12.9691 65.7279 13.0283V13.3836C65.1249 13.3244 64.6425 13.2652 64.2204 13.2652C63.7983 13.2652 63.3159 13.3244 62.7129 13.3836V13.0283C63.0144 13.0283 63.2556 12.9691 63.4365 12.8506C63.6174 12.7322 63.6777 12.4953 63.6777 12.0808V6.39562C63.6777 5.98108 63.6174 5.68498 63.4365 5.62576C63.3159 5.56654 63.0747 5.50732 62.7129 5.4481V5.09277C63.3159 5.15199 63.8586 5.21121 64.2204 5.21121C64.6425 5.21121 65.1249 5.15199 65.7279 5.09277V5.4481C65.4867 5.4481 65.2455 5.50732 65.1249 5.62576C64.944 5.7442 64.8837 5.98108 64.8837 6.39562V8.88288H67.4766V6.39562C67.4766 5.98108 67.4163 5.7442 67.2354 5.62576C67.1148 5.50732 66.8736 5.50732 66.6324 5.4481V5.09277C67.2354 5.15199 67.7178 5.21121 68.1399 5.21121C68.5621 5.21121 69.0445 5.15199 69.6475 5.09277V5.4481C69.346 5.4481 69.1048 5.50732 68.9239 5.62576C68.743 5.7442 68.6827 5.98108 68.6827 6.39562V12.0808C68.6827 12.4953 68.743 12.7914 68.9239 12.8506C69.1048 12.9099 69.2857 12.9691 69.6475 13.0283V13.3836C69.0445 13.3244 68.5018 13.2652 68.1399 13.2652C67.7178 13.2652 67.2354 13.3244 66.6324 13.3836V13.0283C66.8736 13.0283 67.1148 12.9691 67.2354 12.8506C67.4163 12.7322 67.4766 12.4953 67.4766 12.0808V9.29742Z" fill="#949AB0"/>
<path d="M73.5668 4.91504C74.1698 4.91504 74.7125 5.15192 75.1949 5.6849C75.4964 6.04023 75.7979 6.57321 75.9788 7.28385C76.1597 7.87606 76.22 8.46826 76.22 9.11968C76.22 10.3041 75.9788 11.3108 75.4964 12.1399C75.014 12.969 74.3507 13.3836 73.5065 13.3836C72.9638 13.3836 72.4814 13.2059 72.0593 12.7913C71.6372 12.3768 71.2754 11.7846 71.0342 11.074C70.8533 10.4818 70.793 9.88955 70.793 9.17891C70.793 7.9945 71.0342 6.98775 71.5166 6.21789C71.999 5.3888 72.7226 4.91504 73.5668 4.91504ZM73.5668 5.3888C73.205 5.3888 72.9035 5.62568 72.6623 6.04023C72.3005 6.69165 72.1196 7.75762 72.1196 9.23813C72.1196 11.7254 72.602 12.969 73.5668 12.969C73.9286 12.969 74.2301 12.7321 74.4713 12.3176C74.8331 11.7254 75.014 10.6594 75.014 9.17891C74.9537 6.63243 74.4713 5.3888 73.5668 5.3888Z" fill="#949AB0"/>
<path d="M77.3652 13.2653V12.91C77.6667 12.91 77.9079 12.8507 78.0888 12.7323C78.2697 12.6139 78.33 12.377 78.33 11.9624V6.39573C78.33 5.98118 78.2697 5.68508 78.0888 5.62586C77.9682 5.56664 77.727 5.50742 77.3652 5.4482V5.1521H80.5612C81.2848 5.1521 81.8275 5.27054 82.1893 5.56664C82.6717 5.92196 82.9129 6.45495 82.9129 7.10637C82.9129 7.69858 82.732 8.17234 82.3099 8.52766C82.129 8.70532 81.8878 8.82376 81.5863 8.88298C82.732 9.11986 83.2747 9.83051 83.2747 10.9557C83.2747 11.844 82.9732 12.4362 82.3099 12.8507C81.8878 13.0876 81.2245 13.2653 80.5009 13.2653H77.3652ZM79.5964 8.70532H80.4406C80.8627 8.70532 81.1642 8.52766 81.3451 8.23156C81.526 7.93546 81.6466 7.58013 81.6466 7.10637C81.6466 6.09963 81.1642 5.56664 80.2597 5.56664H79.5964V8.70532ZM79.5964 9.17908V11.9624C79.5964 12.3178 79.6567 12.4954 79.717 12.6139C79.8376 12.7323 80.0185 12.7915 80.32 12.7915C81.4054 12.7915 82.0084 12.1993 82.0084 11.0149C82.0084 9.83051 81.526 9.17908 80.5009 9.17908H79.5964Z" fill="#949AB0"/>
<path d="M90.0276 12.7913V13.2651C89.7261 13.3243 89.4246 13.3836 89.1834 13.3836C88.5201 13.3836 88.1583 12.9098 88.098 11.9623C87.7362 12.9098 87.1332 13.3836 86.289 13.3836C85.7463 13.3836 85.2639 13.2059 84.9021 12.7913C84.5403 12.3768 84.3594 11.8438 84.3594 11.1924C84.3594 10.3041 84.7212 9.59345 85.3845 9.11968C86.1081 8.64592 86.9523 8.2906 87.9171 8.17216V6.92853C87.9171 6.27711 87.7965 5.86256 87.5553 5.62568C87.3744 5.44802 87.1332 5.3888 86.892 5.3888C86.5302 5.3888 86.289 5.50724 86.0478 5.74412C85.9272 5.92179 85.8066 6.09945 85.8066 6.33633C85.8066 6.39555 85.8066 6.45477 85.8066 6.57321C85.8066 6.69165 85.8066 6.81009 85.8066 6.86931C85.8066 7.34307 85.6257 7.57996 85.2036 7.57996C84.8418 7.57996 84.7212 7.40229 84.7212 6.98775C84.7212 6.39555 84.9624 5.92179 85.4448 5.50724C85.8669 5.0927 86.4096 4.91504 87.0126 4.91504C87.5553 4.91504 87.9774 5.03348 88.3392 5.32958C88.701 5.62568 88.9422 6.04023 89.0628 6.57321C89.1231 6.81009 89.1231 7.22463 89.1231 7.63918V11.2516C89.1231 12.0807 89.1834 12.5545 89.3643 12.6729C89.4246 12.7321 89.5452 12.7913 89.6658 12.7913C89.7864 12.8506 89.907 12.8506 90.0276 12.7913ZM87.9171 8.64592C87.4347 8.76436 87.0126 8.94202 86.6508 9.11968C85.9272 9.53423 85.5654 10.1857 85.5654 11.1332C85.5654 11.7254 85.686 12.1991 85.9875 12.436C86.1684 12.6137 86.3493 12.6729 86.6508 12.6729C87.495 12.6729 87.9171 11.8438 87.9171 10.1264V8.64592Z" fill="#949AB0"/>
<path d="M94.0072 5.4481C93.766 5.4481 93.5248 5.50732 93.4042 5.62576C93.2233 5.7442 93.163 5.98108 93.163 6.39562V11.9623C93.163 12.3769 93.2233 12.6138 93.4042 12.7322C93.5248 12.7914 93.7057 12.8506 93.8866 12.8506C94.0072 12.8506 94.1881 12.8506 94.4896 12.8506C94.8514 12.8506 95.0926 12.8506 95.2132 12.8506C95.3338 12.8506 95.4544 12.7914 95.575 12.7322C95.7559 12.6138 95.8162 12.3769 95.8162 11.9623V6.39562C95.8162 5.98108 95.7559 5.7442 95.575 5.62576C95.4544 5.50732 95.2132 5.50732 94.972 5.4481V5.09277C95.575 5.15199 96.0574 5.21121 96.4795 5.21121C96.9017 5.21121 97.3841 5.15199 97.9871 5.09277V5.4481C97.6856 5.4481 97.4444 5.50732 97.2635 5.62576C97.0826 5.7442 97.0223 5.98108 97.0223 6.39562V12.0216C97.0223 12.4361 97.0826 12.673 97.2635 12.7914C97.4444 12.8506 97.6253 12.9099 97.9871 12.9691V15.2195H97.6253C97.565 14.5088 97.4444 14.035 97.2635 13.7982C97.0826 13.5021 96.6002 13.3244 95.9368 13.3244H90.9922V12.9691C91.2937 12.9691 91.5349 12.9099 91.7158 12.7914C91.8967 12.7322 91.957 12.4361 91.957 12.0216V6.39562C91.957 5.98108 91.8967 5.68498 91.7158 5.62576C91.5952 5.56654 91.354 5.50732 90.9922 5.4481V5.09277C91.5952 5.15199 92.1379 5.21121 92.4997 5.21121C92.9218 5.21121 93.4042 5.15199 94.0072 5.09277V5.4481Z" fill="#949AB0"/>
<path d="M103.656 7.40237L101.063 11.9031V12.0808C101.063 12.4953 101.124 12.7322 101.305 12.8506C101.425 12.9099 101.666 12.9691 101.908 13.0283V13.3836C101.305 13.3244 100.822 13.2652 100.4 13.2652C99.978 13.2652 99.4956 13.3244 98.8926 13.3836V13.0283C99.1941 13.0283 99.4353 12.9691 99.6162 12.8506C99.7971 12.7322 99.8574 12.4953 99.8574 12.0808V6.39562C99.8574 5.98108 99.7971 5.68498 99.6162 5.62576C99.4956 5.56654 99.2544 5.50732 98.8926 5.4481V5.09277C99.4956 5.15199 100.038 5.21121 100.4 5.21121C100.822 5.21121 101.305 5.15199 101.908 5.09277V5.4481C101.666 5.4481 101.425 5.50732 101.305 5.62576C101.124 5.7442 101.063 5.98108 101.063 6.39562V10.9556L103.656 6.45484V6.39562C103.656 5.98108 103.596 5.7442 103.415 5.62576C103.295 5.50732 103.053 5.50732 102.812 5.4481V5.09277C103.415 5.15199 103.898 5.21121 104.32 5.21121C104.742 5.21121 105.224 5.15199 105.827 5.09277V5.4481C105.526 5.4481 105.284 5.50732 105.104 5.62576C104.923 5.7442 104.862 5.98108 104.862 6.39562V12.0808C104.862 12.4953 104.923 12.7914 105.104 12.8506C105.284 12.9099 105.465 12.9691 105.827 13.0283V13.3836C105.224 13.3244 104.681 13.2652 104.32 13.2652C103.898 13.2652 103.415 13.3244 102.812 13.3836V13.0283C103.053 13.0283 103.295 12.9691 103.415 12.8506C103.596 12.7322 103.656 12.4953 103.656 12.0808V7.40237Z" fill="#949AB0"/>
<path d="M111.615 7.40237L109.022 11.9031V12.0808C109.022 12.4953 109.083 12.7322 109.264 12.8506C109.384 12.9099 109.625 12.9691 109.867 13.0283V13.3836C109.264 13.3244 108.781 13.2652 108.359 13.2652C107.937 13.2652 107.455 13.3244 106.852 13.3836V13.0283C107.153 13.0283 107.394 12.9691 107.575 12.8506C107.756 12.7322 107.816 12.4953 107.816 12.0808V6.39562C107.816 5.98108 107.756 5.68498 107.575 5.62576C107.455 5.56654 107.213 5.50732 106.852 5.4481V5.09277C107.455 5.15199 107.997 5.21121 108.359 5.21121C108.781 5.21121 109.264 5.15199 109.867 5.09277V5.4481C109.625 5.4481 109.384 5.50732 109.264 5.62576C109.083 5.7442 109.022 5.98108 109.022 6.39562V10.9556L111.615 6.45484V6.39562C111.615 5.98108 111.555 5.7442 111.374 5.62576C111.254 5.50732 111.012 5.50732 110.771 5.4481V5.09277C111.374 5.15199 111.857 5.21121 112.279 5.21121C112.701 5.21121 113.183 5.15199 113.786 5.09277V5.4481C113.485 5.4481 113.243 5.50732 113.063 5.62576C112.882 5.7442 112.821 5.98108 112.821 6.39562V12.0808C112.821 12.4953 112.882 12.7914 113.063 12.8506C113.243 12.9099 113.424 12.9691 113.786 13.0283V13.3836C113.183 13.3244 112.64 13.2652 112.279 13.2652C111.857 13.2652 111.374 13.3244 110.771 13.3836V13.0283C111.012 13.0283 111.254 12.9691 111.374 12.8506C111.555 12.7322 111.615 12.4953 111.615 12.0808V7.40237Z" fill="#949AB0"/>
</g>
</g>
<defs>
<clipPath id="clip0_5226_12300">
<rect width="114.812" height="22.7406" fill="white"/>
</clipPath>
</defs>
</svg>
