<svg xmlns="http://www.w3.org/2000/svg" width="215" height="28" viewBox="0 0 215 28" fill="none">
    <g clip-path="url(#clip0_3973_6187)">
        <mask id="mask0_3973_6187" style="mask-type:luminance" maskUnits="userSpaceOnUse" x="3"
            y="-2" width="211" height="43">
            <path d="M213.343 -1.98804H3.14893V40.5346H213.343V-1.98804Z" fill="white" />
        </mask>
        <g mask="url(#mask0_3973_6187)">
            <path
                d="M14.9576 13.1435C14.7326 7.06887 13.0457 3.97631 10.2341 3.97631C7.98484 3.97631 6.52281 5.74349 5.84803 9.27784H5.17325V2.98227H5.62311L6.52281 4.74945C7.53498 3.53452 8.88454 2.87183 10.5715 2.87183C12.0335 2.87183 13.3831 3.42407 14.5077 4.41811C15.6323 5.41214 16.532 6.95842 17.0944 9.05694C17.5442 10.6032 17.7691 12.2599 17.7691 14.0271C17.7691 17.2301 17.2068 19.7704 15.9697 21.869C15.4074 22.863 14.5077 23.7466 13.4955 24.2988C12.7083 24.7406 11.8086 24.9615 10.7964 24.9615C9.55932 24.9615 8.43469 24.5197 7.42252 23.7466C5.9605 22.4212 5.17325 20.3227 5.06079 17.3406H5.9605C6.07296 19.1078 6.41035 20.5436 7.08513 21.6481C7.42252 22.3108 7.98483 22.7526 8.65961 23.0839C9.22193 23.4152 9.78425 23.5257 10.3466 23.5257C11.6961 23.5257 12.8208 22.863 13.7205 21.4272C14.6202 19.9913 15.07 17.451 15.1825 13.9167H9.55932V12.9226H14.9576V13.1435Z"
                fill="#949AB0" />
            <path
                d="M29.0155 17.3406H24.1795V22.5317C24.1795 23.3048 24.292 23.7466 24.6294 23.9675C24.8543 24.078 25.3042 24.1884 25.754 24.2989V24.9616C24.6294 24.8511 23.7297 24.7407 22.9424 24.7407C22.1552 24.7407 21.2555 24.8511 20.1309 24.9616V24.2989C20.6932 24.2989 21.143 24.1884 21.4804 23.9675C21.8178 23.7466 21.9303 23.3048 21.9303 22.5317V11.9286C21.9303 11.1555 21.8178 10.6033 21.4804 10.4928C21.2555 10.3824 20.8056 10.2719 20.1309 10.1615V9.49878C21.2555 9.60923 22.2677 9.71968 22.9424 9.71968C23.7297 9.71968 24.6294 9.60923 25.754 9.49878V10.1615C25.3042 10.1615 24.8543 10.2719 24.6294 10.4928C24.292 10.7137 24.1795 11.1555 24.1795 11.9286V16.5675H29.0155V11.9286C29.0155 11.1555 28.903 10.7137 28.5656 10.4928C28.3407 10.2719 27.8908 10.2719 27.441 10.1615V9.49878C28.5656 9.60923 29.4653 9.71968 30.2526 9.71968C31.0398 9.71968 31.9395 9.60923 33.0641 9.49878V10.1615C32.5018 10.1615 32.052 10.2719 31.7146 10.4928C31.3772 10.7137 31.2647 11.1555 31.2647 11.9286V22.5317C31.2647 23.3048 31.3772 23.8571 31.7146 23.9675C32.052 24.078 32.3894 24.1884 33.0641 24.2989V24.9616C31.9395 24.8511 30.9273 24.7407 30.2526 24.7407C29.4653 24.7407 28.5656 24.8511 27.441 24.9616V24.2989C27.8908 24.2989 28.3407 24.1884 28.5656 23.9675C28.903 23.7466 29.0155 23.3048 29.0155 22.5317V17.3406Z"
                fill="#949AB0" />
            <path
                d="M43.9731 19.7704H44.9852C44.8728 21.0958 44.4229 22.3108 43.8606 23.3048C43.0734 24.5197 41.9487 25.072 40.4867 25.072C38.6873 25.072 37.4502 24.2988 36.438 22.7525C35.5383 21.3167 35.2009 19.4391 35.2009 17.2301C35.2009 15.0212 35.6508 13.254 36.438 11.7077C36.8879 10.9346 37.5627 10.2719 38.2374 9.83007C38.7998 9.49873 39.4745 9.27783 40.2618 9.27783C41.2739 9.27783 42.0612 9.60918 42.9609 10.2719C44.0855 11.1555 44.7603 12.9226 44.9852 15.3525C44.9852 15.6838 45.0977 16.2361 45.0977 16.7883H37.5627C37.5627 18.1137 37.6751 19.2182 37.7876 19.9913C38.125 22.6421 39.1371 23.9675 40.8241 23.9675C41.8363 23.9675 42.6235 23.5257 43.0734 22.7525C43.5232 21.9794 43.8606 20.9854 43.9731 19.7704ZM42.736 15.6838C42.6235 11.9286 41.8363 10.051 40.2618 10.051C39.587 10.051 39.1371 10.3823 38.6873 11.045C38.125 12.039 37.7876 13.4749 37.6751 15.6838H42.736Z"
                fill="#949AB0" />
            <path
                d="M47.0095 10.3823V9.83007C48.3591 9.71963 49.4837 9.49873 50.4959 9.27783C50.7208 9.94052 50.8333 10.8241 50.8333 12.039C51.6205 10.2719 52.7451 9.38828 54.0947 9.38828C55.5567 9.38828 56.6814 10.1614 57.5811 11.7077C58.4808 13.254 58.9306 15.0212 58.9306 17.2301C58.9306 19.4391 58.4808 21.3167 57.5811 22.863C56.6814 24.4093 55.5567 25.1824 54.0947 25.1824C53.3075 25.1824 52.6327 24.9615 52.1828 24.5197C51.8454 24.1884 51.3956 23.7466 51.0582 22.9734V28.7168C51.0582 29.3795 51.1707 29.8213 51.3956 30.0422C51.6205 30.263 52.0704 30.3735 52.8576 30.4839V31.1466C51.6205 31.0362 50.6083 30.9257 49.8211 30.9257C49.0339 30.9257 48.1342 31.0362 47.0095 31.1466V30.4839C47.4594 30.4839 47.9092 30.3735 48.1342 30.263C48.3591 30.1526 48.4715 30.0421 48.584 29.9317C48.6965 29.7108 48.8089 29.269 48.8089 28.7168V12.2599C48.8089 11.2659 48.584 10.7137 48.2466 10.4928C48.0217 10.4928 47.5718 10.3823 47.0095 10.3823ZM53.7573 10.1614C52.9701 10.1614 52.2953 10.6032 51.8454 11.4868C51.2831 12.5913 50.9457 14.4689 50.9457 17.0092C50.9457 21.7585 51.8454 24.1884 53.7573 24.1884C55.5567 24.1884 56.4564 21.869 56.4564 17.3406C56.4564 12.4808 55.5567 10.1614 53.7573 10.1614Z"
                fill="#949AB0" />
            <path
                d="M66.6908 24.1883V24.851C65.5662 24.7406 64.6665 24.6301 63.8792 24.6301C63.092 24.6301 62.1923 24.7406 61.0676 24.851V24.1883C61.6299 24.1883 62.0798 24.0779 62.4172 23.857C62.7546 23.6361 62.867 23.1943 62.867 22.4212V11.9285C62.867 11.1554 62.7546 10.6032 62.4172 10.4927C62.1923 10.3823 61.7424 10.2718 61.0676 10.1614V9.60913H70.0647L70.5145 13.8062H69.8398C69.5024 12.5912 69.165 11.7077 68.9401 11.3763C68.6027 10.8241 67.9279 10.4927 67.0282 10.4927H65.1163V22.5316C65.1163 23.3047 65.2288 23.7465 65.5662 23.9674C65.7911 24.0779 66.2409 24.1883 66.6908 24.1883Z"
                fill="#949AB0" />
            <path
                d="M77.0373 9.16748C78.162 9.16748 79.1741 9.60927 80.0738 10.6033C80.6361 11.266 81.1985 12.26 81.5359 13.5854C81.8732 14.6899 81.9857 15.7944 81.9857 17.0093C81.9857 19.2183 81.5358 21.0959 80.6361 22.6422C79.7364 24.1885 78.4993 24.9616 76.9249 24.9616C75.9127 24.9616 75.013 24.6303 74.2257 23.8571C73.4385 23.084 72.7637 21.9795 72.3139 20.6541C71.9765 19.5496 71.864 18.4452 71.864 17.1198C71.864 14.9108 72.3139 13.0332 73.2136 11.5973C74.1133 10.0511 75.3504 9.16748 77.0373 9.16748ZM76.9249 10.0511C76.2501 10.0511 75.6878 10.4929 75.2379 11.266C74.5631 12.3705 74.2257 14.3586 74.2257 17.2302C74.2257 21.8691 75.1254 24.1885 76.9249 24.1885C77.5996 24.1885 78.162 23.7467 78.6118 22.9735C79.2866 21.8691 79.624 19.881 79.624 17.1198C79.5115 12.3705 78.7243 10.0511 76.9249 10.0511Z"
                fill="#949AB0" />
            <path
                d="M88.6211 19.5494L95.7063 6.51648V6.18514C95.7063 5.30155 95.5938 4.74931 95.3689 4.52841C95.144 4.30751 94.5816 4.08662 93.6819 4.08662V3.31348C95.0315 3.42393 96.0437 3.53437 96.9434 3.53437C97.8431 3.53437 98.8552 3.42393 100.205 3.31348V4.08662C99.6425 4.08662 99.1926 4.19706 98.8552 4.30751C98.6303 4.41796 98.5178 4.52841 98.4054 4.63886C98.2929 4.85976 98.1805 5.412 98.1805 6.18514V21.8688C98.1805 22.7524 98.2929 23.3047 98.5178 23.5255C98.7428 23.7464 99.3051 23.9673 100.205 23.9673V24.7405C98.8552 24.63 97.7306 24.5196 96.9434 24.5196C96.1561 24.5196 95.0315 24.63 93.6819 24.7405V23.9673C94.3567 23.8569 94.8066 23.8569 95.0315 23.636C95.2564 23.5256 95.3689 23.4151 95.4813 23.3047C95.5938 23.0838 95.7063 22.5315 95.7063 21.7584V8.50456L88.6211 21.427V21.8688C88.6211 22.7524 88.7335 23.3047 88.9585 23.5255C89.1834 23.7464 89.7457 23.9673 90.6454 23.9673V24.7405C89.2959 24.63 88.1712 24.5196 87.384 24.5196C86.5967 24.5196 85.4721 24.63 84.1226 24.7405V23.9673C84.6849 23.9673 85.1347 23.8569 85.3597 23.7464C85.5846 23.636 85.8095 23.5256 85.922 23.3047C86.0344 23.0838 86.1469 22.5315 86.1469 21.7584V6.18514C86.1469 5.30155 86.0344 4.74931 85.8095 4.52841C85.5846 4.30751 85.0223 4.08662 84.1226 4.08662V3.31348C85.3597 3.42393 86.4843 3.53437 87.384 3.53437C88.2837 3.53437 89.2959 3.42393 90.6454 3.31348V4.08662C90.0831 4.08662 89.7457 4.19706 89.4083 4.30751C89.1834 4.41796 88.9585 4.52841 88.846 4.63886C88.7335 4.85976 88.6211 5.412 88.6211 6.18514V19.5494Z"
                fill="#949AB0" />
            <path
                d="M111.001 17.3406H106.165V22.5317C106.165 23.3048 106.278 23.7466 106.615 23.9675C106.84 24.078 107.29 24.1884 107.74 24.2989V24.9616C106.615 24.8511 105.715 24.7407 104.928 24.7407C104.141 24.7407 103.241 24.8511 102.116 24.9616V24.2989C102.679 24.2989 103.129 24.1884 103.466 23.9675C103.803 23.7466 103.916 23.3048 103.916 22.5317V11.9286C103.916 11.1555 103.803 10.6033 103.466 10.4928C103.241 10.3824 102.791 10.2719 102.116 10.1615V9.49878C103.241 9.60923 104.253 9.71968 104.928 9.71968C105.715 9.71968 106.615 9.60923 107.74 9.49878V10.1615C107.29 10.1615 106.84 10.2719 106.615 10.4928C106.278 10.7137 106.165 11.1555 106.165 11.9286V16.5675H111.001V11.9286C111.001 11.1555 110.889 10.7137 110.551 10.4928C110.326 10.2719 109.876 10.2719 109.427 10.1615V9.49878C110.551 9.60923 111.451 9.71968 112.238 9.71968C113.025 9.71968 113.925 9.60923 115.05 9.49878V10.1615C114.487 10.1615 114.038 10.2719 113.7 10.4928C113.363 10.7137 113.25 11.1555 113.25 11.9286V22.5317C113.25 23.3048 113.363 23.8571 113.7 23.9675C114.038 24.078 114.375 24.1884 115.05 24.2989V24.9616C113.925 24.8511 112.913 24.7407 112.238 24.7407C111.451 24.7407 110.551 24.8511 109.427 24.9616V24.2989C109.876 24.2989 110.326 24.1884 110.551 23.9675C110.889 23.7466 111.001 23.3048 111.001 22.5317V17.3406Z"
                fill="#949AB0" />
            <path
                d="M125.846 17.3406H121.01V22.5317C121.01 23.3048 121.123 23.7466 121.46 23.9675C121.685 24.078 122.135 24.1884 122.585 24.2989V24.9616C121.46 24.8511 120.56 24.7407 119.773 24.7407C118.986 24.7407 118.086 24.8511 116.962 24.9616V24.2989C117.524 24.2989 117.974 24.1884 118.311 23.9675C118.649 23.7466 118.761 23.3048 118.761 22.5317V11.9286C118.761 11.1555 118.649 10.6033 118.311 10.4928C118.086 10.3824 117.636 10.2719 116.962 10.1615V9.49878C118.086 9.60923 119.098 9.71968 119.773 9.71968C120.56 9.71968 121.46 9.60923 122.585 9.49878V10.1615C122.135 10.1615 121.685 10.2719 121.46 10.4928C121.123 10.7137 121.01 11.1555 121.01 11.9286V16.5675H125.846V11.9286C125.846 11.1555 125.734 10.7137 125.396 10.4928C125.171 10.2719 124.722 10.2719 124.272 10.1615V9.49878C125.396 9.60923 126.296 9.71968 127.083 9.71968C127.871 9.71968 128.77 9.60923 129.895 9.49878V10.1615C129.333 10.1615 128.883 10.2719 128.545 10.4928C128.208 10.7137 128.096 11.1555 128.096 11.9286V22.5317C128.096 23.3048 128.208 23.8571 128.545 23.9675C128.883 24.078 129.22 24.1884 129.895 24.2989V24.9616C128.77 24.8511 127.758 24.7407 127.083 24.7407C126.296 24.7407 125.396 24.8511 124.272 24.9616V24.2989C124.722 24.2989 125.171 24.1884 125.396 23.9675C125.734 23.7466 125.846 23.3048 125.846 22.5317V17.3406Z"
                fill="#949AB0" />
            <path
                d="M137.205 9.16748C138.33 9.16748 139.342 9.60927 140.242 10.6033C140.804 11.266 141.366 12.26 141.704 13.5854C142.041 14.6899 142.153 15.7944 142.153 17.0093C142.153 19.2183 141.704 21.0959 140.804 22.6422C139.904 24.1885 138.667 24.9616 137.093 24.9616C136.08 24.9616 135.181 24.6303 134.393 23.8571C133.606 23.084 132.931 21.9795 132.482 20.6541C132.144 19.5496 132.032 18.4452 132.032 17.1198C132.032 14.9108 132.482 13.0332 133.381 11.5973C134.281 10.0511 135.631 9.16748 137.205 9.16748ZM137.205 10.0511C136.53 10.0511 135.968 10.4929 135.518 11.266C134.843 12.4809 134.506 14.469 134.506 17.2302C134.506 21.8691 135.406 24.1885 137.205 24.1885C137.88 24.1885 138.442 23.7467 138.892 22.9735C139.567 21.8691 139.904 19.881 139.904 17.1198C139.792 12.3705 138.892 10.0511 137.205 10.0511Z"
                fill="#949AB0" />
            <path
                d="M144.29 24.7406V24.0779C144.853 24.0779 145.302 23.9674 145.64 23.7465C145.977 23.5256 146.09 23.0838 146.09 22.3107V11.9285C146.09 11.1554 145.977 10.6032 145.64 10.4927C145.415 10.3823 144.965 10.2718 144.29 10.1614V9.60913H150.251C151.6 9.60913 152.613 9.83003 153.287 10.3823C154.187 11.045 154.637 12.039 154.637 13.2539C154.637 14.3584 154.3 15.242 153.512 15.9047C153.175 16.236 152.725 16.4569 152.163 16.5674C154.3 17.0092 155.312 18.3346 155.312 20.4331C155.312 22.0898 154.749 23.1943 153.512 23.9674C152.725 24.4092 151.488 24.7406 150.138 24.7406H144.29ZM148.451 16.236H150.026C150.813 16.236 151.375 15.9047 151.713 15.3525C152.05 14.8002 152.275 14.1375 152.275 13.2539C152.275 11.3763 151.375 10.3823 149.689 10.3823H148.451V16.236ZM148.451 17.1196V22.3107C148.451 22.9734 148.564 23.3047 148.676 23.5256C148.901 23.7465 149.239 23.857 149.801 23.857C151.825 23.857 152.95 22.7525 152.95 20.5435C152.95 18.3346 152.05 17.1196 150.138 17.1196H148.451Z"
                fill="#949AB0" />
            <path
                d="M167.907 23.8571V24.7407C167.345 24.8512 166.783 24.9616 166.333 24.9616C165.096 24.9616 164.421 24.078 164.308 22.3109C163.634 24.078 162.509 24.9616 160.935 24.9616C159.922 24.9616 159.023 24.6303 158.348 23.8571C157.673 23.084 157.336 22.09 157.336 20.875C157.336 19.2183 158.01 17.8929 159.248 17.0093C160.597 16.1257 162.172 15.463 163.971 15.2421V12.9227C163.971 11.7078 163.746 10.9347 163.296 10.4929C162.959 10.1615 162.509 10.0511 162.059 10.0511C161.384 10.0511 160.935 10.272 160.485 10.7138C160.26 11.0451 160.035 11.3764 160.035 11.8182C160.035 11.9287 160.035 12.0391 160.035 12.26C160.035 12.4809 160.035 12.7018 160.035 12.8123C160.035 13.6959 159.697 14.1377 158.91 14.1377C158.235 14.1377 158.01 13.8063 158.01 13.0332C158.01 11.9287 158.46 11.0451 159.36 10.272C160.147 9.49883 161.159 9.16748 162.284 9.16748C163.296 9.16748 164.083 9.38838 164.758 9.94062C165.433 10.4929 165.883 11.266 166.108 12.26C166.22 12.7018 166.22 13.475 166.22 14.2481V20.9855C166.22 22.5317 166.333 23.4153 166.67 23.6362C166.783 23.7467 167.008 23.8571 167.232 23.8571C167.457 23.9676 167.682 23.9676 167.907 23.8571ZM163.971 16.1257C163.071 16.3466 162.284 16.678 161.609 17.0093C160.26 17.7825 159.585 18.9974 159.585 20.7646C159.585 21.8691 159.81 22.7526 160.372 23.1944C160.71 23.5258 161.047 23.6362 161.609 23.6362C163.184 23.6362 163.971 22.09 163.971 18.8869V16.1257Z"
                fill="#949AB0" />
            <path
                d="M175.33 10.1615C174.88 10.1615 174.43 10.2719 174.206 10.4928C173.868 10.7137 173.756 11.1555 173.756 11.9286V22.3108C173.756 23.0839 173.868 23.5257 174.206 23.7466C174.43 23.8571 174.768 23.9675 175.105 23.9675C175.33 23.9675 175.668 23.9675 176.23 23.9675C176.905 23.9675 177.355 23.9675 177.579 23.9675C177.804 23.9675 178.029 23.8571 178.254 23.7466C178.592 23.5257 178.704 23.0839 178.704 22.3108V11.9286C178.704 11.1555 178.592 10.7137 178.254 10.4928C178.029 10.2719 177.579 10.2719 177.13 10.1615V9.49878C178.254 9.60923 179.154 9.71968 179.941 9.71968C180.728 9.71968 181.628 9.60923 182.753 9.49878V10.1615C182.19 10.1615 181.741 10.2719 181.403 10.4928C181.066 10.7137 180.953 11.1555 180.953 11.9286V22.4213C180.953 23.1944 181.066 23.6362 181.403 23.8571C181.741 23.9675 182.078 24.078 182.753 24.1884V28.3855H182.078C181.966 27.0601 181.741 26.1765 181.403 25.7347C181.066 25.1825 180.166 24.8511 178.929 24.8511H169.707V24.1884C170.269 24.1884 170.719 24.078 171.057 23.8571C171.394 23.7466 171.506 23.1944 171.506 22.4213V11.9286C171.506 11.1555 171.394 10.6033 171.057 10.4928C170.832 10.3824 170.382 10.2719 169.707 10.1615V9.49878C170.832 9.60923 171.844 9.71968 172.519 9.71968C173.306 9.71968 174.206 9.60923 175.33 9.49878V10.1615Z"
                fill="#949AB0" />
            <path
                d="M193.324 13.8063L188.488 22.2004V22.5317C188.488 23.3048 188.601 23.7466 188.938 23.9675C189.163 24.078 189.613 24.1884 190.063 24.2989V24.9616C188.938 24.8511 188.039 24.7407 187.251 24.7407C186.464 24.7407 185.564 24.8511 184.44 24.9616V24.2989C185.002 24.2989 185.452 24.1884 185.789 23.9675C186.127 23.7466 186.239 23.3048 186.239 22.5317V11.9286C186.239 11.1555 186.127 10.6033 185.789 10.4928C185.564 10.3824 185.114 10.2719 184.44 10.1615V9.49878C185.564 9.60923 186.576 9.71968 187.251 9.71968C188.039 9.71968 188.938 9.60923 190.063 9.49878V10.1615C189.613 10.1615 189.163 10.2719 188.938 10.4928C188.601 10.7137 188.488 11.1555 188.488 11.9286V20.4332L193.324 12.0391V11.9286C193.324 11.1555 193.212 10.7137 192.874 10.4928C192.65 10.2719 192.2 10.2719 191.75 10.1615V9.49878C192.874 9.60923 193.774 9.71968 194.561 9.71968C195.349 9.71968 196.248 9.60923 197.373 9.49878V10.1615C196.811 10.1615 196.361 10.2719 196.023 10.4928C195.686 10.7137 195.574 11.1555 195.574 11.9286V22.5317C195.574 23.3048 195.686 23.8571 196.023 23.9675C196.361 24.078 196.698 24.1884 197.373 24.2989V24.9616C196.248 24.8511 195.236 24.7407 194.561 24.7407C193.774 24.7407 192.874 24.8511 191.75 24.9616V24.2989C192.2 24.2989 192.65 24.1884 192.874 23.9675C193.212 23.7466 193.324 23.3048 193.324 22.5317V13.8063Z"
                fill="#949AB0" />
            <path
                d="M208.17 13.8063L203.334 22.2004V22.5317C203.334 23.3048 203.446 23.7466 203.783 23.9675C204.008 24.078 204.458 24.1884 204.908 24.2989V24.9616C203.783 24.8511 202.884 24.7407 202.096 24.7407C201.309 24.7407 200.41 24.8511 199.285 24.9616V24.2989C199.847 24.2989 200.297 24.1884 200.634 23.9675C200.972 23.7466 201.084 23.3048 201.084 22.5317V11.9286C201.084 11.1555 200.972 10.6033 200.634 10.4928C200.41 10.3824 199.96 10.2719 199.285 10.1615V9.49878C200.41 9.60923 201.422 9.71968 202.096 9.71968C202.884 9.71968 203.783 9.60923 204.908 9.49878V10.1615C204.458 10.1615 204.008 10.2719 203.783 10.4928C203.446 10.7137 203.334 11.1555 203.334 11.9286V20.4332L208.17 12.0391V11.9286C208.17 11.1555 208.057 10.7137 207.72 10.4928C207.495 10.2719 207.045 10.2719 206.595 10.1615V9.49878C207.72 9.60923 208.619 9.71968 209.407 9.71968C210.194 9.71968 211.094 9.60923 212.218 9.49878V10.1615C211.656 10.1615 211.206 10.2719 210.869 10.4928C210.531 10.7137 210.419 11.1555 210.419 11.9286V22.5317C210.419 23.3048 210.531 23.8571 210.869 23.9675C211.206 24.078 211.543 24.1884 212.218 24.2989V24.9616C211.094 24.8511 210.081 24.7407 209.407 24.7407C208.619 24.7407 207.72 24.8511 206.595 24.9616V24.2989C207.045 24.2989 207.495 24.1884 207.72 23.9675C208.057 23.7466 208.17 23.3048 208.17 22.5317V13.8063Z"
                fill="#949AB0" />
        </g>
    </g>
    <defs>
        <clipPath id="clip0_3973_6187">
            <rect width="214.13" height="27.93" fill="white" />
        </clipPath>
    </defs>
</svg>