<svg width="99" height="20" viewBox="0 0 99 20" fill="none" xmlns="http://www.w3.org/2000/svg">
<g clip-path="url(#clip0_5226_12961)">
<mask id="mask0_5226_12961" style="mask-type:luminance" maskUnits="userSpaceOnUse" x="1" y="-1" width="98" height="20">
<path d="M98.6352 -0.919189H1.45508V18.7406H98.6352V-0.919189Z" fill="white"/>
</mask>
<g mask="url(#mask0_5226_12961)">
<path d="M6.91352 6.07662C6.80953 3.26808 6.02959 1.83828 4.7297 1.83828C3.68978 1.83828 3.01384 2.65531 2.70186 4.28937H2.38989V1.3787H2.59787L3.01384 2.19573C3.4818 1.63402 4.10575 1.32764 4.88568 1.32764C5.56163 1.32764 6.18558 1.58296 6.70554 2.04254C7.2255 2.50212 7.64146 3.21702 7.90144 4.18724C8.10942 4.90214 8.21342 5.6681 8.21342 6.48513C8.21342 7.966 7.95344 9.14048 7.38148 10.1107C7.1215 10.5703 6.70554 10.9788 6.23758 11.2341C5.87361 11.4384 5.45764 11.5405 4.98968 11.5405C4.41772 11.5405 3.89776 11.3362 3.4298 10.9788C2.75386 10.366 2.38989 9.3958 2.33789 8.01706H2.75386C2.80585 8.83409 2.96184 9.49793 3.27382 10.0086C3.4298 10.315 3.68978 10.5192 4.00176 10.6724C4.26174 10.8256 4.52171 10.8767 4.78169 10.8767C5.40564 10.8767 5.9256 10.5703 6.34157 9.90644C6.75753 9.2426 6.96552 8.06813 7.01751 6.43407H4.41772V5.97449H6.91352V6.07662Z" fill="#949AB0"/>
<path d="M13.4124 8.01692H11.1765V10.4169C11.1765 10.7744 11.2285 10.9787 11.3845 11.0808C11.4885 11.1318 11.6965 11.1829 11.9045 11.234V11.5404C11.3845 11.4893 10.9686 11.4382 10.6046 11.4382C10.2406 11.4382 9.82465 11.4893 9.30469 11.5404V11.234C9.56467 11.234 9.77265 11.1829 9.92864 11.0808C10.0846 10.9787 10.1366 10.7744 10.1366 10.4169V5.51477C10.1366 5.15732 10.0846 4.902 9.92864 4.85094C9.82465 4.79987 9.61666 4.74881 9.30469 4.69774V4.39136C9.82465 4.44242 10.2926 4.49349 10.6046 4.49349C10.9686 4.49349 11.3845 4.44242 11.9045 4.39136V4.69774C11.6965 4.69774 11.4885 4.74881 11.3845 4.85094C11.2285 4.95306 11.1765 5.15732 11.1765 5.51477V7.65947H13.4124V5.51477C13.4124 5.15732 13.3604 4.95306 13.2044 4.85094C13.1004 4.74881 12.8924 4.74881 12.6844 4.69774V4.39136C13.2044 4.44242 13.6203 4.49349 13.9843 4.49349C14.3483 4.49349 14.7642 4.44242 15.2842 4.39136V4.69774C15.0242 4.69774 14.8162 4.74881 14.6603 4.85094C14.5043 4.95306 14.4523 5.15732 14.4523 5.51477V10.4169C14.4523 10.7744 14.5043 11.0297 14.6603 11.0808C14.8162 11.1318 14.9722 11.1829 15.2842 11.234V11.5404C14.7642 11.4893 14.2963 11.4382 13.9843 11.4382C13.6203 11.4382 13.2044 11.4893 12.6844 11.5404V11.234C12.8924 11.234 13.1004 11.1829 13.2044 11.0808C13.3604 10.9787 13.4124 10.7744 13.4124 10.4169V8.01692Z" fill="#949AB0"/>
<path d="M20.3291 9.14042H20.7971C20.7451 9.75319 20.5371 10.3149 20.2771 10.7745C19.9131 11.3362 19.3932 11.5915 18.7172 11.5915C17.8853 11.5915 17.3134 11.2341 16.8454 10.5192C16.4294 9.85532 16.2734 8.98722 16.2734 7.96594C16.2734 6.94465 16.4814 6.12762 16.8454 5.41272C17.0534 5.05527 17.3653 4.74889 17.6773 4.54463C17.9373 4.39144 18.2493 4.28931 18.6132 4.28931C19.0812 4.28931 19.4452 4.4425 19.8611 4.74889C20.3811 5.1574 20.6931 5.97443 20.7971 7.09784C20.7971 7.25104 20.8491 7.50636 20.8491 7.76168H17.3654C17.3654 8.37445 17.4173 8.8851 17.4693 9.24255C17.6253 10.4681 18.0933 11.0809 18.8732 11.0809C19.3412 11.0809 19.7052 10.8766 19.9131 10.5192C20.1211 10.1617 20.2771 9.70212 20.3291 9.14042ZM19.7572 7.25104C19.7052 5.51485 19.3412 4.64676 18.6132 4.64676C18.3013 4.64676 18.0933 4.79995 17.8853 5.10634C17.6253 5.56591 17.4693 6.22975 17.4173 7.25104H19.7572Z" fill="#949AB0"/>
<path d="M21.7324 4.79995V4.54463C22.3564 4.49356 22.8763 4.39144 23.3443 4.28931C23.4483 4.59569 23.5003 5.00421 23.5003 5.56591C23.8643 4.74889 24.3842 4.34037 25.0082 4.34037C25.6841 4.34037 26.2041 4.69782 26.62 5.41272C27.036 6.12762 27.244 6.94465 27.244 7.96594C27.244 8.98722 27.036 9.85532 26.62 10.5702C26.2041 11.2851 25.6841 11.6426 25.0082 11.6426C24.6442 11.6426 24.3322 11.5404 24.1242 11.3362C23.9682 11.183 23.7603 10.9787 23.6043 10.6213V13.2766C23.6043 13.583 23.6563 13.7873 23.7603 13.8894C23.8643 13.9915 24.0722 14.0426 24.4362 14.0937V14.4C23.8642 14.349 23.3963 14.2979 23.0323 14.2979C22.6683 14.2979 22.2524 14.349 21.7324 14.4V14.0937C21.9404 14.0937 22.1484 14.0426 22.2524 13.9915C22.3564 13.9405 22.4084 13.8894 22.4604 13.8383C22.5124 13.7362 22.5644 13.5319 22.5644 13.2766V5.66804C22.5644 5.20846 22.4604 4.95314 22.3044 4.85101C22.2004 4.85101 21.9924 4.79995 21.7324 4.79995ZM24.8522 4.69782C24.4882 4.69782 24.1762 4.90208 23.9682 5.31059C23.7083 5.82124 23.5523 6.68933 23.5523 7.86381C23.5523 10.0596 23.9682 11.183 24.8522 11.183C25.6841 11.183 26.1001 10.1106 26.1001 8.017C26.1001 5.77017 25.6841 4.69782 24.8522 4.69782Z" fill="#949AB0"/>
<path d="M30.8322 11.1831V11.4895C30.3123 11.4384 29.8963 11.3874 29.5323 11.3874C29.1683 11.3874 28.7524 11.4384 28.2324 11.4895V11.1831C28.4924 11.1831 28.7004 11.1321 28.8564 11.0299C29.0124 10.9278 29.0644 10.7235 29.0644 10.3661V5.51498C29.0644 5.15753 29.0124 4.90221 28.8564 4.85114C28.7524 4.80008 28.5444 4.74901 28.2324 4.69795V4.44263H32.3921L32.6001 6.38307H32.2881C32.1321 5.82136 31.9761 5.41285 31.8721 5.25966C31.7161 5.00433 31.4042 4.85114 30.9882 4.85114H30.1043V10.4172C30.1043 10.7746 30.1563 10.9789 30.3123 11.081C30.4162 11.1321 30.6242 11.1831 30.8322 11.1831Z" fill="#949AB0"/>
<path d="M35.6145 4.23804C36.1344 4.23804 36.6024 4.44229 37.0183 4.90187C37.2783 5.20826 37.5383 5.66784 37.6943 6.28061C37.8503 6.79125 37.9023 7.3019 37.9023 7.8636C37.9023 8.88489 37.6943 9.75298 37.2783 10.4679C36.8624 11.1828 36.2904 11.5402 35.5625 11.5402C35.0945 11.5402 34.6785 11.387 34.3146 11.0296C33.9506 10.6721 33.6386 10.1615 33.4306 9.54873C33.2747 9.03808 33.2227 8.52744 33.2227 7.91467C33.2227 6.89338 33.4306 6.02529 33.8466 5.36145C34.2626 4.64655 34.8345 4.23804 35.6145 4.23804ZM35.5625 4.64655C35.2505 4.64655 34.9905 4.85081 34.7825 5.20826C34.4706 5.7189 34.3146 6.63806 34.3146 7.96573C34.3146 10.1104 34.7305 11.1828 35.5625 11.1828C35.8744 11.1828 36.1344 10.9785 36.3424 10.6211C36.6544 10.1104 36.8104 9.19128 36.8104 7.91467C36.7584 5.7189 36.3944 4.64655 35.5625 4.64655Z" fill="#949AB0"/>
<path d="M40.9705 9.03844L44.2462 3.01285V2.85965C44.2462 2.45114 44.1942 2.19582 44.0902 2.09369C43.9862 1.99156 43.7262 1.88943 43.3103 1.88943V1.53198C43.9342 1.58305 44.4022 1.63411 44.8181 1.63411C45.2341 1.63411 45.7021 1.58305 46.326 1.53198V1.88943C46.066 1.88943 45.8581 1.9405 45.7021 1.99156C45.5981 2.04263 45.5461 2.09369 45.4941 2.14475C45.4421 2.24688 45.3901 2.5022 45.3901 2.85965V10.1108C45.3901 10.5193 45.4421 10.7746 45.5461 10.8768C45.6501 10.9789 45.9101 11.081 46.326 11.081V11.4385C45.7021 11.3874 45.1821 11.3363 44.8181 11.3363C44.4542 11.3363 43.9342 11.3874 43.3103 11.4385V11.081C43.6222 11.0299 43.8302 11.0299 43.9342 10.9278C44.0382 10.8768 44.0902 10.8257 44.1422 10.7746C44.1942 10.6725 44.2462 10.4172 44.2462 10.0597V3.93201L40.9705 9.90653V10.1108C40.9705 10.5193 41.0225 10.7746 41.1264 10.8768C41.2304 10.9789 41.4904 11.081 41.9064 11.081V11.4385C41.2824 11.3874 40.7625 11.3363 40.3985 11.3363C40.0345 11.3363 39.5146 11.3874 38.8906 11.4385V11.081C39.1506 11.081 39.3586 11.0299 39.4626 10.9789C39.5666 10.9278 39.6706 10.8768 39.7226 10.7746C39.7746 10.6725 39.8265 10.4172 39.8265 10.0597V2.85965C39.8265 2.45114 39.7746 2.19582 39.6706 2.09369C39.5666 1.99156 39.3066 1.88943 38.8906 1.88943V1.53198C39.4626 1.58305 39.9825 1.63411 40.3985 1.63411C40.8145 1.63411 41.2824 1.58305 41.9064 1.53198V1.88943C41.6464 1.88943 41.4904 1.9405 41.3344 1.99156C41.2304 2.04263 41.1264 2.09369 41.0744 2.14475C41.0225 2.24688 40.9705 2.5022 40.9705 2.85965V9.03844Z" fill="#949AB0"/>
<path d="M51.3186 8.01692H49.0828V10.4169C49.0828 10.7744 49.1348 10.9787 49.2908 11.0808C49.3948 11.1318 49.6027 11.1829 49.8107 11.234V11.5404C49.2908 11.4893 48.8748 11.4382 48.5108 11.4382C48.1469 11.4382 47.7309 11.4893 47.2109 11.5404V11.234C47.4709 11.234 47.6789 11.1829 47.8349 11.0808C47.9909 10.9787 48.0429 10.7744 48.0429 10.4169V5.51477C48.0429 5.15732 47.9909 4.902 47.8349 4.85094C47.7309 4.79987 47.5229 4.74881 47.2109 4.69774V4.39136C47.7309 4.44242 48.1989 4.49349 48.5108 4.49349C48.8748 4.49349 49.2908 4.44242 49.8107 4.39136V4.69774C49.6027 4.69774 49.3948 4.74881 49.2908 4.85094C49.1348 4.95306 49.0828 5.15732 49.0828 5.51477V7.65947H51.3186V5.51477C51.3186 5.15732 51.2666 4.95306 51.1106 4.85094C51.0066 4.74881 50.7986 4.74881 50.5907 4.69774V4.39136C51.1106 4.44242 51.5266 4.49349 51.8906 4.49349C52.2545 4.49349 52.6705 4.44242 53.1905 4.39136V4.69774C52.9305 4.69774 52.7225 4.74881 52.5665 4.85094C52.4105 4.95306 52.3585 5.15732 52.3585 5.51477V10.4169C52.3585 10.7744 52.4105 11.0297 52.5665 11.0808C52.7225 11.1318 52.8785 11.1829 53.1905 11.234V11.5404C52.6705 11.4893 52.2025 11.4382 51.8906 11.4382C51.5266 11.4382 51.1106 11.4893 50.5907 11.5404V11.234C50.7986 11.234 51.0066 11.1829 51.1106 11.0808C51.2666 10.9787 51.3186 10.7744 51.3186 10.4169V8.01692Z" fill="#949AB0"/>
<path d="M58.1819 8.01692H55.9461V10.4169C55.9461 10.7744 55.9981 10.9787 56.1541 11.0808C56.258 11.1318 56.466 11.1829 56.674 11.234V11.5404C56.1541 11.4893 55.7381 11.4382 55.3741 11.4382C55.0101 11.4382 54.5942 11.4893 54.0742 11.5404V11.234C54.3342 11.234 54.5422 11.1829 54.6982 11.0808C54.8542 10.9787 54.9062 10.7744 54.9062 10.4169V5.51477C54.9062 5.15732 54.8542 4.902 54.6982 4.85094C54.5942 4.79987 54.3862 4.74881 54.0742 4.69774V4.39136C54.5942 4.44242 55.0621 4.49349 55.3741 4.49349C55.7381 4.49349 56.1541 4.44242 56.674 4.39136V4.69774C56.466 4.69774 56.258 4.74881 56.1541 4.85094C55.9981 4.95306 55.9461 5.15732 55.9461 5.51477V7.65947H58.1819V5.51477C58.1819 5.15732 58.1299 4.95306 57.9739 4.85094C57.8699 4.74881 57.6619 4.74881 57.4539 4.69774V4.39136C57.9739 4.44242 58.3899 4.49349 58.7538 4.49349C59.1178 4.49349 59.5338 4.44242 60.0537 4.39136V4.69774C59.7938 4.69774 59.5858 4.74881 59.4298 4.85094C59.2738 4.95306 59.2218 5.15732 59.2218 5.51477V10.4169C59.2218 10.7744 59.2738 11.0297 59.4298 11.0808C59.5858 11.1318 59.7418 11.1829 60.0537 11.234V11.5404C59.5338 11.4893 59.0658 11.4382 58.7538 11.4382C58.3899 11.4382 57.9739 11.4893 57.4539 11.5404V11.234C57.6619 11.234 57.8699 11.1829 57.9739 11.0808C58.1299 10.9787 58.1819 10.7744 58.1819 10.4169V8.01692Z" fill="#949AB0"/>
<path d="M63.4328 4.23804C63.9528 4.23804 64.4207 4.44229 64.8367 4.90187C65.0967 5.20826 65.3567 5.66784 65.5127 6.28061C65.6686 6.79125 65.7206 7.3019 65.7206 7.8636C65.7206 8.88489 65.5127 9.75298 65.0967 10.4679C64.6807 11.1828 64.1088 11.5402 63.3808 11.5402C62.9129 11.5402 62.4969 11.387 62.1329 11.0296C61.769 10.6721 61.457 10.1615 61.249 9.54873C61.093 9.03808 61.041 8.52744 61.041 7.91467C61.041 6.89338 61.249 6.02529 61.665 5.36145C62.0809 4.64655 62.7049 4.23804 63.4328 4.23804ZM63.4328 4.64655C63.1208 4.64655 62.8609 4.85081 62.6529 5.20826C62.3409 5.76997 62.1849 6.68912 62.1849 7.96573C62.1849 10.1104 62.6009 11.1828 63.4328 11.1828C63.7448 11.1828 64.0048 10.9785 64.2128 10.6211C64.5247 10.1104 64.6807 9.19128 64.6807 7.91467C64.6287 5.7189 64.2128 4.64655 63.4328 4.64655Z" fill="#949AB0"/>
<path d="M66.709 11.4384V11.1321C66.969 11.1321 67.1769 11.081 67.3329 10.9789C67.4889 10.8767 67.5409 10.6725 67.5409 10.315V5.51498C67.5409 5.15753 67.4889 4.90221 67.3329 4.85114C67.2289 4.80008 67.021 4.74901 66.709 4.69795V4.44263H69.4648C70.0887 4.44263 70.5567 4.54476 70.8686 4.80008C71.2846 5.10646 71.4926 5.56604 71.4926 6.12775C71.4926 6.63839 71.3366 7.04691 70.9726 7.35329C70.8167 7.50649 70.6087 7.60861 70.3487 7.65968C71.3366 7.86394 71.8046 8.47671 71.8046 9.44693C71.8046 10.2129 71.5446 10.7235 70.9726 11.081C70.6087 11.2852 70.0367 11.4384 69.4128 11.4384H66.709ZM68.6328 7.50649H69.3608C69.7247 7.50649 69.9847 7.35329 70.1407 7.09797C70.2967 6.84265 70.4007 6.53626 70.4007 6.12775C70.4007 5.25966 69.9847 4.80008 69.2048 4.80008H68.6328V7.50649ZM68.6328 7.915V10.315C68.6328 10.6214 68.6848 10.7746 68.7368 10.8767C68.8408 10.9789 68.9968 11.0299 69.2568 11.0299C70.1927 11.0299 70.7127 10.5193 70.7127 9.49799C70.7127 8.47671 70.2967 7.915 69.4128 7.915H68.6328Z" fill="#949AB0"/>
<path d="M77.6278 11.0296V11.4381C77.3679 11.4892 77.1079 11.5402 76.8999 11.5402C76.3279 11.5402 76.016 11.1317 75.964 10.3147C75.652 11.1317 75.132 11.5402 74.4041 11.5402C73.9361 11.5402 73.5202 11.387 73.2082 11.0296C72.8962 10.6721 72.7402 10.2126 72.7402 9.65085C72.7402 8.88489 73.0522 8.27212 73.6242 7.8636C74.2481 7.45509 74.9761 7.1487 75.808 7.04657V5.97422C75.808 5.41252 75.704 5.05507 75.496 4.85081C75.34 4.69762 75.132 4.64655 74.9241 4.64655C74.6121 4.64655 74.4041 4.74868 74.1961 4.95294C74.0921 5.10613 73.9881 5.25932 73.9881 5.46358C73.9881 5.51464 73.9881 5.56571 73.9881 5.66784C73.9881 5.76997 73.9881 5.8721 73.9881 5.92316C73.9881 6.33167 73.8322 6.53593 73.4682 6.53593C73.1562 6.53593 73.0522 6.38274 73.0522 6.02529C73.0522 5.51464 73.2602 5.10613 73.6762 4.74868C74.0401 4.39123 74.5081 4.23804 75.0281 4.23804C75.496 4.23804 75.86 4.34017 76.172 4.59549C76.4839 4.85081 76.6919 5.20826 76.7959 5.66784C76.8479 5.8721 76.8479 6.22955 76.8479 6.587V9.70192C76.8479 10.4168 76.8999 10.8253 77.0559 10.9275C77.1079 10.9785 77.2119 11.0296 77.3159 11.0296C77.4199 11.0807 77.5239 11.0807 77.6278 11.0296ZM75.808 7.45509C75.392 7.55722 75.0281 7.71041 74.7161 7.8636C74.0921 8.22105 73.7802 8.78276 73.7802 9.59979C73.7802 10.1104 73.8841 10.5189 74.1441 10.7232C74.3001 10.8764 74.4561 10.9275 74.7161 10.9275C75.444 10.9275 75.808 10.2126 75.808 8.7317V7.45509Z" fill="#949AB0"/>
<path d="M81.0588 4.69774C80.8508 4.69774 80.6428 4.74881 80.5388 4.85094C80.3828 4.95306 80.3308 5.15732 80.3308 5.51477V10.3148C80.3308 10.6723 80.3828 10.8765 80.5388 10.9787C80.6428 11.0297 80.7988 11.0808 80.9548 11.0808C81.0588 11.0808 81.2148 11.0808 81.4747 11.0808C81.7867 11.0808 81.9947 11.0808 82.0987 11.0808C82.2027 11.0808 82.3067 11.0297 82.4107 10.9787C82.5667 10.8765 82.6186 10.6723 82.6186 10.3148V5.51477C82.6186 5.15732 82.5667 4.95306 82.4107 4.85094C82.3067 4.74881 82.0987 4.74881 81.8907 4.69774V4.39136C82.4107 4.44242 82.8266 4.49349 83.1906 4.49349C83.5546 4.49349 83.9705 4.44242 84.4905 4.39136V4.69774C84.2305 4.69774 84.0225 4.74881 83.8666 4.85094C83.7106 4.95306 83.6586 5.15732 83.6586 5.51477V10.3659C83.6586 10.7233 83.7106 10.9276 83.8666 11.0297C84.0225 11.0808 84.1785 11.1318 84.4905 11.1829V13.1234H84.1785C84.1265 12.5106 84.0225 12.1021 83.8666 11.8978C83.7106 11.6425 83.2946 11.4893 82.7226 11.4893H78.459V11.1829C78.719 11.1829 78.927 11.1318 79.0829 11.0297C79.2389 10.9787 79.2909 10.7233 79.2909 10.3659V5.51477C79.2909 5.15732 79.2389 4.902 79.0829 4.85094C78.9789 4.79987 78.771 4.74881 78.459 4.69774V4.39136C78.9789 4.44242 79.4469 4.49349 79.7589 4.49349C80.1228 4.49349 80.5388 4.44242 81.0588 4.39136V4.69774Z" fill="#949AB0"/>
<path d="M89.3791 6.38287L87.1433 10.2638V10.4169C87.1433 10.7744 87.1953 10.9787 87.3513 11.0808C87.4553 11.1318 87.6633 11.1829 87.8713 11.234V11.5404C87.3513 11.4893 86.9353 11.4382 86.5714 11.4382C86.2074 11.4382 85.7914 11.4893 85.2715 11.5404V11.234C85.5315 11.234 85.7394 11.1829 85.8954 11.0808C86.0514 10.9787 86.1034 10.7744 86.1034 10.4169V5.51477C86.1034 5.15732 86.0514 4.902 85.8954 4.85094C85.7914 4.79987 85.5835 4.74881 85.2715 4.69774V4.39136C85.7914 4.44242 86.2594 4.49349 86.5714 4.49349C86.9353 4.49349 87.3513 4.44242 87.8713 4.39136V4.69774C87.6633 4.69774 87.4553 4.74881 87.3513 4.85094C87.1953 4.95306 87.1433 5.15732 87.1433 5.51477V9.44672L89.3791 5.56584V5.51477C89.3791 5.15732 89.3272 4.95306 89.1712 4.85094C89.0672 4.74881 88.8592 4.74881 88.6512 4.69774V4.39136C89.1712 4.44242 89.5871 4.49349 89.9511 4.49349C90.3151 4.49349 90.731 4.44242 91.251 4.39136V4.69774C90.991 4.69774 90.783 4.74881 90.6271 4.85094C90.4711 4.95306 90.4191 5.15732 90.4191 5.51477V10.4169C90.4191 10.7744 90.4711 11.0297 90.6271 11.0808C90.783 11.1318 90.939 11.1829 91.251 11.234V11.5404C90.731 11.4893 90.2631 11.4382 89.9511 11.4382C89.5871 11.4382 89.1712 11.4893 88.6512 11.5404V11.234C88.8592 11.234 89.0672 11.1829 89.1712 11.0808C89.3272 10.9787 89.3791 10.7744 89.3791 10.4169V6.38287Z" fill="#949AB0"/>
<path d="M96.2424 6.38287L94.0066 10.2638V10.4169C94.0066 10.7744 94.0586 10.9787 94.2146 11.0808C94.3186 11.1318 94.5266 11.1829 94.7346 11.234V11.5404C94.2146 11.4893 93.7986 11.4382 93.4347 11.4382C93.0707 11.4382 92.6547 11.4893 92.1348 11.5404V11.234C92.3947 11.234 92.6027 11.1829 92.7587 11.0808C92.9147 10.9787 92.9667 10.7744 92.9667 10.4169V5.51477C92.9667 5.15732 92.9147 4.902 92.7587 4.85094C92.6547 4.79987 92.4467 4.74881 92.1348 4.69774V4.39136C92.6547 4.44242 93.1227 4.49349 93.4347 4.49349C93.7986 4.49349 94.2146 4.44242 94.7346 4.39136V4.69774C94.5266 4.69774 94.3186 4.74881 94.2146 4.85094C94.0586 4.95306 94.0066 5.15732 94.0066 5.51477V9.44672L96.2424 5.56584V5.51477C96.2424 5.15732 96.1904 4.95306 96.0345 4.85094C95.9305 4.74881 95.7225 4.74881 95.5145 4.69774V4.39136C96.0345 4.44242 96.4504 4.49349 96.8144 4.49349C97.1784 4.49349 97.5943 4.44242 98.1143 4.39136V4.69774C97.8543 4.69774 97.6463 4.74881 97.4903 4.85094C97.3343 4.95306 97.2824 5.15732 97.2824 5.51477V10.4169C97.2824 10.7744 97.3343 11.0297 97.4903 11.0808C97.6463 11.1318 97.8023 11.1829 98.1143 11.234V11.5404C97.5943 11.4893 97.1264 11.4382 96.8144 11.4382C96.4504 11.4382 96.0345 11.4893 95.5145 11.5404V11.234C95.7225 11.234 95.9305 11.1829 96.0345 11.0808C96.1904 10.9787 96.2424 10.7744 96.2424 10.4169V6.38287Z" fill="#949AB0"/>
</g>
</g>
<defs>
<clipPath id="clip0_5226_12961">
<rect width="99" height="19.6087" fill="white"/>
</clipPath>
</defs>
</svg>
