<svg width="131" height="17" viewBox="0 0 131 17" fill="none" xmlns="http://www.w3.org/2000/svg">
<path d="M52.6779 4.81245H52.4084C52.1523 4.81392 51.901 4.88061 51.6792 5.00596C51.4574 5.13077 51.2728 5.31035 51.1438 5.52681L47.7027 11.2363L44.2136 5.51596C44.0839 5.302 43.8994 5.12495 43.6783 5.00234C43.4575 4.87969 43.2084 4.81432 42.9546 4.81245H42.7497C42.5537 4.81453 42.36 4.85384 42.1793 4.92819C42 5.00148 41.8374 5.10908 41.7011 5.24468C41.4248 5.51928 41.2708 5.88995 41.2728 6.27553V12.5203H42.7497V5.85234L46.2757 11.9072C46.41 12.1474 46.6076 12.3479 46.848 12.4878C47.0276 12.592 47.2265 12.6605 47.4332 12.6892C47.6399 12.7178 47.8503 12.7062 48.0524 12.655C48.2545 12.6037 48.4443 12.5138 48.6108 12.3905C48.7773 12.2671 48.9173 12.1127 49.0227 11.9362L52.6779 5.86319V12.5203H54.1548V6.27915C54.1562 6.08715 54.1185 5.89679 54.044 5.71919C53.9695 5.54159 53.8597 5.38028 53.721 5.24468C53.4446 4.97221 53.07 4.81698 52.6779 4.81245ZM37.4016 4.81245H31.2098C30.9476 4.81173 30.6878 4.86165 30.4453 4.95936C30.2028 5.05706 29.9823 5.20063 29.7965 5.38185C29.6106 5.56308 29.463 5.77841 29.3622 6.01554C29.2613 6.25267 29.2092 6.50694 29.2087 6.76383V10.5617C29.2092 10.8172 29.2612 11.0702 29.3616 11.306C29.462 11.5419 29.6089 11.756 29.7939 11.9362C30.17 12.303 30.6791 12.5092 31.2098 12.5095H37.4016C37.9314 12.5099 38.4397 12.3046 38.8152 11.9385C39.1907 11.5723 39.4026 11.0753 39.4046 10.5563V6.7584C39.4017 6.24037 39.1892 5.74461 38.8137 5.37982C38.4382 5.01504 37.9304 4.811 37.4016 4.81245ZM30.6819 11.0518V6.27915H37.9296V11.0518H30.6819ZM26.8051 5.38394C26.4288 5.01756 25.9197 4.81209 25.3892 4.81245H17.1796V12.5203H18.6565V10.6105H25.391C25.6538 10.6101 25.9139 10.5598 26.1571 10.4622C26.3994 10.3632 26.62 10.2195 26.8069 10.039C26.9904 9.8567 27.1359 9.64109 27.2352 9.40426C27.3366 9.16776 27.3887 8.91382 27.3885 8.65734V6.76383C27.387 6.24622 27.1766 5.75018 26.8033 5.38394H26.8051ZM18.6583 9.14202V6.27915H25.9061V9.14202H18.6583ZM14.7428 5.38213C14.556 5.20044 14.3345 5.05661 14.0909 4.95886C13.8473 4.86111 13.5864 4.81136 13.3232 4.81245H7.12403C6.86172 4.81173 6.60183 4.86164 6.35921 4.95932C6.11659 5.057 5.89598 5.20054 5.70999 5.38174C5.52399 5.56295 5.37625 5.77827 5.27519 6.0154C5.17414 6.25254 5.12176 6.50686 5.12103 6.76383V12.5203H6.59789V6.27915H13.8456V12.5203H15.3335V6.76383C15.3337 6.50676 15.2817 6.25223 15.1803 6.01511C15.0798 5.77724 14.9309 5.56188 14.7428 5.38213ZM111.993 4.95894C111.625 5.10539 111.311 5.35557 111.089 5.67763C110.868 5.99969 110.749 6.37906 110.748 6.76745V12.5203H112.225V6.27915H118.921V4.81245H112.762C112.498 4.81101 112.237 4.8608 111.993 4.95894ZM106.888 4.81245H98.7007V12.5203H100.178V10.6105H106.888C107.151 10.6112 107.411 10.5613 107.653 10.4635C107.896 10.3657 108.117 10.222 108.303 10.0406C108.489 9.8592 108.637 9.64367 108.737 9.40632C108.838 9.16898 108.891 8.91447 108.891 8.65734V6.76383C108.89 6.50686 108.838 6.25254 108.737 6.0154C108.636 5.77827 108.488 5.56295 108.302 5.38174C108.116 5.20054 107.896 5.057 107.653 4.95932C107.41 4.86164 107.15 4.81173 106.888 4.81245ZM100.168 9.14202V6.27915H107.416L107.442 9.14202H100.168ZM129.746 5.38394C129.37 5.01706 128.861 4.81149 128.33 4.81245H122.14C121.878 4.81173 121.618 4.86164 121.376 4.95932C121.133 5.057 120.912 5.20054 120.726 5.38174C120.54 5.56295 120.393 5.77827 120.292 6.0154C120.191 6.25254 120.138 6.50686 120.137 6.76383V10.5617C120.139 10.818 120.193 11.0715 120.295 11.3074C120.397 11.5434 120.546 11.7571 120.734 11.9362C121.109 12.3035 121.619 12.5097 122.15 12.5095H128.34C128.867 12.5074 129.373 12.3013 129.746 11.9362C129.932 11.7565 130.079 11.5428 130.18 11.3072C130.28 11.0717 130.333 10.8189 130.333 10.5635V6.76564C130.334 6.50874 130.282 6.25434 130.181 6.01717C130.08 5.78 129.933 5.56477 129.746 5.38394ZM121.611 11.0518V6.27915H128.856V11.0518H121.611ZM53.8336 4.09492e-07H5.46625C4.01851 0.000288691 2.62961 0.561316 1.6024 1.56074C1.09499 2.05455 0.692208 2.64173 0.417213 3.28853C0.142217 3.93534 0.000429526 4.62901 0 5.32968L0 11.6703C0.00233166 12.7263 0.3244 13.7579 0.925444 14.6345C1.52649 15.5112 2.37949 16.1934 3.37648 16.5949C4.03995 16.8626 4.75056 17.0002 5.46809 17H53.8354C55.2843 17.0001 56.6745 16.4391 57.703 15.4393C58.2098 14.9451 58.6121 14.3578 58.8867 13.7111C59.1614 13.0643 59.303 12.3708 59.3035 11.6703V5.32968C59.303 4.62919 59.1614 3.93568 58.8867 3.28892C58.6121 2.64216 58.2098 2.05488 57.703 1.56074C56.6741 0.560493 55.2831 -0.00055332 53.8336 4.09492e-07ZM57.8654 11.6703C57.8647 12.1867 57.76 12.6979 57.5573 13.1746C57.3545 13.6513 57.0577 14.0841 56.6839 14.4482C55.9253 15.1843 54.9013 15.5982 53.8336 15.6002H5.46625C4.39849 15.5982 3.37449 15.1843 2.6159 14.4482C1.86178 13.7123 1.43681 12.7131 1.43441 11.6703V5.32968C1.43681 4.28691 1.86178 3.28774 2.6159 2.55181C3.37495 1.81523 4.39969 1.40133 5.46809 1.39979H53.8354C54.9032 1.4018 55.9272 1.81567 56.6858 2.55181C57.0596 2.91591 57.3564 3.34871 57.5591 3.82539C57.7619 4.30208 57.8666 4.81327 57.8673 5.32968L57.8654 11.6703ZM94.8295 4.81245H88.6377C88.3754 4.81173 88.1155 4.86164 87.8729 4.95932C87.6303 5.057 87.4097 5.20054 87.2237 5.38174C87.0377 5.56295 86.89 5.77827 86.7889 6.0154C86.6879 6.25254 86.6355 6.50686 86.6347 6.76383V10.5617C86.6362 11.0808 86.848 11.5782 87.2236 11.9444C87.5992 12.3107 88.1078 12.5159 88.6377 12.5149H96.2288V11.0319H88.1153V9.45851H96.8325V6.76383C96.8318 6.50686 96.7794 6.25254 96.6783 6.0154C96.5773 5.77827 96.4295 5.56295 96.2435 5.38174C96.0575 5.20054 95.8369 5.057 95.5943 4.95932C95.3517 4.86164 95.0918 4.81173 94.8295 4.81245ZM95.3593 8.00085H88.1208V6.27915H95.3593V8.00085ZM83.3469 7.87245H76.0992V4.81245H74.6352V12.5203H76.1121V9.33915H83.3598V12.5203H84.8367V4.81245H83.3598L83.3469 7.87245ZM72.2002 5.38213C72.0132 5.20023 71.7914 5.05627 71.5474 4.95852C71.3035 4.86076 71.0423 4.81112 70.7788 4.81245H62.5822V6.27915H71.3049V7.87968H62.5822V9.33915H71.3049V11.0518H62.5822V12.5203H70.7788C71.042 12.5214 71.3029 12.4717 71.5465 12.3739C71.79 12.2762 72.0116 12.1323 72.1984 11.9506C72.3848 11.7694 72.5328 11.5539 72.6339 11.3165C72.7349 11.0791 72.7871 10.8244 72.7873 10.5671V6.76926C72.789 6.51222 72.7375 6.25751 72.6359 6.02053C72.5348 5.78181 72.3868 5.56489 72.2002 5.38213Z" fill="#A5ACC3"/>
</svg>
