<svg width="207" height="27" viewBox="0 0 207 27" fill="none" xmlns="http://www.w3.org/2000/svg">
<path d="M83.6649 7.6433H83.2369C82.8302 7.64565 82.431 7.75156 82.0787 7.95064C81.7264 8.14887 81.4332 8.43408 81.2284 8.77787L75.7632 17.8459L70.2217 8.76064C70.0156 8.42082 69.7225 8.13962 69.3714 7.94489C69.0208 7.75009 68.6251 7.64628 68.222 7.6433H67.8966C67.5853 7.64661 67.2776 7.70904 66.9906 7.82713C66.7058 7.94353 66.4477 8.11442 66.2312 8.32979C65.7923 8.76591 65.5477 9.35462 65.551 9.96702V19.8852H67.8966V9.2949L73.4967 18.9115C73.71 19.293 74.0239 19.6114 74.4056 19.8335C74.6909 19.9991 75.0068 20.1078 75.335 20.1534C75.6633 20.1989 75.9976 20.1805 76.3186 20.0991C76.6395 20.0177 76.9409 19.8749 77.2054 19.679C77.4698 19.483 77.6922 19.2378 77.8596 18.9574L83.6649 9.31213V19.8852H86.0106V9.97277C86.0127 9.66782 85.9529 9.3655 85.8346 9.08342C85.7163 8.80134 85.5419 8.54515 85.3215 8.32979C84.8826 7.89703 84.2877 7.6505 83.6649 7.6433ZM59.4025 7.6433H49.5686C49.1521 7.64217 48.7395 7.72145 48.3543 7.87663C47.9691 8.0318 47.619 8.25982 47.3238 8.54765C47.0286 8.83548 46.7942 9.17748 46.6341 9.55409C46.4739 9.93071 46.391 10.3346 46.3903 10.7426V16.7745C46.3912 17.1803 46.4737 17.582 46.6332 17.9566C46.7927 18.3312 47.026 18.6713 47.3197 18.9574C47.9171 19.5401 48.7256 19.8675 49.5686 19.868H59.4025C60.244 19.8687 61.0514 19.5426 61.6477 18.9611C62.244 18.3796 62.5807 17.5901 62.5838 16.7659V10.7339C62.5791 9.91117 62.2416 9.12379 61.6453 8.54443C61.0489 7.96507 60.2424 7.641 59.4025 7.6433ZM48.73 17.5529V9.97277H60.2411V17.5529H48.73ZM42.5728 8.55096C41.9751 7.96907 41.1666 7.64272 40.3239 7.6433H27.2853V19.8852H29.6309V16.852H40.3269C40.7442 16.8514 41.1574 16.7714 41.5437 16.6165C41.9284 16.4592 42.2788 16.231 42.5757 15.9444C42.8672 15.6548 43.0982 15.3123 43.256 14.9362C43.4169 14.5606 43.4996 14.1572 43.4993 13.7499V10.7426C43.497 9.92046 43.1629 9.13264 42.5699 8.55096H42.5728ZM29.6338 14.5197V9.97277H41.1449V14.5197H29.6338ZM23.415 8.54809C23.1183 8.25953 22.7665 8.03109 22.3796 7.87584C21.9927 7.72059 21.5784 7.64157 21.1603 7.6433H11.3146C10.898 7.64217 10.4853 7.72143 10.0999 7.87657C9.71458 8.03171 9.36421 8.25968 9.0688 8.54748C8.7734 8.83527 8.53875 9.17725 8.37825 9.55388C8.21775 9.93051 8.13455 10.3344 8.1334 10.7426V19.8852H10.479V9.97277H21.9901V19.8852H24.3533V10.7426C24.3536 10.3343 24.2709 9.93002 24.1099 9.5534C23.9503 9.17562 23.7138 8.83358 23.415 8.54809ZM177.87 7.87596C177.287 8.10856 176.788 8.5059 176.436 9.01741C176.084 9.52892 175.896 10.1315 175.894 10.7483V19.8852H178.24V9.97277H188.874V7.6433H179.093C178.674 7.64102 178.258 7.7201 177.87 7.87596ZM169.763 7.6433H156.76V19.8852H159.106V16.852H169.763C170.18 16.8532 170.593 16.7738 170.979 16.6185C171.364 16.4632 171.715 16.2349 172.01 15.9468C172.306 15.6587 172.54 15.3164 172.701 14.9395C172.861 14.5625 172.944 14.1583 172.945 13.7499V10.7426C172.944 10.3344 172.86 9.93051 172.7 9.55388C172.539 9.17725 172.305 8.83527 172.009 8.54748C171.714 8.25968 171.364 8.03171 170.978 7.87657C170.593 7.72143 170.18 7.64217 169.763 7.6433ZM159.091 14.5197V9.97277H170.602L170.643 14.5197H159.091ZM206.068 8.55096C205.47 7.96827 204.662 7.64178 203.819 7.6433H193.988C193.571 7.64217 193.158 7.72143 192.773 7.87657C192.388 8.03171 192.037 8.25968 191.742 8.54748C191.446 8.83527 191.212 9.17725 191.051 9.55388C190.891 9.93051 190.808 10.3344 190.807 10.7426V16.7745C190.809 17.1816 190.894 17.5842 191.057 17.9589C191.219 18.3336 191.456 18.673 191.754 18.9574C192.35 19.5409 193.159 19.8684 194.002 19.868H203.833C204.672 19.8646 205.474 19.5374 206.068 18.9574C206.362 18.6721 206.596 18.3327 206.756 17.9585C206.916 17.5844 206.999 17.183 207 16.7773V10.7454C207 10.3374 206.918 9.93337 206.758 9.55669C206.598 9.18 206.363 8.83816 206.068 8.55096ZM193.146 17.5529V9.97277H204.654V17.5529H193.146ZM85.5004 6.5037e-07H8.68169C6.38234 0.00045851 4.17643 0.891502 2.54499 2.47883C1.7391 3.26311 1.09939 4.19569 0.662632 5.22297C0.225875 6.25025 0.000682188 7.35196 0 8.46479L0 18.5352C0.00370322 20.2124 0.515224 21.8508 1.46982 23.2431C2.42442 24.6354 3.77919 25.7189 5.36265 26.3566C6.41639 26.7817 7.54501 27.0003 8.68462 27H85.5033C87.8045 27.0001 90.0125 26.1091 91.6459 24.5212C92.4508 23.7364 93.0898 22.8036 93.526 21.7764C93.9622 20.7492 94.1871 19.6478 94.1879 18.5352V8.46479C94.1871 7.35224 93.9622 6.25078 93.526 5.22357C93.0898 4.19637 92.4508 3.26363 91.6459 2.47883C90.0117 0.890194 87.8026 -0.000878803 85.5004 6.5037e-07ZM91.9039 18.5352C91.9028 19.3554 91.7365 20.1673 91.4145 20.9244C91.0925 21.6815 90.6211 22.3688 90.0274 22.9471C88.8226 24.1163 87.1962 24.7736 85.5004 24.7768H8.68169C6.98583 24.7736 5.35948 24.1163 4.15466 22.9471C2.95694 21.7783 2.28199 20.1914 2.27817 18.5352V8.46479C2.28199 6.80862 2.95694 5.22171 4.15466 4.05287C5.36021 2.88301 6.98775 2.22564 8.68462 2.22319H85.5033C87.1992 2.22639 88.8255 2.88371 90.0303 4.05287C90.624 4.63115 91.0954 5.31854 91.4174 6.07562C91.7394 6.83271 91.9057 7.64461 91.9068 8.46479L91.9039 18.5352ZM150.612 7.6433H140.778C140.361 7.64217 139.948 7.72143 139.563 7.87657C139.178 8.03171 138.827 8.25968 138.532 8.54748C138.236 8.83527 138.002 9.17725 137.841 9.55388C137.681 9.93051 137.598 10.3344 137.596 10.7426V16.7745C137.599 17.599 137.935 18.3889 138.532 18.9706C139.128 19.5522 139.936 19.8781 140.778 19.8766H152.834V17.5213H139.948V15.0223H153.793V10.7426C153.792 10.3344 153.708 9.93051 153.548 9.55388C153.387 9.17725 153.153 8.83527 152.857 8.54748C152.562 8.25968 152.212 8.03171 151.826 7.87657C151.441 7.72143 151.028 7.64217 150.612 7.6433ZM151.453 12.7072H139.957V9.97277H151.453V12.7072ZM132.374 12.5033H120.863V7.6433H118.538V19.8852H120.884V14.8328H132.395V19.8852H134.741V7.6433H132.395L132.374 12.5033ZM114.671 8.54809C114.374 8.25918 114.022 8.03055 113.634 7.87529C113.247 7.72003 112.832 7.64119 112.413 7.6433H99.3952V9.97277H113.249V12.5148H99.3952V14.8328H113.249V17.5529H99.3952V19.8852H112.413C112.831 19.8869 113.246 19.8079 113.633 19.6527C114.019 19.4974 114.371 19.269 114.668 18.9804C114.964 18.6926 115.199 18.3504 115.36 17.9732C115.52 17.5961 115.603 17.1917 115.603 16.7831V10.7512C115.606 10.3429 115.524 9.9384 115.363 9.56202C115.202 9.18287 114.967 8.83836 114.671 8.54809Z" fill="#A5ACC3"/>
</svg>
