<svg width="115" height="15" viewBox="0 0 115 15" fill="none" xmlns="http://www.w3.org/2000/svg">
<g clip-path="url(#clip0_5226_12248)">
<path d="M46.4047 4.23935H46.1673C45.9417 4.24065 45.7203 4.2994 45.5249 4.40982C45.3295 4.51976 45.1669 4.67796 45.0533 4.86864L42.022 9.89819L38.9484 4.85908C38.8341 4.6706 38.6715 4.51463 38.4768 4.40663C38.2823 4.29858 38.0629 4.241 37.8393 4.23935H37.6588C37.4861 4.24119 37.3155 4.27581 37.1563 4.34131C36.9984 4.40587 36.8552 4.50066 36.7351 4.62011C36.4917 4.86201 36.356 5.18853 36.3578 5.5282V11.0293H37.6588V5.15541L40.7649 10.4892C40.8832 10.7008 41.0573 10.8775 41.269 11.0006C41.4273 11.0925 41.6024 11.1528 41.7845 11.178C41.9666 11.2033 42.152 11.1931 42.33 11.1479C42.5081 11.1028 42.6752 11.0236 42.8219 10.9149C42.9686 10.8063 43.0919 10.6703 43.1847 10.5147L46.4047 5.16497V11.0293H47.7057V5.53139C47.7069 5.36225 47.6737 5.19457 47.6081 5.03811C47.5425 4.88166 47.4458 4.73956 47.3235 4.62011C47.0801 4.38008 46.7501 4.24335 46.4047 4.23935ZM32.9476 4.23935H27.4932C27.2622 4.23872 27.0333 4.2827 26.8197 4.36877C26.6061 4.45483 26.4118 4.5813 26.2481 4.74095C26.0844 4.90059 25.9544 5.09028 25.8656 5.29917C25.7767 5.50806 25.7308 5.73206 25.7303 5.95835V9.30395C25.7308 9.52905 25.7766 9.75186 25.8651 9.95961C25.9535 10.1674 26.0829 10.356 26.2459 10.5147C26.5772 10.8379 27.0256 11.0195 27.4932 11.0198H32.9476C33.4143 11.0202 33.8621 10.8393 34.1929 10.5168C34.5236 10.1942 34.7103 9.75636 34.712 9.29917V5.95357C34.7095 5.49723 34.5223 5.0605 34.1915 4.73916C33.8607 4.41782 33.4134 4.23808 32.9476 4.23935ZM27.0281 9.73569V5.53139H33.4127V9.73569H27.0281ZM23.613 4.74278C23.2815 4.42004 22.833 4.23903 22.3657 4.23935H15.1338V11.0293H16.4348V9.34696H22.3673C22.5987 9.3466 22.8279 9.30224 23.0422 9.21632C23.2556 9.12909 23.4499 9.00254 23.6146 8.84353C23.7762 8.6829 23.9044 8.49297 23.9919 8.28434C24.0812 8.07601 24.127 7.85231 24.1269 7.62637V5.95835C24.1256 5.50238 23.9403 5.06541 23.6113 4.74278H23.613ZM16.4364 8.05333V5.53139H22.821V8.05333H16.4364ZM12.9871 4.74119C12.8226 4.58114 12.6274 4.45444 12.4128 4.36833C12.1983 4.28222 11.9684 4.23839 11.7366 4.23935H6.27565C6.04458 4.23872 5.81564 4.28269 5.60191 4.36873C5.38819 4.45478 5.19385 4.58123 5.03 4.74085C4.86616 4.90048 4.73601 5.09015 4.64699 5.29905C4.55797 5.50795 4.51182 5.73198 4.51118 5.95835V11.0293H5.81217V5.53139H12.1968V11.0293H13.5075V5.95835C13.5077 5.7319 13.4618 5.50768 13.3726 5.29879C13.284 5.08925 13.1529 4.89954 12.9871 4.74119ZM98.6557 4.36839C98.3323 4.49741 98.0553 4.71779 97.8601 5.0015C97.6649 5.28521 97.5603 5.6194 97.5596 5.96154V11.0293H98.8606V5.53139H104.759V4.23935H99.3339C99.1013 4.23809 98.8709 4.28195 98.6557 4.36839ZM94.1592 4.23935H86.9468V11.0293H88.2478V9.34696H94.1592C94.3904 9.34759 94.6195 9.30357 94.8333 9.21743C95.0471 9.13128 95.2415 9.00469 95.4054 8.8449C95.5693 8.6851 95.6994 8.49524 95.7883 8.28616C95.8772 8.07707 95.9232 7.85287 95.9236 7.62637V5.95835C95.923 5.73198 95.8769 5.50795 95.7878 5.29905C95.6988 5.09015 95.5687 4.90048 95.4048 4.74085C95.241 4.58123 95.0466 4.45478 94.8329 4.36873C94.6192 4.28269 94.3902 4.23872 94.1592 4.23935ZM88.2397 8.05333V5.53139H94.6243L94.647 8.05333H88.2397ZM114.295 4.74278C113.964 4.41959 113.515 4.23851 113.048 4.23935H107.595C107.364 4.23872 107.135 4.28269 106.921 4.36873C106.708 4.45478 106.513 4.58123 106.35 4.74085C106.186 4.90048 106.056 5.09015 105.966 5.29905C105.877 5.50795 105.831 5.73198 105.831 5.95835V9.30395C105.832 9.52976 105.879 9.75305 105.97 9.96088C106.06 10.1687 106.191 10.357 106.356 10.5147C106.687 10.8384 107.136 11.02 107.603 11.0198H113.056C113.521 11.0179 113.966 10.8364 114.295 10.5147C114.459 10.3565 114.588 10.1682 114.677 9.96069C114.766 9.75317 114.812 9.53053 114.812 9.30554V5.95994C114.813 5.73364 114.767 5.50954 114.678 5.30061C114.59 5.09168 114.459 4.90208 114.295 4.74278ZM107.128 9.73569V5.53139H113.511V9.73569H107.128ZM47.4227 3.60727e-07H4.81529C3.53996 0.000254312 2.31645 0.494471 1.41157 1.37488C0.96459 1.80988 0.609776 2.32714 0.367528 2.89692C0.125281 3.4667 0.000378375 4.07776 0 4.69499L0 10.2805C0.00205399 11.2108 0.285769 12.1195 0.815236 12.8918C1.3447 13.664 2.09612 14.265 2.97439 14.6187C3.55885 14.8545 4.18483 14.9757 4.81692 14.9755H47.4243C48.7007 14.9756 49.9253 14.4814 50.8313 13.6006C51.2778 13.1654 51.6322 12.648 51.8741 12.0783C52.1161 11.5085 52.2408 10.8976 52.2413 10.2805V4.69499C52.2408 4.07791 52.1161 3.46699 51.8741 2.89725C51.6322 2.32751 51.2778 1.81017 50.8313 1.37488C49.9249 0.493746 48.6996 -0.000487427 47.4227 3.60727e-07ZM50.9744 10.2805C50.9738 10.7355 50.8816 11.1858 50.703 11.6057C50.5244 12.0256 50.2629 12.4069 49.9336 12.7276C49.2654 13.3761 48.3633 13.7407 47.4227 13.7424H4.81529C3.87469 13.7407 2.97263 13.3761 2.30438 12.7276C1.64007 12.0793 1.26571 11.1991 1.26359 10.2805V4.69499C1.26571 3.7764 1.64007 2.89622 2.30438 2.24792C2.97303 1.59906 3.87575 1.23445 4.81692 1.23309H47.4243C48.365 1.23487 49.267 1.59945 49.9353 2.24792C50.2646 2.56867 50.526 2.94992 50.7046 3.36984C50.8832 3.78976 50.9754 4.24008 50.9761 4.69499L50.9744 10.2805ZM83.5366 4.23935H78.0822C77.8511 4.23872 77.6222 4.28269 77.4084 4.36873C77.1947 4.45478 77.0004 4.58123 76.8365 4.74085C76.6727 4.90048 76.5425 5.09015 76.4535 5.29905C76.3645 5.50795 76.3184 5.73198 76.3177 5.95835V9.30395C76.319 9.76127 76.5056 10.1994 76.8364 10.522C77.1673 10.8446 77.6154 11.0254 78.0822 11.0245H84.7693V9.71816H77.622V8.33213H85.3011V5.95835C85.3004 5.73198 85.2543 5.50795 85.1652 5.29905C85.0762 5.09015 84.9461 4.90048 84.7822 4.74085C84.6184 4.58123 84.4241 4.45478 84.2103 4.36873C83.9966 4.28269 83.7677 4.23872 83.5366 4.23935ZM84.0033 7.04806H77.6268V5.53139H84.0033V7.04806ZM73.4214 6.93495H67.0368V4.23935H65.7472V11.0293H67.0482V8.22698H73.4328V11.0293H74.7338V4.23935H73.4328L73.4214 6.93495ZM63.6022 4.74119C63.4374 4.58095 63.242 4.45414 63.0271 4.36802C62.8122 4.28191 62.5821 4.23818 62.35 4.23935H55.1295V5.53139H62.8134V6.94132H55.1295V8.22698H62.8134V9.73569H55.1295V11.0293H62.35C62.5818 11.0303 62.8117 10.9864 63.0262 10.9003C63.2408 10.8142 63.436 10.6875 63.6005 10.5275C63.7647 10.3679 63.8951 10.178 63.9841 9.96885C64.0732 9.75969 64.1191 9.53534 64.1193 9.30873V5.96313C64.1208 5.7367 64.0755 5.51233 63.986 5.30357C63.8969 5.09327 63.7665 4.90219 63.6022 4.74119Z" fill="#A5ACC3"/>
</g>
<defs>
<clipPath id="clip0_5226_12248">
<rect width="114.812" height="14.9755" fill="white"/>
</clipPath>
</defs>
</svg>
