<svg width="77" height="18" viewBox="0 0 77 18" fill="none" xmlns="http://www.w3.org/2000/svg">
<path d="M14.9328 16.5246V1.3068H18.633V7.37708H19.2056L22.9499 1.3068H27.1786L22.6415 8.6417V8.85246L27.531 16.5246H23.2141L19.2937 10.2858H18.7211V16.5246H15.0209H14.9328ZM38.2789 13.6581H33.9623L33.3896 16.4825H29.6454L33.1253 1.26465H39.16L42.5962 16.4825H38.852L38.2789 13.6581ZM34.623 10.7073H37.6623L36.2969 4.29979H35.9445L34.579 10.7073H34.623ZM47.5295 4.38409H43.5208V1.26465H55.2824V4.38409H51.2737V16.4825H47.5736V4.38409H47.5295ZM11.541 10.37V13.4895C11.541 15.0492 10.8362 16.4825 8.50156 16.4825H3.08347C1.1453 16.4825 0 15.4708 0 13.4895V4.04685C0 2.02343 1.10122 1.26465 2.8192 1.26465H8.6337C10.8362 1.26465 11.541 2.31851 11.541 4.42625V6.61827H7.88486V4.42625H3.61206V13.363H7.88486V10.37H11.541Z" fill="#A5ACC3"/>
</svg>
