<svg width="105" height="29" viewBox="0 0 105 29" fill="none" xmlns="http://www.w3.org/2000/svg">
<path d="M28.3142 28.8244V0.0796237H35.3301V11.5457H36.4159L43.5154 0.0796237H51.5335L42.9307 13.9344V14.3325L52.2017 28.8244H44.0164L36.5829 17.0399H35.4972V28.8244H28.4813H28.3142ZM72.5808 23.4099H64.396L63.3102 28.7448H56.2108L62.8091 0H74.2515L80.7669 28.7448H73.6675L72.5808 23.4099ZM65.6488 17.8361H71.4117L68.8227 5.73304H68.1546L65.5654 17.8361H65.6488ZM90.1209 5.89228H82.52V0H104.821V5.89228H97.2203V28.7448H90.2045V5.89228H90.1209ZM21.8829 17.1991V23.0914C21.8829 26.0376 20.5465 28.7448 16.1198 28.7448H5.84657C2.17161 28.7448 0 26.8338 0 23.0914V5.25527C0 1.43325 2.08802 0 5.34549 0H16.3704C20.5465 0 21.8829 1.99064 21.8829 5.97191V10.1124H14.9505V5.97191H6.84885V22.8525H14.9505V17.1991H21.8829Z" fill="#A5ACC3"/>
</svg>
