<svg width="60" height="14" viewBox="0 0 60 14" fill="none" xmlns="http://www.w3.org/2000/svg">
<path d="M16.2071 13.9091V0.0384221H20.2231V5.57133H20.8446L24.9083 0.0384221H29.498L24.5737 6.72399V6.91611L29.8804 13.9091H25.1952L20.9402 8.22253H20.3187V13.9091H16.3028H16.2071ZM41.5455 11.2963H36.8605L36.239 13.8707H32.1752L35.9521 0H42.5018L46.2312 13.8707H42.1675L41.5455 11.2963ZM37.5776 8.60675H40.8763L39.3944 2.76645H39.0119L37.5298 8.60675H37.5776ZM51.5855 2.8433H47.2347V0H60V2.8433H55.6492V13.8707H51.6333V2.8433H51.5855ZM12.5259 8.29933V11.1426C12.5259 12.5643 11.7609 13.8707 9.22705 13.8707H3.3466C1.24304 13.8707 0 12.9485 0 11.1426V2.53591C0 0.691608 1.19519 0 3.05978 0H9.37046C11.7609 0 12.5259 0.960573 12.5259 2.88172V4.87969H8.55772V2.88172H3.9203V11.0274H8.55772V8.29933H12.5259Z" fill="#A5ACC3"/>
</svg>
