<svg xmlns="http://www.w3.org/2000/svg" width="600" height="600" viewBox="0 0 600 600" fill="none"><metadata><rdf:RDF xmlns:rdf="http://www.w3.org/1999/02/22-rdf-syntax-ns#" xmlns:dc="http://purl.org/dc/elements/1.1/"><rdf:Description><dc:creator>RealFaviconGenerator</dc:creator><dc:source>https://realfavicongenerator.net</dc:source></rdf:Description></rdf:RDF></metadata><rect width="600" height="600" rx="99" fill="#1F398E"></rect><path d="M93 181H126.462V368.842H128.138L258.131 181H294.944V418.797H261.832V230.915H259.806L130.202 418.797H93.0779L93 181Z" fill="white"></path><path d="M327.796 181H442.325C485.175 181 514.976 199.654 514.976 238.74V250.596C514.976 272.649 501.225 289.643 473.138 293.041V295.294C504.925 296.994 521.676 314.304 521.676 342.719V359.713C521.676 402.87 488.525 418.994 442.675 418.994H327.796V181ZM444 282.568C469.788 282.568 479.838 269.329 479.838 250.952V242.455C479.838 224.473 470.138 211.233 444.311 211.233H361.298V282.371L444 282.568ZM450.7 388.563C476.839 388.563 486.539 373.585 486.539 355.603V345.407C486.539 327.069 476.488 312.446 450.349 312.446H361.298V388.563H450.7Z" fill="white"></path></svg>